<?xml version="1.0" encoding="UTF-8"?>
<svg version="1.1" xmlns="http://www.w3.org/2000/svg" width="100" height="100">
<path d="M0 0 C9.24 0 18.48 0 28 0 C28 1.65 28 3.3 28 5 C30.97 5 33.94 5 37 5 C37 6.32 37 7.64 37 9 C38.32 9 39.64 9 41 9 C41 10.65 41 12.3 41 14 C42.65 14 44.3 14 46 14 C46 15.32 46 16.64 46 18 C47.32 18 48.64 18 50 18 C50 20.97 50 23.94 50 27 C51.65 27 53.3 27 55 27 C55 28.65 55 30.3 55 32 C58.63 32 62.26 32 66 32 C66 33.98 66 35.96 66 38 C67.65 38 69.3 38 71 38 C71 39.65 71 41.3 71 43 C72.98 43 74.96 43 77 43 C77 54.22 77 65.44 77 77 C75.02 77 73.04 77 71 77 C71 78.65 71 80.3 71 82 C69.35 82 67.7 82 66 82 C66 83.98 66 85.96 66 88 C62.37 88 58.74 88 55 88 C55 89.65 55 91.3 55 93 C43.78 93 32.56 93 21 93 C21 91.35 21 89.7 21 88 C17.37 88 13.74 88 10 88 C10 86.02 10 84.04 10 82 C8.35 82 6.7 82 5 82 C5 80.35 5 78.7 5 77 C3.02 77 1.04 77 -1 77 C-1 71.06 -1 65.12 -1 59 C-3.64 59 -6.28 59 -9 59 C-9 57.68 -9 56.36 -9 55 C-10.32 55 -11.64 55 -13 55 C-13 53.35 -13 51.7 -13 50 C-14.65 50 -16.3 50 -18 50 C-18 48.68 -18 47.36 -18 46 C-19.32 46 -20.64 46 -22 46 C-22 36.76 -22 27.52 -22 18 C-20.68 18 -19.36 18 -18 18 C-18 16.68 -18 15.36 -18 14 C-16.35 14 -14.7 14 -13 14 C-13 12.35 -13 10.7 -13 9 C-11.68 9 -10.36 9 -9 9 C-9 7.68 -9 6.36 -9 5 C-6.03 5 -3.06 5 0 5 C0 3.35 0 1.7 0 0 Z " fill="#303030" transform="translate(23,5)"/>
<path d="M0 0 C9.24 0 18.48 0 28 0 C28 1.65 28 3.3 28 5 C30.97 5 33.94 5 37 5 C37 6.32 37 7.64 37 9 C38.32 9 39.64 9 41 9 C41 10.65 41 12.3 41 14 C42.65 14 44.3 14 46 14 C46 19.94 46 25.88 46 32 C45.67 32 45.34 32 45 32 C45 27.71 45 23.42 45 19 C43.68 19 42.36 19 41 19 C41 21.64 41 24.28 41 27 C39.68 27.33 38.36 27.66 37 28 C36.67 29.32 36.34 30.64 36 32 C33.03 32 30.06 32 27 32 C27 33.32 27 34.64 27 36 C24.36 36 21.72 36 19 36 C19 33.03 19 30.06 19 27 C20.32 27 21.64 27 23 27 C23 25.68 23 24.36 23 23 C20.03 23 17.06 23 14 23 C14 27.29 14 31.58 14 36 C9.71 36 5.42 36 1 36 C1 34.68 1 33.36 1 32 C-1.97 32 -4.94 32 -8 32 C-8.33 30.68 -8.66 29.36 -9 28 C-10.32 27.67 -11.64 27.34 -13 27 C-13 24.36 -13 21.72 -13 19 C-14.32 19 -15.64 19 -17 19 C-17 26.26 -17 33.52 -17 41 C-15.68 41 -14.36 41 -13 41 C-13 42.65 -13 44.3 -13 46 C-11.68 46 -10.36 46 -9 46 C-9 47.32 -9 48.64 -9 50 C-6.03 50 -3.06 50 0 50 C0.33 51.32 0.66 52.64 1 54 C2.32 54.33 3.64 54.66 5 55 C5 56.32 5 57.64 5 59 C10.94 59 16.88 59 23 59 C23 57.68 23 56.36 23 55 C27.29 55 31.58 55 36 55 C36 56.32 36 57.64 36 59 C33.36 59 30.72 59 28 59 C27.67 60.65 27.34 62.3 27 64 C24.45826023 64.02716824 21.91681585 64.04691969 19.375 64.0625 C18.30572266 64.07506836 18.30572266 64.07506836 17.21484375 64.08789062 C13.02655562 64.10710296 9.1271538 63.8267327 5 63 C5 63.99 5 64.98 5 66 C6.65 66 8.3 66 10 66 C10.495 73.92 10.495 73.92 11 82 C14.3 82 17.6 82 21 82 C21 83.98 21 85.96 21 88 C17.37 88 13.74 88 10 88 C10 86.02 10 84.04 10 82 C8.35 82 6.7 82 5 82 C5 80.35 5 78.7 5 77 C3.02 77 1.04 77 -1 77 C-1 71.06 -1 65.12 -1 59 C-3.64 59 -6.28 59 -9 59 C-9 57.68 -9 56.36 -9 55 C-10.32 55 -11.64 55 -13 55 C-13 53.35 -13 51.7 -13 50 C-14.65 50 -16.3 50 -18 50 C-18 48.68 -18 47.36 -18 46 C-19.32 46 -20.64 46 -22 46 C-22 36.76 -22 27.52 -22 18 C-20.68 18 -19.36 18 -18 18 C-18 16.68 -18 15.36 -18 14 C-16.35 14 -14.7 14 -13 14 C-13 12.35 -13 10.7 -13 9 C-11.68 9 -10.36 9 -9 9 C-9 7.68 -9 6.36 -9 5 C-6.03 5 -3.06 5 0 5 C0 3.35 0 1.7 0 0 Z " fill="#495252" transform="translate(23,5)"/>
<path d="M0 0 C1.32 0 2.64 0 4 0 C4 2.64 4 5.28 4 8 C5.65 8.33 7.3 8.66 9 9 C9 10.32 9 11.64 9 13 C11.97 13 14.94 13 18 13 C18 14.32 18 15.64 18 17 C22.29 17 26.58 17 31 17 C31 12.71 31 8.42 31 4 C33.97 4 36.94 4 40 4 C40 5.32 40 6.64 40 8 C38.68 8 37.36 8 36 8 C36 10.97 36 13.94 36 17 C38.64 17 41.28 17 44 17 C44 15.68 44 14.36 44 13 C46.97 13 49.94 13 53 13 C53.33 11.35 53.66 9.7 54 8 C55.32 8 56.64 8 58 8 C58 5.36 58 2.72 58 0 C59.32 0 60.64 0 62 0 C62 4.29 62 8.58 62 13 C60.68 13 59.36 13 58 13 C58 14.65 58 16.3 58 18 C56.35 18 54.7 18 53 18 C53 19.32 53 20.64 53 22 C54.65 22 56.3 22 58 22 C58 23.65 58 25.3 58 27 C56.68 27 55.36 27 54 27 C54 28.32 54 29.64 54 31 C51.03 31 48.06 31 45 31 C45 29.68 45 28.36 45 27 C36.09 27 27.18 27 18 27 C18 28.32 18 29.64 18 31 C23.61 31 29.22 31 35 31 C35 32.32 35 33.64 35 35 C29.06 35 23.12 35 17 35 C17 33.68 17 32.36 17 31 C14.03 31 11.06 31 8 31 C8 29.68 8 28.36 8 27 C6.68 27 5.36 27 4 27 C4 25.35 4 23.7 4 22 C2.68 22 1.36 22 0 22 C0 14.74 0 7.48 0 0 Z " fill="#565B5A" transform="translate(6,24)"/>
<path d="M0 0 C8.58 0 17.16 0 26 0 C26.495 1.98 26.495 1.98 27 4 C28.32 4.33 29.64 4.66 31 5 C31 6.32 31 7.64 31 9 C33.97 9 36.94 9 40 9 C40 10.32 40 11.64 40 13 C38.68 13.33 37.36 13.66 36 14 C35.67 15.32 35.34 16.64 35 18 C32.03 18 29.06 18 26 18 C26 19.32 26 20.64 26 22 C23.36 22 20.72 22 18 22 C18 19.03 18 16.06 18 13 C19.32 13 20.64 13 22 13 C22 11.68 22 10.36 22 9 C19.03 9 16.06 9 13 9 C13 13.29 13 17.58 13 22 C8.71 22 4.42 22 0 22 C0 20.68 0 19.36 0 18 C-2.97 18 -5.94 18 -9 18 C-9.33 16.68 -9.66 15.36 -10 14 C-11.32 13.67 -12.64 13.34 -14 13 C-14 11.68 -14 10.36 -14 9 C-11.03 9 -8.06 9 -5 9 C-5 7.68 -5 6.36 -5 5 C-3.68 4.67 -2.36 4.34 -1 4 C-0.67 2.68 -0.34 1.36 0 0 Z " fill="#0A1A19" transform="translate(24,19)"/>
<path d="M0 0 C1.65 0 3.3 0 5 0 C5 2.97 5 5.94 5 9 C6.32 9 7.64 9 9 9 C9 10.65 9 12.3 9 14 C10.32 14 11.64 14 13 14 C13 15.32 13 16.64 13 18 C15.97 18 18.94 18 22 18 C22.33 19.32 22.66 20.64 23 22 C24.32 22.33 25.64 22.66 27 23 C27 24.32 27 25.64 27 27 C32.94 27 38.88 27 45 27 C45 25.68 45 24.36 45 23 C49.29 23 53.58 23 58 23 C58 24.32 58 25.64 58 27 C55.36 27 52.72 27 50 27 C49.505 29.475 49.505 29.475 49 32 C46.45826023 32.02716824 43.91681585 32.04691969 41.375 32.0625 C40.30572266 32.07506836 40.30572266 32.07506836 39.21484375 32.08789062 C35.02655562 32.10710296 31.1271538 31.8267327 27 31 C27 31.99 27 32.98 27 34 C28.65 34 30.3 34 32 34 C32.495 41.92 32.495 41.92 33 50 C36.3 50 39.6 50 43 50 C43 51.98 43 53.96 43 56 C39.37 56 35.74 56 32 56 C32 54.02 32 52.04 32 50 C30.35 50 28.7 50 27 50 C27 48.35 27 46.7 27 45 C25.02 45 23.04 45 21 45 C21 39.06 21 33.12 21 27 C18.36 27 15.72 27 13 27 C13 25.68 13 24.36 13 23 C11.68 23 10.36 23 9 23 C9 21.35 9 19.7 9 18 C7.35 18 5.7 18 4 18 C4 16.68 4 15.36 4 14 C2.68 14 1.36 14 0 14 C0 9.38 0 4.76 0 0 Z " fill="#141616" transform="translate(1,37)"/>
<path d="M0 0 C2.64624284 0.14021805 5.29184578 0.28689776 7.9375 0.4375 C9.06961914 0.49647461 9.06961914 0.49647461 10.22460938 0.55664062 C15.88671875 0.88671875 15.88671875 0.88671875 17 2 C17 3.65 17 5.3 17 7 C25.91 7 34.82 7 44 7 C44 12.28 44 17.56 44 23 C40.37 23 36.74 23 33 23 C33 19.7 33 16.4 33 13 C31.35 13 29.7 13 28 13 C28 16.3 28 19.6 28 23 C24.37 23 20.74 23 17 23 C17 21.35 17 19.7 17 18 C13.37 18 9.74 18 6 18 C4.87137825 12.63904667 4.90311779 7.44693314 5 2 C3.35 2 1.7 2 0 2 C0 1.34 0 0.68 0 0 Z " fill="#CFCFCF" transform="translate(28,69)"/>
<path d="M0 0 C8.91 0 17.82 0 27 0 C27 1.32 27 2.64 27 4 C29.97 4 32.94 4 36 4 C36 5.32 36 6.64 36 8 C37.32 8 38.64 8 40 8 C40 6.68 40 5.36 40 4 C40.66 4 41.32 4 42 4 C42 5.32 42 6.64 42 8 C43.98 8.33 45.96 8.66 48 9 C48 10.65 48 12.3 48 14 C46.02 14 44.04 14 42 14 C42 12.35 42 10.7 42 9 C40.35 9 38.7 9 37 9 C37 14.28 37 19.56 37 25 C31.72 25 26.44 25 21 25 C20.505 22.525 20.505 22.525 20 20 C14.72 19.34 9.44 18.68 4 18 C4 17.67 4 17.34 4 17 C11.26 17 18.52 17 26 17 C26.33 15.68 26.66 14.36 27 13 C29.64 13 32.28 13 35 13 C35 11.68 35 10.36 35 9 C30.71 9 26.42 9 22 9 C22 10.32 22 11.64 22 13 C16.06 13 10.12 13 4 13 C4 11.68 4 10.36 4 9 C2.68 8.67 1.36 8.34 0 8 C5.61 8 11.22 8 17 8 C17 6.68 17 5.36 17 4 C11.39 4 5.78 4 0 4 C0 2.68 0 1.36 0 0 Z " fill="#323232" transform="translate(24,51)"/>
<path d="M0 0 C1.98 0 3.96 0 6 0 C6 1.98 6 3.96 6 6 C4.35 6 2.7 6 1 6 C1 7.65 1 9.3 1 11 C-0.98 11 -2.96 11 -5 11 C-5 14.63 -5 18.26 -5 22 C-6.65 22 -8.3 22 -10 22 C-10 25.63 -10 29.26 -10 33 C-21.22 33 -32.44 33 -44 33 C-44 29.37 -44 25.74 -44 22 C-43.67 22 -43.34 22 -43 22 C-43 23.65 -43 25.3 -43 27 C-39.37 27 -35.74 27 -32 27 C-32 23.7 -32 20.4 -32 17 C-30.35 17 -28.7 17 -27 17 C-27 20.3 -27 23.6 -27 27 C-23.37 27 -19.74 27 -16 27 C-16 21.72 -16 16.44 -16 11 C-14.35 11 -12.7 11 -11 11 C-11.020625 10.195625 -11.04125 9.39125 -11.0625 8.5625 C-11 6 -11 6 -10 5 C-8.31391034 4.92794489 -6.62499341 4.91613932 -4.9375 4.9375 C-4.01839844 4.94652344 -3.09929687 4.95554687 -2.15234375 4.96484375 C-1.44207031 4.97644531 -0.73179688 4.98804687 0 5 C0 3.35 0 1.7 0 0 Z " fill="#5C5C5C" transform="translate(88,65)"/>
<path d="M0 0 C2.97 0 5.94 0 9 0 C9 1.32 9 2.64 9 4 C7.68 4 6.36 4 5 4 C5 5.65 5 7.3 5 9 C6.65 9 8.3 9 10 9 C9.67 10.65 9.34 12.3 9 14 C7.68 14 6.36 14 5 14 C5 15.32 5 16.64 5 18 C2.03 18 -0.94 18 -4 18 C-4 16.68 -4 15.36 -4 14 C-5.32 14 -6.64 14 -8 14 C-8 18.29 -8 22.58 -8 27 C-9.65 27 -11.3 27 -13 27 C-13 22.38 -13 17.76 -13 13 C-11.68 13 -10.36 13 -9 13 C-9 11.68 -9 10.36 -9 9 C-7.35 9 -5.7 9 -4 9 C-4 7.35 -4 5.7 -4 4 C-2.68 4 -1.36 4 0 4 C0 2.68 0 1.36 0 0 Z " fill="#465151" transform="translate(14,10)"/>
<path d="M0 0 C8.91 0 17.82 0 27 0 C27 2.97 27 5.94 27 9 C25.35 9 23.7 9 22 9 C22 10.32 22 11.64 22 13 C16.06 13 10.12 13 4 13 C4 11.68 4 10.36 4 9 C2.68 8.67 1.36 8.34 0 8 C5.61 8 11.22 8 17 8 C17 6.68 17 5.36 17 4 C11.39 4 5.78 4 0 4 C0 2.68 0 1.36 0 0 Z " fill="#535B5C" transform="translate(24,51)"/>
<path d="M0 0 C1.32 0 2.64 0 4 0 C4 2.64 4 5.28 4 8 C5.65 8.33 7.3 8.66 9 9 C9 10.32 9 11.64 9 13 C11.64 13 14.28 13 17 13 C17 14.65 17 16.3 17 18 C15.68 18 14.36 18 13 18 C13 19.32 13 20.64 13 22 C14.32 22 15.64 22 17 22 C17 23.32 17 24.64 17 26 C14.36 26 11.72 26 9 26 C9 24.68 9 23.36 9 22 C6.03 22 3.06 22 0 22 C0 14.74 0 7.48 0 0 Z " fill="#626161" transform="translate(6,24)"/>
<path d="M0 0 C5.28 0 10.56 0 16 0 C16 1.98 16 3.96 16 6 C17.65 6 19.3 6 21 6 C21 9.63 21 13.26 21 17 C19.02 17 17.04 17 15 17 C15 15.35 15 13.7 15 12 C11.37 12 7.74 12 4 12 C4 10.02 4 8.04 4 6 C2.68 6 1.36 6 0 6 C0 4.02 0 2.04 0 0 Z " fill="#454545" transform="translate(73,37)"/>
<path d="M0 0 C1.65 0 3.3 0 5 0 C5 1.32 5 2.64 5 4 C7.97 4 10.94 4 14 4 C14 2.68 14 1.36 14 0 C19.94 0 25.88 0 32 0 C32 1.32 32 2.64 32 4 C25.93303301 4.77040851 20.11485027 5.09706112 14 5 C14 6.32 14 7.64 14 9 C19.61 9 25.22 9 31 9 C31 10.32 31 11.64 31 13 C25.06 13 19.12 13 13 13 C13 11.68 13 10.36 13 9 C10.03 9 7.06 9 4 9 C4 7.68 4 6.36 4 5 C2.68 5 1.36 5 0 5 C0 3.35 0 1.7 0 0 Z " fill="#729A9D" transform="translate(10,46)"/>
<path d="M0 0 C1.65 0 3.3 0 5 0 C5 5.28 5 10.56 5 16 C3.35 16 1.7 16 0 16 C0 17.98 0 19.96 0 22 C-3.63 22 -7.26 22 -11 22 C-11 20.02 -11 18.04 -11 16 C-9.35 16 -7.7 16 -6 16 C-6 12.37 -6 8.74 -6 5 C-4.02 5 -2.04 5 0 5 C0 3.35 0 1.7 0 0 Z " fill="#4C4A4A" transform="translate(89,71)"/>
<path d="M0 0 C1.98 0 3.96 0 6 0 C6 11.22 6 22.44 6 34 C4.02 34 2.04 34 0 34 C0 22.78 0 11.56 0 0 Z " fill="#181717" transform="translate(94,48)"/>
<path d="M0 0 C1.65 0 3.3 0 5 0 C5 2.97 5 5.94 5 9 C6.32 9 7.64 9 9 9 C9 10.65 9 12.3 9 14 C10.32 14 11.64 14 13 14 C13 15.32 13 16.64 13 18 C15.97 18 18.94 18 22 18 C22.33 19.65 22.66 21.3 23 23 C18.38 23 13.76 23 9 23 C9 21.35 9 19.7 9 18 C7.35 18 5.7 18 4 18 C4 16.68 4 15.36 4 14 C2.68 14 1.36 14 0 14 C0 9.38 0 4.76 0 0 Z " fill="#151B1A" transform="translate(1,37)"/>
<path d="M0 0 C11.22 0 22.44 0 34 0 C34 1.65 34 3.3 34 5 C22.78 5 11.56 5 0 5 C0 3.35 0 1.7 0 0 Z " fill="#181717" transform="translate(44,93)"/>
<path d="M0 0 C6.27 0 12.54 0 19 0 C19 1.32 19 2.64 19 4 C17.35 4 15.7 4 14 4 C14 5.65 14 7.3 14 9 C8.06 9 2.12 9 -4 9 C-4 7.35 -4 5.7 -4 4 C-2.68 4 -1.36 4 0 4 C0 2.68 0 1.36 0 0 Z " fill="#127B84" transform="translate(23,10)"/>
<path d="M0 0 C1.65 0 3.3 0 5 0 C5.33 5.28 5.66 10.56 6 16 C9.3 16 12.6 16 16 16 C16 17.98 16 19.96 16 22 C12.37 22 8.74 22 5 22 C5 20.02 5 18.04 5 16 C3.35 16 1.7 16 0 16 C0 10.72 0 5.44 0 0 Z " fill="#7A7A7A" transform="translate(28,71)"/>
<path d="M0 0 C9.24 0 18.48 0 28 0 C28 1.65 28 3.3 28 5 C18.76 5 9.52 5 0 5 C0 3.35 0 1.7 0 0 Z " fill="#212E2B" transform="translate(23,5)"/>
<path d="M0 0 C1.32 0 2.64 0 4 0 C4 2.97 4 5.94 4 9 C5.65 9 7.3 9 9 9 C9 10.65 9 12.3 9 14 C7.35 14 5.7 14 4 14 C4 18.29 4 22.58 4 27 C2.68 27 1.36 27 0 27 C0 18.09 0 9.18 0 0 Z " fill="#212E2B" transform="translate(69,23)"/>
<path d="M0 0 C1.32 0 2.64 0 4 0 C4 4.29 4 8.58 4 13 C2.68 13 1.36 13 0 13 C0 14.32 0 15.64 0 17 C-2.97 17 -5.94 17 -9 17 C-9 15.68 -9 14.36 -9 13 C-7.68 13 -6.36 13 -5 13 C-4.67 11.35 -4.34 9.7 -4 8 C-2.68 8 -1.36 8 0 8 C0 5.36 0 2.72 0 0 Z " fill="#909090" transform="translate(64,24)"/>
<path d="M0 0 C1.32 0 2.64 0 4 0 C4 2.64 4 5.28 4 8 C5.65 8.33 7.3 8.66 9 9 C9 10.32 9 11.64 9 13 C10.32 13 11.64 13 13 13 C13 14.32 13 15.64 13 17 C10.03 17 7.06 17 4 17 C4 15.68 4 14.36 4 13 C2.68 13 1.36 13 0 13 C0 8.71 0 4.42 0 0 Z " fill="#929292" transform="translate(6,24)"/>
<path d="M0 0 C3.63 0 7.26 0 11 0 C11 3.3 11 6.6 11 10 C7.37 10 3.74 10 0 10 C0 6.7 0 3.4 0 0 Z " fill="#A8A8A8" transform="translate(61,82)"/>
<path d="M0 0 C1.98 0 3.96 0 6 0 C6 1.98 6 3.96 6 6 C4.35 6 2.7 6 1 6 C1 7.65 1 9.3 1 11 C-2.63 11 -6.26 11 -10 11 C-10 9.02 -10 7.04 -10 5 C-6.7 5 -3.4 5 0 5 C0 3.35 0 1.7 0 0 Z " fill="#605F5F" transform="translate(88,65)"/>
<path d="M0 0 C3.63 0 7.26 0 11 0 C11 1.98 11 3.96 11 6 C12.65 6 14.3 6 16 6 C16 7.65 16 9.3 16 11 C14.35 11 12.7 11 11 11 C10.67 9.68 10.34 8.36 10 7 C6.7 6.67 3.4 6.34 0 6 C0 4.02 0 2.04 0 0 Z " fill="#353535" transform="translate(78,37)"/>
<path d="M0 0 C1.65 0 3.3 0 5 0 C5.85298376 3.67387495 6.10789471 7.0447393 6.0625 10.8125 C6.05347656 11.78832031 6.04445313 12.76414062 6.03515625 13.76953125 C6.02355469 14.50558594 6.01195313 15.24164063 6 16 C4.02 16 2.04 16 0 16 C0 10.72 0 5.44 0 0 Z " fill="#FF1414" transform="translate(61,60)"/>
<path d="M0 0 C5.94 0 11.88 0 18 0 C18 1.32 18 2.64 18 4 C12.10985609 5.52003714 5.85927818 5.67407948 0 4 C0 2.68 0 1.36 0 0 Z " fill="#B9C3C3" transform="translate(24,10)"/>
<path d="M0 0 C2.97 0 5.94 0 9 0 C9 1.65 9 3.3 9 5 C10.65 5 12.3 5 14 5 C14 6.32 14 7.64 14 9 C11.03 9 8.06 9 5 9 C5 7.68 5 6.36 5 5 C3.35 4.67 1.7 4.34 0 4 C0 2.68 0 1.36 0 0 Z " fill="#20494C" transform="translate(50,19)"/>
<path d="M0 0 C1.65 0 3.3 0 5 0 C5 1.32 5 2.64 5 4 C3.68 4 2.36 4 1 4 C1 5.65 1 7.3 1 9 C-4.94 9 -10.88 9 -17 9 C-17 8.67 -17 8.34 -17 8 C-14.03 8 -11.06 8 -8 8 C-8 6.68 -8 5.36 -8 4 C-5.36 4 -2.72 4 0 4 C0 2.68 0 1.36 0 0 Z " fill="#777878" transform="translate(50,42)"/>
<path d="M0 0 C5.94 0 11.88 0 18 0 C18 1.32 18 2.64 18 4 C12.06 4 6.12 4 0 4 C0 2.68 0 1.36 0 0 Z " fill="#474444" transform="translate(28,60)"/>
<path d="M0 0 C1.65 0 3.3 0 5 0 C5 1.65 5 3.3 5 5 C3.68 5 2.36 5 1 5 C1 6.32 1 7.64 1 9 C-1.97 9 -4.94 9 -8 9 C-8 7.35 -8 5.7 -8 4 C-5.36 4 -2.72 4 0 4 C0 2.68 0 1.36 0 0 Z " fill="#1D767D" transform="translate(59,46)"/>
<path d="M0 0 C5.61 0 11.22 0 17 0 C17 1.32 17 2.64 17 4 C11.39 4 5.78 4 0 4 C0 2.68 0 1.36 0 0 Z " fill="#29DFEB" transform="translate(24,55)"/>
<path d="M0 0 C3.63 0 7.26 0 11 0 C11 1.98 11 3.96 11 6 C7.37 6 3.74 6 0 6 C0 4.02 0 2.04 0 0 Z " fill="#181717" transform="translate(78,87)"/>
<path d="M0 0 C3.63 0 7.26 0 11 0 C11 1.98 11 3.96 11 6 C7.37 6 3.74 6 0 6 C0 4.02 0 2.04 0 0 Z " fill="#181717" transform="translate(33,87)"/>
<path d="M0 0 C3.3 0 6.6 0 10 0 C10 5.94 10 11.88 10 18 C9.67 18 9.34 18 9 18 C9 13.71 9 9.42 9 5 C6.03 5 3.06 5 0 5 C0 3.35 0 1.7 0 0 Z " fill="#6C6F6E" transform="translate(59,19)"/>
<path d="M0 0 C4.62 0 9.24 0 14 0 C14 1.32 14 2.64 14 4 C9.38 4.33 4.76 4.66 0 5 C0 3.35 0 1.7 0 0 Z " fill="#C0C0C0" transform="translate(28,46)"/>
<path d="M0 0 C3.3 0 6.6 0 10 0 C10 1.98 10 3.96 10 6 C6.7 6 3.4 6 0 6 C0 4.02 0 2.04 0 0 Z " fill="#FBFBFB" transform="translate(45,76)"/>
<path d="M0 0 C4.29 0 8.58 0 13 0 C13 1.32 13 2.64 13 4 C10.36 4 7.72 4 5 4 C4.67 5.32 4.34 6.64 4 8 C4 6.68 4 5.36 4 4 C2.68 4 1.36 4 0 4 C0 2.68 0 1.36 0 0 Z " fill="#757575" transform="translate(19,42)"/>
<path d="M0 0 C1.32 0 2.64 0 4 0 C4 2.97 4 5.94 4 9 C1.03 9 -1.94 9 -5 9 C-5 7.68 -5 6.36 -5 5 C-3.35 5 -1.7 5 0 5 C0 3.35 0 1.7 0 0 Z " fill="#2B4B4D" transform="translate(64,37)"/>
<path d="M0 0 C1.32 0 2.64 0 4 0 C4 1.65 4 3.3 4 5 C5.65 5 7.3 5 9 5 C9 6.32 9 7.64 9 9 C6.03 9 3.06 9 0 9 C0 6.03 0 3.06 0 0 Z " fill="#2B4B4D" transform="translate(6,37)"/>
<path d="M0 0 C1.32 0 2.64 0 4 0 C4 4.62 4 9.24 4 14 C2.68 14 1.36 14 0 14 C0 9.38 0 4.76 0 0 Z " fill="#0D0D0D" transform="translate(1,37)"/>
<path d="M0 0 C1.32 0 2.64 0 4 0 C4 4.62 4 9.24 4 14 C2.68 14 1.36 14 0 14 C0 9.38 0 4.76 0 0 Z " fill="#212E2B" transform="translate(1,23)"/>
<path d="M0 0 C2.97 0 5.94 0 9 0 C9 1.32 9 2.64 9 4 C3.11599345 4.85695967 -2.55909292 5.12539234 -8.5 5.0625 C-9.32242187 5.05798828 -10.14484375 5.05347656 -10.9921875 5.04882812 C-12.99482396 5.03718489 -14.99742227 5.01925556 -17 5 C-17 4.67 -17 4.34 -17 4 C-11.39 4 -5.78 4 0 4 C0 2.68 0 1.36 0 0 Z " fill="#1E919A" transform="translate(41,55)"/>
<path d="M0 0 C1.32 0 2.64 0 4 0 C4 4.29 4 8.58 4 13 C2.68 13 1.36 13 0 13 C0 8.71 0 4.42 0 0 Z " fill="#0D0D0D" transform="translate(69,37)"/>
<path d="M0 0 C1.32 0 2.64 0 4 0 C4 4.29 4 8.58 4 13 C2.68 13 1.36 13 0 13 C0 8.71 0 4.42 0 0 Z " fill="#22D3DF" transform="translate(37,28)"/>
<path d="M0 0 C4.29 0 8.58 0 13 0 C13 1.32 13 2.64 13 4 C8.71 4 4.42 4 0 4 C0 2.68 0 1.36 0 0 Z " fill="#105257" transform="translate(37,15)"/>
<path d="M0 0 C1.65 0 3.3 0 5 0 C5 3.3 5 6.6 5 10 C3.35 10 1.7 10 0 10 C0 6.7 0 3.4 0 0 Z " fill="#828282" transform="translate(56,82)"/>
<path d="M0 0 C3.3 0 6.6 0 10 0 C10 1.65 10 3.3 10 5 C6.7 5 3.4 5 0 5 C0 3.35 0 1.7 0 0 Z " fill="#828282" transform="translate(78,71)"/>
<path d="M0 0 C3.3 0 6.6 0 10 0 C10 1.65 10 3.3 10 5 C6.7 5 3.4 5 0 5 C0 3.35 0 1.7 0 0 Z " fill="#FFFFFF" transform="translate(34,71)"/>
<path d="M0 0 C3.3 0 6.6 0 10 0 C10 1.65 10 3.3 10 5 C6.7 5 3.4 5 0 5 C0 3.35 0 1.7 0 0 Z " fill="#5E5E5E" transform="translate(78,43)"/>
<path d="M0 0 C2.64 0 5.28 0 8 0 C8 1.32 8 2.64 8 4 C6.68 4 5.36 4 4 4 C4 5.32 4 6.64 4 8 C2.68 8 1.36 8 0 8 C0 5.36 0 2.72 0 0 Z " fill="#131817" transform="translate(60,51)"/>
<path d="M0 0 C1.98 0 3.96 0 6 0 C6 1.98 6 3.96 6 6 C4.35 6 2.7 6 1 6 C1 9.3 1 12.6 1 16 C0.67 16 0.34 16 0 16 C0 10.72 0 5.44 0 0 Z " fill="#ACACAC" transform="translate(55,76)"/>
<path d="M0 0 C2.97 0 5.94 0 9 0 C9.33 1.65 9.66 3.3 10 5 C6.7 5 3.4 5 0 5 C0 3.35 0 1.7 0 0 Z " fill="#2D3231" transform="translate(14,55)"/>
<path d="M0 0 C0.66 0 1.32 0 2 0 C2 1.32 2 2.64 2 4 C4.97 4.495 4.97 4.495 8 5 C8 6.65 8 8.3 8 10 C6.02 10 4.04 10 2 10 C2 8.35 2 6.7 2 5 C1.34 5 0.68 5 0 5 C0 3.35 0 1.7 0 0 Z " fill="#624C4C" transform="translate(64,55)"/>
<path d="M0 0 C0.33 0 0.66 0 1 0 C1 4.29 1 8.58 1 13 C2.32 13.33 3.64 13.66 5 14 C3.68 14 2.36 14 1 14 C0.67 15.32 0.34 16.64 0 18 C0 16.68 0 15.36 0 14 C-1.32 14 -2.64 14 -4 14 C-4 12.35 -4 10.7 -4 9 C-2.68 9 -1.36 9 0 9 C0 6.03 0 3.06 0 0 Z " fill="#1D2725" transform="translate(68,37)"/>
<path d="M0 0 C0.33 0 0.66 0 1 0 C1 3.63 1 7.26 1 11 C-0.98 11 -2.96 11 -5 11 C-5 9.02 -5 7.04 -5 5 C-3.35 5 -1.7 5 0 5 C0 3.35 0 1.7 0 0 Z " fill="#B31818" transform="translate(66,65)"/>
<path d="M0 0 C1.65 0 3.3 0 5 0 C5 1.32 5 2.64 5 4 C3.68 4.33 2.36 4.66 1 5 C0.67 6.32 0.34 7.64 0 9 C-1.32 9 -2.64 9 -4 9 C-4 7.35 -4 5.7 -4 4 C-2.68 4 -1.36 4 0 4 C0 2.68 0 1.36 0 0 Z " fill="#1F2C29" transform="translate(59,28)"/>
<path d="M0 0 C1.65 0 3.3 0 5 0 C5 1.32 5 2.64 5 4 C6.32 4 7.64 4 9 4 C9 5.65 9 7.3 9 9 C7.68 9 6.36 9 5 9 C4.67 7.68 4.34 6.36 4 5 C2.68 4.67 1.36 4.34 0 4 C0 2.68 0 1.36 0 0 Z " fill="#1F2C29" transform="translate(10,28)"/>
<path d="M0 0 C0.33 1.32 0.66 2.64 1 4 C2.32 4 3.64 4 5 4 C5 5.32 5 6.64 5 8 C2.03 8 -0.94 8 -4 8 C-4 6.68 -4 5.36 -4 4 C-2.68 4 -1.36 4 0 4 C0 2.68 0 1.36 0 0 Z " fill="#7F7F7F" transform="translate(59,33)"/>
<path d="M0 0 C0.33 1.32 0.66 2.64 1 4 C2.32 4 3.64 4 5 4 C5 5.32 5 6.64 5 8 C2.03 8 -0.94 8 -4 8 C-4 6.68 -4 5.36 -4 4 C-2.68 4 -1.36 4 0 4 C0 2.68 0 1.36 0 0 Z " fill="#7F7F7F" transform="translate(14,33)"/>
<path d="M0 0 C2.97 0 5.94 0 9 0 C9 1.32 9 2.64 9 4 C6.03 4 3.06 4 0 4 C0 2.68 0 1.36 0 0 Z " fill="#0D0D0D" transform="translate(14,60)"/>
<path d="M0 0 C2.97 0 5.94 0 9 0 C9 1.32 9 2.64 9 4 C6.03 4 3.06 4 0 4 C0 2.68 0 1.36 0 0 Z " fill="#212E2B" transform="translate(51,10)"/>
<path d="M0 0 C2.97 0 5.94 0 9 0 C9 1.32 9 2.64 9 4 C6.03 4 3.06 4 0 4 C0 2.68 0 1.36 0 0 Z " fill="#212E2B" transform="translate(14,10)"/>
<path d="M0 0 C0.33 0 0.66 0 1 0 C1 2.97 1 5.94 1 9 C2.32 9 3.64 9 5 9 C5 10.65 5 12.3 5 14 C3.35 14 1.7 14 0 14 C0 9.38 0 4.76 0 0 Z " fill="#1D2827" transform="translate(5,37)"/>
<path d="M0 0 C0.33 1.32 0.66 2.64 1 4 C2.32 4.33 3.64 4.66 5 5 C3.68 5 2.36 5 1 5 C1 6.32 1 7.64 1 9 C-0.65 9 -2.3 9 -4 9 C-4 7.35 -4 5.7 -4 4 C-2.68 4 -1.36 4 0 4 C0 2.68 0 1.36 0 0 Z " fill="#6B7575" transform="translate(23,10)"/>
<path d="M0 0 C2.64 0 5.28 0 8 0 C8 1.32 8 2.64 8 4 C5.36 4 2.72 4 0 4 C0 2.68 0 1.36 0 0 Z " fill="#0D0D0D" transform="translate(51,60)"/>
<path d="M0 0 C2.64 0 5.28 0 8 0 C8 1.32 8 2.64 8 4 C5.36 4 2.72 4 0 4 C0 2.68 0 1.36 0 0 Z " fill="#343937" transform="translate(51,55)"/>
<path d="M0 0 C2.64 0 5.28 0 8 0 C8 1.32 8 2.64 8 4 C5.36 4 2.72 4 0 4 C0 2.68 0 1.36 0 0 Z " fill="#138E99" transform="translate(51,51)"/>
<path d="M0 0 C2.64 0 5.28 0 8 0 C8 1.32 8 2.64 8 4 C5.36 4 2.72 4 0 4 C0 2.68 0 1.36 0 0 Z " fill="#29DFEB" transform="translate(15,51)"/>
<path d="M0 0 C2.64 0 5.28 0 8 0 C8 1.32 8 2.64 8 4 C5.36 4 2.72 4 0 4 C0 2.68 0 1.36 0 0 Z " fill="#474444" transform="translate(51,46)"/>
<path d="M0 0 C2.64 0 5.28 0 8 0 C8 1.32 8 2.64 8 4 C5.36 4 2.72 4 0 4 C0 2.68 0 1.36 0 0 Z " fill="#828282" transform="translate(42,46)"/>
<path d="M0 0 C2.64 0 5.28 0 8 0 C8 1.32 8 2.64 8 4 C5.36 4 2.72 4 0 4 C0 2.68 0 1.36 0 0 Z " fill="#474444" transform="translate(15,46)"/>
<path d="M0 0 C1.32 0 2.64 0 4 0 C4 2.64 4 5.28 4 8 C2.68 8 1.36 8 0 8 C0 5.36 0 2.72 0 0 Z " fill="#A8A8A8" transform="translate(64,24)"/>
<path d="M0 0 C2.64 0 5.28 0 8 0 C8 1.32 8 2.64 8 4 C5.36 4 2.72 4 0 4 C0 2.68 0 1.36 0 0 Z " fill="#5E5E5E" transform="translate(51,15)"/>
<path d="M0 0 C1.65 0 3.3 0 5 0 C5 1.98 5 3.96 5 6 C3.35 6 1.7 6 0 6 C0 4.02 0 2.04 0 0 Z " fill="#7F7F7F" transform="translate(72,76)"/>
<path d="M0 0 C1.65 0 3.3 0 5 0 C5 2.97 5 5.94 5 9 C4.67 7.68 4.34 6.36 4 5 C2.68 5 1.36 5 0 5 C0 3.35 0 1.7 0 0 Z " fill="#1A8088" transform="translate(10,46)"/>
<path d="M0 0 C4.29 0 8.58 0 13 0 C13 0.33 13 0.66 13 1 C11.35 1 9.7 1 8 1 C8 2.32 8 3.64 8 5 C6.68 5 5.36 5 4 5 C4 3.68 4 2.36 4 1 C2.68 0.67 1.36 0.34 0 0 Z " fill="#646464" transform="translate(51,41)"/>
<path d="M0 0 C1.65 0 3.3 0 5 0 C5 1.32 5 2.64 5 4 C2.00519083 4.8723412 -0.63575911 5.10829766 -3.75 5.0625 C-4.54921875 5.05347656 -5.3484375 5.04445313 -6.171875 5.03515625 C-6.77515625 5.02355469 -7.3784375 5.01195312 -8 5 C-8 4.67 -8 4.34 -8 4 C-5.36 4 -2.72 4 0 4 C0 2.68 0 1.36 0 0 Z " fill="#4C4E4D" transform="translate(50,37)"/>
<path d="M0 0 C1.65 0 3.3 0 5 0 C5 1.32 5 2.64 5 4 C3.68 4 2.36 4 1 4 C1 6.97 1 9.94 1 13 C0.67 13 0.34 13 0 13 C0 8.71 0 4.42 0 0 Z " fill="#096780" transform="translate(41,28)"/>
<path d="M0 0 C1.65 0 3.3 0 5 0 C5 1.65 5 3.3 5 5 C3.35 5 1.7 5 0 5 C0 3.35 0 1.7 0 0 Z " fill="#A8A8A8" transform="translate(45,87)"/>
<path d="M0 0 C1.65 0 3.3 0 5 0 C5 1.65 5 3.3 5 5 C3.35 5 1.7 5 0 5 C0 3.35 0 1.7 0 0 Z " fill="#181717" transform="translate(89,82)"/>
<path d="M0 0 C1.65 0 3.3 0 5 0 C5 1.65 5 3.3 5 5 C3.35 5 1.7 5 0 5 C0 3.35 0 1.7 0 0 Z " fill="#A8A8A8" transform="translate(34,82)"/>
<path d="M0 0 C1.65 0 3.3 0 5 0 C5 1.65 5 3.3 5 5 C3.35 5 1.7 5 0 5 C0 3.35 0 1.7 0 0 Z " fill="#181717" transform="translate(28,82)"/>
<path d="M0 0 C1.65 0 3.3 0 5 0 C5 1.65 5 3.3 5 5 C3.35 5 1.7 5 0 5 C0 3.35 0 1.7 0 0 Z " fill="#828282" transform="translate(89,65)"/>
<path d="M0 0 C1.65 0 3.3 0 5 0 C5 1.65 5 3.3 5 5 C3.35 5 1.7 5 0 5 C0 3.35 0 1.7 0 0 Z " fill="#5E5E5E" transform="translate(89,49)"/>
<path d="M0 0 C1.65 0 3.3 0 5 0 C5 1.65 5 3.3 5 5 C3.35 5 1.7 5 0 5 C0 3.35 0 1.7 0 0 Z " fill="#181717" transform="translate(89,43)"/>
<path d="M0 0 C1.65 0 3.3 0 5 0 C5 1.65 5 3.3 5 5 C3.35 5 1.7 5 0 5 C0 3.35 0 1.7 0 0 Z " fill="#353535" transform="translate(73,32)"/>
<path d="M0 0 C1.32 0 2.64 0 4 0 C4 1.65 4 3.3 4 5 C1.03 5 -1.94 5 -5 5 C-5 4.67 -5 4.34 -5 4 C-3.35 4 -1.7 4 0 4 C0 2.68 0 1.36 0 0 Z " fill="#707C7D" transform="translate(42,10)"/>
<path d="M0 0 C1.65 0 3.3 0 5 0 C4.67 1.65 4.34 3.3 4 5 C2.68 5 1.36 5 0 5 C0 3.35 0 1.7 0 0 Z " fill="#0F484B" transform="translate(19,19)"/>
<path d="M0 0 C0.33 1.32 0.66 2.64 1 4 C2.32 4.33 3.64 4.66 5 5 C3.68 5 2.36 5 1 5 C0.67 6.32 0.34 7.64 0 9 C0 7.68 0 6.36 0 5 C-2.64 5 -5.28 5 -8 5 C-8 4.67 -8 4.34 -8 4 C-5.36 4 -2.72 4 0 4 C0 2.68 0 1.36 0 0 Z " fill="#2A2423" transform="translate(59,55)"/>
<path d="M0 0 C1.32 0 2.64 0 4 0 C4 1.65 4 3.3 4 5 C2.68 5 1.36 5 0 5 C0 3.35 0 1.7 0 0 Z " fill="#0D0D0D" transform="translate(10,55)"/>
<path d="M0 0 C1.65 0 3.3 0 5 0 C5 1.32 5 2.64 5 4 C3.35 4 1.7 4 0 4 C0 2.68 0 1.36 0 0 Z " fill="#494646" transform="translate(59,42)"/>
<path d="M0 0 C1.65 0 3.3 0 5 0 C5 1.32 5 2.64 5 4 C3.35 4 1.7 4 0 4 C0 2.68 0 1.36 0 0 Z " fill="#494646" transform="translate(10,42)"/>
<path d="M0 0 C1.32 0 2.64 0 4 0 C4 1.65 4 3.3 4 5 C2.68 5 1.36 5 0 5 C0 3.35 0 1.7 0 0 Z " fill="#5E5E5E" transform="translate(73,38)"/>
<path d="M0 0 C1.65 0 3.3 0 5 0 C5 1.32 5 2.64 5 4 C3.35 4 1.7 4 0 4 C0 2.68 0 1.36 0 0 Z " fill="#414545" transform="translate(59,24)"/>
<path d="M0 0 C1.65 0 3.3 0 5 0 C5 1.32 5 2.64 5 4 C3.35 4 1.7 4 0 4 C0 2.68 0 1.36 0 0 Z " fill="#212E2B" transform="translate(64,19)"/>
<path d="M0 0 C1.65 0 3.3 0 5 0 C5 1.32 5 2.64 5 4 C3.35 4 1.7 4 0 4 C0 2.68 0 1.36 0 0 Z " fill="#212E2B" transform="translate(5,19)"/>
<path d="M0 0 C1.32 0 2.64 0 4 0 C4 1.65 4 3.3 4 5 C2.68 5 1.36 5 0 5 C0 3.35 0 1.7 0 0 Z " fill="#212E2B" transform="translate(60,14)"/>
<path d="M0 0 C1.32 0 2.64 0 4 0 C4 1.65 4 3.3 4 5 C2.68 5 1.36 5 0 5 C0 3.35 0 1.7 0 0 Z " fill="#212E2B" transform="translate(10,14)"/>
<path d="M0 0 C1.65 0 3.3 0 5 0 C5 1.32 5 2.64 5 4 C3.35 4 1.7 4 0 4 C0 2.68 0 1.36 0 0 Z " fill="#A4A4A4" transform="translate(37,10)"/>
</svg>
