<?xml version="1.0" encoding="UTF-8"?>
<svg version="1.1" xmlns="http://www.w3.org/2000/svg" width="320" height="320">
<path d="M0 0 C25.08 0 50.16 0 76 0 C76 3.96 76 7.92 76 12 C84.25 12 92.5 12 101 12 C101 16.29 101 20.58 101 25 C105.29 25 109.58 25 114 25 C114 28.96 114 32.92 114 37 C117.96 37 121.92 37 126 37 C126 40.3 126 43.6 126 47 C139.86 47 153.72 47 168 47 C168 51.95 168 56.9 168 62 C177.9 62 187.8 62 198 62 C198 66.95 198 71.9 198 77 C202.95 77 207.9 77 213 77 C213 81.95 213 86.9 213 92 C217.95 92 222.9 92 228 92 C228 122.36 228 152.72 228 184 C223.05 184 218.1 184 213 184 C213 188.95 213 193.9 213 199 C208.05 199 203.1 199 198 199 C198 203.95 198 208.9 198 214 C188.1 214 178.2 214 168 214 C168 218.95 168 223.9 168 229 C137.64 229 107.28 229 76 229 C76 224.05 76 219.1 76 214 C66.1 214 56.2 214 46 214 C46 209.05 46 204.1 46 199 C41.05 199 36.1 199 31 199 C31 194.05 31 189.1 31 184 C26.05 184 21.1 184 16 184 C16 181.36 16 178.72 16 176 C10.72 176 5.44 176 0 176 C0 172.04 0 168.08 0 164 C-8.25 164 -16.5 164 -25 164 C-25 159.71 -25 155.42 -25 151 C-29.29 151 -33.58 151 -38 151 C-38 147.04 -38 143.08 -38 139 C-41.96 139 -45.92 139 -50 139 C-50 134.71 -50 130.42 -50 126 C-53.96 126 -57.92 126 -62 126 C-62 100.92 -62 75.84 -62 50 C-58.04 50 -54.08 50 -50 50 C-50 45.71 -50 41.42 -50 37 C-46.04 37 -42.08 37 -38 37 C-38 33.04 -38 29.08 -38 25 C-33.71 25 -29.42 25 -25 25 C-25 20.71 -25 16.42 -25 12 C-16.75 12 -8.5 12 0 12 C0 8.04 0 4.08 0 0 Z " fill="#0D0D0D" transform="translate(72,76)"/>
<path d="M0 0 C25.08 0 50.16 0 76 0 C76 3.96 76 7.92 76 12 C84.25 12 92.5 12 101 12 C101 16.29 101 20.58 101 25 C104.96 25 108.92 25 113 25 C113 28.96 113 32.92 113 37 C117.29 37 121.58 37 126 37 C126.10793679 58.02774793 126.11183692 78.99422389 125 100 C121.04 100 117.08 100 113 100 C113 104.29 113 108.58 113 113 C109.04 113 105.08 113 101 113 C101 116.96 101 120.92 101 125 C92.75 125 84.5 125 76 125 C76 129.29 76 133.58 76 138 C71.71 138 67.42 138 63 138 C63 141.96 63 145.92 63 150 C46.5 150 30 150 13 150 C13 146.04 13 142.08 13 138 C10.0609375 138.0309375 10.0609375 138.0309375 7.0625 138.0625 C5.04167124 138.08377188 3.01964199 138.07244053 1 138 C0.67 137.67 0.34 137.34 0 137 C0 133.04 0 129.08 0 125 C-8.25 125 -16.5 125 -25 125 C-25 121.04 -25 117.08 -25 113 C-28.96 113 -32.92 113 -37 113 C-37 108.71 -37 104.42 -37 100 C-40.96 100 -44.92 100 -49 100 C-49 79.54 -49 59.08 -49 38 C-45.04 38 -41.08 38 -37 38 C-37 45.92 -37 53.84 -37 62 C-33.04 62 -29.08 62 -25 62 C-21.92681851 65.07318149 -24 70.65386506 -24 75 C-15.75 75 -7.5 75 1 75 C1 78.96 1 82.92 1 87 C13.21 87 25.42 87 38 87 C38 74.79 38 62.58 38 50 C46.25 50 54.5 50 63 50 C63 54.29 63 58.58 63 63 C59.04 63 55.08 63 51 63 C51 70.92 51 78.84 51 87 C58.92 87 66.84 87 75 87 C75 83.04 75 79.08 75 75 C83.25 75 91.5 75 100 75 C100 71.04 100 67.08 100 63 C101 62 101 62 103.72265625 61.90234375 C108.36132812 61.95117188 108.36132812 61.95117188 113 62 C113 58.04 113 54.08 113 50 C104.75 50 96.5 50 88 50 C88 45.71 88 41.42 88 37 C84.04 37 80.08 37 76 37 C76 33.04 76 29.08 76 25 C46.96 25 17.92 25 -12 25 C-12 21.04 -12 17.08 -12 13 C-8.04 13 -4.08 13 0 13 C0 8.71 0 4.42 0 0 Z " fill="#596363" transform="translate(72,89)"/>
<path d="M0 0 C9.57 0 19.14 0 29 0 C29 4.95 29 9.9 29 15 C38.9 15 48.8 15 59 15 C59 19.95 59 24.9 59 30 C63.95 30 68.9 30 74 30 C74 59.7 74 89.4 74 120 C69.05 120 64.1 120 59 120 C59 124.95 59 129.9 59 135 C49.1 135 39.2 135 29 135 C29 139.95 29 144.9 29 150 C-0.7 150 -30.4 150 -61 150 C-61 145.05 -61 140.1 -61 135 C-70.9 135 -80.8 135 -91 135 C-91 127.74 -91 120.48 -91 113 C-81.43 113 -71.86 113 -62 113 C-62 108.71 -62 104.42 -62 100 C-61.67 100 -61.34 100 -61 100 C-61 101.65 -61 103.3 -61 105 C-41.2 105 -21.4 105 -1 105 C-1.020625 99.18375 -1.04125 93.3675 -1.0625 87.375 C-1.09487802 67.68363509 -0.8342534 48.00032646 -0.5 28.3125 C-0.48804218 27.60792412 -0.47608437 26.90334824 -0.46376419 26.17742157 C-0.31512451 17.4515013 -0.15839292 8.72575278 0 0 Z " fill="#313030" transform="translate(210,139)"/>
<path d="M0 0 C25.08 0 50.16 0 76 0 C76 3.96 76 7.92 76 12 C79.96 12 83.92 12 88 12 C88 16.29 88 20.58 88 25 C96.25 25 104.5 25 113 25 C113 28.96 113 32.92 113 37 C107.06 37.495 107.06 37.495 101 38 C100.67 41.96 100.34 45.92 100 50 C91.75 50 83.5 50 75 50 C75 53.96 75 57.92 75 62 C67.08 62 59.16 62 51 62 C51 54.08 51 46.16 51 38 C54.96 38 58.92 38 63 38 C63 33.71 63 29.42 63 25 C54.75 25 46.5 25 38 25 C38 37.21 38 49.42 38 62 C25.79 62 13.58 62 1 62 C1 58.04 1 54.08 1 50 C-7.25 50 -15.5 50 -24 50 C-24.33 46.04 -24.66 42.08 -25 38 C-28.96 37.67 -32.92 37.34 -37 37 C-37 33.04 -37 29.08 -37 25 C-28.75 25 -20.5 25 -12 25 C-12 20.71 -12 16.42 -12 12 C-8.04 12 -4.08 12 0 12 C0 8.04 0 4.08 0 0 Z " fill="#0B1613" transform="translate(72,114)"/>
<path d="M0 0 C9.9 0 19.8 0 30 0 C30 4.95 30 9.9 30 15 C25.05 15 20.1 15 15 15 C15 24.9 15 34.8 15 45 C10.05 45 5.1 45 0 45 C0 49.95 0 54.9 0 60 C-29.7 60 -59.4 60 -90 60 C-90 55.05 -90 50.1 -90 45 C-99.9 45 -109.8 45 -120 45 C-120 37.74 -120 30.48 -120 23 C-110.43 23 -100.86 23 -91 23 C-91 18.71 -91 14.42 -91 10 C-90.67 10 -90.34 10 -90 10 C-90 11.65 -90 13.3 -90 15 C-60.3 15 -30.6 15 0 15 C0 10.05 0 5.1 0 0 Z " fill="#5E5E5E" transform="translate(239,229)"/>
<path d="M0 0 C5.28 0 10.56 0 16 0 C16 4.95 16 9.9 16 15 C20.95 15 25.9 15 31 15 C31 45.36 31 75.72 31 107 C26.05 107 21.1 107 16 107 C16 111.95 16 116.9 16 122 C11.05 122 6.1 122 1 122 C1 126.95 1 131.9 1 137 C-8.9 137 -18.8 137 -29 137 C-29 141.95 -29 146.9 -29 152 C-59.36 152 -89.72 152 -121 152 C-121 147.05 -121 142.1 -121 137 C-130.9 137 -140.8 137 -151 137 C-151 132.05 -151 127.1 -151 122 C-155.95 122 -160.9 122 -166 122 C-166.02682792 118.18745377 -166.04675477 114.37509388 -166.0625 110.5625 C-166.07087891 109.47388672 -166.07925781 108.38527344 -166.08789062 107.26367188 C-166.09111328 106.22919922 -166.09433594 105.19472656 -166.09765625 104.12890625 C-166.10289307 103.17056885 -166.10812988 102.21223145 -166.11352539 101.22485352 C-166 99 -166 99 -165 98 C-163.64905018 97.90731001 -162.29332909 97.88252674 -160.93920898 97.88647461 C-160.07839218 97.88655014 -159.21757538 97.88662567 -158.33067322 97.88670349 C-157.39526199 97.89186478 -156.45985077 97.89702606 -155.49609375 97.90234375 C-154.54307877 97.9037587 -153.59006378 97.90517365 -152.60816956 97.90663147 C-149.55124835 97.91224848 -146.49439923 97.92480384 -143.4375 97.9375 C-141.37044376 97.94251281 -139.30338638 97.94707609 -137.23632812 97.95117188 C-132.15752412 97.96222344 -127.0787743 97.97949945 -122 98 C-122 94.04 -122 90.08 -122 86 C-121.67 86 -121.34 86 -121 86 C-121 90.29 -121 94.58 -121 99 C-130.57 99 -140.14 99 -150 99 C-150 106.26 -150 113.52 -150 121 C-140.1 121 -130.2 121 -120 121 C-120 125.95 -120 130.9 -120 136 C-90.3 136 -60.6 136 -30 136 C-30 131.05 -30 126.1 -30 121 C-20.1 121 -10.2 121 0 121 C0 116.05 0 111.1 0 106 C4.95 106 9.9 106 15 106 C15 76.3 15 46.6 15 16 C10.05 16 5.1 16 0 16 C0 10.72 0 5.44 0 0 Z " fill="#1B1A1A" transform="translate(269,153)"/>
<path d="M0 0 C25.08 0 50.16 0 76 0 C76 3.96 76 7.92 76 12 C84.25 12 92.5 12 101 12 C101 16.29 101 20.58 101 25 C92.75 25 84.5 25 76 25 C76 21.04 76 17.08 76 13 C50.92 13 25.84 13 0 13 C0 17.29 0 21.58 0 26 C-3.96 26 -7.92 26 -12 26 C-12 29.96 -12 33.92 -12 38 C-8.04 38 -4.08 38 0 38 C0 41.96 0 45.92 0 50 C-3.96 50 -7.92 50 -12 50 C-12 54.29 -12 58.58 -12 63 C-20.25 63 -28.5 63 -37 63 C-37 59.04 -37 55.08 -37 51 C-40.96 51 -44.92 51 -49 51 C-49 63.21 -49 75.42 -49 88 C-53.29 88 -57.58 88 -62 88 C-62 75.46 -62 62.92 -62 50 C-58.04 50 -54.08 50 -50 50 C-50 45.71 -50 41.42 -50 37 C-46.04 37 -42.08 37 -38 37 C-38 33.04 -38 29.08 -38 25 C-33.71 25 -29.42 25 -25 25 C-25 20.71 -25 16.42 -25 12 C-16.75 12 -8.5 12 0 12 C0 8.04 0 4.08 0 0 Z " fill="#444747" transform="translate(72,76)"/>
<path d="M0 0 C25.08 0 50.16 0 76 0 C76 3.96 76 7.92 76 12 C84.25 12 92.5 12 101 12 C101 20.25 101 28.5 101 37 C104.96 37.33 108.92 37.66 113 38 C113 41.96 113 45.92 113 50 C104.75 50 96.5 50 88 50 C88 45.71 88 41.42 88 37 C84.04 37 80.08 37 76 37 C76 33.04 76 29.08 76 25 C46.96 25 17.92 25 -12 25 C-12 21.04 -12 17.08 -12 13 C-8.04 13 -4.08 13 0 13 C0 8.71 0 4.42 0 0 Z " fill="#105156" transform="translate(72,89)"/>
<path d="M0 0 C3.96 0 7.92 0 12 0 C12 7.92 12 15.84 12 24 C15.96 24 19.92 24 24 24 C27.07318149 27.07318149 25 32.65386506 25 37 C33.25 37 41.5 37 50 37 C50 40.96 50 44.92 50 49 C62.21 49 74.42 49 87 49 C87 49.33 87 49.66 87 50 C78.75 50 70.5 50 62 50 C62 53.96 62 57.92 62 62 C58.04 62 54.08 62 50 62 C50 58.04 50 54.08 50 50 C45.71 50 41.42 50 37 50 C37 53.96 37 57.92 37 62 C40.96 62 44.92 62 49 62 C49 65.96 49 69.92 49 74 C41.08 74 33.16 74 25 74 C25 70.04 25 66.08 25 62 C16.75 62 8.5 62 0 62 C0 41.54 0 21.08 0 0 Z " fill="#545555" transform="translate(23,127)"/>
<path d="M0 0 C0.33 0 0.66 0 1 0 C1 1.65 1 3.3 1 5 C10.9 5 20.8 5 31 5 C31 19.85 31 34.7 31 50 C21.1 50 11.2 50 1 50 C1 45.05 1 40.1 1 35 C-8.9 35 -18.8 35 -29 35 C-29 27.74 -29 20.48 -29 13 C-19.43 13 -9.86 13 0 13 C0 8.71 0 4.42 0 0 Z " fill="#D6D6D6" transform="translate(148,239)"/>
<path d="M0 0 C4.29 0 8.58 0 13 0 C13 3.96 13 7.92 13 12 C29.5 12 46 12 63 12 C63 16.29 63 20.58 63 25 C46.5 25 30 25 13 25 C13 28.96 13 32.92 13 37 C29.5 37 46 37 63 37 C63 40.96 63 44.92 63 49 C46.17 49 29.34 49 12 49 C12 45.04 12 41.08 12 37 C3.75 37 -4.5 37 -13 37 C-13 33.04 -13 29.08 -13 25 C-16.96 25 -20.92 25 -25 25 C-25 20.71 -25 16.42 -25 12 C-20.71 12 -16.42 12 -12 12 C-12 15.96 -12 19.92 -12 24 C-4.08 24 3.84 24 12 24 C12 20.04 12 16.08 12 12 C8.04 12 4.08 12 0 12 C0 8.04 0 4.08 0 0 Z " fill="#7B8485" transform="translate(60,177)"/>
<path d="M0 0 C4.29 0 8.58 0 13 0 C13 3.96 13 7.92 13 12 C16.96 12 20.92 12 25 12 C25 15.3 25 18.6 25 22 C38.86 22 52.72 22 67 22 C67 26.95 67 31.9 67 37 C76.9 37 86.8 37 97 37 C97 41.95 97 46.9 97 52 C96 53 96 53 93.13256836 53.11352539 C91.88096924 53.10828857 90.62937012 53.10305176 89.33984375 53.09765625 C88.34314415 53.09553383 88.34314415 53.09553383 87.3263092 53.09336853 C85.19666101 53.08775518 83.06711661 53.07520054 80.9375 53.0625 C79.49674631 53.05748671 78.05599097 53.05292351 76.61523438 53.04882812 C73.07675042 53.03863076 69.53849187 53.0190583 66 53 C66 48.05 66 43.1 66 38 C56.43 38 46.86 38 37 38 C37 46.25 37 54.5 37 63 C33.04 63 29.08 63 25 63 C25 50.46 25 37.92 25 25 C20.71 25 16.42 25 12 25 C12 21.04 12 17.08 12 13 C8.04 13 4.08 13 0 13 C0 8.71 0 4.42 0 0 Z " fill="#353535" transform="translate(173,101)"/>
<path d="M0 0 C4.29 0 8.58 0 13 0 C13.15601233 26.682909 12.7286897 53.32724374 12 80 C7.05 80 2.1 80 -3 80 C-3 70.1 -3 60.2 -3 50 C-5.97 50 -8.94 50 -12 50 C-12 53.96 -12 57.92 -12 62 C-15.96 62 -19.92 62 -24 62 C-24 54.08 -24 46.16 -24 38 C-20.04 38 -16.08 38 -12 38 C-12 33.71 -12 29.42 -12 25 C-8.04 25 -4.08 25 0 25 C0 16.75 0 8.5 0 0 Z " fill="#0E0E0E" transform="translate(197,164)"/>
<path d="M0 0 C25.08 0 50.16 0 76 0 C76 3.96 76 7.92 76 12 C84.25 12 92.5 12 101 12 C101 16.29 101 20.58 101 25 C92.75 25 84.5 25 76 25 C76 21.04 76 17.08 76 13 C50.92 13 25.84 13 0 13 C0 16.96 0 20.92 0 25 C-8.25 25 -16.5 25 -25 25 C-25 20.71 -25 16.42 -25 12 C-16.75 12 -8.5 12 0 12 C0 8.04 0 4.08 0 0 Z " fill="#212E2B" transform="translate(72,76)"/>
<path d="M0 0 C30.36 0 60.72 0 92 0 C92 4.95 92 9.9 92 15 C61.64 15 31.28 15 0 15 C0 10.05 0 5.1 0 0 Z " fill="#181717" transform="translate(148,290)"/>
<path d="M0 0 C9.9 0 19.8 0 30 0 C30 14.52 30 29.04 30 44 C20.1 44 10.2 44 0 44 C0 29.48 0 14.96 0 0 Z " fill="#A7A7A7" transform="translate(194,244)"/>
<path d="M0 0 C16.83 0 33.66 0 51 0 C51 3.96 51 7.92 51 12 C46.71 12 42.42 12 38 12 C38 16.29 38 20.58 38 25 C21.5 25 5 25 -12 25 C-12 21.04 -12 17.08 -12 13 C-8.04 13 -4.08 13 0 13 C0 8.71 0 4.42 0 0 Z " fill="#128C97" transform="translate(72,89)"/>
<path d="M0 0 C4.29 0 8.58 0 13 0 C13 3.96 13 7.92 13 12 C17.29 12 21.58 12 26 12 C26 24.54 26 37.08 26 50 C21.71 50 17.42 50 13 50 C13 53.96 13 57.92 13 62 C4.75 62 -3.5 62 -12 62 C-12 58.04 -12 54.08 -12 50 C-8.04 50 -4.08 50 0 50 C-0.020625 48.040625 -0.04125 46.08125 -0.0625 44.0625 C-0.08377188 42.04167124 -0.07244053 40.01964199 0 38 C0.495 37.505 0.495 37.505 1 37 C4.96 37 8.92 37 13 37 C13 29.08 13 21.16 13 13 C9.04 13 5.08 13 1 13 C0 12 0 12 -0.09765625 9.27734375 C-0.06510417 6.18489583 -0.03255208 3.09244792 0 0 Z " fill="#7C7C7C" transform="translate(172,114)"/>
<path d="M0 0 C4.95 0 9.9 0 15 0 C15 14.85 15 29.7 15 45 C10.05 45 5.1 45 0 45 C0 49.95 0 54.9 0 60 C-4.95 60 -9.9 60 -15 60 C-15 50.1 -15 40.2 -15 30 C-10.05 30 -5.1 30 0 30 C0 20.1 0 10.2 0 0 Z " fill="#4E4C4C" transform="translate(269,214)"/>
<path d="M0 0 C4.29 0 8.58 0 13 0 C13 3.96 13 7.92 13 12 C21.25 12 29.5 12 38 12 C38 8.04 38 4.08 38 0 C41.96 0 45.92 0 50 0 C50 8.25 50 16.5 50 25 C41.75 25 33.5 25 25 25 C25 28.96 25 32.92 25 37 C17.08 37 9.16 37 1 37 C1 33.04 1 29.08 1 25 C4.96 25 8.92 25 13 25 C13 21.04 13 17.08 13 13 C0.79 13 -11.42 13 -24 13 C-24 12.67 -24 12.34 -24 12 C-16.08 12 -8.16 12 0 12 C0 8.04 0 4.08 0 0 Z " fill="#616060" transform="translate(147,164)"/>
<path d="M0 0 C8.25 0 16.5 0 25 0 C25 3.96 25 7.92 25 12 C28.96 12 32.92 12 37 12 C37 8.04 37 4.08 37 0 C39.97 0 42.94 0 46 0 C46 9.9 46 19.8 46 30 C31.15 30 16.3 30 1 30 C1 28.35 1 26.7 1 25 C8.59 25 16.18 25 24 25 C24 21.04 24 17.08 24 13 C16.08 13 8.16 13 0 13 C0 8.71 0 4.42 0 0 Z " fill="#2F3030" transform="translate(148,214)"/>
<path d="M0 0 C3.96 0 7.92 0 12 0 C12 7.92 12 15.84 12 24 C15.96 24 19.92 24 24 24 C25 25 25 25 25.09765625 27.72265625 C25.06510417 30.81510417 25.03255208 33.90755208 25 37 C28.96 37 32.92 37 37 37 C37 40.96 37 44.92 37 49 C28.75 49 20.5 49 12 49 C12 45.04 12 41.08 12 37 C8.04 37 4.08 37 0 37 C0 24.79 0 12.58 0 0 Z " fill="#828383" transform="translate(23,127)"/>
<path d="M0 0 C24.42 0 48.84 0 74 0 C74 3.96 74 7.92 74 12 C49.58 12 25.16 12 0 12 C0 8.04 0 4.08 0 0 Z " fill="#5D5E5E" transform="translate(73,202)"/>
<path d="M0 0 C4.95 0 9.9 0 15 0 C15 14.52 15 29.04 15 44 C24.9 44 34.8 44 45 44 C45 44.33 45 44.66 45 45 C30.15 45 15.3 45 0 45 C0 30.15 0 15.3 0 0 Z " fill="#838383" transform="translate(179,244)"/>
<path d="M0 0 C16.5 0 33 0 50 0 C50 3.96 50 7.92 50 12 C33.2330154 13.47402062 16.78738563 12.76617245 0 12 C0 8.04 0 4.08 0 0 Z " fill="#A7A9AA" transform="translate(73,89)"/>
<path d="M0 0 C3.96 0 7.92 0 12 0 C12 14.19 12 28.38 12 43 C7.05 43 2.1 43 -3 43 C-3 33.1 -3 23.2 -3 13 C-2.01 13 -1.02 13 0 13 C0 8.71 0 4.42 0 0 Z " fill="#FE1313" transform="translate(197,201)"/>
<path d="M0 0 C7.92 0 15.84 0 24 0 C24.33 3.96 24.66 7.92 25 12 C28.96 12.33 32.92 12.66 37 13 C37 16.96 37 20.92 37 25 C28.75 25 20.5 25 12 25 C12 20.71 12 16.42 12 12 C8.04 12 4.08 12 0 12 C0 8.04 0 4.08 0 0 Z " fill="#424545" transform="translate(148,114)"/>
<path d="M0 0 C16.5 0 33 0 50 0 C50 3.96 50 7.92 50 12 C33.5 12 17 12 0 12 C0 8.04 0 4.08 0 0 Z " fill="#464343" transform="translate(85,227)"/>
<path d="M0 0 C16.5 0 33 0 50 0 C50 3.96 50 7.92 50 12 C33.5 12 17 12 0 12 C0 8.04 0 4.08 0 0 Z " fill="#29DDE9" transform="translate(73,214)"/>
<path d="M0 0 C12.54 0 25.08 0 38 0 C38 3.96 38 7.92 38 12 C25.46 12 12.92 12 0 12 C0 8.04 0 4.08 0 0 Z " fill="#A6A6A6" transform="translate(85,189)"/>
<path d="M0 0 C3.96 0 7.92 0 12 0 C12 8.25 12 16.5 12 25 C3.75 25 -4.5 25 -13 25 C-13 21.04 -13 17.08 -13 13 C-8.71 13 -4.42 13 0 13 C0 8.71 0 4.42 0 0 Z " fill="#454545" transform="translate(185,164)"/>
<path d="M0 0 C3.96 0 7.92 0 12 0 C12 4.29 12 8.58 12 13 C16.29 13 20.58 13 25 13 C25 16.96 25 20.92 25 25 C16.75 25 8.5 25 0 25 C0 16.75 0 8.5 0 0 Z " fill="#454545" transform="translate(23,164)"/>
<path d="M0 0 C3.96 0 7.92 0 12 0 C12 12.54 12 25.08 12 38 C8.04 38 4.08 38 0 38 C0 25.46 0 12.92 0 0 Z " fill="#0D0D0D" transform="translate(10,164)"/>
<path d="M0 0 C3.96 0 7.92 0 12 0 C12 12.54 12 25.08 12 38 C8.04 38 4.08 38 0 38 C0 25.46 0 12.92 0 0 Z " fill="#202D2A" transform="translate(10,126)"/>
<path d="M0 0 C9.9 0 19.8 0 30 0 C30 4.95 30 9.9 30 15 C20.1 15 10.2 15 0 15 C0 10.05 0 5.1 0 0 Z " fill="#181717" transform="translate(240,275)"/>
<path d="M0 0 C9.9 0 19.8 0 30 0 C30 4.95 30 9.9 30 15 C20.1 15 10.2 15 0 15 C0 10.05 0 5.1 0 0 Z " fill="#181717" transform="translate(118,275)"/>
<path d="M0 0 C9.9 0 19.8 0 30 0 C30 4.95 30 9.9 30 15 C20.1 15 10.2 15 0 15 C0 10.05 0 5.1 0 0 Z " fill="#D5D4D4" transform="translate(194,244)"/>
<path d="M0 0 C9.9 0 19.8 0 30 0 C30 4.95 30 9.9 30 15 C20.1 15 10.2 15 0 15 C0 10.05 0 5.1 0 0 Z " fill="#7F7F7F" transform="translate(239,229)"/>
<path d="M0 0 C9.9 0 19.8 0 30 0 C30 4.95 30 9.9 30 15 C20.1 15 10.2 15 0 15 C0 10.05 0 5.1 0 0 Z " fill="#5C5C5C" transform="translate(239,154)"/>
<path d="M0 0 C3.96 0 7.92 0 12 0 C12 12.21 12 24.42 12 37 C8.04 37 4.08 37 0 37 C0 24.79 0 12.58 0 0 Z " fill="#0D0D0D" transform="translate(198,164)"/>
<path d="M0 0 C3.96 0 7.92 0 12 0 C12 12.21 12 24.42 12 37 C8.04 37 4.08 37 0 37 C0 24.79 0 12.58 0 0 Z " fill="#28DCE9" transform="translate(110,139)"/>
<path d="M0 0 C3.96 0 7.92 0 12 0 C12 12.21 12 24.42 12 37 C8.04 37 4.08 37 0 37 C0 24.79 0 12.58 0 0 Z " fill="#202D2A" transform="translate(198,127)"/>
<path d="M0 0 C9.57 0 19.14 0 29 0 C29 4.95 29 9.9 29 15 C19.43 15 9.86 15 0 15 C0 10.05 0 5.1 0 0 Z " fill="#5D5D5D" transform="translate(210,139)"/>
<path d="M0 0 C9.9 0 19.8 0 30 0 C30 4.62 30 9.24 30 14 C20.1 14 10.2 14 0 14 C0 9.38 0 4.76 0 0 Z " fill="#FDFDFD" transform="translate(149,245)"/>
<path d="M0 0 C4.29 0 8.58 0 13 0 C13 3.96 13 7.92 13 12 C16.96 12 20.92 12 25 12 C25 16.29 25 20.58 25 25 C20.71 25 16.42 25 12 25 C12 21.04 12 17.08 12 13 C8.04 13 4.08 13 0 13 C0 8.71 0 4.42 0 0 Z " fill="#212E2B" transform="translate(173,101)"/>
<path d="M0 0 C4.29 0 8.58 0 13 0 C13 4.29 13 8.58 13 13 C9.04 13 5.08 13 1 13 C1 16.96 1 20.92 1 25 C-3.29 25 -7.58 25 -12 25 C-12 20.71 -12 16.42 -12 12 C-8.04 12 -4.08 12 0 12 C0 8.04 0 4.08 0 0 Z " fill="#212E2B" transform="translate(34,101)"/>
<path d="M0 0 C8.25 0 16.5 0 25 0 C25.33 4.29 25.66 8.58 26 13 C17.42 13 8.84 13 0 13 C0 8.71 0 4.42 0 0 Z " fill="#202C2A" transform="translate(47,214)"/>
<path d="M0 0 C4.29 0 8.58 0 13 0 C13 3.96 13 7.92 13 12 C7.06 12.495 7.06 12.495 1 13 C0.67 16.96 0.34 20.92 0 25 C-3.96 25 -7.92 25 -12 25 C-12 20.71 -12 16.42 -12 12 C-8.04 12 -4.08 12 0 12 C0 8.04 0 4.08 0 0 Z " fill="#212D2A" transform="translate(172,139)"/>
<path d="M0 0 C4.29 0 8.58 0 13 0 C13 3.96 13 7.92 13 12 C16.96 12 20.92 12 25 12 C25 16.29 25 20.58 25 25 C21.04 25 17.08 25 13 25 C12.67 21.04 12.34 17.08 12 13 C8.04 12.67 4.08 12.34 0 12 C0 8.04 0 4.08 0 0 Z " fill="#212D2A" transform="translate(35,139)"/>
<path d="M0 0 C0.33 0 0.66 0 1 0 C1 3.96 1 7.92 1 12 C4.96 12 8.92 12 13 12 C13 15.96 13 19.92 13 24 C4.75 24 -3.5 24 -12 24 C-12 20.04 -12 16.08 -12 12 C-8.04 12 -4.08 12 0 12 C0 8.04 0 4.08 0 0 Z " fill="#808080" transform="translate(47,152)"/>
<path d="M0 0 C3.96 0 7.92 0 12 0 C12 14.19 12 28.38 12 43 C7.05 43 2.1 43 -3 43 C-3 33.1 -3 23.2 -3 13 C-2.67 13 -2.34 13 -2 13 C-2 17.95 -2 22.9 -2 28 C2.29 28 6.58 28 11 28 C11 19.09 11 10.18 11 1 C7.7 1 4.4 1 1 1 C1 4.96 1 8.92 1 13 C0.67 13 0.34 13 0 13 C0 8.71 0 4.42 0 0 Z " fill="#BB1717" transform="translate(197,201)"/>
<path d="M0 0 C7.92 0 15.84 0 24 0 C24 3.96 24 7.92 24 12 C16.08 12 8.16 12 0 12 C0 8.04 0 4.08 0 0 Z " fill="#138D98" transform="translate(123,214)"/>
<path d="M0 0 C7.92 0 15.84 0 24 0 C24 3.96 24 7.92 24 12 C16.08 12 8.16 12 0 12 C0 8.04 0 4.08 0 0 Z " fill="#138D98" transform="translate(148,202)"/>
<path d="M0 0 C7.92 0 15.84 0 24 0 C24 3.96 24 7.92 24 12 C16.08 12 8.16 12 0 12 C0 8.04 0 4.08 0 0 Z " fill="#29DDE9" transform="translate(48,202)"/>
<path d="M0 0 C7.92 0 15.84 0 24 0 C24 3.96 24 7.92 24 12 C16.08 12 8.16 12 0 12 C0 8.04 0 4.08 0 0 Z " fill="#474444" transform="translate(148,189)"/>
<path d="M0 0 C7.92 0 15.84 0 24 0 C24 3.96 24 7.92 24 12 C16.08 12 8.16 12 0 12 C0 8.04 0 4.08 0 0 Z " fill="#818181" transform="translate(123,189)"/>
<path d="M0 0 C7.92 0 15.84 0 24 0 C24 3.96 24 7.92 24 12 C16.08 12 8.16 12 0 12 C0 8.04 0 4.08 0 0 Z " fill="#474444" transform="translate(48,189)"/>
<path d="M0 0 C3.96 0 7.92 0 12 0 C12 7.92 12 15.84 12 24 C8.04 24 4.08 24 0 24 C0 16.08 0 8.16 0 0 Z " fill="#A7A7A7" transform="translate(185,127)"/>
<path d="M0 0 C7.92 0 15.84 0 24 0 C24 3.96 24 7.92 24 12 C16.08 12 8.16 12 0 12 C0 8.04 0 4.08 0 0 Z " fill="#5D5D5D" transform="translate(148,102)"/>
<path d="M0 0 C5.28 0 10.56 0 16 0 C16 10.23 16 20.46 16 31 C15.67 31 15.34 31 15 31 C15 26.05 15 21.1 15 16 C10.05 16 5.1 16 0 16 C0 10.72 0 5.44 0 0 Z " fill="#1A1919" transform="translate(269,153)"/>
<path d="M0 0 C4.95 0 9.9 0 15 0 C15 4.95 15 9.9 15 15 C10.05 15 5.1 15 0 15 C0 10.05 0 5.1 0 0 Z " fill="#A5A5A5" transform="translate(149,274)"/>
<path d="M0 0 C4.95 0 9.9 0 15 0 C15 4.95 15 9.9 15 15 C10.05 15 5.1 15 0 15 C0 10.05 0 5.1 0 0 Z " fill="#181717" transform="translate(270,260)"/>
<path d="M0 0 C4.95 0 9.9 0 15 0 C15 4.95 15 9.9 15 15 C10.05 15 5.1 15 0 15 C0 10.05 0 5.1 0 0 Z " fill="#A5A5A5" transform="translate(119,259)"/>
<path d="M0 0 C4.95 0 9.9 0 15 0 C15 4.95 15 9.9 15 15 C10.05 15 5.1 15 0 15 C0 10.05 0 5.1 0 0 Z " fill="#181717" transform="translate(103,260)"/>
<path d="M0 0 C4.95 0 9.9 0 15 0 C15 4.95 15 9.9 15 15 C10.05 15 5.1 15 0 15 C0 10.05 0 5.1 0 0 Z " fill="#818181" transform="translate(224,244)"/>
<path d="M0 0 C4.95 0 9.9 0 15 0 C15 4.95 15 9.9 15 15 C10.05 15 5.1 15 0 15 C0 10.05 0 5.1 0 0 Z " fill="#A7A7A7" transform="translate(179,244)"/>
<path d="M0 0 C4.95 0 9.9 0 15 0 C15 4.95 15 9.9 15 15 C10.05 15 5.1 15 0 15 C0 10.05 0 5.1 0 0 Z " fill="#7E7E7E" transform="translate(269,214)"/>
<path d="M0 0 C4.95 0 9.9 0 15 0 C15 4.95 15 9.9 15 15 C10.05 15 5.1 15 0 15 C0 10.05 0 5.1 0 0 Z " fill="#5B5B5B" transform="translate(269,169)"/>
<path d="M0 0 C4.62 0 9.24 0 14 0 C14 4.95 14 9.9 14 15 C9.05 15 4.1 15 -1 15 C-1.125 2.25 -1.125 2.25 0 0 Z " fill="#4F4B4B" transform="translate(210,199)"/>
<path d="M0 0 C4.62 0 9.24 0 14 0 C14 4.95 14 9.9 14 15 C9.38 15 4.76 15 0 15 C0 10.05 0 5.1 0 0 Z " fill="#7F7F7F" transform="translate(210,139)"/>
<path d="M0 0 C4.29 0 8.58 0 13 0 C13 4.29 13 8.58 13 13 C9.04 13 5.08 13 1 13 C1 21.25 1 29.5 1 38 C-3.29 38 -7.58 38 -12 38 C-12 37.67 -12 37.34 -12 37 C-8.04 37 -4.08 37 0 37 C0 24.79 0 12.58 0 0 Z " fill="#075C79" transform="translate(122,139)"/>
<path d="M0 0 C3.96 0 7.92 0 12 0 C12 4.29 12 8.58 12 13 C4.08 13 -3.84 13 -12 13 C-12 25.21 -12 37.42 -12 50 C-12.33 50 -12.66 50 -13 50 C-13 37.46 -13 24.92 -13 12 C-8.71 12 -4.42 12 0 12 C0 8.04 0 4.08 0 0 Z " fill="#5A5C5B" transform="translate(35,114)"/>
<path d="M0 0 C4.29 0 8.58 0 13 0 C13 3.96 13 7.92 13 12 C20.92 12 28.84 12 37 12 C37 12.33 37 12.66 37 13 C29.08 13 21.16 13 13 13 C13 16.96 13 20.92 13 25 C12.67 25 12.34 25 12 25 C12 21.04 12 17.08 12 13 C8.04 13 4.08 13 0 13 C0 8.71 0 4.42 0 0 Z " fill="#138C97" transform="translate(35,189)"/>
<path d="M0 0 C0.33 0 0.66 0 1 0 C1 8.25 1 16.5 1 25 C4.96 25 8.92 25 13 25 C13 29.29 13 33.58 13 38 C8.71 38 4.42 38 0 38 C0 25.46 0 12.92 0 0 Z " fill="#1E2C2A" transform="translate(22,164)"/>
<path d="M0 0 C0.33 0 0.66 0 1 0 C1 3.96 1 7.92 1 12 C8.92 12 16.84 12 25 12 C25 12.33 25 12.66 25 13 C17.08 13 9.16 13 1 13 C1 16.96 1 20.92 1 25 C-3.29 25 -7.58 25 -12 25 C-12 21.04 -12 17.08 -12 13 C-8.04 13 -4.08 13 0 13 C0 8.71 0 4.42 0 0 Z " fill="#767F80" transform="translate(72,89)"/>
<path d="M0 0 C0.33 0 0.66 0 1 0 C1 12.21 1 24.42 1 37 C-3.29 37 -7.58 37 -12 37 C-12 33.04 -12 29.08 -12 25 C-8.04 25 -4.08 25 0 25 C0 16.75 0 8.5 0 0 Z " fill="#1F2D2B" transform="translate(197,164)"/>
<path d="M0 0 C12.21 0 24.42 0 37 0 C37 0.33 37 0.66 37 1 C33.04 1 29.08 1 25 1 C25 4.96 25 8.92 25 13 C21.04 13 17.08 13 13 13 C13 9.04 13 5.08 13 1 C8.71 1 4.42 1 0 1 C0 0.67 0 0.34 0 0 Z " fill="#616060" transform="translate(35,176)"/>
<path d="M0 0 C4.29 0 8.58 0 13 0 C13 3.96 13 7.92 13 12 C4.54665383 12.81085722 -3.76122282 13.1276441 -12.25 13.0625 C-13.38824219 13.05798828 -14.52648437 13.05347656 -15.69921875 13.04882812 C-18.46620409 13.03720214 -21.23307158 13.02086431 -24 13 C-24 12.67 -24 12.34 -24 12 C-16.08 12 -8.16 12 0 12 C0 8.04 0 4.08 0 0 Z " fill="#555656" transform="translate(147,164)"/>
<path d="M0 0 C3.96 0 7.92 0 12 0 C12 4.29 12 8.58 12 13 C3.75 13 -4.5 13 -13 13 C-13 12.67 -13 12.34 -13 12 C-8.71 12 -4.42 12 0 12 C0 8.04 0 4.08 0 0 Z " fill="#7A7F7F" transform="translate(123,89)"/>
<path d="M0 0 C0.33 0 0.66 0 1 0 C1 4.29 1 8.58 1 13 C-8.57 13 -18.14 13 -28 13 C-28 15.31 -28 17.62 -28 20 C-32.95 20 -37.9 20 -43 20 C-43 17.36 -43 14.72 -43 12 C-28.81 12 -14.62 12 0 12 C0 8.04 0 4.08 0 0 Z " fill="#777777" transform="translate(147,239)"/>
<path d="M0 0 C4.29 0 8.58 0 13 0 C13.33 3.96 13.66 7.92 14 12 C9.38 12 4.76 12 0 12 C0 8.04 0 4.08 0 0 Z " fill="#202C29" transform="translate(135,227)"/>
<path d="M0 0 C4.29 0 8.58 0 13 0 C13 3.96 13 7.92 13 12 C8.71 12 4.42 12 0 12 C0 8.04 0 4.08 0 0 Z " fill="#FAFAFA" transform="translate(85,189)"/>
<path d="M0 0 C4.29 0 8.58 0 13 0 C13 3.96 13 7.92 13 12 C8.71 12 4.42 12 0 12 C0 8.04 0 4.08 0 0 Z " fill="#474545" transform="translate(172,177)"/>
<path d="M0 0 C4.29 0 8.58 0 13 0 C13 3.96 13 7.92 13 12 C8.71 12 4.42 12 0 12 C0 8.04 0 4.08 0 0 Z " fill="#474545" transform="translate(35,177)"/>
<path d="M0 0 C3.96 0 7.92 0 12 0 C12 4.29 12 8.58 12 13 C8.04 13 4.08 13 0 13 C0 8.71 0 4.42 0 0 Z " fill="#00638E" transform="translate(110,126)"/>
<path d="M0 0 C4.29 0 8.58 0 13 0 C13 3.96 13 7.92 13 12 C8.71 12 4.42 12 0 12 C0 8.04 0 4.08 0 0 Z " fill="#A6A6A6" transform="translate(110,89)"/>
<path d="M0 0 C3.96 0 7.92 0 12 0 C12 3.96 12 7.92 12 12 C8.04 12 4.08 12 0 12 C0 8.04 0 4.08 0 0 Z " fill="#212D2A" transform="translate(73,227)"/>
<path d="M0 0 C3.96 0 7.92 0 12 0 C12 3.96 12 7.92 12 12 C8.04 12 4.08 12 0 12 C0 8.04 0 4.08 0 0 Z " fill="#464444" transform="translate(148,214)"/>
<path d="M0 0 C3.96 0 7.92 0 12 0 C12 3.96 12 7.92 12 12 C8.04 12 4.08 12 0 12 C0 8.04 0 4.08 0 0 Z " fill="#464545" transform="translate(60,214)"/>
<path d="M0 0 C3.96 0 7.92 0 12 0 C12 3.96 12 7.92 12 12 C8.04 12 4.08 12 0 12 C0 8.04 0 4.08 0 0 Z " fill="#0D0D0D" transform="translate(173,214)"/>
<path d="M0 0 C3.96 0 7.92 0 12 0 C12 3.96 12 7.92 12 12 C8.04 12 4.08 12 0 12 C0 8.04 0 4.08 0 0 Z " fill="#202D2A" transform="translate(173,202)"/>
<path d="M0 0 C3.96 0 7.92 0 12 0 C12 3.96 12 7.92 12 12 C8.04 12 4.08 12 0 12 C0 8.04 0 4.08 0 0 Z " fill="#464444" transform="translate(135,202)"/>
<path d="M0 0 C3.96 0 7.92 0 12 0 C12 3.96 12 7.92 12 12 C8.04 12 4.08 12 0 12 C0 8.04 0 4.08 0 0 Z " fill="#202D2A" transform="translate(35,202)"/>
<path d="M0 0 C3.96 0 7.92 0 12 0 C12 3.96 12 7.92 12 12 C8.04 12 4.08 12 0 12 C0 8.04 0 4.08 0 0 Z " fill="#138C97" transform="translate(173,189)"/>
<path d="M0 0 C3.96 0 7.92 0 12 0 C12 3.96 12 7.92 12 12 C8.04 12 4.08 12 0 12 C0 8.04 0 4.08 0 0 Z " fill="#A8A8A8" transform="translate(73,189)"/>
<path d="M0 0 C3.96 0 7.92 0 12 0 C12 3.96 12 7.92 12 12 C8.04 12 4.08 12 0 12 C0 8.04 0 4.08 0 0 Z " fill="#105156" transform="translate(185,177)"/>
<path d="M0 0 C3.96 0 7.92 0 12 0 C12 3.96 12 7.92 12 12 C8.04 12 4.08 12 0 12 C0 8.04 0 4.08 0 0 Z " fill="#818181" transform="translate(148,177)"/>
<path d="M0 0 C3.96 0 7.92 0 12 0 C12 3.96 12 7.92 12 12 C8.04 12 4.08 12 0 12 C0 8.04 0 4.08 0 0 Z " fill="#828282" transform="translate(85,177)"/>
<path d="M0 0 C3.96 0 7.92 0 12 0 C12 3.96 12 7.92 12 12 C8.04 12 4.08 12 0 12 C0 8.04 0 4.08 0 0 Z " fill="#5E5E5E" transform="translate(73,177)"/>
<path d="M0 0 C3.96 0 7.92 0 12 0 C12 3.96 12 7.92 12 12 C8.04 12 4.08 12 0 12 C0 8.04 0 4.08 0 0 Z " fill="#105156" transform="translate(23,177)"/>
<path d="M0 0 C3.96 0 7.92 0 12 0 C12 3.96 12 7.92 12 12 C8.04 12 4.08 12 0 12 C0 8.04 0 4.08 0 0 Z " fill="#14B9C4" transform="translate(110,164)"/>
<path d="M0 0 C3.96 0 7.92 0 12 0 C12 3.96 12 7.92 12 12 C8.04 12 4.08 12 0 12 C0 8.04 0 4.08 0 0 Z " fill="#A7A7A7" transform="translate(173,152)"/>
<path d="M0 0 C3.96 0 7.92 0 12 0 C12 3.96 12 7.92 12 12 C8.04 12 4.08 12 0 12 C0 8.04 0 4.08 0 0 Z " fill="#A7A7A7" transform="translate(35,152)"/>
<path d="M0 0 C3.96 0 7.92 0 12 0 C12 3.96 12 7.92 12 12 C8.04 12 4.08 12 0 12 C0 8.04 0 4.08 0 0 Z " fill="#818181" transform="translate(23,152)"/>
<path d="M0 0 C3.96 0 7.92 0 12 0 C12 3.96 12 7.92 12 12 C8.04 12 4.08 12 0 12 C0 8.04 0 4.08 0 0 Z " fill="#005479" transform="translate(98,139)"/>
<path d="M0 0 C3.96 0 7.92 0 12 0 C12 3.96 12 7.92 12 12 C8.04 12 4.08 12 0 12 C0 8.04 0 4.08 0 0 Z " fill="#474444" transform="translate(173,127)"/>
<path d="M0 0 C3.96 0 7.92 0 12 0 C12 3.96 12 7.92 12 12 C8.04 12 4.08 12 0 12 C0 8.04 0 4.08 0 0 Z " fill="#0F5155" transform="translate(160,127)"/>
<path d="M0 0 C3.96 0 7.92 0 12 0 C12 3.96 12 7.92 12 12 C8.04 12 4.08 12 0 12 C0 8.04 0 4.08 0 0 Z " fill="#0F5155" transform="translate(48,127)"/>
<path d="M0 0 C3.96 0 7.92 0 12 0 C12 3.96 12 7.92 12 12 C8.04 12 4.08 12 0 12 C0 8.04 0 4.08 0 0 Z " fill="#474444" transform="translate(35,127)"/>
<path d="M0 0 C3.96 0 7.92 0 12 0 C12 3.96 12 7.92 12 12 C8.04 12 4.08 12 0 12 C0 8.04 0 4.08 0 0 Z " fill="#115256" transform="translate(148,114)"/>
<path d="M0 0 C3.96 0 7.92 0 12 0 C12 3.96 12 7.92 12 12 C8.04 12 4.08 12 0 12 C0 8.04 0 4.08 0 0 Z " fill="#115257" transform="translate(60,114)"/>
<path d="M0 0 C3.96 0 7.92 0 12 0 C12 3.96 12 7.92 12 12 C8.04 12 4.08 12 0 12 C0 8.04 0 4.08 0 0 Z " fill="#105156" transform="translate(73,102)"/>
<path d="M0 0 C3.96 0 7.92 0 12 0 C12 3.96 12 7.92 12 12 C8.04 12 4.08 12 0 12 C0 8.04 0 4.08 0 0 Z " fill="#5E5E5E" transform="translate(48,102)"/>
<path d="M0 0 C3.96 0 7.92 0 12 0 C12 3.96 12 7.92 12 12 C8.04 12 4.08 12 0 12 C0 8.04 0 4.08 0 0 Z " fill="#FCFCFC" transform="translate(98,89)"/>
<path d="M0 0 C3.96 0 7.92 0 12 0 C12 3.96 12 7.92 12 12 C8.04 12 4.08 12 0 12 C0 8.04 0 4.08 0 0 Z " fill="#5D5D5D" transform="translate(135,89)"/>
<path d="M0 0 C3.63 0 7.26 0 11 0 C11 3.96 11 7.92 11 12 C7.37 12 3.74 12 0 12 C0 8.04 0 4.08 0 0 Z " fill="#A7A7A7" transform="translate(23,139)"/>
<path d="M0 0 C3.63 0 7.26 0 11 0 C11 3.63 11 7.26 11 11 C7.37 11 3.74 11 0 11 C0 7.37 0 3.74 0 0 Z " fill="#828282" transform="translate(173,115)"/>
<path d="M0 0 C4.95 0 9.9 0 15 0 C15 2.64 15 5.28 15 8 C10.05 8 5.1 8 0 8 C0 5.36 0 2.72 0 0 Z " fill="#181717" transform="translate(88,252)"/>
<path d="M0 0 C0.33 0 0.66 0 1 0 C1 3.96 1 7.92 1 12 C9.25 12 17.5 12 26 12 C26 16.29 26 20.58 26 25 C25.67 25 25.34 25 25 25 C25 21.04 25 17.08 25 13 C17.08 13 9.16 13 1 13 C1 16.96 1 20.92 1 25 C0.67 25 0.34 25 0 25 C0 21.04 0 17.08 0 13 C-3.96 13 -7.92 13 -12 13 C-12 12.67 -12 12.34 -12 12 C-8.04 12 -4.08 12 0 12 C0 8.04 0 4.08 0 0 Z " fill="#3C4B4B" transform="translate(147,89)"/>
<path d="M0 0 C0.33 0 0.66 0 1 0 C1 3.96 1 7.92 1 12 C4.96 12 8.92 12 13 12 C13 12.33 13 12.66 13 13 C9.04 13 5.08 13 1 13 C1 16.96 1 20.92 1 25 C0.67 25 0.34 25 0 25 C0 21.04 0 17.08 0 13 C-7.92 13 -15.84 13 -24 13 C-24 12.67 -24 12.34 -24 12 C-16.08 12 -8.16 12 0 12 C0 8.04 0 4.08 0 0 Z " fill="#1D201F" transform="translate(172,214)"/>
<path d="M0 0 C0.33 0 0.66 0 1 0 C1 3.96 1 7.92 1 12 C8.92 12 16.84 12 25 12 C25 12.33 25 12.66 25 13 C17.08 13 9.16 13 1 13 C1 16.96 1 20.92 1 25 C0.67 25 0.34 25 0 25 C0 21.04 0 17.08 0 13 C-3.96 13 -7.92 13 -12 13 C-12 12.67 -12 12.34 -12 12 C-8.04 12 -4.08 12 0 12 C0 8.04 0 4.08 0 0 Z " fill="#2C7C81" transform="translate(47,189)"/>
<path d="M0 0 C0.33 0 0.66 0 1 0 C1 3.96 1 7.92 1 12 C4.96 12 8.92 12 13 12 C13 12.33 13 12.66 13 13 C9.04 13 5.08 13 1 13 C1 16.96 1 20.92 1 25 C0.67 25 0.34 25 0 25 C0 21.04 0 17.08 0 13 C-7.92 13 -15.84 13 -24 13 C-24 12.67 -24 12.34 -24 12 C-16.08 12 -8.16 12 0 12 C0 8.04 0 4.08 0 0 Z " fill="#256468" transform="translate(172,189)"/>
</svg>
