<?xml version="1.0" encoding="UTF-8"?>
<svg version="1.1" xmlns="http://www.w3.org/2000/svg" width="280" height="160">
<path d="M0 0 C36.3 0 72.6 0 110 0 C110.165 12.2925 110.33 24.585 110.5 37.25 C110.55220703 41.00536133 110.60441406 44.76072266 110.65820312 48.62988281 C111.01978207 76.76129844 111 104.85856291 111 133 C74.04 133 37.08 133 -1 133 C-1 101.07031251 -0.94377598 69.17173745 -0.5 37.25 C-0.335 24.9575 -0.17 12.665 0 0 Z " fill="#202222" transform="translate(144,4)"/>
<path d="M0 0 C17.16 0 34.32 0 52 0 C52 2.97 52 5.94 52 9 C57.28 9 62.56 9 68 9 C68 11.64 68 14.28 68 17 C70.97 17 73.94 17 77 17 C77 19.64 77 22.28 77 25 C79.64 25 82.28 25 85 25 C85 37.21 85 49.42 85 62 C87.64 62 90.28 62 93 62 C93 63.98 93 65.96 93 68 C94.98 68 96.96 68 99 68 C99 69.98 99 71.96 99 74 C100.98 74 102.96 74 105 74 C105 75.98 105 77.96 105 80 C106.98 80 108.96 80 111 80 C111 91.88 111 103.76 111 116 C109.02 116 107.04 116 105 116 C105 117.98 105 119.96 105 122 C103.02 122 101.04 122 99 122 C99 123.98 99 125.96 99 128 C97.02 128 95.04 128 93 128 C93 129.98 93 131.96 93 134 C89.04 134 85.08 134 81 134 C81 135.98 81 137.96 81 140 C69.12 140 57.24 140 45 140 C45 138.02 45 136.04 45 134 C41.04 134 37.08 134 33 134 C33 132.02 33 130.04 33 128 C31.02 128 29.04 128 27 128 C27 126.02 27 124.04 27 122 C25.02 122 23.04 122 21 122 C21 120.02 21 118.04 21 116 C19.02 116 17.04 116 15 116 C15 111.38 15 106.76 15 102 C10.05 102 5.1 102 0 102 C0 99.36 0 96.72 0 94 C-5.28 94 -10.56 94 -16 94 C-16 91.03 -16 88.06 -16 85 C-18.97 85 -21.94 85 -25 85 C-25 82.36 -25 79.72 -25 77 C-26.98 77 -28.96 77 -31 77 C-31 59.84 -31 42.68 -31 25 C-29.02 25 -27.04 25 -25 25 C-25 22.36 -25 19.72 -25 17 C-22.03 17 -19.06 17 -16 17 C-16 14.36 -16 11.72 -16 9 C-10.72 9 -5.44 9 0 9 C0 6.03 0 3.06 0 0 Z " fill="#313030" transform="translate(31,10)"/>
<path d="M0 0 C36.3 0 72.6 0 110 0 C110.165 12.2925 110.33 24.585 110.5 37.25 C110.55220703 41.00536133 110.60441406 44.76072266 110.65820312 48.62988281 C111.01978207 76.76129844 111 104.85856291 111 133 C74.04 133 37.08 133 -1 133 C-1 101.07031251 -0.94377598 69.17173745 -0.5 37.25 C-0.335 24.9575 -0.17 12.665 0 0 Z M3 11 C2.979375 22.34375 2.95875 33.6875 2.9375 45.375 C2.928396 48.93845215 2.91929199 52.5019043 2.90991211 56.17333984 C2.90656482 59.40644788 2.90656482 59.40644788 2.90455627 62.63955688 C2.90303464 64.06412062 2.89954703 65.48868319 2.89442444 66.91323853 C2.86686132 74.99195069 2.93038456 82.97807373 4 91 C4.99 91 5.98 91 7 91 C7.0825 90.071875 7.165 89.14375 7.25 88.1875 C8 85 8 85 10.0625 83.125 C10.701875 82.75375 11.34125 82.3825 12 82 C10.02 82 8.04 82 6 82 C6.33 66.82 6.66 51.64 7 36 C11.62 35.67 16.24 35.34 21 35 C21 36.98 21 38.96 21 41 C20.01 41.33 19.02 41.66 18 42 C18 42.66 18 43.32 18 44 C18.66 44 19.32 44 20 44 C20 44.66 20 45.32 20 46 C19.34 46 18.68 46 18 46 C17.67 47.32 17.34 48.64 17 50 C18.65 50 20.3 50 22 50 C22 60.56 22 71.12 22 82 C20.02 82 18.04 82 16 82 C16.639375 82.433125 17.27875 82.86625 17.9375 83.3125 C20 85 20 85 21 88 C20.01 88.495 20.01 88.495 19 89 C19.66 89 20.32 89 21 89 C20.625 91.4375 20.625 91.4375 20 94 C19.01 94.495 19.01 94.495 18 95 C18 92.69 18 90.38 18 88 C17.67 88 17.34 88 17 88 C17 90.64 17 93.28 17 96 C16.34 96 15.68 96 15 96 C15.33 93.69 15.66 91.38 16 89 C15.34 88.67 14.68 88.34 14 88 C14 90.97 14 93.94 14 97 C16.64 97 19.28 97 22 97 C22 101.29 22 105.58 22 110 C22.33 110 22.66 110 23 110 C23 106.04 23 102.08 23 98 C48.41 98 73.82 98 100 98 C100 108.23 100 118.46 100 129 C95.38 129 90.76 129 86 129 C86 129.33 86 129.66 86 130 C92.93 130 99.86 130 107 130 C107 128.54896378 107 127.09792755 107 125.60292053 C107 87.40194702 107 49.20097351 107 11 C72.68 11 38.36 11 3 11 Z " fill="#43413F" transform="translate(144,4)"/>
<path d="M0 0 C2.64 0 5.28 0 8 0 C8 2.64 8 5.28 8 8 C13.61 8 19.22 8 25 8 C25 10.97 25 13.94 25 17 C33.58 17 42.16 17 51 17 C51 18.98 51 20.96 51 23 C49.02 23 47.04 23 45 23 C45 24.98 45 26.96 45 29 C46.98 29 48.96 29 51 29 C51 32.96 51 36.92 51 41 C52.98 41 54.96 41 57 41 C57 42.98 57 44.96 57 47 C60.96 47 64.92 47 69 47 C69 48.98 69 50.96 69 53 C74.94 53 80.88 53 87 53 C87 47.06 87 41.12 87 35 C88.98 35 90.96 35 93 35 C93 40.94 93 46.88 93 53 C96.96 53 100.92 53 105 53 C105 51.02 105 49.04 105 47 C108.96 47 112.92 47 117 47 C117 45.02 117 43.04 117 41 C118.98 41 120.96 41 123 41 C123 37.04 123 33.08 123 29 C126.96 29 130.92 29 135 29 C135 40.88 135 52.76 135 65 C133.02 65 131.04 65 129 65 C129 66.98 129 68.96 129 71 C127.02 71 125.04 71 123 71 C123 72.98 123 74.96 123 77 C121.02 77 119.04 77 117 77 C117 78.98 117 80.96 117 83 C113.04 83 109.08 83 105 83 C105 84.98 105 86.96 105 89 C93.12 89 81.24 89 69 89 C69 87.02 69 85.04 69 83 C65.04 83 61.08 83 57 83 C57 81.02 57 79.04 57 77 C55.02 77 53.04 77 51 77 C51 75.02 51 73.04 51 71 C49.02 71 47.04 71 45 71 C45 69.02 45 67.04 45 65 C43.02 65 41.04 65 39 65 C39 60.38 39 55.76 39 51 C34.05 51 29.1 51 24 51 C24 48.36 24 45.72 24 43 C18.72 43 13.44 43 8 43 C8 37.06 8 31.12 8 25 C5.36 25 2.72 25 0 25 C0 16.75 0 8.5 0 0 Z " fill="#474444" transform="translate(7,61)"/>
<path d="M0 0 C36.3 0 72.6 0 110 0 C110.165 12.2925 110.33 24.585 110.5 37.25 C110.55220703 41.00536133 110.60441406 44.76072266 110.65820312 48.62988281 C111.01978207 76.76129844 111 104.85856291 111 133 C74.04 133 37.08 133 -1 133 C-1 101.07031251 -0.94377598 69.17173745 -0.5 37.25 C-0.335 24.9575 -0.17 12.665 0 0 Z M3 11 C3 50.27 3 89.54 3 130 C37.32 130 71.64 130 107 130 C107 121.63785156 107 113.27570313 107 104.66015625 C107 73.44010417 107 42.22005208 107 11 C72.68 11 38.36 11 3 11 Z " fill="#B3B3B3" transform="translate(144,4)"/>
<path d="M0 0 C17.16 0 34.32 0 52 0 C52 2.97 52 5.94 52 9 C57.28 9 62.56 9 68 9 C68 14.61 68 20.22 68 26 C62.39 26 56.78 26 51 26 C51 23.36 51 20.72 51 18 C34.5 18 18 18 1 18 C1 20.64 1 23.28 1 26 C-4.61 26 -10.22 26 -16 26 C-16 20.39 -16 14.78 -16 9 C-10.72 9 -5.44 9 0 9 C0 6.03 0 3.06 0 0 Z " fill="#353535" transform="translate(31,10)"/>
<path d="M0 0 C31.02 0 62.04 0 94 0 C94 4.95 94 9.9 94 15 C62.98 15 31.96 15 0 15 C0 10.05 0 5.1 0 0 Z " fill="#C2C2C2" transform="translate(151,23)"/>
<path d="M0 0 C11.88 0 23.76 0 36 0 C36 1.98 36 3.96 36 6 C37.98 6 39.96 6 42 6 C42 7.98 42 9.96 42 12 C45.96 12 49.92 12 54 12 C54 13.98 54 15.96 54 18 C52.02 18 50.04 18 48 18 C48 19.98 48 21.96 48 24 C44.04 24 40.08 24 36 24 C36 25.98 36 27.96 36 30 C32.04 30 28.08 30 24 30 C24 24.06 24 18.12 24 12 C22.02 12 20.04 12 18 12 C18 17.94 18 23.88 18 30 C12.06 30 6.12 30 0 30 C0 28.02 0 26.04 0 24 C-3.96 24 -7.92 24 -12 24 C-12 22.02 -12 20.04 -12 18 C-13.98 18 -15.96 18 -18 18 C-18 16.02 -18 14.04 -18 12 C-14.04 12 -10.08 12 -6 12 C-6 10.02 -6 8.04 -6 6 C-4.02 6 -2.04 6 0 6 C0 4.02 0 2.04 0 0 Z " fill="#0B1612" transform="translate(76,84)"/>
<path d="M0 0 C1.98 0 3.96 0 6 0 C6 11.88 6 23.76 6 36 C4.02 36 2.04 36 0 36 C0 37.98 0 39.96 0 42 C-1.98 42 -3.96 42 -6 42 C-6 43.98 -6 45.96 -6 48 C-7.98 48 -9.96 48 -12 48 C-12 49.98 -12 51.96 -12 54 C-15.96 54 -19.92 54 -24 54 C-24 55.98 -24 57.96 -24 60 C-35.88 60 -47.76 60 -60 60 C-60 58.02 -60 56.04 -60 54 C-63.96 54 -67.92 54 -72 54 C-72 52.02 -72 50.04 -72 48 C-73.98 48 -75.96 48 -78 48 C-78 46.02 -78 44.04 -78 42 C-79.98 42 -81.96 42 -84 42 C-84 40.02 -84 38.04 -84 36 C-80.04 36 -76.08 36 -72 36 C-72 37.98 -72 39.96 -72 42 C-68.04 42 -64.08 42 -60 42 C-60 43.98 -60 45.96 -60 48 C-48.12 48 -36.24 48 -24 48 C-24 46.02 -24 44.04 -24 42 C-20.04 42 -16.08 42 -12 42 C-12 40.02 -12 38.04 -12 36 C-10.02 36 -8.04 36 -6 36 C-6 30.06 -6 24.12 -6 18 C-4.02 18 -2.04 18 0 18 C0 12.06 0 6.12 0 0 Z " fill="#0F1110" transform="translate(136,90)"/>
<path d="M0 0 C25.41 0 50.82 0 77 0 C77 4.95 77 9.9 77 15 C51.59 15 26.18 15 0 15 C0 10.05 0 5.1 0 0 Z " fill="#BDBDBD" transform="translate(168,55)"/>
<path d="M0 0 C25.41 0 50.82 0 77 0 C77 4.95 77 9.9 77 15 C51.59 15 26.18 15 0 15 C0 10.05 0 5.1 0 0 Z " fill="#BDBEBD" transform="translate(168,39)"/>
<path d="M0 0 C1.98 0 3.96 0 6 0 C6 3.96 6 7.92 6 12 C7.98 12 9.96 12 12 12 C12 13.98 12 15.96 12 18 C15.96 18 19.92 18 24 18 C24 19.98 24 21.96 24 24 C29.94 24 35.88 24 42 24 C42 18.06 42 12.12 42 6 C43.98 6 45.96 6 48 6 C48 11.94 48 17.88 48 24 C51.96 24 55.92 24 60 24 C60 22.02 60 20.04 60 18 C63.96 18 67.92 18 72 18 C72 16.02 72 14.04 72 12 C73.98 12 75.96 12 78 12 C78 8.04 78 4.08 78 0 C79.98 0 81.96 0 84 0 C84 5.94 84 11.88 84 18 C82.02 18 80.04 18 78 18 C78 19.98 78 21.96 78 24 C74.04 24 70.08 24 66 24 C66 25.98 66 27.96 66 30 C64.02 30 62.04 30 60 30 C60 31.98 60 33.96 60 36 C48.12 36 36.24 36 24 36 C24 34.02 24 32.04 24 30 C20.04 30 16.08 30 12 30 C12 28.02 12 26.04 12 24 C10.02 24 8.04 24 6 24 C6 22.02 6 20.04 6 18 C4.02 18 2.04 18 0 18 C0 12.06 0 6.12 0 0 Z " fill="#5E5E5E" transform="translate(52,90)"/>
<path d="M0 0 C25.08 0 50.16 0 76 0 C76 4.95 76 9.9 76 15 C50.92 15 25.84 15 0 15 C0 10.05 0 5.1 0 0 Z " fill="#BDBDBD" transform="translate(168,86)"/>
<path d="M0 0 C2.64 0 5.28 0 8 0 C8 2.64 8 5.28 8 8 C13.61 8 19.22 8 25 8 C25 10.97 25 13.94 25 17 C33.58 17 42.16 17 51 17 C51 18.98 51 20.96 51 23 C49.02 23 47.04 23 45 23 C45 24.98 45 26.96 45 29 C43.02 29 41.04 29 39 29 C39 33.29 39 37.58 39 42 C34.38 42 29.76 42 25 42 C25 39.36 25 36.72 25 34 C19.39 34 13.78 34 8 34 C8 31.03 8 28.06 8 25 C5.36 25 2.72 25 0 25 C0 16.75 0 8.5 0 0 Z " fill="#D7D7D7" transform="translate(7,61)"/>
<path d="M0 0 C25.08 0 50.16 0 76 0 C76 4.62 76 9.24 76 14 C50.92 14 25.84 14 0 14 C0 9.38 0 4.76 0 0 Z " fill="#C3C4C3" transform="translate(168,118)"/>
<path d="M0 0 C25.08 0 50.16 0 76 0 C76 4.62 76 9.24 76 14 C50.92 14 25.84 14 0 14 C0 9.38 0 4.76 0 0 Z " fill="#C3C3C3" transform="translate(168,102)"/>
<path d="M0 0 C25.08 0 50.16 0 76 0 C76 4.62 76 9.24 76 14 C50.92 14 25.84 14 0 14 C0 9.38 0 4.76 0 0 Z " fill="#C3C4C3" transform="translate(168,71)"/>
<path d="M0 0 C2.97 0 5.94 0 9 0 C9 2.64 9 5.28 9 8 C11.64 8 14.28 8 17 8 C17 20.21 17 32.42 17 45 C19.64 45 22.28 45 25 45 C25 46.98 25 48.96 25 51 C26.98 51 28.96 51 31 51 C31 52.98 31 54.96 31 57 C32.98 57 34.96 57 37 57 C37 58.98 37 60.96 37 63 C35.02 63 33.04 63 31 63 C31 64.98 31 66.96 31 69 C27.04 69 23.08 69 19 69 C19 67.02 19 65.04 19 63 C17.02 63 15.04 63 13 63 C13 57.06 13 51.12 13 45 C1.12 45 -10.76 45 -23 45 C-23 43.02 -23 41.04 -23 39 C-12.77 39 -2.54 39 8 39 C8 29.1 8 19.2 8 9 C5.36 9 2.72 9 0 9 C0 6.03 0 3.06 0 0 Z " fill="#181717" transform="translate(99,27)"/>
<path d="M0 0 C33.99 0 67.98 0 103 0 C102.01 0.33 101.02 0.66 100 1 C100 10.57 100 20.14 100 30 C99.34 30 98.68 30 98 30 C95.08081511 21.58587884 96.33516806 16.97247915 97 7 C65.65 7 34.3 7 2 7 C2 12.28 2 17.56 2 23 C1.67 25.31 1.34 27.62 1 30 C0.67 30 0.34 30 0 30 C0 20.1 0 10.2 0 0 Z " fill="#0B0B0B" transform="translate(148,16)"/>
<path d="M0 0 C1.93166016 0.01740234 1.93166016 0.01740234 3.90234375 0.03515625 C5.19269531 0.04417969 6.48304688 0.05320313 7.8125 0.0625 C8.81152344 0.07410156 9.81054688 0.08570313 10.83984375 0.09765625 C11.16984375 2.07765625 11.49984375 4.05765625 11.83984375 6.09765625 C10.51984375 6.42765625 9.19984375 6.75765625 7.83984375 7.09765625 C7.83984375 7.75765625 7.83984375 8.41765625 7.83984375 9.09765625 C8.49984375 9.09765625 9.15984375 9.09765625 9.83984375 9.09765625 C9.83984375 9.75765625 9.83984375 10.41765625 9.83984375 11.09765625 C9.17984375 11.09765625 8.51984375 11.09765625 7.83984375 11.09765625 C7.50984375 12.41765625 7.17984375 13.73765625 6.83984375 15.09765625 C8.48984375 15.09765625 10.13984375 15.09765625 11.83984375 15.09765625 C11.83984375 25.65765625 11.83984375 36.21765625 11.83984375 47.09765625 C6.55984375 47.09765625 1.27984375 47.09765625 -4.16015625 47.09765625 C-4.18479972 40.56486286 -4.20298916 34.03209627 -4.21508789 27.49926758 C-4.22012942 25.27497893 -4.22696248 23.05069362 -4.2355957 20.82641602 C-4.24766923 17.63687316 -4.25338621 14.44737396 -4.2578125 11.2578125 C-4.26297379 10.25677994 -4.26813507 9.25574738 -4.27345276 8.22438049 C-4.27352829 7.30350143 -4.27360382 6.38262238 -4.27368164 5.43383789 C-4.27590225 4.61887344 -4.27812286 3.803909 -4.28041077 2.96424866 C-4.0708619 -0.28837201 -3.32628804 0.10279011 0 0 Z " fill="#737B8C" transform="translate(154.16015625,38.90234375)"/>
<path d="M0 0 C0.33 0 0.66 0 1 0 C1.13504969 8.28053278 1.2655005 16.56112338 1.39115143 24.84180355 C1.44971605 28.69331696 1.5094691 32.54480126 1.57275391 36.39624023 C2.02057475 63.93722218 2 91.44861386 2 119 C36.32 119 70.64 119 106 119 C106 102.83 106 86.66 106 70 C106.12968046 58.21528817 106.26670866 46.43306808 106.46356201 34.6496582 C106.52678452 30.81140597 106.58539129 26.97308255 106.64453125 23.13476562 C106.75882337 15.75643937 106.87767167 8.37819791 107 1 C107.33 1 107.66 1 108 1 C108 40.6 108 80.2 108 121 C71.7 121 35.4 121 -2 121 C-2 104.17 -2 87.34 -2 70 C-1.34 70 -0.68 70 0 70 C0 46.9 0 23.8 0 0 Z " fill="#C7C8C7" transform="translate(145,15)"/>
<path d="M0 0 C16.5 0 33 0 50 0 C50 2.64 50 5.28 50 8 C43.96403819 8.88278996 38.12624749 9.13350959 32.03125 9.09765625 C30.64987854 9.09553383 30.64987854 9.09553383 29.24060059 9.09336853 C26.32703266 9.08781407 23.41354432 9.07527025 20.5 9.0625 C18.51302195 9.05747911 16.52604269 9.05291723 14.5390625 9.04882812 C9.69267812 9.0378596 4.84635251 9.02062683 0 9 C0 11.64 0 14.28 0 17 C-5.61 17 -11.22 17 -17 17 C-17 14.03 -17 11.06 -17 8 C-11.39 8 -5.78 8 0 8 C0 5.36 0 2.72 0 0 Z " fill="#5E5E5E" transform="translate(32,19)"/>
<path d="M0 0 C0.33 0 0.66 0 1 0 C1 4.62 1 9.24 1 14 C1.99 14 2.98 14 4 14 C4 29.18 4 44.36 4 60 C4.66 60 5.32 60 6 60 C6 44.82 6 29.64 6 14 C6.33 14 6.66 14 7 14 C7 30.17 7 46.34 7 63 C0.07 63 -6.86 63 -14 63 C-14 62.67 -14 62.34 -14 62 C-9.38 62 -4.76 62 0 62 C0 51.77 0 41.54 0 31 C-25.41 31 -50.82 31 -77 31 C-77 34.96 -77 38.92 -77 43 C-77.33 43 -77.66 43 -78 43 C-78 38.71 -78 34.42 -78 30 C-80.64 30 -83.28 30 -86 30 C-86 27.03 -86 24.06 -86 21 C-85.34 21.33 -84.68 21.66 -84 22 C-84.33 24.31 -84.66 26.62 -85 29 C-84.34 29 -83.68 29 -83 29 C-83 26.36 -83 23.72 -83 21 C-82.67 21 -82.34 21 -82 21 C-82 23.31 -82 25.62 -82 28 C-81.34 27.67 -80.68 27.34 -80 27 C-79.34444881 24.47266765 -79.34444881 24.47266765 -79 22 C-79.66 21.67 -80.32 21.34 -81 21 C-80.34 21 -79.68 21 -79 21 C-80.13304992 17.60085025 -81.12518475 16.94745549 -84 15 C-79.35797555 14.08838643 -74.87264188 13.86252958 -70.15869141 13.88647461 C-69.01620941 13.88625557 -69.01620941 13.88625557 -67.85064697 13.8860321 C-65.35092246 13.88672482 -62.85127388 13.89448701 -60.3515625 13.90234375 C-58.61135906 13.90421021 -56.87115509 13.90563304 -55.13095093 13.90663147 C-50.56401097 13.91043869 -45.99710311 13.92025358 -41.43017578 13.93133545 C-36.76465285 13.94158823 -32.09912471 13.94613736 -27.43359375 13.95117188 C-18.28904844 13.96187753 -9.1445269 13.9789323 0 14 C0 9.38 0 4.76 0 0 Z M-76 15 C-76 19.95 -76 24.9 -76 30 C-50.92 30 -25.84 30 0 30 C0 25.05 0 20.1 0 15 C-25.08 15 -50.16 15 -76 15 Z " fill="#262623" transform="translate(244,71)"/>
<path d="M0 0 C2.97 0 5.94 0 9 0 C9 2.97 9 5.94 9 9 C6.36 9 3.72 9 1 9 C1 25.5 1 42 1 59 C3.64 59 6.28 59 9 59 C9 61.97 9 64.94 9 68 C6.03 68 3.06 68 0 68 C0 65.36 0 62.72 0 60 C-1.98 60 -3.96 60 -6 60 C-6 42.84 -6 25.68 -6 8 C-4.02 8 -2.04 8 0 8 C0 5.36 0 2.72 0 0 Z " fill="#1A1919" transform="translate(6,27)"/>
<path d="M0 0 C5.28 0 10.56 0 16 0 C16 10.56 16 21.12 16 32 C10.72 32 5.44 32 0 32 C0 21.44 0 10.88 0 0 Z " fill="#EED6AB" transform="translate(150,101)"/>
<path d="M0 0 C1.98 0 3.96 0 6 0 C6 11.88 6 23.76 6 36 C4.02 36 2.04 36 0 36 C0 31.38 0 26.76 0 22 C-4.95 22 -9.9 22 -15 22 C-15 19.36 -15 16.72 -15 14 C-20.28 14 -25.56 14 -31 14 C-31 11.03 -31 8.06 -31 5 C-25.39 5 -19.78 5 -14 5 C-14 7.64 -14 10.28 -14 13 C-9.38 13 -4.76 13 0 13 C0 8.71 0 4.42 0 0 Z " fill="#181717" transform="translate(46,90)"/>
<path d="M0 0 C0.99 0.33 1.98 0.66 3 1 C3.03074838 11.2083221 3.05102904 21.41663982 3.0625 31.625 C3.06335602 32.38139896 3.06421204 33.13779793 3.06509399 33.91711807 C3.09178235 60.6228651 2.77564482 87.30420321 2 114 C1.34 114 0.68 114 0 114 C0 98.82 0 83.64 0 68 C-0.99 68 -1.98 68 -3 68 C-3 63.38 -3 58.76 -3 54 C-28.41 54 -53.82 54 -80 54 C-80 53.67 -80 53.34 -80 53 C-54.59 53 -29.18 53 -3 53 C-3.33 47.72 -3.66 42.44 -4 37 C-3.74875795 33.267261 -3.50704437 29.68192217 -3 26 C-2.505 27.485 -2.505 27.485 -2 29 C-1.34 29 -0.68 29 0 29 C0 19.43 0 9.86 0 0 Z " fill="#424340" transform="translate(248,17)"/>
<path d="M0 0 C1.98 0 3.96 0 6 0 C6 3.96 6 7.92 6 12 C7.98 12 9.96 12 12 12 C12 13.98 12 15.96 12 18 C15.96 18 19.92 18 24 18 C24 19.98 24 21.96 24 24 C27.96 24 31.92 24 36 24 C36 25.98 36 27.96 36 30 C34.02 30 32.04 30 30 30 C30 31.98 30 33.96 30 36 C28.02 36 26.04 36 24 36 C24 34.02 24 32.04 24 30 C20.04 30 16.08 30 12 30 C12 28.02 12 26.04 12 24 C10.02 24 8.04 24 6 24 C6 22.02 6 20.04 6 18 C4.02 18 2.04 18 0 18 C0 12.06 0 6.12 0 0 Z " fill="#828282" transform="translate(52,90)"/>
<path d="M0 0 C11.88 0 23.76 0 36 0 C36 3.96 36 7.92 36 12 C26.1 12 16.2 12 6 12 C6 10.02 6 8.04 6 6 C4.02 6 2.04 6 0 6 C0 4.02 0 2.04 0 0 Z " fill="#105257" transform="translate(76,72)"/>
<path d="M0 0 C7.92 0 15.84 0 24 0 C24 1.98 24 3.96 24 6 C22.02 6 20.04 6 18 6 C18 7.98 18 9.96 18 12 C16.02 12 14.04 12 12 12 C12 13.98 12 15.96 12 18 C8.04 18 4.08 18 0 18 C0 16.02 0 14.04 0 12 C-1.98 12 -3.96 12 -6 12 C-6 10.02 -6 8.04 -6 6 C-4.02 6 -2.04 6 0 6 C0 4.02 0 2.04 0 0 Z " fill="#4E4C4C" transform="translate(58,78)"/>
<path d="M0 0 C1.98 0 3.96 0 6 0 C6 1.98 6 3.96 6 6 C7.98 6 9.96 6 12 6 C12 7.98 12 9.96 12 12 C15.96 12 19.92 12 24 12 C24 15.96 24 19.92 24 24 C20.04 24 16.08 24 12 24 C12 22.02 12 20.04 12 18 C8.04 18 4.08 18 0 18 C0 12.06 0 6.12 0 0 Z " fill="#105257" transform="translate(52,108)"/>
<path d="M0 0 C5.94 0 11.88 0 18 0 C18 1.98 18 3.96 18 6 C19.98 6 21.96 6 24 6 C24 7.98 24 9.96 24 12 C22.02 12 20.04 12 18 12 C18 13.98 18 15.96 18 18 C14.04 18 10.08 18 6 18 C6 16.02 6 14.04 6 12 C4.02 12 2.04 12 0 12 C0 8.04 0 4.08 0 0 Z " fill="#5E5E5E" transform="translate(112,78)"/>
<path d="M0 0 C0.33 0 0.66 0 1 0 C1 3.3 1 6.6 1 10 C1.99 10 2.98 10 4 10 C3.896875 9.071875 3.79375 8.14375 3.6875 7.1875 C4 4 4 4 6.125 2.0625 C9.60753872 0.77547482 11.45461799 0.99804422 15 2 C15.99 2.66 16.98 3.32 18 4 C18.29296875 6.1640625 18.29296875 6.1640625 18.1875 8.625 C18.16042969 9.44226563 18.13335937 10.25953125 18.10546875 11.1015625 C18.07066406 11.72804688 18.03585938 12.35453125 18 13 C16.02 13.66 14.04 14.32 12 15 C12 12.69 12 10.38 12 8 C11.67 10.64 11.34 13.28 11 16 C8.36 16 5.72 16 3 16 C3 26.56 3 37.12 3 48 C5.31 48 7.62 48 10 48 C10 48.33 10 48.66 10 49 C6.7 49 3.4 49 0 49 C0 32.83 0 16.66 0 0 Z " fill="#2C2927" transform="translate(147,85)"/>
<path d="M0 0 C34.32 0 68.64 0 104 0 C104 0.33 104 0.66 104 1 C70.01 1 36.02 1 1 1 C1.33 8.59 1.66 16.18 2 24 C2.33 24 2.66 24 3 24 C3 39.51 3 55.02 3 71 C4.98 71 6.96 71 9 71 C8.360625 71.37125 7.72125 71.7425 7.0625 72.125 C4.36141928 74.58052793 4.31592995 76.44578805 4 80 C3.01 80 2.02 80 1 80 C-0.16671447 71.24984815 -0.12933004 62.51918095 -0.09765625 53.7109375 C-0.09618243 52.33113648 -0.09516444 50.9513349 -0.09460449 49.5715332 C-0.0894026 44.5060135 -0.07544149 39.44050584 -0.0625 34.375 C-0.041875 23.03125 -0.02125 11.6875 0 0 Z " fill="#1D1E1E" transform="translate(147,15)"/>
<path d="M0 0 C1.98 0 3.96 0 6 0 C6 5.94 6 11.88 6 18 C4.02 18 2.04 18 0 18 C0 19.98 0 21.96 0 24 C-3.96 24 -7.92 24 -12 24 C-12 25.98 -12 27.96 -12 30 C-13.98 30 -15.96 30 -18 30 C-18 26.04 -18 22.08 -18 18 C-14.04 18 -10.08 18 -6 18 C-6 16.02 -6 14.04 -6 12 C-4.02 12 -2.04 12 0 12 C0 8.04 0 4.08 0 0 Z " fill="#828282" transform="translate(130,90)"/>
<path d="M0 0 C0.33 0 0.66 0 1 0 C1 39.6 1 79.2 1 120 C-33.65 119.67 -68.3 119.34 -104 119 C-104 118.67 -104 118.34 -104 118 C-70.01 118 -36.02 118 -1 118 C-1 101.83 -1 85.66 -1 69 C-0.87031954 57.21528817 -0.73329134 45.43306808 -0.53643799 33.6496582 C-0.47321548 29.81140597 -0.41460871 25.97308255 -0.35546875 22.13476562 C-0.24117663 14.75643937 -0.12232833 7.37819791 0 0 Z " fill="#D4D5D4" transform="translate(252,16)"/>
<path d="M0 0 C0.99 0 1.98 0 3 0 C3 15.18 3 30.36 3 46 C3.66 46 4.32 46 5 46 C5 30.82 5 15.64 5 0 C5.33 0 5.66 0 6 0 C6 16.17 6 32.34 6 49 C-0.93 49 -7.86 49 -15 49 C-15 48.67 -15 48.34 -15 48 C-10.38 48 -5.76 48 -1 48 C-1.01160156 45.875625 -1.02320313 43.75125 -1.03515625 41.5625 C-1.15786434 12.57109858 -1.15786434 12.57109858 0 0 Z " fill="#100F10" transform="translate(245,85)"/>
<path d="M0 0 C4.95 0 9.9 0 15 0 C14.67 0.66 14.34 1.32 14 2 C10.04 1.67 6.08 1.34 2 1 C2 5.29 2 9.58 2 14 C8.435 13.505 8.435 13.505 15 13 C15 18.61 15 24.22 15 30 C13.68 28.68 12.36 27.36 11 26 C11.33 27.32 11.66 28.64 12 30 C9.69 30 7.38 30 5 30 C5 29.01 5 28.02 5 27 C5.66 27 6.32 27 7 27 C6.34 25.68 5.68 24.36 5 23 C4.34 23 3.68 23 3 23 C3.33 23.99 3.66 24.98 4 26 C3.0625 28.1875 3.0625 28.1875 2 30 C1.34 30 0.68 30 0 30 C0 20.1 0 10.2 0 0 Z " fill="#BFB9A8" transform="translate(150,55)"/>
<path d="M0 0 C0.33 0 0.66 0 1 0 C1 9.9 1 19.8 1 30 C2.32 30 3.64 30 5 30 C5 31.98 5 33.96 5 36 C-6.88 36 -18.76 36 -31 36 C-31 34.02 -31 32.04 -31 30 C-20.77 30 -10.54 30 0 30 C0 20.1 0 10.2 0 0 Z " fill="#212D2A" transform="translate(107,36)"/>
<path d="M0 0 C4.95 0 9.9 0 15 0 C15 4.95 15 9.9 15 15 C10.05 15 5.1 15 0 15 C0 10.05 0 5.1 0 0 Z " fill="#FBF8F7" transform="translate(151,117)"/>
<path d="M0 0 C8.25 0 16.5 0 25 0 C25 2.64 25 5.28 25 8 C17.97942879 9.09266243 11.09531697 9.11532882 4 9.0625 C2.84371094 9.05798828 1.68742187 9.05347656 0.49609375 9.04882812 C-2.33599225 9.03712529 -5.16796811 9.02072996 -8 9 C-8 8.67 -8 8.34 -8 8 C-5.36 8 -2.72 8 0 8 C0 5.36 0 2.72 0 0 Z " fill="#7D7D7D" transform="translate(57,19)"/>
<path d="M0 0 C2.64 0 5.28 0 8 0 C8 2.64 8 5.28 8 8 C13.61 8 19.22 8 25 8 C25 8.33 25 8.66 25 9 C19.39 9 13.78 9 8 9 C8 14.28 8 19.56 8 25 C5.36 25 2.72 25 0 25 C0 16.75 0 8.5 0 0 Z " fill="#828282" transform="translate(7,61)"/>
<path d="M0 0 C11.88 0 23.76 0 36 0 C36 1.98 36 3.96 36 6 C24.12 6 12.24 6 0 6 C0 4.02 0 2.04 0 0 Z " fill="#29DFEB" transform="translate(76,132)"/>
<path d="M0 0 C11.88 0 23.76 0 36 0 C36 1.98 36 3.96 36 6 C24.12 6 12.24 6 0 6 C0 4.02 0 2.04 0 0 Z " fill="#5E5E5E" transform="translate(76,126)"/>
<path d="M0 0 C1.98 0 3.96 0 6 0 C6 11.88 6 23.76 6 36 C4.02 36 2.04 36 0 36 C0 24.12 0 12.24 0 0 Z " fill="#0D0D0D" transform="translate(136,90)"/>
<path d="M0 0 C2.64 0 5.28 0 8 0 C8.0271045 3.04172719 8.04688964 6.08320997 8.0625 9.125 C8.07087891 9.9809375 8.07925781 10.836875 8.08789062 11.71875 C8.10538306 16.26678411 7.93192358 20.52383164 7 25 C4.69 25 2.38 25 0 25 C0 16.75 0 8.5 0 0 Z " fill="#FD1414" transform="translate(57,53)"/>
<path d="M0 0 C7.92 0 15.84 0 24 0 C24 1.98 24 3.96 24 6 C22.02 6 20.04 6 18 6 C18 7.98 18 9.96 18 12 C16.02 12 14.04 12 12 12 C12 10.02 12 8.04 12 6 C8.04 6 4.08 6 0 6 C0 4.02 0 2.04 0 0 Z " fill="#5E5E5E" transform="translate(58,78)"/>
<path d="M0 0 C3.96 0 7.92 0 12 0 C12 4.29 12 8.58 12 13 C8.04 13 4.08 13 0 13 C0 8.71 0 4.42 0 0 Z " fill="#2A2F2F" transform="translate(152,56)"/>
<path d="M0 0 C7.92 0 15.84 0 24 0 C24 1.98 24 3.96 24 6 C16.08 6 8.16 6 0 6 C0 4.02 0 2.04 0 0 Z " fill="#474444" transform="translate(82,138)"/>
<path d="M0 0 C1.98 0 3.96 0 6 0 C6 5.94 6 11.88 6 18 C2.04 18 -1.92 18 -6 18 C-6 16.02 -6 14.04 -6 12 C-4.02 12 -2.04 12 0 12 C0 8.04 0 4.08 0 0 Z " fill="#828282" transform="translate(130,90)"/>
<path d="M0 0 C1.98 0 3.96 0 6 0 C6 3.96 6 7.92 6 12 C7.98 12 9.96 12 12 12 C12 13.98 12 15.96 12 18 C8.04 18 4.08 18 0 18 C0 12.06 0 6.12 0 0 Z " fill="#A8A8A8" transform="translate(52,90)"/>
<path d="M0 0 C7.92 0 15.84 0 24 0 C24 1.98 24 3.96 24 6 C16.08 6 8.16 6 0 6 C0 4.02 0 2.04 0 0 Z " fill="#A8A8A8" transform="translate(76,72)"/>
<path d="M0 0 C0.99 0.66 1.98 1.32 3 2 C3.29296875 4.1640625 3.29296875 4.1640625 3.1875 6.625 C3.16042969 7.44226563 3.13335937 8.25953125 3.10546875 9.1015625 C3.07066406 9.72804688 3.03585938 10.35453125 3 11 C1.02 11.66 -0.96 12.32 -3 13 C-3 10.69 -3 8.38 -3 6 C-3.33 8.64 -3.66 11.28 -4 14 C-4.99 13.67 -5.98 13.34 -7 13 C-6.96744792 10.94921875 -6.93489583 8.8984375 -6.90234375 6.84765625 C-6.79438816 4.98267859 -6.79438816 4.98267859 -8 4 C-8 6.64 -8 9.28 -8 12 C-8.99 11.67 -9.98 11.34 -11 11 C-11.2878257 7.94904757 -11.42534743 5.04204178 -11 2 C-7.47859634 -1.52140366 -4.62530689 -1.30715195 0 0 Z " fill="#7C4D28" transform="translate(162,87)"/>
<path d="M0 0 C5.61 0 11.22 0 17 0 C17 2.64 17 5.28 17 8 C11.39 8 5.78 8 0 8 C0 5.36 0 2.72 0 0 Z " fill="#5C5D5D" transform="translate(82,28)"/>
<path d="M0 0 C5.28 0 10.56 0 16 0 C16 2.64 16 5.28 16 8 C10.72 8 5.44 8 0 8 C0 5.36 0 2.72 0 0 Z " fill="#FFFFFF" transform="translate(32,78)"/>
<path d="M0 0 C5.28 0 10.56 0 16 0 C16 2.64 16 5.28 16 8 C10.72 8 5.44 8 0 8 C0 5.36 0 2.72 0 0 Z " fill="#FDFDFD" transform="translate(15,70)"/>
<path d="M0 0 C6 0 12 0 18 0 C18.33 0.99 18.66 1.98 19 3 C18.34 3.66 17.68 4.32 17 5 C17.33 6.32 17.66 7.64 18 9 C13.38 9 8.76 9 4 9 C4.33 7.35 4.66 5.7 5 4 C3.35 4 1.7 4 0 4 C0 2.68 0 1.36 0 0 Z " fill="#AAABAA" transform="translate(173,26)"/>
<path d="M0 0 C0.66 0 1.32 0 2 0 C2 0.66 2 1.32 2 2 C3.65 2 5.3 2 7 2 C7 12.56 7 23.12 7 34 C1.72 34 -3.56 34 -9 34 C-8.01 33.505 -8.01 33.505 -7 33 C-6.59270772 30.67843403 -6.25561323 28.3431213 -6 26 C-4.68 25.67 -3.36 25.34 -2 25 C-2 26.65 -2 28.3 -2 30 C-2.66 30 -3.32 30 -4 30 C-4 30.99 -4 31.98 -4 33 C-1.03 32.505 -1.03 32.505 2 32 C1.67 31.01 1.34 30.02 1 29 C1.99 29 2.98 29 4 29 C4.33 29.33 4.66 29.66 5 30 C5 22.41 5 14.82 5 7 C4.34 6.67 3.68 6.34 3 6 C3.99 5.01 4.98 4.02 6 3 C1.05 3 -3.9 3 -9 3 C-9 2.67 -9 2.34 -9 2 C-6.03 2 -3.06 2 0 2 C0 1.34 0 0.68 0 0 Z " fill="#958F77" transform="translate(159,52)"/>
<path d="M0 0 C5.28 0 10.56 0 16 0 C16 2.31 16 4.62 16 7 C10.72 7 5.44 7 0 7 C0 4.69 0 2.38 0 0 Z " fill="#A8A8A8" transform="translate(32,20)"/>
<path d="M0 0 C5.94 0 11.88 0 18 0 C18 1.98 18 3.96 18 6 C12.06 6 6.12 6 0 6 C0 4.02 0 2.04 0 0 Z " fill="#0D0D0D" transform="translate(106,138)"/>
<path d="M0 0 C5.94 0 11.88 0 18 0 C18 1.98 18 3.96 18 6 C12.06 6 6.12 6 0 6 C0 4.02 0 2.04 0 0 Z " fill="#0D0D0D" transform="translate(64,138)"/>
<path d="M0 0 C5.94 0 11.88 0 18 0 C18 1.98 18 3.96 18 6 C12.06 6 6.12 6 0 6 C0 4.02 0 2.04 0 0 Z " fill="#A8A8A8" transform="translate(82,120)"/>
<path d="M0 0 C1.98 0 3.96 0 6 0 C6 5.94 6 11.88 6 18 C4.02 18 2.04 18 0 18 C0 12.06 0 6.12 0 0 Z " fill="#105257" transform="translate(130,108)"/>
<path d="M0 0 C1.98 0 3.96 0 6 0 C6 5.94 6 11.88 6 18 C4.02 18 2.04 18 0 18 C0 12.06 0 6.12 0 0 Z " fill="#0D0D0D" transform="translate(46,108)"/>
<path d="M0 0 C1.98 0 3.96 0 6 0 C6 5.94 6 11.88 6 18 C4.02 18 2.04 18 0 18 C0 12.06 0 6.12 0 0 Z " fill="#29DFEB" transform="translate(94,96)"/>
<path d="M0 0 C1.98 0 3.96 0 6 0 C6 5.94 6 11.88 6 18 C4.02 18 2.04 18 0 18 C0 12.06 0 6.12 0 0 Z " fill="#212E2B" transform="translate(136,90)"/>
<path d="M0 0 C1.98 0 3.96 0 6 0 C6 5.94 6 11.88 6 18 C4.02 18 2.04 18 0 18 C0 12.06 0 6.12 0 0 Z " fill="#212E2B" transform="translate(46,90)"/>
<path d="M0 0 C2.64 0 5.28 0 8 0 C8 2.64 8 5.28 8 8 C13.61 8 19.22 8 25 8 C25 8.33 25 8.66 25 9 C16.75 9 8.5 9 0 9 C0 6.03 0 3.06 0 0 Z " fill="#A2A2A2" transform="translate(7,61)"/>
<path d="M0 0 C2.64 0 5.28 0 8 0 C8 2.64 8 5.28 8 8 C10.97 8 13.94 8 17 8 C17 8.33 17 8.66 17 9 C8.75 9 0.5 9 -8 9 C-8 8.67 -8 8.34 -8 8 C-5.36 8 -2.72 8 0 8 C0 5.36 0 2.72 0 0 Z " fill="#5B5B5B" transform="translate(57,19)"/>
<path d="M0 0 C8.25 0 16.5 0 25 0 C25 2.64 25 5.28 25 8 C22.03 8 19.06 8 16 8 C16 5.69 16 3.38 16 1 C10.72 1 5.44 1 0 1 C0 0.67 0 0.34 0 0 Z " fill="#858585" transform="translate(32,19)"/>
<path d="M0 0 C2.64 0 5.28 0 8 0 C8 2.64 8 5.28 8 8 C10.97 8 13.94 8 17 8 C17 8.33 17 8.66 17 9 C11.39 9 5.78 9 0 9 C0 6.03 0 3.06 0 0 Z " fill="#9F9F9F" transform="translate(15,86)"/>
<path d="M0 0 C2.97 0 5.94 0 9 0 C9 2.97 9 5.94 9 9 C6.03 9 3.06 9 0 9 C0 6.03 0 3.06 0 0 Z " fill="#635C5C" transform="translate(57,44)"/>
<path d="M0 0 C3.96 0 7.92 0 12 0 C10.68 0.99 9.36 1.98 8 3 C8 3.66 8 4.32 8 5 C8.99 5 9.98 5 11 5 C11 5.66 11 6.32 11 7 C9.68 7 8.36 7 7 7 C7 6.34 7 5.68 7 5 C6.34 5 5.68 5 5 5 C5 5.66 5 6.32 5 7 C4.34 7 3.68 7 3 7 C3 8.65 3 10.3 3 12 C2.01 12.33 1.02 12.66 0 13 C0 8.71 0 4.42 0 0 Z " fill="#6B6A66" transform="translate(152,56)"/>
<path d="M0 0 C3.96 0 7.92 0 12 0 C12 1.98 12 3.96 12 6 C8.04 6 4.08 6 0 6 C0 4.02 0 2.04 0 0 Z " fill="#212E2B" transform="translate(112,132)"/>
<path d="M0 0 C3.96 0 7.92 0 12 0 C12 1.98 12 3.96 12 6 C8.04 6 4.08 6 0 6 C0 4.02 0 2.04 0 0 Z " fill="#138E99" transform="translate(100,132)"/>
<path d="M0 0 C3.96 0 7.92 0 12 0 C12 1.98 12 3.96 12 6 C8.04 6 4.08 6 0 6 C0 4.02 0 2.04 0 0 Z " fill="#138E99" transform="translate(112,126)"/>
<path d="M0 0 C3.96 0 7.92 0 12 0 C12 1.98 12 3.96 12 6 C8.04 6 4.08 6 0 6 C0 4.02 0 2.04 0 0 Z " fill="#29DFEB" transform="translate(64,126)"/>
<path d="M0 0 C3.96 0 7.92 0 12 0 C12 1.98 12 3.96 12 6 C8.04 6 4.08 6 0 6 C0 4.02 0 2.04 0 0 Z " fill="#474444" transform="translate(112,120)"/>
<path d="M0 0 C3.96 0 7.92 0 12 0 C12 1.98 12 3.96 12 6 C8.04 6 4.08 6 0 6 C0 4.02 0 2.04 0 0 Z " fill="#828282" transform="translate(100,120)"/>
<path d="M0 0 C3.96 0 7.92 0 12 0 C12 1.98 12 3.96 12 6 C8.04 6 4.08 6 0 6 C0 4.02 0 2.04 0 0 Z " fill="#474444" transform="translate(64,120)"/>
<path d="M0 0 C1.98 0 3.96 0 6 0 C6 3.96 6 7.92 6 12 C4.02 12 2.04 12 0 12 C0 8.04 0 4.08 0 0 Z " fill="#A8A8A8" transform="translate(130,90)"/>
<path d="M0 0 C3.96 0 7.92 0 12 0 C12 1.98 12 3.96 12 6 C8.04 6 4.08 6 0 6 C0 4.02 0 2.04 0 0 Z " fill="#138E99" transform="translate(82,78)"/>
<path d="M0 0 C2.97 0 5.94 0 9 0 C9 1.98 9 3.96 9 6 C7.02 6 5.04 6 3 6 C3 7.98 3 9.96 3 12 C2.01 12 1.02 12 0 12 C0 8.04 0 4.08 0 0 Z " fill="#A6A6A6" transform="translate(49,78)"/>
<path d="M0 0 C3.96 0 7.92 0 12 0 C12 1.98 12 3.96 12 6 C8.04 6 4.08 6 0 6 C0 4.02 0 2.04 0 0 Z " fill="#212E2B" transform="translate(112,72)"/>
<path d="M0 0 C3.96 0 7.92 0 12 0 C12 1.98 12 3.96 12 6 C8.04 6 4.08 6 0 6 C0 4.02 0 2.04 0 0 Z " fill="#5E5E5E" transform="translate(100,72)"/>
<path d="M0 0 C3.96 0 7.92 0 12 0 C12 1.98 12 3.96 12 6 C8.04 6 4.08 6 0 6 C0 4.02 0 2.04 0 0 Z " fill="#212E2B" transform="translate(64,72)"/>
<path d="M0 0 C2.97 0 5.94 0 9 0 C9 2.64 9 5.28 9 8 C6.03 8 3.06 8 0 8 C0 5.36 0 2.72 0 0 Z " fill="#7E7E7E" transform="translate(23,28)"/>
<path d="M0 0 C0.56203125 0.17402344 1.1240625 0.34804688 1.703125 0.52734375 C4.24556755 1.05053346 6.18452337 0.90204838 8.75 0.5625 C9.54921875 0.46066406 10.3484375 0.35882813 11.171875 0.25390625 C11.77515625 0.17011719 12.3784375 0.08632813 13 0 C13 1.32 13 2.64 13 4 C12.278125 3.814375 11.55625 3.62875 10.8125 3.4375 C7.87173027 2.98004693 5.85896942 3.26483643 3 4 C3.99 4.33 4.98 4.66 6 5 C6 6.32 6 7.64 6 9 C3.03 9 0.06 9 -3 9 C-3 7.68 -3 6.36 -3 5 C-2.01 4.67 -1.02 4.34 0 4 C0 2.68 0 1.36 0 0 Z " fill="#A6A6A6" transform="translate(209,58)"/>
<path d="M0 0 C2.64 0 5.28 0 8 0 C8 0.99 8 1.98 8 3 C9.65 3 11.3 3 13 3 C13 3.33 13 3.66 13 4 C11.35 4 9.7 4 8 4 C8.33 5.32 8.66 6.64 9 8 C5.67465243 9.10844919 3.37817425 8.84454356 0 8 C0 5.36 0 2.72 0 0 Z " fill="#B0B1B0" transform="translate(199,42)"/>
<path d="M0 0 C2.64 0 5.28 0 8 0 C8 2.64 8 5.28 8 8 C5.36 8 2.72 8 0 8 C0 5.36 0 2.72 0 0 Z " fill="#A8A8A8" transform="translate(32,95)"/>
<path d="M0 0 C0.66 0 1.32 0 2 0 C2.33 4.29 2.66 8.58 3 13 C5.97 13.495 5.97 13.495 9 14 C8.360625 14.37125 7.72125 14.7425 7.0625 15.125 C4.36141928 17.58052793 4.31592995 19.44578805 4 23 C3.01 23 2.02 23 1 23 C0.02840067 15.31395526 -0.10920422 7.74136601 0 0 Z " fill="#141312" transform="translate(147,72)"/>
<path d="M0 0 C2.64 0 5.28 0 8 0 C8 2.64 8 5.28 8 8 C5.36 8 2.72 8 0 8 C0 5.36 0 2.72 0 0 Z " fill="#4E4C4C" transform="translate(66,53)"/>
<path d="M0 0 C2.64 0 5.28 0 8 0 C8 2.64 8 5.28 8 8 C5.36 8 2.72 8 0 8 C0 5.36 0 2.72 0 0 Z " fill="#4F4D4D" transform="translate(49,53)"/>
<path d="M0 0 C2.64 0 5.28 0 8 0 C8 2.64 8 5.28 8 8 C5.36 8 2.72 8 0 8 C0 5.36 0 2.72 0 0 Z " fill="#5E5E5E" transform="translate(99,36)"/>
<path d="M0 0 C2.64 0 5.28 0 8 0 C8 2.64 8 5.28 8 8 C5.36 8 2.72 8 0 8 C0 5.36 0 2.72 0 0 Z " fill="#5E5E5E" transform="translate(7,36)"/>
<path d="M0 0 C2.64 0 5.28 0 8 0 C8 2.64 8 5.28 8 8 C5.36 8 2.72 8 0 8 C0 5.36 0 2.72 0 0 Z " fill="#5D5D5D" transform="translate(74,19)"/>
<path d="M0 0 C0.04241723 2.33294775 0.04092937 4.66702567 0 7 C-1 8 -1 8 -4 8.125 C-7 8 -7 8 -8 7 C-8.04080783 5.00041636 -8.04254356 2.99954746 -8 1 C-4.93251126 -0.86240388 -3.40254489 -1.2151946 0 0 Z " fill="#F7ADB3" transform="translate(162,122)"/>
<path d="M0 0 C2.64 0 5.28 0 8 0 C7.67 2.64 7.34 5.28 7 8 C4.69 8 2.38 8 0 8 C0 5.36 0 2.72 0 0 Z " fill="#BE1818" transform="translate(57,70)"/>
<path d="M0 0 C7.92 0 15.84 0 24 0 C24 0.99 24 1.98 24 3 C19.545 3.495 19.545 3.495 15 4 C15 3.34 15 2.68 15 2 C14.195625 2.165 13.39125 2.33 12.5625 2.5 C8.34112648 3.09247348 4.25335455 3.08506709 0 3 C0 2.01 0 1.02 0 0 Z " fill="#D2BD91" transform="translate(198,27)"/>
<path d="M0 0 C1.81242052 -0.02687279 3.62495233 -0.04633715 5.4375 -0.0625 C6.44683594 -0.07410156 7.45617187 -0.08570312 8.49609375 -0.09765625 C11 0 11 0 12 1 C12.53625 0.835 13.0725 0.67 13.625 0.5 C16.90264999 -0.19003158 19.7275366 0.4336121 23 1 C23 1.66 23 2.32 23 3 C15.41 3 7.82 3 0 3 C0 2.01 0 1.02 0 0 Z " fill="#919191" transform="translate(195,32)"/>
<path d="M0 0 C0.33 0 0.66 0 1 0 C1 10.23 1 20.46 1 31 C0.67 31 0.34 31 0 31 C0 26.71 0 22.42 0 18 C-0.66 18 -1.32 18 -2 18 C-2 14.37 -2 10.74 -2 7 C-1.34 7 -0.68 7 0 7 C0 4.69 0 2.38 0 0 Z " fill="#3A3834" transform="translate(149,54)"/>
<path d="M0 0 C0.66 0.33 1.32 0.66 2 1 C2 2.32 2 3.64 2 5 C1.34 5 0.68 5 0 5 C0 5.99 0 6.98 0 8 C1.98 7.67 3.96 7.34 6 7 C5.67 6.01 5.34 5.02 5 4 C5.99 4 6.98 4 8 4 C8.12375 4.639375 8.2475 5.27875 8.375 5.9375 C8.58125 6.618125 8.7875 7.29875 9 8 C9.66 8.33 10.32 8.66 11 9 C5.72 9 0.44 9 -5 9 C-4.34 8.67 -3.68 8.34 -3 8 C-2.835 6.845 -2.67 5.69 -2.5 4.5 C-2.335 3.345 -2.17 2.19 -2 1 C-1.34 0.67 -0.68 0.34 0 0 Z " fill="#655F53" transform="translate(155,77)"/>
<path d="M0 0 C0.33 0 0.66 0 1 0 C1.06058594 1.12019531 1.12117187 2.24039063 1.18359375 3.39453125 C1.26801424 4.86719984 1.35266149 6.33985544 1.4375 7.8125 C1.47681641 8.55048828 1.51613281 9.28847656 1.55664062 10.04882812 C1.74381035 13.23071342 1.98720793 15.96162378 3 19 C3.06740865 20.56118428 3.08514456 22.1250252 3.0625 23.6875 C3.05347656 24.49574219 3.04445312 25.30398437 3.03515625 26.13671875 C3.02355469 26.75160156 3.01195312 27.36648437 3 28 C2.34 28 1.68 28 1 28 C0.67 28.66 0.34 29.32 0 30 C0 20.1 0 10.2 0 0 Z " fill="#1F1D20" transform="translate(244,102)"/>
<path d="M0 0 C2.475 0.99 2.475 0.99 5 2 C5 2.66 5 3.32 5 4 C5.66 4 6.32 4 7 4 C7 3.34 7 2.68 7 2 C7.66 2 8.32 2 9 2 C8.67 3.32 8.34 4.64 8 6 C7.01 6 6.02 6 5 6 C5 6.66 5 7.32 5 8 C5.66 8 6.32 8 7 8 C7 8.66 7 9.32 7 10 C6.34 10 5.68 10 5 10 C4.67 10.66 4.34 11.32 4 12 C3.34 11.67 2.68 11.34 2 11 C2 10.34 2 9.68 2 9 C1.01 8.67 0.02 8.34 -1 8 C-0.67 7.01 -0.34 6.02 0 5 C0.99 5.33 1.98 5.66 3 6 C3 5.34 3 4.68 3 4 C1.68 3.34 0.36 2.68 -1 2 C-0.67 1.34 -0.34 0.68 0 0 Z " fill="#86A2A9" transform="translate(157,40)"/>
<path d="M0 0 C0.66 0.33 1.32 0.66 2 1 C2 3.97 2 6.94 2 10 C0.02 10 -1.96 10 -4 10 C-4 11.65 -4 13.3 -4 15 C-4.66 15 -5.32 15 -6 15 C-6 11.37 -6 7.74 -6 4 C-5.01 4 -4.02 4 -3 4 C-2.67 4.99 -2.34 5.98 -2 7 C-1.34 7.33 -0.68 7.66 0 8 C0 5.36 0 2.72 0 0 Z " fill="#211F19" transform="translate(154,91)"/>
<path d="M0 0 C0.66 0.33 1.32 0.66 2 1 C2 3.97 2 6.94 2 10 C0.02 10.66 -1.96 11.32 -4 12 C-4 9.03 -4 6.06 -4 3 C-3.01 2.67 -2.02 2.34 -1 2 C-0.67 1.34 -0.34 0.68 0 0 Z " fill="#3D321F" transform="translate(163,88)"/>
<path d="M0 0 C2.64 0 5.28 0 8 0 C8 1.65 8 3.3 8 5 C5.36 5 2.72 5 0 5 C0 3.35 0 1.7 0 0 Z " fill="#808080" transform="translate(99,61)"/>
<path d="M0 0 C1.65 1.65 3.3 3.3 5 5 C5.33 4.01 5.66 3.02 6 2 C7.65 2.33 9.3 2.66 11 3 C11 3.66 11 4.32 11 5 C10.34 5 9.68 5 9 5 C9 5.66 9 6.32 9 7 C6.03 7 3.06 7 0 7 C0 4.69 0 2.38 0 0 Z " fill="#6E7328" transform="translate(150,47)"/>
<path d="M0 0 C3.22388187 0.93322896 4.66015657 1.41299771 6.375 4.375 C7.01981848 7.08323761 6.95412881 8.42385222 6 11 C3 10 3 10 1.3125 7.75 C-0.06511203 4.8635748 -0.26985151 3.14826764 0 0 Z " fill="#878F7D" transform="translate(150,42)"/>
<path d="M0 0 C2.0625 0.4375 2.0625 0.4375 4 1 C4 1.66 4 2.32 4 3 C3.34 3.66 2.68 4.32 2 5 C2.33 5.99 2.66 6.98 3 8 C0.69 8 -1.62 8 -4 8 C-4 7.01 -4 6.02 -4 5 C-3.34 5 -2.68 5 -2 5 C-1.7834375 4.0409375 -1.7834375 4.0409375 -1.5625 3.0625 C-1 1 -1 1 0 0 Z " fill="#7E928B" transform="translate(159,77)"/>
<path d="M0 0 C0.33 0.99 0.66 1.98 1 3 C1.66 3 2.32 3 3 3 C3 6.63 3 10.26 3 14 C2.01 14 1.02 14 0 14 C-1.10370043 10.6888987 -0.92673641 8.75251051 -0.5625 5.3125 C-0.46066406 4.31863281 -0.35882813 3.32476562 -0.25390625 2.30078125 C-0.17011719 1.54152344 -0.08632812 0.78226563 0 0 Z " fill="#131312" transform="translate(245,43)"/>
<path d="M0 0 C1.98 0 3.96 0 6 0 C6 1.98 6 3.96 6 6 C4.02 6 2.04 6 0 6 C0 4.02 0 2.04 0 0 Z " fill="#212E2B" transform="translate(106,138)"/>
<path d="M0 0 C1.98 0 3.96 0 6 0 C6 1.98 6 3.96 6 6 C4.02 6 2.04 6 0 6 C0 4.02 0 2.04 0 0 Z " fill="#212E2B" transform="translate(76,138)"/>
<path d="M0 0 C1.98 0 3.96 0 6 0 C6 1.98 6 3.96 6 6 C4.02 6 2.04 6 0 6 C0 4.02 0 2.04 0 0 Z " fill="#0D0D0D" transform="translate(124,132)"/>
<path d="M0 0 C1.98 0 3.96 0 6 0 C6 1.98 6 3.96 6 6 C4.02 6 2.04 6 0 6 C0 4.02 0 2.04 0 0 Z " fill="#474444" transform="translate(112,132)"/>
<path d="M0 0 C1.98 0 3.96 0 6 0 C6 1.98 6 3.96 6 6 C4.02 6 2.04 6 0 6 C0 4.02 0 2.04 0 0 Z " fill="#474444" transform="translate(70,132)"/>
<path d="M0 0 C1.98 0 3.96 0 6 0 C6 1.98 6 3.96 6 6 C4.02 6 2.04 6 0 6 C0 4.02 0 2.04 0 0 Z " fill="#212E2B" transform="translate(64,132)"/>
<path d="M0 0 C1.98 0 3.96 0 6 0 C6 1.98 6 3.96 6 6 C4.02 6 2.04 6 0 6 C0 4.02 0 2.04 0 0 Z " fill="#0D0D0D" transform="translate(58,132)"/>
<path d="M0 0 C1.98 0 3.96 0 6 0 C6 1.98 6 3.96 6 6 C4.02 6 2.04 6 0 6 C0 4.02 0 2.04 0 0 Z " fill="#212E2B" transform="translate(124,126)"/>
<path d="M0 0 C1.98 0 3.96 0 6 0 C6 1.98 6 3.96 6 6 C4.02 6 2.04 6 0 6 C0 4.02 0 2.04 0 0 Z " fill="#474444" transform="translate(106,126)"/>
<path d="M0 0 C1.98 0 3.96 0 6 0 C6 1.98 6 3.96 6 6 C4.02 6 2.04 6 0 6 C0 4.02 0 2.04 0 0 Z " fill="#0D0D0D" transform="translate(52,126)"/>
<path d="M0 0 C1.98 0 3.96 0 6 0 C6 1.98 6 3.96 6 6 C4.02 6 2.04 6 0 6 C0 4.02 0 2.04 0 0 Z " fill="#212E2B" transform="translate(130,120)"/>
<path d="M0 0 C1.98 0 3.96 0 6 0 C6 1.98 6 3.96 6 6 C4.02 6 2.04 6 0 6 C0 4.02 0 2.04 0 0 Z " fill="#138E99" transform="translate(124,120)"/>
<path d="M0 0 C1.98 0 3.96 0 6 0 C6 1.98 6 3.96 6 6 C4.02 6 2.04 6 0 6 C0 4.02 0 2.04 0 0 Z " fill="#FFFFFF" transform="translate(82,120)"/>
<path d="M0 0 C1.98 0 3.96 0 6 0 C6 1.98 6 3.96 6 6 C4.02 6 2.04 6 0 6 C0 4.02 0 2.04 0 0 Z " fill="#A8A8A8" transform="translate(76,120)"/>
<path d="M0 0 C1.98 0 3.96 0 6 0 C6 1.98 6 3.96 6 6 C4.02 6 2.04 6 0 6 C0 4.02 0 2.04 0 0 Z " fill="#138E99" transform="translate(58,120)"/>
<path d="M0 0 C1.98 0 3.96 0 6 0 C6 1.98 6 3.96 6 6 C4.02 6 2.04 6 0 6 C0 4.02 0 2.04 0 0 Z " fill="#212E2B" transform="translate(52,120)"/>
<path d="M0 0 C1.98 0 3.96 0 6 0 C6 1.98 6 3.96 6 6 C4.02 6 2.04 6 0 6 C0 4.02 0 2.04 0 0 Z " fill="#5E5E5E" transform="translate(118,114)"/>
<path d="M0 0 C1.98 0 3.96 0 6 0 C6 1.98 6 3.96 6 6 C4.02 6 2.04 6 0 6 C0 4.02 0 2.04 0 0 Z " fill="#828282" transform="translate(112,114)"/>
<path d="M0 0 C1.98 0 3.96 0 6 0 C6 1.98 6 3.96 6 6 C4.02 6 2.04 6 0 6 C0 4.02 0 2.04 0 0 Z " fill="#828282" transform="translate(82,114)"/>
<path d="M0 0 C1.98 0 3.96 0 6 0 C6 1.98 6 3.96 6 6 C4.02 6 2.04 6 0 6 C0 4.02 0 2.04 0 0 Z " fill="#5E5E5E" transform="translate(76,114)"/>
<path d="M0 0 C1.98 0 3.96 0 6 0 C6 1.98 6 3.96 6 6 C4.02 6 2.04 6 0 6 C0 4.02 0 2.04 0 0 Z " fill="#828282" transform="translate(70,114)"/>
<path d="M0 0 C1.98 0 3.96 0 6 0 C6 1.98 6 3.96 6 6 C4.02 6 2.04 6 0 6 C0 4.02 0 2.04 0 0 Z " fill="#5E5E5E" transform="translate(64,114)"/>
<path d="M0 0 C1.98 0 3.96 0 6 0 C6 1.98 6 3.96 6 6 C4.02 6 2.04 6 0 6 C0 4.02 0 2.04 0 0 Z " fill="#474444" transform="translate(58,114)"/>
<path d="M0 0 C1.98 0 3.96 0 6 0 C6 1.98 6 3.96 6 6 C4.02 6 2.04 6 0 6 C0 4.02 0 2.04 0 0 Z " fill="#474444" transform="translate(130,108)"/>
<path d="M0 0 C1.98 0 3.96 0 6 0 C6 1.98 6 3.96 6 6 C4.02 6 2.04 6 0 6 C0 4.02 0 2.04 0 0 Z " fill="#5E5E5E" transform="translate(112,108)"/>
<path d="M0 0 C1.98 0 3.96 0 6 0 C6 1.98 6 3.96 6 6 C4.02 6 2.04 6 0 6 C0 4.02 0 2.04 0 0 Z " fill="#14BBC6" transform="translate(94,108)"/>
<path d="M0 0 C1.98 0 3.96 0 6 0 C6 1.98 6 3.96 6 6 C4.02 6 2.04 6 0 6 C0 4.02 0 2.04 0 0 Z " fill="#5E5E5E" transform="translate(70,108)"/>
<path d="M0 0 C1.98 0 3.96 0 6 0 C6 1.98 6 3.96 6 6 C4.02 6 2.04 6 0 6 C0 4.02 0 2.04 0 0 Z " fill="#474444" transform="translate(52,108)"/>
<path d="M0 0 C1.98 0 3.96 0 6 0 C6 1.98 6 3.96 6 6 C4.02 6 2.04 6 0 6 C0 4.02 0 2.04 0 0 Z " fill="#A8A8A8" transform="translate(124,102)"/>
<path d="M0 0 C1.98 0 3.96 0 6 0 C6 1.98 6 3.96 6 6 C4.02 6 2.04 6 0 6 C0 4.02 0 2.04 0 0 Z " fill="#212E2B" transform="translate(118,102)"/>
<path d="M0 0 C1.98 0 3.96 0 6 0 C6 1.98 6 3.96 6 6 C4.02 6 2.04 6 0 6 C0 4.02 0 2.04 0 0 Z " fill="#212E2B" transform="translate(64,102)"/>
<path d="M0 0 C1.98 0 3.96 0 6 0 C6 1.98 6 3.96 6 6 C4.02 6 2.04 6 0 6 C0 4.02 0 2.04 0 0 Z " fill="#A8A8A8" transform="translate(58,102)"/>
<path d="M0 0 C1.98 0 3.96 0 6 0 C6 1.98 6 3.96 6 6 C4.02 6 2.04 6 0 6 C0 4.02 0 2.04 0 0 Z " fill="#828282" transform="translate(52,102)"/>
<path d="M0 0 C1.98 0 3.96 0 6 0 C6 1.98 6 3.96 6 6 C4.02 6 2.04 6 0 6 C0 4.02 0 2.04 0 0 Z " fill="#212E2B" transform="translate(124,96)"/>
<path d="M0 0 C1.98 0 3.96 0 6 0 C6 1.98 6 3.96 6 6 C4.02 6 2.04 6 0 6 C0 4.02 0 2.04 0 0 Z " fill="#005479" transform="translate(100,96)"/>
<path d="M0 0 C1.98 0 3.96 0 6 0 C6 1.98 6 3.96 6 6 C4.02 6 2.04 6 0 6 C0 4.02 0 2.04 0 0 Z " fill="#005479" transform="translate(88,96)"/>
<path d="M0 0 C1.98 0 3.96 0 6 0 C6 1.98 6 3.96 6 6 C4.02 6 2.04 6 0 6 C0 4.02 0 2.04 0 0 Z " fill="#212E2B" transform="translate(58,96)"/>
<path d="M0 0 C1.98 0 3.96 0 6 0 C6 1.98 6 3.96 6 6 C4.02 6 2.04 6 0 6 C0 4.02 0 2.04 0 0 Z " fill="#474444" transform="translate(124,90)"/>
<path d="M0 0 C1.98 0 3.96 0 6 0 C6 1.98 6 3.96 6 6 C4.02 6 2.04 6 0 6 C0 4.02 0 2.04 0 0 Z " fill="#105257" transform="translate(118,90)"/>
<path d="M0 0 C1.98 0 3.96 0 6 0 C6 1.98 6 3.96 6 6 C4.02 6 2.04 6 0 6 C0 4.02 0 2.04 0 0 Z " fill="#006694" transform="translate(94,90)"/>
<path d="M0 0 C1.98 0 3.96 0 6 0 C6 1.98 6 3.96 6 6 C4.02 6 2.04 6 0 6 C0 4.02 0 2.04 0 0 Z " fill="#105257" transform="translate(64,90)"/>
<path d="M0 0 C1.98 0 3.96 0 6 0 C6 1.98 6 3.96 6 6 C4.02 6 2.04 6 0 6 C0 4.02 0 2.04 0 0 Z " fill="#828282" transform="translate(52,90)"/>
<path d="M0 0 C1.98 0 3.96 0 6 0 C6 1.98 6 3.96 6 6 C4.02 6 2.04 6 0 6 C0 4.02 0 2.04 0 0 Z " fill="#212E2B" transform="translate(130,84)"/>
<path d="M0 0 C1.98 0 3.96 0 6 0 C6 1.98 6 3.96 6 6 C4.02 6 2.04 6 0 6 C0 4.02 0 2.04 0 0 Z " fill="#828282" transform="translate(124,84)"/>
<path d="M0 0 C1.98 0 3.96 0 6 0 C6 1.98 6 3.96 6 6 C4.02 6 2.04 6 0 6 C0 4.02 0 2.04 0 0 Z " fill="#474444" transform="translate(118,84)"/>
<path d="M0 0 C1.98 0 3.96 0 6 0 C6 1.98 6 3.96 6 6 C4.02 6 2.04 6 0 6 C0 4.02 0 2.04 0 0 Z " fill="#105257" transform="translate(112,84)"/>
<path d="M0 0 C1.98 0 3.96 0 6 0 C6 1.98 6 3.96 6 6 C4.02 6 2.04 6 0 6 C0 4.02 0 2.04 0 0 Z " fill="#105257" transform="translate(70,84)"/>
<path d="M0 0 C1.98 0 3.96 0 6 0 C6 1.98 6 3.96 6 6 C4.02 6 2.04 6 0 6 C0 4.02 0 2.04 0 0 Z " fill="#212E2B" transform="translate(52,84)"/>
<path d="M0 0 C1.98 0 3.96 0 6 0 C6 1.98 6 3.96 6 6 C4.02 6 2.04 6 0 6 C0 4.02 0 2.04 0 0 Z " fill="#212E2B" transform="translate(124,78)"/>
<path d="M0 0 C1.98 0 3.96 0 6 0 C6 1.98 6 3.96 6 6 C4.02 6 2.04 6 0 6 C0 4.02 0 2.04 0 0 Z " fill="#105257" transform="translate(76,78)"/>
<path d="M0 0 C1.98 0 3.96 0 6 0 C6 1.98 6 3.96 6 6 C4.02 6 2.04 6 0 6 C0 4.02 0 2.04 0 0 Z " fill="#828282" transform="translate(70,78)"/>
<path d="M0 0 C1.98 0 3.96 0 6 0 C6 1.98 6 3.96 6 6 C4.02 6 2.04 6 0 6 C0 4.02 0 2.04 0 0 Z " fill="#212E2B" transform="translate(58,78)"/>
<path d="M0 0 C1.98 0 3.96 0 6 0 C6 1.98 6 3.96 6 6 C4.02 6 2.04 6 0 6 C0 4.02 0 2.04 0 0 Z " fill="#828282" transform="translate(100,72)"/>
<path d="M0 0 C1.98 0 3.96 0 6 0 C6 1.98 6 3.96 6 6 C4.02 6 2.04 6 0 6 C0 4.02 0 2.04 0 0 Z " fill="#A8A8A8" transform="translate(94,72)"/>
<path d="M0 0 C1.98 0 3.96 0 6 0 C6 1.98 6 3.96 6 6 C4.02 6 2.04 6 0 6 C0 4.02 0 2.04 0 0 Z " fill="#FFFFFF" transform="translate(88,72)"/>
<path d="M0 0 C4 2 4 2 4.75 4.125 C4.8325 4.74375 4.915 5.3625 5 6 C4.34 6 3.68 6 3 6 C3 7.65 3 9.3 3 11 C2.01 11.33 1.02 11.66 0 12 C0 8.04 0 4.08 0 0 Z " fill="#474A49" transform="translate(152,57)"/>
<path d="M0 0 C2.31 0 4.62 0 7 0 C7 0.99 7 1.98 7 3 C6.01 3 5.02 3 4 3 C3.71125 3.61875 3.4225 4.2375 3.125 4.875 C2 7 2 7 0 9 C0 6.03 0 3.06 0 0 Z " fill="#AE9E87" transform="translate(150,71)"/>
<path d="M0 0 C2.97 0 5.94 0 9 0 C9 1.32 9 2.64 9 4 C6.03 4 3.06 4 0 4 C0 2.68 0 1.36 0 0 Z " fill="#A1A1A1" transform="translate(213,47)"/>
<path d="M0 0 C2.31 0 4.62 0 7 0 C7 1.32 7 2.64 7 4 C5.02 4.33 3.04 4.66 1 5 C0.67 3.35 0.34 1.7 0 0 Z " fill="#896533" transform="translate(155,107)"/>
<path d="M0 0 C2.97 0 5.94 0 9 0 C9 1.32 9 2.64 9 4 C6.03 4 3.06 4 0 4 C0 2.68 0 1.36 0 0 Z " fill="#878887" transform="translate(173,26)"/>
<path d="M0 0 C0 2.97 0 5.94 0 9 C-1.65 9 -3.3 9 -5 9 C-4.67 7.68 -4.34 6.36 -4 5 C-3.34 5 -2.68 5 -2 5 C-2 4.34 -2 3.68 -2 3 C-2.66 3 -3.32 3 -4 3 C-4 2.34 -4 1.68 -4 1 C-1 0 -1 0 0 0 Z " fill="#54552E" transform="translate(166,45)"/>
<path d="M0 0 C2.97 0 5.94 0 9 0 C9 1.32 9 2.64 9 4 C6.03 4 3.06 4 0 4 C0 2.68 0 1.36 0 0 Z " fill="#8D8D8D" transform="translate(177,31)"/>
<path d="M0 0 C0.33 0.66 0.66 1.32 1 2 C1.66 2.33 2.32 2.66 3 3 C2.67 5.64 2.34 8.28 2 11 C1.01 10.67 0.02 10.34 -1 10 C-1.02689216 8.52093108 -1.04634621 7.04172517 -1.0625 5.5625 C-1.07410156 4.73878906 -1.08570313 3.91507812 -1.09765625 3.06640625 C-1 1 -1 1 0 0 Z " fill="#554226" transform="translate(152,88)"/>
<path d="M0 0 C2.64 0 5.28 0 8 0 C8 1.32 8 2.64 8 4 C5.36 4 2.72 4 0 4 C0 2.68 0 1.36 0 0 Z " fill="#A0A1A0" transform="translate(175,94)"/>
<path d="M0 0 C0.86625 0.2784375 0.86625 0.2784375 1.75 0.5625 C4.20692525 1.04023546 5.64397534 0.75729364 8 0 C8 1.32 8 2.64 8 4 C5.36 4 2.72 4 0 4 C0 2.68 0 1.36 0 0 Z " fill="#A0A1A0" transform="translate(233,63)"/>
<path d="M0 0 C5.75 -0.125 5.75 -0.125 8 1 C7.67 1.99 7.34 2.98 7 4 C4.36 4 1.72 4 -1 4 C-0.67 2.68 -0.34 1.36 0 0 Z " fill="#B1B2B1" transform="translate(204,94)"/>
<path d="M0 0 C1.98 0 3.96 0 6 0 C6.33 1.32 6.66 2.64 7 4 C4.69 4 2.38 4 0 4 C0 2.68 0 1.36 0 0 Z " fill="#2F3535" transform="translate(156,65)"/>
<path d="M0 0 C0 2.97 0 5.94 0 9 C-0.99 8.67 -1.98 8.34 -3 8 C-3 5.69 -3 3.38 -3 1 C-1 0 -1 0 0 0 Z " fill="#514022" transform="translate(158,92)"/>
<path d="M0 0 C0.66 0.33 1.32 0.66 2 1 C2 2.32 2 3.64 2 5 C1.34 5 0.68 5 0 5 C0 5.99 0 6.98 0 8 C-0.99 8 -1.98 8 -3 8 C-2.74438677 5.6568787 -2.40729228 3.32156597 -2 1 C-1.34 0.67 -0.68 0.34 0 0 Z " fill="#5D7573" transform="translate(155,77)"/>
<path d="M0 0 C0.66 0 1.32 0 2 0 C2 0.66 2 1.32 2 2 C2.66 2 3.32 2 4 2 C4 2.66 4 3.32 4 4 C2.35 4 0.7 4 -1 4 C-0.67 4.99 -0.34 5.98 0 7 C-1.32 7.33 -2.64 7.66 -4 8 C-3.34 6.02 -2.68 4.04 -2 2 C-1.34 2 -0.68 2 0 2 C0 1.34 0 0.68 0 0 Z " fill="#11181B" transform="translate(157,61)"/>
<path d="M0 0 C2.31 0 4.62 0 7 0 C7.33 0.99 7.66 1.98 8 3 C4.67465243 4.10844919 2.37817425 3.84454356 -1 3 C-0.67 2.01 -0.34 1.02 0 0 Z " fill="#969796" transform="translate(184,26)"/>
<path d="M0 0 C0.86625 0.2784375 0.86625 0.2784375 1.75 0.5625 C4.20692525 1.04023546 5.64397534 0.75729364 8 0 C8 0.99 8 1.98 8 3 C4.94152152 3.54372951 2.11227195 4 -1 4 C-0.67 2.68 -0.34 1.36 0 0 Z " fill="#A1A2A1" transform="translate(203,9)"/>
<path d="M0 0 C0.66 0.99 1.32 1.98 2 3 C1 4 1 4 -1.06640625 4.09765625 C-1.89011719 4.08605469 -2.71382812 4.07445313 -3.5625 4.0625 C-4.38878906 4.05347656 -5.21507812 4.04445313 -6.06640625 4.03515625 C-6.70449219 4.02355469 -7.34257812 4.01195313 -8 4 C-8 3.34 -8 2.68 -8 2 C-6.865625 1.855625 -5.73125 1.71125 -4.5625 1.5625 C-1.19222799 1.38828522 -1.19222799 1.38828522 0 0 Z " fill="#A9AAA9" transform="translate(201,105)"/>
<path d="M0 0 C-0.33 1.65 -0.66 3.3 -1 5 C-3 5 -3 5 -4.5 3.625 C-4.995 3.08875 -5.49 2.5525 -6 2 C-6.66 1.34 -7.32 0.68 -8 0 C-2.25 -1.125 -2.25 -1.125 0 0 Z " fill="#0F0E0D" transform="translate(168,86)"/>
<path d="M0 0 C1.98 0 3.96 0 6 0 C6.33 0.99 6.66 1.98 7 3 C5.68 3.33 4.36 3.66 3 4 C3 3.34 3 2.68 3 2 C2.01 2.33 1.02 2.66 0 3 C0 2.01 0 1.02 0 0 Z " fill="#C5C5C5" transform="translate(207,92)"/>
<path d="M0 0 C0.99 0 1.98 0 3 0 C3.33 0.99 3.66 1.98 4 3 C4.66 3.66 5.32 4.32 6 5 C4.02 5 2.04 5 0 5 C0 3.35 0 1.7 0 0 Z " fill="#292926" transform="translate(148,95)"/>
<path d="M0 0 C0.99 0 1.98 0 3 0 C3 1.98 3 3.96 3 6 C2.01 6 1.02 6 0 6 C0 4.02 0 2.04 0 0 Z " fill="#1E2524" transform="translate(245,57)"/>
<path d="M0 0 C1.65 0.33 3.3 0.66 5 1 C4.67 2.32 4.34 3.64 4 5 C4 4.34 4 3.68 4 3 C2.68 3.33 1.36 3.66 0 4 C-0.33 3.34 -0.66 2.68 -1 2 C-0.67 1.34 -0.34 0.68 0 0 Z " fill="#F36470" transform="translate(157,124)"/>
<path d="M0 0 C1.65 0.33 3.3 0.66 5 1 C5 1.66 5 2.32 5 3 C4.34 3 3.68 3 3 3 C2.67 3.66 2.34 4.32 2 5 C1.01 4.34 0.02 3.68 -1 3 C-0.67 2.01 -0.34 1.02 0 0 Z " fill="#5C5E56" transform="translate(156,49)"/>
<path d="M0 0 C1.65 0.33 3.3 0.66 5 1 C5 2.65 5 4.3 5 6 C4.34 5.01 3.68 4.02 3 3 C1.68 3 0.36 3 -1 3 C-0.67 2.01 -0.34 1.02 0 0 Z " fill="#69885B" transform="translate(156,43)"/>
<path d="M0 0 C2.0625 0.4375 2.0625 0.4375 4 1 C3.34 2.32 2.68 3.64 2 5 C1.34 5 0.68 5 0 5 C-0.5625 3.0625 -0.5625 3.0625 -1 1 C-0.67 0.67 -0.34 0.34 0 0 Z " fill="#667283" transform="translate(151,39)"/>
</svg>
