<?xml version="1.0" encoding="UTF-8"?>
<svg version="1.1" xmlns="http://www.w3.org/2000/svg" width="280" height="160">
<path d="M0 0 C36.3 0 72.6 0 110 0 C110.165 12.4575 110.33 24.915 110.5 37.75 C110.55220703 41.55756836 110.60441406 45.36513672 110.65820312 49.28808594 C111.01663739 77.53327486 111 105.74513229 111 134 C74.04 134 37.08 134 -1 134 C-1 101.90399439 -0.939975 69.8383002 -0.5 37.75 C-0.335 25.2925 -0.17 12.835 0 0 Z " fill="#1F2020" transform="translate(109,4)"/>
<path d="M0 0 C15.18 0 30.36 0 46 0 C46 2.31 46 4.62 46 7 C50.95 7 55.9 7 61 7 C61 9.64 61 12.28 61 15 C63.31 15 65.62 15 68 15 C68 17.31 68 19.62 68 22 C70.64 22 73.28 22 76 22 C76 37.18 76 52.36 76 68 C73.36 68 70.72 68 68 68 C68 70.64 68 73.28 68 76 C65.69 76 63.38 76 61 76 C61 78.31 61 80.62 61 83 C60.01 83 59.02 83 58 83 C58 83.66 58 84.32 58 85 C59.98 85 61.96 85 64 85 C64 96.88 64 108.76 64 121 C62.02 121 60.04 121 58 121 C58 122.98 58 124.96 58 127 C56.02 127 54.04 127 52 127 C52 128.98 52 130.96 52 133 C50.02 133 48.04 133 46 133 C46 134.98 46 136.96 46 139 C42.04 139 38.08 139 34 139 C34 140.98 34 142.96 34 145 C22.12 145 10.24 145 -2 145 C-2 143.02 -2 141.04 -2 139 C-5.96 139 -9.92 139 -14 139 C-14 137.02 -14 135.04 -14 133 C-15.98 133 -17.96 133 -20 133 C-20 131.02 -20 129.04 -20 127 C-21.98 127 -23.96 127 -26 127 C-26 125.02 -26 123.04 -26 121 C-27.65 121 -29.3 121 -31 121 C-31 109.12 -31 97.24 -31 85 C-29.35 85 -27.7 85 -26 85 C-26 83.02 -26 81.04 -26 79 C-24.02 79 -22.04 79 -20 79 C-20 78.01 -20 77.02 -20 76 C-20.66 76 -21.32 76 -22 76 C-22 73.36 -22 70.72 -22 68 C-24.64 68 -27.28 68 -30 68 C-30 52.82 -30 37.64 -30 22 C-27.36 22 -24.72 22 -22 22 C-22 19.69 -22 17.38 -22 15 C-19.69 15 -17.38 15 -15 15 C-15 12.36 -15 9.72 -15 7 C-10.05 7 -5.1 7 0 7 C0 4.69 0 2.38 0 0 Z " fill="#303030" transform="translate(31,3)"/>
<path d="M0 0 C2.64 0 5.28 0 8 0 C8 10.23 8 20.46 8 31 C5.69 31 3.38 31 1 31 C1 33.31 1 35.62 1 38 C0.01 38 -0.98 38 -2 38 C-2 38.66 -2 39.32 -2 40 C-0.02 40 1.96 40 4 40 C4 51.88 4 63.76 4 76 C2.02 76 0.04 76 -2 76 C-2 77.98 -2 79.96 -2 82 C-3.98 82 -5.96 82 -8 82 C-8 83.98 -8 85.96 -8 88 C-9.98 88 -11.96 88 -14 88 C-14 89.98 -14 91.96 -14 94 C-17.96 94 -21.92 94 -26 94 C-26 95.98 -26 97.96 -26 100 C-37.88 100 -49.76 100 -62 100 C-62 98.02 -62 96.04 -62 94 C-65.96 94 -69.92 94 -74 94 C-74 92.02 -74 90.04 -74 88 C-75.98 88 -77.96 88 -80 88 C-80 86.02 -80 84.04 -80 82 C-81.98 82 -83.96 82 -86 82 C-86 80.02 -86 78.04 -86 76 C-87.65 76 -89.3 76 -91 76 C-91 64.12 -91 52.24 -91 40 C-87.37 40 -83.74 40 -80 40 C-80 43.96 -80 47.92 -80 52 C-78.02 52 -76.04 52 -74 52 C-74 53.98 -74 55.96 -74 58 C-70.04 58 -66.08 58 -62 58 C-62 59.98 -62 61.96 -62 64 C-56.06 64 -50.12 64 -44 64 C-44 58.06 -44 52.12 -44 46 C-42.02 46 -40.04 46 -38 46 C-38 51.94 -38 57.88 -38 64 C-34.04 64 -30.08 64 -26 64 C-26 62.02 -26 60.04 -26 58 C-22.04 58 -18.08 58 -14 58 C-14 56.02 -14 54.04 -14 52 C-12.02 52 -10.04 52 -8 52 C-8 50.02 -8 48.04 -8 46 C-11.96 46 -15.92 46 -20 46 C-20 44.02 -20 42.04 -20 40 C-21.98 40 -23.96 40 -26 40 C-26 38.02 -26 36.04 -26 34 C-37.88 34 -49.76 34 -62 34 C-62 35.98 -62 37.96 -62 40 C-63.98 40 -65.96 40 -68 40 C-68 41.98 -68 43.96 -68 46 C-69.98 46 -71.96 46 -74 46 C-74 40.06 -74 34.12 -74 28 C-70.04 28 -66.08 28 -62 28 C-62 26.02 -62 24.04 -62 22 C-68.435 22.495 -68.435 22.495 -75 23 C-75 18.05 -75 13.1 -75 8 C-69.72 8 -64.44 8 -59 8 C-59 10.31 -59 12.62 -59 15 C-44.48 15 -29.96 15 -15 15 C-15 12.69 -15 10.38 -15 8 C-14 7 -14 7 -10.83984375 6.90234375 C-9.55207031 6.91394531 -8.26429687 6.92554688 -6.9375 6.9375 C-5.00197266 6.95103516 -5.00197266 6.95103516 -3.02734375 6.96484375 C-2.02832031 6.97644531 -1.02929688 6.98804688 0 7 C0 4.69 0 2.38 0 0 Z " fill="#1D4E52" transform="translate(91,48)"/>
<path d="M0 0 C36.3 0 72.6 0 110 0 C110.165 12.4575 110.33 24.915 110.5 37.75 C110.55220703 41.55756836 110.60441406 45.36513672 110.65820312 49.28808594 C111.01663739 77.53327486 111 105.74513229 111 134 C74.04 134 37.08 134 -1 134 C-1 101.90399439 -0.939975 69.8383002 -0.5 37.75 C-0.335 25.2925 -0.17 12.835 0 0 Z M3 11 C3 50.6 3 90.2 3 131 C37.32 131 71.64 131 107 131 C107 122.56566406 107 114.13132812 107 105.44140625 C107 73.9609375 107 42.48046875 107 11 C72.68 11 38.36 11 3 11 Z " fill="#B2B3B2" transform="translate(109,4)"/>
<path d="M0 0 C31.02 0 62.04 0 94 0 C94 4.95 94 9.9 94 15 C62.98 15 31.96 15 0 15 C0 10.05 0 5.1 0 0 Z " fill="#C2C2C2" transform="translate(116,23)"/>
<path d="M0 0 C11.88 0 23.76 0 36 0 C36 1.98 36 3.96 36 6 C37.98 6 39.96 6 42 6 C42 7.98 42 9.96 42 12 C45.96 12 49.92 12 54 12 C54 13.98 54 15.96 54 18 C52.02 18 50.04 18 48 18 C48 19.98 48 21.96 48 24 C44.04 24 40.08 24 36 24 C36 25.98 36 27.96 36 30 C32.04 30 28.08 30 24 30 C24 24.06 24 18.12 24 12 C22.02 12 20.04 12 18 12 C18 17.94 18 23.88 18 30 C12.06 30 6.12 30 0 30 C0 28.02 0 26.04 0 24 C-3.96 24 -7.92 24 -12 24 C-12 22.02 -12 20.04 -12 18 C-13.98 18 -15.96 18 -18 18 C-18 16.02 -18 14.04 -18 12 C-14.04 12 -10.08 12 -6 12 C-6 10.02 -6 8.04 -6 6 C-4.02 6 -2.04 6 0 6 C0 4.02 0 2.04 0 0 Z " fill="#0B1612" transform="translate(29,82)"/>
<path d="M0 0 C1.93166016 0.01740234 1.93166016 0.01740234 3.90234375 0.03515625 C5.19269531 0.04417969 6.48304687 0.05320313 7.8125 0.0625 C8.81152344 0.07410156 9.81054688 0.08570313 10.83984375 0.09765625 C11.16984375 2.07765625 11.49984375 4.05765625 11.83984375 6.09765625 C10.51984375 6.42765625 9.19984375 6.75765625 7.83984375 7.09765625 C7.83984375 7.75765625 7.83984375 8.41765625 7.83984375 9.09765625 C8.49984375 9.09765625 9.15984375 9.09765625 9.83984375 9.09765625 C9.83984375 9.75765625 9.83984375 10.41765625 9.83984375 11.09765625 C9.17984375 11.09765625 8.51984375 11.09765625 7.83984375 11.09765625 C7.50984375 12.41765625 7.17984375 13.73765625 6.83984375 15.09765625 C8.48984375 15.09765625 10.13984375 15.09765625 11.83984375 15.09765625 C11.83984375 25.98765625 11.83984375 36.87765625 11.83984375 48.09765625 C9.85984375 48.59265625 9.85984375 48.59265625 7.83984375 49.09765625 C7.83984375 50.41765625 7.83984375 51.73765625 7.83984375 53.09765625 C6.35484375 53.59265625 6.35484375 53.59265625 4.83984375 54.09765625 C4.50984375 57.06765625 4.17984375 60.03765625 3.83984375 63.09765625 C6.47984375 63.09765625 9.11984375 63.09765625 11.83984375 63.09765625 C11.83984375 73.65765625 11.83984375 84.21765625 11.83984375 95.09765625 C6.55984375 95.09765625 1.27984375 95.09765625 -4.16015625 95.09765625 C-4.16015625 84.53765625 -4.16015625 73.97765625 -4.16015625 63.09765625 C-1.68515625 62.60265625 -1.68515625 62.60265625 0.83984375 62.09765625 C0.86046875 60.79828125 0.88109375 59.49890625 0.90234375 58.16015625 C0.91394531 57.42925781 0.92554687 56.69835937 0.9375 55.9453125 C1.04545559 54.08033484 1.04545559 54.08033484 -0.16015625 53.09765625 C-0.16015625 55.73765625 -0.16015625 58.37765625 -0.16015625 61.09765625 C-1.15015625 60.76765625 -2.14015625 60.43765625 -3.16015625 60.09765625 C-3.24112428 58.64023162 -3.29933399 57.18152818 -3.34765625 55.72265625 C-3.38246094 54.91054687 -3.41726562 54.0984375 -3.453125 53.26171875 C-3.35644531 52.54757813 -3.25976562 51.8334375 -3.16015625 51.09765625 C-2.17015625 50.43765625 -1.18015625 49.77765625 -0.16015625 49.09765625 C-1.48015625 48.76765625 -2.80015625 48.43765625 -4.16015625 48.09765625 C-4.1854257 41.42245285 -4.20298893 34.74726168 -4.21508789 28.07202148 C-4.2201295 25.79923034 -4.22696262 23.52644245 -4.2355957 21.25366211 C-4.24766886 17.99462074 -4.25338612 14.73562208 -4.2578125 11.4765625 C-4.26297379 10.45365616 -4.26813507 9.43074982 -4.27345276 8.37684631 C-4.27352829 7.4359465 -4.27360382 6.49504669 -4.27368164 5.52563477 C-4.27590225 4.69290543 -4.27812286 3.86017609 -4.28041077 3.00221252 C-4.07317977 -0.27985211 -3.3599661 0.10383084 0 0 Z " fill="#737B8C" transform="translate(119.16015625,38.90234375)"/>
<path d="M0 0 C1.98 0 3.96 0 6 0 C6 11.88 6 23.76 6 36 C4.02 36 2.04 36 0 36 C0 37.98 0 39.96 0 42 C-1.98 42 -3.96 42 -6 42 C-6 43.98 -6 45.96 -6 48 C-7.98 48 -9.96 48 -12 48 C-12 49.98 -12 51.96 -12 54 C-15.96 54 -19.92 54 -24 54 C-24 55.98 -24 57.96 -24 60 C-35.88 60 -47.76 60 -60 60 C-60 58.02 -60 56.04 -60 54 C-63.96 54 -67.92 54 -72 54 C-72 52.02 -72 50.04 -72 48 C-73.98 48 -75.96 48 -78 48 C-78 46.02 -78 44.04 -78 42 C-79.98 42 -81.96 42 -84 42 C-84 40.02 -84 38.04 -84 36 C-80.04 36 -76.08 36 -72 36 C-72 37.98 -72 39.96 -72 42 C-68.04 42 -64.08 42 -60 42 C-60 43.98 -60 45.96 -60 48 C-48.12 48 -36.24 48 -24 48 C-24 46.02 -24 44.04 -24 42 C-20.04 42 -16.08 42 -12 42 C-12 40.02 -12 38.04 -12 36 C-10.02 36 -8.04 36 -6 36 C-6 30.06 -6 24.12 -6 18 C-4.02 18 -2.04 18 0 18 C0 12.06 0 6.12 0 0 Z " fill="#0F1110" transform="translate(89,88)"/>
<path d="M0 0 C1.65 0 3.3 0 5 0 C5 5.94 5 11.88 5 18 C6.98 18 8.96 18 11 18 C11 19.98 11 21.96 11 24 C12.98 24 14.96 24 17 24 C17 25.98 17 27.96 17 30 C20.96 30 24.92 30 29 30 C29 31.98 29 33.96 29 36 C40.88 36 52.76 36 65 36 C65 34.02 65 32.04 65 30 C66.98 30 68.96 30 71 30 C71 28.02 71 26.04 71 24 C74.96 24 78.92 24 83 24 C83 27.96 83 31.92 83 36 C81.02 36 79.04 36 77 36 C77 37.98 77 39.96 77 42 C73.04 42 69.08 42 65 42 C65 43.98 65 45.96 65 48 C53.12 48 41.24 48 29 48 C29 46.02 29 44.04 29 42 C25.04 42 21.08 42 17 42 C17 40.02 17 38.04 17 36 C11.39 36 5.78 36 0 36 C0 24.12 0 12.24 0 0 Z " fill="#2B4B4D" transform="translate(0,88)"/>
<path d="M0 0 C25.41 0 50.82 0 77 0 C77 4.95 77 9.9 77 15 C51.59 15 26.18 15 0 15 C0 10.05 0 5.1 0 0 Z " fill="#BFBFBF" transform="translate(133,71)"/>
<path d="M0 0 C25.41 0 50.82 0 77 0 C77 4.95 77 9.9 77 15 C51.59 15 26.18 15 0 15 C0 10.05 0 5.1 0 0 Z " fill="#BDBDBD" transform="translate(133,55)"/>
<path d="M0 0 C25.41 0 50.82 0 77 0 C77 4.95 77 9.9 77 15 C51.59 15 26.18 15 0 15 C0 10.05 0 5.1 0 0 Z " fill="#BDBEBD" transform="translate(133,39)"/>
<path d="M0 0 C1.98 0 3.96 0 6 0 C6 3.96 6 7.92 6 12 C7.98 12 9.96 12 12 12 C12 13.98 12 15.96 12 18 C15.96 18 19.92 18 24 18 C24 19.98 24 21.96 24 24 C29.94 24 35.88 24 42 24 C42 18.06 42 12.12 42 6 C43.98 6 45.96 6 48 6 C48 11.94 48 17.88 48 24 C51.96 24 55.92 24 60 24 C60 22.02 60 20.04 60 18 C63.96 18 67.92 18 72 18 C72 16.02 72 14.04 72 12 C73.98 12 75.96 12 78 12 C78 8.04 78 4.08 78 0 C79.98 0 81.96 0 84 0 C84 5.94 84 11.88 84 18 C82.02 18 80.04 18 78 18 C78 19.98 78 21.96 78 24 C74.04 24 70.08 24 66 24 C66 25.98 66 27.96 66 30 C64.02 30 62.04 30 60 30 C60 31.98 60 33.96 60 36 C48.12 36 36.24 36 24 36 C24 34.02 24 32.04 24 30 C20.04 30 16.08 30 12 30 C12 28.02 12 26.04 12 24 C10.02 24 8.04 24 6 24 C6 22.02 6 20.04 6 18 C4.02 18 2.04 18 0 18 C0 12.06 0 6.12 0 0 Z " fill="#5E5E5E" transform="translate(5,88)"/>
<path d="M0 0 C25.08 0 50.16 0 76 0 C76 4.95 76 9.9 76 15 C50.92 15 25.84 15 0 15 C0 10.05 0 5.1 0 0 Z " fill="#BDBDBD" transform="translate(133,87)"/>
<path d="M0 0 C25.08 0 50.16 0 76 0 C76 4.62 76 9.24 76 14 C50.92 14 25.84 14 0 14 C0 9.38 0 4.76 0 0 Z " fill="#C3C4C3" transform="translate(133,119)"/>
<path d="M0 0 C25.08 0 50.16 0 76 0 C76 4.62 76 9.24 76 14 C50.92 14 25.84 14 0 14 C0 9.38 0 4.76 0 0 Z " fill="#C3C3C3" transform="translate(133,103)"/>
<path d="M0 0 C15.18 0 30.36 0 46 0 C46 4.95 46 9.9 46 15 C50.62 15 55.24 15 60 15 C60 17.64 60 20.28 60 23 C55.05 23 50.1 23 45 23 C45 20.36 45 17.72 45 15 C30.48 15 15.96 15 1 15 C1 17.64 1 20.28 1 23 C-3.95 23 -8.9 23 -14 23 C-14 20.36 -14 17.72 -14 15 C-9.38 15 -4.76 15 0 15 C0 10.05 0 5.1 0 0 Z " fill="#4A4A4A" transform="translate(31,3)"/>
<path d="M0 0 C2.64 0 5.28 0 8 0 C8 7.59 8 15.18 8 23 C5.36 23 2.72 23 0 23 C0 25.31 0 27.62 0 30 C-2.64 30 -5.28 30 -8 30 C-8 29.34 -8 28.68 -8 28 C-9.98 28 -11.96 28 -14 28 C-14 26.02 -14 24.04 -14 22 C-17.96 22 -21.92 22 -26 22 C-26 20.02 -26 18.04 -26 16 C-37.88 16 -49.76 16 -62 16 C-62 17.98 -62 19.96 -62 22 C-68.435 22.495 -68.435 22.495 -75 23 C-75 18.05 -75 13.1 -75 8 C-69.72 8 -64.44 8 -59 8 C-59 10.31 -59 12.62 -59 15 C-44.48 15 -29.96 15 -15 15 C-15 12.69 -15 10.38 -15 8 C-14 7 -14 7 -10.83984375 6.90234375 C-9.55207031 6.91394531 -8.26429687 6.92554688 -6.9375 6.9375 C-5.00197266 6.95103516 -5.00197266 6.95103516 -3.02734375 6.96484375 C-2.02832031 6.97644531 -1.02929688 6.98804688 0 7 C0 4.69 0 2.38 0 0 Z " fill="#4E4C4C" transform="translate(91,48)"/>
<path d="M0 0 C33.99 0 67.98 0 103 0 C102.01 0.33 101.02 0.66 100 1 C100 10.57 100 20.14 100 30 C99.34 30 98.68 30 98 30 C95.08081511 21.58587884 96.33516806 16.97247915 97 7 C65.65 7 34.3 7 2 7 C2 12.28 2 17.56 2 23 C1.67 25.31 1.34 27.62 1 30 C0.67 30 0.34 30 0 30 C0 20.1 0 10.2 0 0 Z " fill="#0B0B0B" transform="translate(113,16)"/>
<path d="M0 0 C0.33 0 0.66 0 1 0 C1.13497485 8.41091865 1.2654298 16.82189345 1.39115143 25.23295498 C1.44974553 29.14500145 1.50951355 33.0570198 1.57275391 36.96899414 C2.0156865 64.65228149 2 92.30666336 2 120 C36.32 120 70.64 120 106 120 C106 103.83 106 87.66 106 71 C106.12995029 59.06081732 106.26740434 47.12402149 106.46356201 35.18609619 C106.52673756 31.28751945 106.58537335 27.38887378 106.64453125 23.49023438 C106.75888736 15.99342078 106.87773425 8.49668925 107 1 C107.33 1 107.66 1 108 1 C108 40.93 108 80.86 108 122 C71.7 122 35.4 122 -2 122 C-2 105.17 -2 88.34 -2 71 C-1.34 71 -0.68 71 0 71 C0 47.57 0 24.14 0 0 Z " fill="#C7C8C7" transform="translate(110,15)"/>
<path d="M0 0 C0.33 0 0.66 0 1 0 C1 4.95 1 9.9 1 15 C26.08 15 51.16 15 77 15 C77 15.33 77 15.66 77 16 C51.92 16 26.84 16 1 16 C1 20.62 1 25.24 1 30 C26.08 30 51.16 30 77 30 C77 30.66 77 31.32 77 32 C51.92 32 26.84 32 1 32 C1 36.62 1 41.24 1 46 C26.08 46 51.16 46 77 46 C77 46.33 77 46.66 77 47 C66.52605156 47.91935835 56.16867815 48.13395642 45.6640625 48.09765625 C44.04739425 48.09578555 42.43072542 48.09436474 40.8140564 48.09336853 C36.6089108 48.08959462 32.40380109 48.07980969 28.19866943 48.06866455 C23.88765956 48.05833866 19.57664374 48.05384724 15.265625 48.04882812 C6.84373374 48.03818151 -1.57812864 48.02116868 -10 48 C-10 47.67 -10 47.34 -10 47 C-7.03 47 -4.06 47 -1 47 C-1 36.44 -1 25.88 -1 15 C-3.64 15 -6.28 15 -9 15 C-9 12.03 -9 9.06 -9 6 C-7.68 5.34 -6.36 4.68 -5 4 C-4.34 3.34 -3.68 2.68 -3 2 C-2.67 2.99 -2.34 3.98 -2 5 C-1.34 5 -0.68 5 0 5 C0 3.35 0 1.7 0 0 Z " fill="#3B3937" transform="translate(132,87)"/>
<path d="M0 0 C5.28 0 10.56 0 16 0 C16 10.56 16 21.12 16 32 C10.72 32 5.44 32 0 32 C0 21.44 0 10.88 0 0 Z " fill="#EED6AB" transform="translate(115,102)"/>
<path d="M0 0 C0.99 0.33 1.98 0.66 3 1 C3.03072822 11.37498896 3.05102193 21.74997279 3.0625 32.125 C3.06335602 32.89327621 3.06421204 33.66155243 3.06509399 34.45310974 C3.09152435 61.31357914 2.78407545 88.14958637 2 115 C1.34 115 0.68 115 0 115 C-0.33 99.82 -0.66 84.64 -1 69 C-1.66 69 -2.32 69 -3 69 C-3 64.05 -3 59.1 -3 54 C-28.41 54 -53.82 54 -80 54 C-80 53.67 -80 53.34 -80 53 C-54.59 53 -29.18 53 -3 53 C-3.33 47.72 -3.66 42.44 -4 37 C-3.74875795 33.267261 -3.50704437 29.68192217 -3 26 C-2.505 27.485 -2.505 27.485 -2 29 C-1.34 29 -0.68 29 0 29 C0 19.43 0 9.86 0 0 Z " fill="#414240" transform="translate(213,17)"/>
<path d="M0 0 C1.98 0 3.96 0 6 0 C6 3.96 6 7.92 6 12 C7.98 12 9.96 12 12 12 C12 13.98 12 15.96 12 18 C15.96 18 19.92 18 24 18 C24 19.98 24 21.96 24 24 C27.96 24 31.92 24 36 24 C36 25.98 36 27.96 36 30 C34.02 30 32.04 30 30 30 C30 31.98 30 33.96 30 36 C28.02 36 26.04 36 24 36 C24 34.02 24 32.04 24 30 C20.04 30 16.08 30 12 30 C12 28.02 12 26.04 12 24 C10.02 24 8.04 24 6 24 C6 22.02 6 20.04 6 18 C4.02 18 2.04 18 0 18 C0 12.06 0 6.12 0 0 Z " fill="#828282" transform="translate(5,88)"/>
<path d="M0 0 C7.92 0 15.84 0 24 0 C24 1.98 24 3.96 24 6 C22.02 6 20.04 6 18 6 C18 7.98 18 9.96 18 12 C12.06 12 6.12 12 0 12 C0 13.98 0 15.96 0 18 C-1.98 18 -3.96 18 -6 18 C-6 19.98 -6 21.96 -6 24 C-7.98 24 -9.96 24 -12 24 C-12 18.06 -12 12.12 -12 6 C-8.04 6 -4.08 6 0 6 C0 4.02 0 2.04 0 0 Z " fill="#474444" transform="translate(29,70)"/>
<path d="M0 0 C2.64 0 5.28 0 8 0 C8 15.18 8 30.36 8 46 C5.36 46 2.72 46 0 46 C0 30.82 0 15.64 0 0 Z " fill="#181717" transform="translate(99,25)"/>
<path d="M0 0 C2.64 0 5.28 0 8 0 C8 15.18 8 30.36 8 46 C5.36 46 2.72 46 0 46 C0 30.82 0 15.64 0 0 Z " fill="#181717" transform="translate(1,25)"/>
<path d="M0 0 C0 15.51 0 31.02 0 47 C0.66 47 1.32 47 2 47 C2 31.82 2 16.64 2 1 C2.33 1 2.66 1 3 1 C3 17.17 3 33.34 3 50 C-3.93 50 -10.86 50 -18 50 C-18 49.67 -18 49.34 -18 49 C-13.38 49 -8.76 49 -4 49 C-4 33.49 -4 17.98 -4 2 C-29.41 2 -54.82 2 -81 2 C-81 3.65 -81 5.3 -81 7 C-83 7 -83 7 -84.5 5.625 C-84.995 5.08875 -85.49 4.5525 -86 4 C-86.66 3.34 -87.32 2.68 -88 2 C-83.28332325 1.07855288 -78.68962654 0.83222714 -73.89916992 0.79467773 C-73.10986084 0.78477814 -72.32055176 0.77487854 -71.50732422 0.76467896 C-68.91506889 0.73325491 -66.32279532 0.70838061 -63.73046875 0.68359375 C-61.92539514 0.66300578 -60.12032615 0.64200884 -58.31526184 0.62062073 C-53.57613905 0.56556939 -48.83697392 0.51608979 -44.09777832 0.46777344 C-39.26111072 0.41746122 -34.42450483 0.3618101 -29.58789062 0.30664062 C-22.54324143 0.22692933 -15.49857395 0.14945979 -8.45385742 0.07592773 C-7.70946915 0.06814804 -6.96508087 0.06036835 -6.19813538 0.05235291 C-1.13299179 0 -1.13299179 0 0 0 Z " fill="#121112" transform="translate(213,85)"/>
<path d="M0 0 C15.18 0 30.36 0 46 0 C46 2.31 46 4.62 46 7 C30.82 7 15.64 7 0 7 C0 4.69 0 2.38 0 0 Z " fill="#353535" transform="translate(31,3)"/>
<path d="M0 0 C1.98 0 3.96 0 6 0 C6 5.94 6 11.88 6 18 C4.02 18 2.04 18 0 18 C0 19.98 0 21.96 0 24 C-3.96 24 -7.92 24 -12 24 C-12 25.98 -12 27.96 -12 30 C-13.98 30 -15.96 30 -18 30 C-18 26.04 -18 22.08 -18 18 C-14.04 18 -10.08 18 -6 18 C-6 16.02 -6 14.04 -6 12 C-4.02 12 -2.04 12 0 12 C0 8.04 0 4.08 0 0 Z " fill="#828282" transform="translate(83,88)"/>
<path d="M0 0 C0.33 0 0.66 0 1 0 C1 39.93 1 79.86 1 121 C-33.65 120.67 -68.3 120.34 -104 120 C-104 119.67 -104 119.34 -104 119 C-70.01 119 -36.02 119 -1 119 C-1 102.83 -1 86.66 -1 70 C-0.87004971 58.06081732 -0.73259566 46.12402149 -0.53643799 34.18609619 C-0.47326244 30.28751945 -0.41462665 26.38887378 -0.35546875 22.49023438 C-0.24111264 14.99342078 -0.12226575 7.49668925 0 0 Z " fill="#D4D5D4" transform="translate(217,16)"/>
<path d="M0 0 C5.28 0 10.56 0 16 0 C16 2.31 16 4.62 16 7 C28.21 7 40.42 7 53 7 C53 9.31 53 11.62 53 14 C51.68 14 50.36 14 49 14 C49 12.02 49 10.04 49 8 C37.12 8 25.24 8 13 8 C13 9.98 13 11.96 13 14 C6.565 14.495 6.565 14.495 0 15 C0 10.05 0 5.1 0 0 Z " fill="#D2D2D2" transform="translate(16,56)"/>
<path d="M0 0 C0 1.98 0 3.96 0 6 C-3.96 6 -7.92 6 -12 6 C-12 11.94 -12 17.88 -12 24 C-13.98 24 -15.96 24 -18 24 C-18 22.02 -18 20.04 -18 18 C-19.98 18 -21.96 18 -24 18 C-24 16.02 -24 14.04 -24 12 C-22.02 12 -20.04 12 -18 12 C-18 11.01 -18 10.02 -18 9 C-18.66 9 -19.32 9 -20 9 C-20 6.36 -20 3.72 -20 1 C-13.30324864 -0.03026944 -6.7685324 -0.10152799 0 0 Z " fill="#23302D" transform="translate(29,70)"/>
<path d="M0 0 C12.21 0 24.42 0 37 0 C37 2.31 37 4.62 37 7 C24.79 7 12.58 7 0 7 C0 4.69 0 2.38 0 0 Z " fill="#606060" transform="translate(32,11)"/>
<path d="M0 0 C4.95 0 9.9 0 15 0 C15 2.31 15 4.62 15 7 C12.69 7 10.38 7 8 7 C8 11.95 8 16.9 8 22 C7.67 21.34 7.34 20.68 7 20 C5.02 20 3.04 20 1 20 C1 18.02 1 16.04 1 14 C-1.64 14 -4.28 14 -7 14 C-7 11.69 -7 9.38 -7 7 C-4.69 7 -2.38 7 0 7 C0 4.69 0 2.38 0 0 Z " fill="#5F5F5F" transform="translate(76,56)"/>
<path d="M0 0 C4.95 0 9.9 0 15 0 C14.67 0.66 14.34 1.32 14 2 C10.04 1.67 6.08 1.34 2 1 C2 5.29 2 9.58 2 14 C8.435 13.505 8.435 13.505 15 13 C15 18.94 15 24.88 15 31 C11.37 31 7.74 31 4 31 C4.66 29.68 5.32 28.36 6 27 C6.33 27.99 6.66 28.98 7 30 C7.66 30 8.32 30 9 30 C9.33 29.01 9.66 28.02 10 27 C11.32 27.99 12.64 28.98 14 30 C13.649375 29.21625 13.29875 28.4325 12.9375 27.625 C12.628125 26.75875 12.31875 25.8925 12 25 C12.33 24.34 12.66 23.68 13 23 C9.39007621 23.65585189 9.39007621 23.65585189 6 25 C5.67 24.34 5.34 23.68 5 23 C4.34 23 3.68 23 3 23 C3.33 23.99 3.66 24.98 4 26 C3.5625 28.6875 3.5625 28.6875 3 31 C2.01 31 1.02 31 0 31 C0 20.77 0 10.54 0 0 Z " fill="#BFBCAD" transform="translate(115,55)"/>
<path d="M0 0 C4.95 0 9.9 0 15 0 C15 4.95 15 9.9 15 15 C10.05 15 5.1 15 0 15 C0 10.05 0 5.1 0 0 Z " fill="#FBF8F7" transform="translate(116,118)"/>
<path d="M0 0 C11.88 0 23.76 0 36 0 C36 1.98 36 3.96 36 6 C24.12 6 12.24 6 0 6 C0 4.02 0 2.04 0 0 Z " fill="#29DFEB" transform="translate(29,130)"/>
<path d="M0 0 C11.88 0 23.76 0 36 0 C36 1.98 36 3.96 36 6 C24.12 6 12.24 6 0 6 C0 4.02 0 2.04 0 0 Z " fill="#5E5E5E" transform="translate(29,124)"/>
<path d="M0 0 C1.98 0 3.96 0 6 0 C6 11.88 6 23.76 6 36 C4.02 36 2.04 36 0 36 C0 24.12 0 12.24 0 0 Z " fill="#0D0D0D" transform="translate(89,88)"/>
<path d="M0 0 C11.88 0 23.76 0 36 0 C36 1.98 36 3.96 36 6 C24.12 6 12.24 6 0 6 C0 4.02 0 2.04 0 0 Z " fill="#212E2B" transform="translate(29,64)"/>
<path d="M0 0 C4.95 0 9.9 0 15 0 C15 2.64 15 5.28 15 8 C10.38 8 5.76 8 1 8 C1 12.95 1 17.9 1 23 C0.67 23 0.34 23 0 23 C0 20.69 0 18.38 0 16 C-2.31 16 -4.62 16 -7 16 C-7 13.36 -7 10.72 -7 8 C-4.69 8 -2.38 8 0 8 C0 5.36 0 2.72 0 0 Z " fill="#363636" transform="translate(16,10)"/>
<path d="M0 0 C4.95 0 9.9 0 15 0 C15 2.64 15 5.28 15 8 C17.31 8 19.62 8 22 8 C22 10.64 22 13.28 22 16 C19.36 16 16.72 16 14 16 C14 13.36 14 10.72 14 8 C9.38 8 4.76 8 0 8 C0 5.36 0 2.72 0 0 Z " fill="#353535" transform="translate(77,10)"/>
<path d="M0 0 C2.64 0 5.28 0 8 0 C8 2.64 8 5.28 8 8 C5.69 8 3.38 8 1 8 C1 10.31 1 12.62 1 15 C0.01 15 -0.98 15 -2 15 C-2 15.66 -2 16.32 -2 17 C-3.98 17 -5.96 17 -8 17 C-8 15.02 -8 13.04 -8 11 C-9.98 11 -11.96 11 -14 11 C-14 9.02 -14 7.04 -14 5 C-12.02 5 -10.04 5 -8 5 C-8 5.66 -8 6.32 -8 7 C-5.36 7 -2.72 7 0 7 C0 4.69 0 2.38 0 0 Z " fill="#181717" transform="translate(91,71)"/>
<path d="M0 0 C2.64 0 5.28 0 8 0 C8 2.31 8 4.62 8 7 C12.62 7 17.24 7 22 7 C22 7.33 22 7.66 22 8 C17.05 8 12.1 8 7 8 C7 12.95 7 17.9 7 23 C4.69 23 2.38 23 0 23 C0 15.41 0 7.82 0 0 Z " fill="#808080" transform="translate(9,48)"/>
<path d="M0 0 C1.65 0 3.3 0 5 0 C5 11.88 5 23.76 5 36 C3.35 36 1.7 36 0 36 C0 24.12 0 12.24 0 0 Z " fill="#0D0D0D" transform="translate(0,88)"/>
<path d="M0 0 C0.66 0.33 1.32 0.66 2 1 C2.66 0.835 3.32 0.67 4 0.5 C6 0 6 0 8 1 C8.40729228 3.32156597 8.74438677 5.6568787 9 8 C7.68 7.34 6.36 6.68 5 6 C4.67 6.66 4.34 7.32 4 8 C3.34 8 2.68 8 2 8 C1.67 7.34 1.34 6.68 1 6 C0.67 6.66 0.34 7.32 0 8 C3.63 8.33 7.26 8.66 11 9 C9.02 9.99 9.02 9.99 7 11 C7 12.32 7 13.64 7 15 C6.01 15.33 5.02 15.66 4 16 C3.67 18.97 3.34 21.94 3 25 C2.01 24.67 1.02 24.34 0 24 C0.03255208 21.94921875 0.06510417 19.8984375 0.09765625 17.84765625 C0.20561184 15.98267859 0.20561184 15.98267859 -1 15 C-1 17.64 -1 20.28 -1 23 C-1.99 22.67 -2.98 22.34 -4 22 C-4.08096803 20.54257537 -4.13917774 19.08387193 -4.1875 17.625 C-4.22230469 16.81289062 -4.25710937 16.00078125 -4.29296875 15.1640625 C-4.19628906 14.44992188 -4.09960938 13.73578125 -4 13 C-3.01 12.34 -2.02 11.68 -1 11 C-2.32 10.34 -3.64 9.68 -5 9 C-4.34 8.67 -3.68 8.34 -3 8 C-2.835 6.845 -2.67 5.69 -2.5 4.5 C-2.335 3.345 -2.17 2.19 -2 1 C-1.34 0.67 -0.68 0.34 0 0 Z " fill="#7C4D28" transform="translate(120,77)"/>
<path d="M0 0 C2.64 0 5.28 0 8 0 C8 7.26 8 14.52 8 22 C5.36 22 2.72 22 0 22 C0 14.74 0 7.48 0 0 Z " fill="#FD1414" transform="translate(54,41)"/>
<path d="M0 0 C0.33 0 0.66 0 1 0 C1 3.3 1 6.6 1 10 C1.99 10 2.98 10 4 10 C4.33 10.99 4.66 11.98 5 13 C5.66 13.33 6.32 13.66 7 14 C7 11.36 7 8.72 7 6 C7.66 6.33 8.32 6.66 9 7 C9 9.97 9 12.94 9 16 C7.02 16 5.04 16 3 16 C3 26.56 3 37.12 3 48 C5.31 48 7.62 48 10 48 C10 48.33 10 48.66 10 49 C6.7 49 3.4 49 0 49 C0 32.83 0 16.66 0 0 Z " fill="#2C2927" transform="translate(112,86)"/>
<path d="M0 0 C3.96 0 7.92 0 12 0 C12 4.29 12 8.58 12 13 C8.04 13 4.08 13 0 13 C0 8.71 0 4.42 0 0 Z " fill="#2A2F2F" transform="translate(117,56)"/>
<path d="M0 0 C7.59 0 15.18 0 23 0 C23 0.33 23 0.66 23 1 C15.74 1 8.48 1 1 1 C1 5.95 1 10.9 1 16 C-3.95 16 -8.9 16 -14 16 C-14 13.36 -14 10.72 -14 8 C-9.38 8 -4.76 8 0 8 C0 5.36 0 2.72 0 0 Z " fill="#5D5D5D" transform="translate(31,10)"/>
<path d="M0 0 C7.92 0 15.84 0 24 0 C24 1.98 24 3.96 24 6 C16.08 6 8.16 6 0 6 C0 4.02 0 2.04 0 0 Z " fill="#474444" transform="translate(35,136)"/>
<path d="M0 0 C1.98 0 3.96 0 6 0 C6 5.94 6 11.88 6 18 C2.04 18 -1.92 18 -6 18 C-6 16.02 -6 14.04 -6 12 C-4.02 12 -2.04 12 0 12 C0 8.04 0 4.08 0 0 Z " fill="#828282" transform="translate(83,88)"/>
<path d="M0 0 C1.98 0 3.96 0 6 0 C6 3.96 6 7.92 6 12 C7.98 12 9.96 12 12 12 C12 13.98 12 15.96 12 18 C8.04 18 4.08 18 0 18 C0 12.06 0 6.12 0 0 Z " fill="#A8A8A8" transform="translate(5,88)"/>
<path d="M0 0 C7.92 0 15.84 0 24 0 C24 1.98 24 3.96 24 6 C16.08 6 8.16 6 0 6 C0 4.02 0 2.04 0 0 Z " fill="#A8A8A8" transform="translate(29,70)"/>
<path d="M0 0 C6 0 12 0 18 0 C18.33 0.99 18.66 1.98 19 3 C18.34 3.66 17.68 4.32 17 5 C17.33 6.32 17.66 7.64 18 9 C13.38 9 8.76 9 4 9 C4.33 7.35 4.66 5.7 5 4 C3.35 4 1.7 4 0 4 C0 2.68 0 1.36 0 0 Z " fill="#AAABAA" transform="translate(138,26)"/>
<path d="M0 0 C5.94 0 11.88 0 18 0 C18 1.98 18 3.96 18 6 C12.06 6 6.12 6 0 6 C0 4.02 0 2.04 0 0 Z " fill="#0D0D0D" transform="translate(59,136)"/>
<path d="M0 0 C5.94 0 11.88 0 18 0 C18 1.98 18 3.96 18 6 C12.06 6 6.12 6 0 6 C0 4.02 0 2.04 0 0 Z " fill="#0D0D0D" transform="translate(17,136)"/>
<path d="M0 0 C5.94 0 11.88 0 18 0 C18 1.98 18 3.96 18 6 C12.06 6 6.12 6 0 6 C0 4.02 0 2.04 0 0 Z " fill="#A8A8A8" transform="translate(35,118)"/>
<path d="M0 0 C1.98 0 3.96 0 6 0 C6 5.94 6 11.88 6 18 C4.02 18 2.04 18 0 18 C0 12.06 0 6.12 0 0 Z " fill="#105257" transform="translate(83,106)"/>
<path d="M0 0 C1.98 0 3.96 0 6 0 C6 5.94 6 11.88 6 18 C4.02 18 2.04 18 0 18 C0 12.06 0 6.12 0 0 Z " fill="#29DFEB" transform="translate(47,94)"/>
<path d="M0 0 C1.98 0 3.96 0 6 0 C6 5.94 6 11.88 6 18 C4.02 18 2.04 18 0 18 C0 12.06 0 6.12 0 0 Z " fill="#212E2B" transform="translate(89,88)"/>
<path d="M0 0 C3.96 0 7.92 0 12 0 C12 3.96 12 7.92 12 12 C10.02 12 8.04 12 6 12 C6 10.02 6 8.04 6 6 C4.02 6 2.04 6 0 6 C0 4.02 0 2.04 0 0 Z " fill="#525151" transform="translate(5,82)"/>
<path d="M0 0 C4.95 0 9.9 0 15 0 C15 2.31 15 4.62 15 7 C10.05 7 5.1 7 0 7 C0 4.69 0 2.38 0 0 Z " fill="#A6A6A6" transform="translate(32,11)"/>
<path d="M0 0 C4.62 0 9.24 0 14 0 C14 2.31 14 4.62 14 7 C9.38 7 4.76 7 0 7 C0 4.69 0 2.38 0 0 Z " fill="#828282" transform="translate(77,56)"/>
<path d="M0 0 C4.62 0 9.24 0 14 0 C14 2.31 14 4.62 14 7 C9.38 7 4.76 7 0 7 C0 4.69 0 2.38 0 0 Z " fill="#FFFFFF" transform="translate(17,56)"/>
<path d="M0 0 C4.62 0 9.24 0 14 0 C14 2.31 14 4.62 14 7 C9.38 7 4.76 7 0 7 C0 4.69 0 2.38 0 0 Z " fill="#5D5D5D" transform="translate(77,18)"/>
<path d="M0 0 C1.65 0 3.3 0 5 0 C5 5.94 5 11.88 5 18 C3.35 18 1.7 18 0 18 C0 12.06 0 6.12 0 0 Z " fill="#212E2B" transform="translate(0,88)"/>
<path d="M0 0 C3.96 0 7.92 0 12 0 C10.68 0.99 9.36 1.98 8 3 C8 3.66 8 4.32 8 5 C8.99 5 9.98 5 11 5 C11 5.66 11 6.32 11 7 C9.68 7 8.36 7 7 7 C7 6.34 7 5.68 7 5 C6.34 5 5.68 5 5 5 C5 5.66 5 6.32 5 7 C4.34 7 3.68 7 3 7 C3 8.65 3 10.3 3 12 C2.01 12.33 1.02 12.66 0 13 C0 8.71 0 4.42 0 0 Z " fill="#6B6A66" transform="translate(117,56)"/>
<path d="M0 0 C3.96 0 7.92 0 12 0 C12 1.98 12 3.96 12 6 C8.04 6 4.08 6 0 6 C0 4.02 0 2.04 0 0 Z " fill="#212E2B" transform="translate(65,130)"/>
<path d="M0 0 C3.96 0 7.92 0 12 0 C12 1.98 12 3.96 12 6 C8.04 6 4.08 6 0 6 C0 4.02 0 2.04 0 0 Z " fill="#138E99" transform="translate(53,130)"/>
<path d="M0 0 C3.96 0 7.92 0 12 0 C12 1.98 12 3.96 12 6 C8.04 6 4.08 6 0 6 C0 4.02 0 2.04 0 0 Z " fill="#138E99" transform="translate(65,124)"/>
<path d="M0 0 C3.96 0 7.92 0 12 0 C12 1.98 12 3.96 12 6 C8.04 6 4.08 6 0 6 C0 4.02 0 2.04 0 0 Z " fill="#29DFEB" transform="translate(17,124)"/>
<path d="M0 0 C3.96 0 7.92 0 12 0 C12 1.98 12 3.96 12 6 C8.04 6 4.08 6 0 6 C0 4.02 0 2.04 0 0 Z " fill="#474444" transform="translate(65,118)"/>
<path d="M0 0 C3.96 0 7.92 0 12 0 C12 1.98 12 3.96 12 6 C8.04 6 4.08 6 0 6 C0 4.02 0 2.04 0 0 Z " fill="#828282" transform="translate(53,118)"/>
<path d="M0 0 C3.96 0 7.92 0 12 0 C12 1.98 12 3.96 12 6 C8.04 6 4.08 6 0 6 C0 4.02 0 2.04 0 0 Z " fill="#474444" transform="translate(17,118)"/>
<path d="M0 0 C1.98 0 3.96 0 6 0 C6 3.96 6 7.92 6 12 C4.02 12 2.04 12 0 12 C0 8.04 0 4.08 0 0 Z " fill="#A8A8A8" transform="translate(83,88)"/>
<path d="M0 0 C1.98 0 3.96 0 6 0 C6 3.96 6 7.92 6 12 C4.02 12 2.04 12 0 12 C0 8.04 0 4.08 0 0 Z " fill="#474444" transform="translate(77,82)"/>
<path d="M0 0 C3.96 0 7.92 0 12 0 C12 1.98 12 3.96 12 6 C8.04 6 4.08 6 0 6 C0 4.02 0 2.04 0 0 Z " fill="#5E5E5E" transform="translate(65,76)"/>
<path d="M0 0 C3.96 0 7.92 0 12 0 C12 1.98 12 3.96 12 6 C8.04 6 4.08 6 0 6 C0 4.02 0 2.04 0 0 Z " fill="#138E99" transform="translate(35,76)"/>
<path d="M0 0 C3.96 0 7.92 0 12 0 C12 1.98 12 3.96 12 6 C8.04 6 4.08 6 0 6 C0 4.02 0 2.04 0 0 Z " fill="#212E2B" transform="translate(65,70)"/>
<path d="M0 0 C3.96 0 7.92 0 12 0 C12 1.98 12 3.96 12 6 C8.04 6 4.08 6 0 6 C0 4.02 0 2.04 0 0 Z " fill="#5E5E5E" transform="translate(53,70)"/>
<path d="M0 0 C0.33 0 0.66 0 1 0 C1 7.26 1 14.52 1 22 C-1.64 22 -4.28 22 -7 22 C-7 19.69 -7 17.38 -7 15 C-4.69 15 -2.38 15 0 15 C0 10.05 0 5.1 0 0 Z " fill="#B01A1A" transform="translate(61,41)"/>
<path d="M0 0 C2.64 0 5.28 0 8 0 C8 4.95 8 9.9 8 15 C4.37 15 0.74 15 -3 15 C-2.34 13.68 -1.68 12.36 -1 11 C-0.67 11.99 -0.34 12.98 0 14 C0.66 14 1.32 14 2 14 C2.33 13.01 2.66 12.02 3 11 C4.32 11.99 5.64 12.98 7 14 C6.649375 13.21625 6.29875 12.4325 5.9375 11.625 C5.628125 10.75875 5.31875 9.8925 5 9 C5.33 8.34 5.66 7.68 6 7 C5.34 7 4.68 7 4 7 C4.33 5.68 4.66 4.36 5 3 C3.35 2.67 1.7 2.34 0 2 C0 1.34 0 0.68 0 0 Z " fill="#B2A189" transform="translate(122,71)"/>
<path d="M0 0 C0.56203125 0.17402344 1.1240625 0.34804688 1.703125 0.52734375 C4.24556755 1.05053346 6.18452337 0.90204838 8.75 0.5625 C9.54921875 0.46066406 10.3484375 0.35882813 11.171875 0.25390625 C11.77515625 0.17011719 12.3784375 0.08632813 13 0 C13 1.32 13 2.64 13 4 C12.278125 3.814375 11.55625 3.62875 10.8125 3.4375 C7.87173027 2.98004693 5.85896942 3.26483643 3 4 C3.99 4.33 4.98 4.66 6 5 C6 6.32 6 7.64 6 9 C3.03 9 0.06 9 -3 9 C-3 7.68 -3 6.36 -3 5 C-2.01 4.67 -1.02 4.34 0 4 C0 2.68 0 1.36 0 0 Z " fill="#A6A6A6" transform="translate(174,58)"/>
<path d="M0 0 C2.64 0 5.28 0 8 0 C8 0.99 8 1.98 8 3 C9.65 3 11.3 3 13 3 C13 3.33 13 3.66 13 4 C11.35 4 9.7 4 8 4 C8.33 5.32 8.66 6.64 9 8 C5.67465243 9.10844919 3.37817425 8.84454356 0 8 C0 5.36 0 2.72 0 0 Z " fill="#B0B1B0" transform="translate(164,42)"/>
<path d="M0 0 C0.66 0 1.32 0 2 0 C2.33 4.62 2.66 9.24 3 14 C5.97 14.495 5.97 14.495 9 15 C8.360625 15.37125 7.72125 15.7425 7.0625 16.125 C4.36141928 18.58052793 4.31592995 20.44578805 4 24 C3.01 24 2.02 24 1 24 C-0.03387512 15.9874678 -0.10466648 8.07094823 0 0 Z " fill="#141312" transform="translate(112,72)"/>
<path d="M0 0 C0.66 0 1.32 0 2 0 C2 0.66 2 1.32 2 2 C3.65 2 5.3 2 7 2 C7 12.56 7 23.12 7 34 C6.67 34 6.34 34 6 34 C5.67 25.09 5.34 16.18 5 7 C4.34 6.67 3.68 6.34 3 6 C3.99 5.01 4.98 4.02 6 3 C1.05 3 -3.9 3 -9 3 C-9 2.67 -9 2.34 -9 2 C-6.03 2 -3.06 2 0 2 C0 1.34 0 0.68 0 0 Z " fill="#958F76" transform="translate(124,52)"/>
<path d="M0 0 C2.64 0 5.28 0 8 0 C8 2.64 8 5.28 8 8 C5.36 8 2.72 8 0 8 C0 5.36 0 2.72 0 0 Z " fill="#675C5C" transform="translate(54,33)"/>
<path d="M0 0 C0.04241723 2.33294775 0.04092937 4.66702567 0 7 C-1 8 -1 8 -4 8.125 C-7 8 -7 8 -8 7 C-8.04080783 5.00041636 -8.04254356 2.99954746 -8 1 C-4.93251126 -0.86240388 -3.40254489 -1.2151946 0 0 Z " fill="#F7ADB3" transform="translate(127,123)"/>
<path d="M0 0 C7.92 0 15.84 0 24 0 C24 0.99 24 1.98 24 3 C19.545 3.495 19.545 3.495 15 4 C15 3.34 15 2.68 15 2 C14.195625 2.165 13.39125 2.33 12.5625 2.5 C8.34112648 3.09247348 4.25335455 3.08506709 0 3 C0 2.01 0 1.02 0 0 Z " fill="#D2BD91" transform="translate(163,27)"/>
<path d="M0 0 C2.31 0 4.62 0 7 0 C7 2.64 7 5.28 7 8 C4.69 8 2.38 8 0 8 C0 5.36 0 2.72 0 0 Z " fill="#181717" transform="translate(92,71)"/>
<path d="M0 0 C2.64 0 5.28 0 8 0 C8 2.31 8 4.62 8 7 C5.36 7 2.72 7 0 7 C0 4.69 0 2.38 0 0 Z " fill="#5B5B5B" transform="translate(91,26)"/>
<path d="M0 0 C0.33 0 0.66 0 1 0 C1 10.56 1 21.12 1 32 C0.67 32 0.34 32 0 32 C0 27.38 0 22.76 0 18 C-0.66 18 -1.32 18 -2 18 C-2 14.37 -2 10.74 -2 7 C-1.34 7 -0.68 7 0 7 C0 4.69 0 2.38 0 0 Z " fill="#3B3834" transform="translate(114,54)"/>
<path d="M0 0 C1.81242052 -0.02687279 3.62495233 -0.04633715 5.4375 -0.0625 C6.44683594 -0.07410156 7.45617187 -0.08570312 8.49609375 -0.09765625 C11 0 11 0 12 1 C12.53625 0.835 13.0725 0.67 13.625 0.5 C16.90264999 -0.19003158 19.7275366 0.4336121 23 1 C23 1.66 23 2.32 23 3 C15.41 3 7.82 3 0 3 C0 2.01 0 1.02 0 0 Z " fill="#919191" transform="translate(160,32)"/>
<path d="M0 0 C0.33 0 0.66 0 1 0 C1 2.64 1 5.28 1 8 C-1.97 8 -4.94 8 -8 8 C-8 8.99 -8 9.98 -8 11 C-9.98 11 -11.96 11 -14 11 C-14 9.02 -14 7.04 -14 5 C-12.02 5 -10.04 5 -8 5 C-8 5.66 -8 6.32 -8 7 C-5.36 7 -2.72 7 0 7 C0 4.69 0 2.38 0 0 Z " fill="#222B29" transform="translate(91,71)"/>
<path d="M0 0 C0.33 0 0.66 0 1 0 C1.06058594 1.12019531 1.12117187 2.24039063 1.18359375 3.39453125 C1.26801424 4.86719984 1.35266149 6.33985544 1.4375 7.8125 C1.47681641 8.55048828 1.51613281 9.28847656 1.55664062 10.04882812 C1.74381035 13.23071342 1.98720793 15.96162378 3 19 C3.06740865 20.56118428 3.08514456 22.1250252 3.0625 23.6875 C3.05347656 24.49574219 3.04445312 25.30398437 3.03515625 26.13671875 C3.02355469 26.75160156 3.01195312 27.36648437 3 28 C2.34 28 1.68 28 1 28 C0.67 28.66 0.34 29.32 0 30 C0 20.1 0 10.2 0 0 Z " fill="#1F1D20" transform="translate(209,103)"/>
<path d="M0 0 C0.66 0.33 1.32 0.66 2 1 C2.66 0.835 3.32 0.67 4 0.5 C6 0 6 0 8 1 C8.40729228 3.32156597 8.74438677 5.6568787 9 8 C7.68 7.34 6.36 6.68 5 6 C4.67 6.66 4.34 7.32 4 8 C3.34 8 2.68 8 2 8 C1.566875 7.0409375 1.566875 7.0409375 1.125 6.0625 C0.17176549 3.84793921 0.17176549 3.84793921 -2 3 C-2 2.34 -2 1.68 -2 1 C-1.34 0.67 -0.68 0.34 0 0 Z " fill="#58787A" transform="translate(120,77)"/>
<path d="M0 0 C2.475 0.99 2.475 0.99 5 2 C5 2.66 5 3.32 5 4 C5.66 4 6.32 4 7 4 C7 3.34 7 2.68 7 2 C7.66 2 8.32 2 9 2 C8.67 3.32 8.34 4.64 8 6 C7.01 6 6.02 6 5 6 C5 6.66 5 7.32 5 8 C5.66 8 6.32 8 7 8 C7 8.66 7 9.32 7 10 C6.34 10 5.68 10 5 10 C4.67 10.66 4.34 11.32 4 12 C3.34 11.67 2.68 11.34 2 11 C2 10.34 2 9.68 2 9 C1.01 8.67 0.02 8.34 -1 8 C-0.67 7.01 -0.34 6.02 0 5 C0.99 5.33 1.98 5.66 3 6 C3 5.34 3 4.68 3 4 C1.68 3.34 0.36 2.68 -1 2 C-0.67 1.34 -0.34 0.68 0 0 Z " fill="#86A2A9" transform="translate(122,40)"/>
<path d="M0 0 C2.31 0 4.62 0 7 0 C7 2.31 7 4.62 7 7 C4.69 7 2.38 7 0 7 C0 4.69 0 2.38 0 0 Z " fill="#808080" transform="translate(69,63)"/>
<path d="M0 0 C2.31 0 4.62 0 7 0 C7 2.31 7 4.62 7 7 C4.69 7 2.38 7 0 7 C0 4.69 0 2.38 0 0 Z " fill="#808080" transform="translate(92,48)"/>
<path d="M0 0 C2.31 0 4.62 0 7 0 C7 2.31 7 4.62 7 7 C4.69 7 2.38 7 0 7 C0 4.69 0 2.38 0 0 Z " fill="#A6A6A6" transform="translate(9,48)"/>
<path d="M0 0 C2.31 0 4.62 0 7 0 C7 2.31 7 4.62 7 7 C4.69 7 2.38 7 0 7 C0 4.69 0 2.38 0 0 Z " fill="#4F4D4D" transform="translate(62,41)"/>
<path d="M0 0 C2.31 0 4.62 0 7 0 C7 2.31 7 4.62 7 7 C4.69 7 2.38 7 0 7 C0 4.69 0 2.38 0 0 Z " fill="#4F4D4D" transform="translate(47,41)"/>
<path d="M0 0 C2.31 0 4.62 0 7 0 C7 2.31 7 4.62 7 7 C4.69 7 2.38 7 0 7 C0 4.69 0 2.38 0 0 Z " fill="#5E5E5E" transform="translate(9,26)"/>
<path d="M0 0 C2.31 0 4.62 0 7 0 C7 2.31 7 4.62 7 7 C4.69 7 2.38 7 0 7 C0 4.69 0 2.38 0 0 Z " fill="#808080" transform="translate(24,18)"/>
<path d="M0 0 C2.31 0 4.62 0 7 0 C7 2.31 7 4.62 7 7 C4.69 7 2.38 7 0 7 C0 4.69 0 2.38 0 0 Z " fill="#181717" transform="translate(92,18)"/>
<path d="M0 0 C2.31 0 4.62 0 7 0 C7 2.31 7 4.62 7 7 C4.69 7 2.38 7 0 7 C0 4.69 0 2.38 0 0 Z " fill="#181717" transform="translate(9,18)"/>
<path d="M0 0 C2.31 0 4.62 0 7 0 C7 2.31 7 4.62 7 7 C4.69 7 2.38 7 0 7 C0 4.69 0 2.38 0 0 Z " fill="#5E5E5E" transform="translate(69,11)"/>
<path d="M0 0 C2.31 0 4.62 0 7 0 C7 2.31 7 4.62 7 7 C4.69 7 2.38 7 0 7 C0 4.69 0 2.38 0 0 Z " fill="#828282" transform="translate(62,11)"/>
<path d="M0 0 C2.31 0 4.62 0 7 0 C7 2.31 7 4.62 7 7 C4.69 7 2.38 7 0 7 C0 4.69 0 2.38 0 0 Z " fill="#828282" transform="translate(47,11)"/>
<path d="M0 0 C0.66 0.33 1.32 0.66 2 1 C2 3.97 2 6.94 2 10 C0.02 10 -1.96 10 -4 10 C-4 11.65 -4 13.3 -4 15 C-4.66 15 -5.32 15 -6 15 C-6 11.37 -6 7.74 -6 4 C-5.01 4 -4.02 4 -3 4 C-2.67 4.99 -2.34 5.98 -2 7 C-1.34 7.33 -0.68 7.66 0 8 C0 5.36 0 2.72 0 0 Z " fill="#211F19" transform="translate(119,92)"/>
<path d="M0 0 C7.26 0 14.52 0 22 0 C22 2.31 22 4.62 22 7 C20.68 7 19.36 7 18 7 C18 5.02 18 3.04 18 1 C12.06 1 6.12 1 0 1 C0 0.67 0 0.34 0 0 Z " fill="#CBC8C9" transform="translate(47,63)"/>
<path d="M0 0 C0.66 0.33 1.32 0.66 2 1 C2 3.97 2 6.94 2 10 C0.02 10.66 -1.96 11.32 -4 12 C-4 9.03 -4 6.06 -4 3 C-3.01 2.67 -2.02 2.34 -1 2 C-0.67 1.34 -0.34 0.68 0 0 Z " fill="#3D321F" transform="translate(128,89)"/>
<path d="M0 0 C2.31 0 4.62 0 7 0 C7 1.65 7 3.3 7 5 C5.35 5 3.7 5 2 5 C2 5.99 2 6.98 2 8 C1.34 8 0.68 8 0 8 C0 5.36 0 2.72 0 0 Z " fill="#181717" transform="translate(9,71)"/>
<path d="M0 0 C1.65 1.65 3.3 3.3 5 5 C5.33 4.01 5.66 3.02 6 2 C7.65 2.33 9.3 2.66 11 3 C11 3.66 11 4.32 11 5 C10.34 5 9.68 5 9 5 C9 5.66 9 6.32 9 7 C6.03 7 3.06 7 0 7 C0 4.69 0 2.38 0 0 Z " fill="#6E7328" transform="translate(115,47)"/>
<path d="M0 0 C3.22388187 0.93322896 4.66015657 1.41299771 6.375 4.375 C7.01981848 7.08323761 6.95412881 8.42385222 6 11 C3 10 3 10 1.3125 7.75 C-0.06511203 4.8635748 -0.26985151 3.14826764 0 0 Z " fill="#878F7D" transform="translate(115,42)"/>
<path d="M0 0 C0.33 0.99 0.66 1.98 1 3 C1.66 3 2.32 3 3 3 C3 6.63 3 10.26 3 14 C2.01 14 1.02 14 0 14 C-1.10370043 10.6888987 -0.92673641 8.75251051 -0.5625 5.3125 C-0.46066406 4.31863281 -0.35882813 3.32476562 -0.25390625 2.30078125 C-0.17011719 1.54152344 -0.08632812 0.78226563 0 0 Z " fill="#131312" transform="translate(210,43)"/>
<path d="M0 0 C1.98 0 3.96 0 6 0 C6 1.98 6 3.96 6 6 C4.02 6 2.04 6 0 6 C0 4.02 0 2.04 0 0 Z " fill="#212E2B" transform="translate(59,136)"/>
<path d="M0 0 C1.98 0 3.96 0 6 0 C6 1.98 6 3.96 6 6 C4.02 6 2.04 6 0 6 C0 4.02 0 2.04 0 0 Z " fill="#212E2B" transform="translate(29,136)"/>
<path d="M0 0 C1.98 0 3.96 0 6 0 C6 1.98 6 3.96 6 6 C4.02 6 2.04 6 0 6 C0 4.02 0 2.04 0 0 Z " fill="#0D0D0D" transform="translate(77,130)"/>
<path d="M0 0 C1.98 0 3.96 0 6 0 C6 1.98 6 3.96 6 6 C4.02 6 2.04 6 0 6 C0 4.02 0 2.04 0 0 Z " fill="#474444" transform="translate(65,130)"/>
<path d="M0 0 C1.98 0 3.96 0 6 0 C6 1.98 6 3.96 6 6 C4.02 6 2.04 6 0 6 C0 4.02 0 2.04 0 0 Z " fill="#474444" transform="translate(23,130)"/>
<path d="M0 0 C1.98 0 3.96 0 6 0 C6 1.98 6 3.96 6 6 C4.02 6 2.04 6 0 6 C0 4.02 0 2.04 0 0 Z " fill="#212E2B" transform="translate(17,130)"/>
<path d="M0 0 C1.98 0 3.96 0 6 0 C6 1.98 6 3.96 6 6 C4.02 6 2.04 6 0 6 C0 4.02 0 2.04 0 0 Z " fill="#0D0D0D" transform="translate(11,130)"/>
<path d="M0 0 C1.98 0 3.96 0 6 0 C6 1.98 6 3.96 6 6 C4.02 6 2.04 6 0 6 C0 4.02 0 2.04 0 0 Z " fill="#212E2B" transform="translate(77,124)"/>
<path d="M0 0 C1.98 0 3.96 0 6 0 C6 1.98 6 3.96 6 6 C4.02 6 2.04 6 0 6 C0 4.02 0 2.04 0 0 Z " fill="#474444" transform="translate(59,124)"/>
<path d="M0 0 C1.98 0 3.96 0 6 0 C6 1.98 6 3.96 6 6 C4.02 6 2.04 6 0 6 C0 4.02 0 2.04 0 0 Z " fill="#0D0D0D" transform="translate(5,124)"/>
<path d="M0 0 C1.98 0 3.96 0 6 0 C6 1.98 6 3.96 6 6 C4.02 6 2.04 6 0 6 C0 4.02 0 2.04 0 0 Z " fill="#212E2B" transform="translate(83,118)"/>
<path d="M0 0 C1.98 0 3.96 0 6 0 C6 1.98 6 3.96 6 6 C4.02 6 2.04 6 0 6 C0 4.02 0 2.04 0 0 Z " fill="#138E99" transform="translate(77,118)"/>
<path d="M0 0 C1.98 0 3.96 0 6 0 C6 1.98 6 3.96 6 6 C4.02 6 2.04 6 0 6 C0 4.02 0 2.04 0 0 Z " fill="#FFFFFF" transform="translate(35,118)"/>
<path d="M0 0 C1.98 0 3.96 0 6 0 C6 1.98 6 3.96 6 6 C4.02 6 2.04 6 0 6 C0 4.02 0 2.04 0 0 Z " fill="#A8A8A8" transform="translate(29,118)"/>
<path d="M0 0 C1.98 0 3.96 0 6 0 C6 1.98 6 3.96 6 6 C4.02 6 2.04 6 0 6 C0 4.02 0 2.04 0 0 Z " fill="#138E99" transform="translate(11,118)"/>
<path d="M0 0 C1.98 0 3.96 0 6 0 C6 1.98 6 3.96 6 6 C4.02 6 2.04 6 0 6 C0 4.02 0 2.04 0 0 Z " fill="#212E2B" transform="translate(5,118)"/>
<path d="M0 0 C1.98 0 3.96 0 6 0 C6 1.98 6 3.96 6 6 C4.02 6 2.04 6 0 6 C0 4.02 0 2.04 0 0 Z " fill="#5E5E5E" transform="translate(71,112)"/>
<path d="M0 0 C1.98 0 3.96 0 6 0 C6 1.98 6 3.96 6 6 C4.02 6 2.04 6 0 6 C0 4.02 0 2.04 0 0 Z " fill="#828282" transform="translate(65,112)"/>
<path d="M0 0 C1.98 0 3.96 0 6 0 C6 1.98 6 3.96 6 6 C4.02 6 2.04 6 0 6 C0 4.02 0 2.04 0 0 Z " fill="#828282" transform="translate(35,112)"/>
<path d="M0 0 C1.98 0 3.96 0 6 0 C6 1.98 6 3.96 6 6 C4.02 6 2.04 6 0 6 C0 4.02 0 2.04 0 0 Z " fill="#5E5E5E" transform="translate(29,112)"/>
<path d="M0 0 C1.98 0 3.96 0 6 0 C6 1.98 6 3.96 6 6 C4.02 6 2.04 6 0 6 C0 4.02 0 2.04 0 0 Z " fill="#828282" transform="translate(23,112)"/>
<path d="M0 0 C1.98 0 3.96 0 6 0 C6 1.98 6 3.96 6 6 C4.02 6 2.04 6 0 6 C0 4.02 0 2.04 0 0 Z " fill="#5E5E5E" transform="translate(17,112)"/>
<path d="M0 0 C1.98 0 3.96 0 6 0 C6 1.98 6 3.96 6 6 C4.02 6 2.04 6 0 6 C0 4.02 0 2.04 0 0 Z " fill="#474444" transform="translate(11,112)"/>
<path d="M0 0 C1.98 0 3.96 0 6 0 C6 1.98 6 3.96 6 6 C4.02 6 2.04 6 0 6 C0 4.02 0 2.04 0 0 Z " fill="#474444" transform="translate(83,106)"/>
<path d="M0 0 C1.98 0 3.96 0 6 0 C6 1.98 6 3.96 6 6 C4.02 6 2.04 6 0 6 C0 4.02 0 2.04 0 0 Z " fill="#5E5E5E" transform="translate(65,106)"/>
<path d="M0 0 C1.98 0 3.96 0 6 0 C6 1.98 6 3.96 6 6 C4.02 6 2.04 6 0 6 C0 4.02 0 2.04 0 0 Z " fill="#14BBC6" transform="translate(47,106)"/>
<path d="M0 0 C1.98 0 3.96 0 6 0 C6 1.98 6 3.96 6 6 C4.02 6 2.04 6 0 6 C0 4.02 0 2.04 0 0 Z " fill="#5E5E5E" transform="translate(23,106)"/>
<path d="M0 0 C1.98 0 3.96 0 6 0 C6 1.98 6 3.96 6 6 C4.02 6 2.04 6 0 6 C0 4.02 0 2.04 0 0 Z " fill="#474444" transform="translate(5,106)"/>
<path d="M0 0 C1.98 0 3.96 0 6 0 C6 1.98 6 3.96 6 6 C4.02 6 2.04 6 0 6 C0 4.02 0 2.04 0 0 Z " fill="#A8A8A8" transform="translate(77,100)"/>
<path d="M0 0 C1.98 0 3.96 0 6 0 C6 1.98 6 3.96 6 6 C4.02 6 2.04 6 0 6 C0 4.02 0 2.04 0 0 Z " fill="#212E2B" transform="translate(71,100)"/>
<path d="M0 0 C1.98 0 3.96 0 6 0 C6 1.98 6 3.96 6 6 C4.02 6 2.04 6 0 6 C0 4.02 0 2.04 0 0 Z " fill="#212E2B" transform="translate(17,100)"/>
<path d="M0 0 C1.98 0 3.96 0 6 0 C6 1.98 6 3.96 6 6 C4.02 6 2.04 6 0 6 C0 4.02 0 2.04 0 0 Z " fill="#A8A8A8" transform="translate(11,100)"/>
<path d="M0 0 C1.98 0 3.96 0 6 0 C6 1.98 6 3.96 6 6 C4.02 6 2.04 6 0 6 C0 4.02 0 2.04 0 0 Z " fill="#828282" transform="translate(5,100)"/>
<path d="M0 0 C1.98 0 3.96 0 6 0 C6 1.98 6 3.96 6 6 C4.02 6 2.04 6 0 6 C0 4.02 0 2.04 0 0 Z " fill="#212E2B" transform="translate(77,94)"/>
<path d="M0 0 C1.98 0 3.96 0 6 0 C6 1.98 6 3.96 6 6 C4.02 6 2.04 6 0 6 C0 4.02 0 2.04 0 0 Z " fill="#005479" transform="translate(53,94)"/>
<path d="M0 0 C1.98 0 3.96 0 6 0 C6 1.98 6 3.96 6 6 C4.02 6 2.04 6 0 6 C0 4.02 0 2.04 0 0 Z " fill="#005479" transform="translate(41,94)"/>
<path d="M0 0 C1.98 0 3.96 0 6 0 C6 1.98 6 3.96 6 6 C4.02 6 2.04 6 0 6 C0 4.02 0 2.04 0 0 Z " fill="#212E2B" transform="translate(11,94)"/>
<path d="M0 0 C1.98 0 3.96 0 6 0 C6 1.98 6 3.96 6 6 C4.02 6 2.04 6 0 6 C0 4.02 0 2.04 0 0 Z " fill="#105257" transform="translate(71,88)"/>
<path d="M0 0 C1.98 0 3.96 0 6 0 C6 1.98 6 3.96 6 6 C4.02 6 2.04 6 0 6 C0 4.02 0 2.04 0 0 Z " fill="#006694" transform="translate(47,88)"/>
<path d="M0 0 C1.98 0 3.96 0 6 0 C6 1.98 6 3.96 6 6 C4.02 6 2.04 6 0 6 C0 4.02 0 2.04 0 0 Z " fill="#105257" transform="translate(17,88)"/>
<path d="M0 0 C1.98 0 3.96 0 6 0 C6 1.98 6 3.96 6 6 C4.02 6 2.04 6 0 6 C0 4.02 0 2.04 0 0 Z " fill="#828282" transform="translate(5,88)"/>
<path d="M0 0 C1.98 0 3.96 0 6 0 C6 1.98 6 3.96 6 6 C4.02 6 2.04 6 0 6 C0 4.02 0 2.04 0 0 Z " fill="#212E2B" transform="translate(83,82)"/>
<path d="M0 0 C1.98 0 3.96 0 6 0 C6 1.98 6 3.96 6 6 C4.02 6 2.04 6 0 6 C0 4.02 0 2.04 0 0 Z " fill="#828282" transform="translate(77,82)"/>
<path d="M0 0 C1.98 0 3.96 0 6 0 C6 1.98 6 3.96 6 6 C4.02 6 2.04 6 0 6 C0 4.02 0 2.04 0 0 Z " fill="#105257" transform="translate(65,82)"/>
<path d="M0 0 C1.98 0 3.96 0 6 0 C6 1.98 6 3.96 6 6 C4.02 6 2.04 6 0 6 C0 4.02 0 2.04 0 0 Z " fill="#105257" transform="translate(23,82)"/>
<path d="M0 0 C1.98 0 3.96 0 6 0 C6 1.98 6 3.96 6 6 C4.02 6 2.04 6 0 6 C0 4.02 0 2.04 0 0 Z " fill="#212E2B" transform="translate(5,82)"/>
<path d="M0 0 C1.98 0 3.96 0 6 0 C6 1.98 6 3.96 6 6 C4.02 6 2.04 6 0 6 C0 4.02 0 2.04 0 0 Z " fill="#105257" transform="translate(29,76)"/>
<path d="M0 0 C1.98 0 3.96 0 6 0 C6 1.98 6 3.96 6 6 C4.02 6 2.04 6 0 6 C0 4.02 0 2.04 0 0 Z " fill="#828282" transform="translate(23,76)"/>
<path d="M0 0 C1.98 0 3.96 0 6 0 C6 1.98 6 3.96 6 6 C4.02 6 2.04 6 0 6 C0 4.02 0 2.04 0 0 Z " fill="#5E5E5E" transform="translate(17,76)"/>
<path d="M0 0 C1.98 0 3.96 0 6 0 C6 1.98 6 3.96 6 6 C4.02 6 2.04 6 0 6 C0 4.02 0 2.04 0 0 Z " fill="#828282" transform="translate(53,70)"/>
<path d="M0 0 C1.98 0 3.96 0 6 0 C6 1.98 6 3.96 6 6 C4.02 6 2.04 6 0 6 C0 4.02 0 2.04 0 0 Z " fill="#A8A8A8" transform="translate(47,70)"/>
<path d="M0 0 C1.98 0 3.96 0 6 0 C6 1.98 6 3.96 6 6 C4.02 6 2.04 6 0 6 C0 4.02 0 2.04 0 0 Z " fill="#FFFFFF" transform="translate(41,70)"/>
<path d="M0 0 C0.33 0 0.66 0 1 0 C1 2.31 1 4.62 1 7 C3.31 7 5.62 7 8 7 C8 7.33 8 7.66 8 8 C5.69 8 3.38 8 1 8 C1 10.31 1 12.62 1 15 C0.67 15 0.34 15 0 15 C0 12.69 0 10.38 0 8 C-4.62 8 -9.24 8 -14 8 C-14 7.67 -14 7.34 -14 7 C-9.38 7 -4.76 7 0 7 C0 4.69 0 2.38 0 0 Z " fill="#5D5D5D" transform="translate(91,48)"/>
<path d="M0 0 C4 2 4 2 4.75 4.125 C4.8325 4.74375 4.915 5.3625 5 6 C4.34 6 3.68 6 3 6 C3 7.65 3 9.3 3 11 C2.01 11.33 1.02 11.66 0 12 C0 8.04 0 4.08 0 0 Z " fill="#474A49" transform="translate(117,57)"/>
<path d="M0 0 C2.97 0 5.94 0 9 0 C9 1.32 9 2.64 9 4 C6.03 4 3.06 4 0 4 C0 2.68 0 1.36 0 0 Z " fill="#A1A1A1" transform="translate(178,47)"/>
<path d="M0 0 C2.31 0 4.62 0 7 0 C7 1.32 7 2.64 7 4 C5.02 4.33 3.04 4.66 1 5 C0.67 3.35 0.34 1.7 0 0 Z " fill="#896533" transform="translate(120,108)"/>
<path d="M0 0 C2.97 0 5.94 0 9 0 C9 1.32 9 2.64 9 4 C6.03 4 3.06 4 0 4 C0 2.68 0 1.36 0 0 Z " fill="#878887" transform="translate(138,26)"/>
<path d="M0 0 C0 2.97 0 5.94 0 9 C-1.65 9 -3.3 9 -5 9 C-4.67 7.68 -4.34 6.36 -4 5 C-3.34 5 -2.68 5 -2 5 C-2 4.34 -2 3.68 -2 3 C-2.66 3 -3.32 3 -4 3 C-4 2.34 -4 1.68 -4 1 C-1 0 -1 0 0 0 Z " fill="#54552E" transform="translate(131,45)"/>
<path d="M0 0 C2.97 0 5.94 0 9 0 C9 1.32 9 2.64 9 4 C6.03 4 3.06 4 0 4 C0 2.68 0 1.36 0 0 Z " fill="#8D8D8D" transform="translate(142,31)"/>
<path d="M0 0 C0.33 0.66 0.66 1.32 1 2 C1.66 2.33 2.32 2.66 3 3 C2.67 5.64 2.34 8.28 2 11 C1.01 10.67 0.02 10.34 -1 10 C-1.02689216 8.52093108 -1.04634621 7.04172517 -1.0625 5.5625 C-1.07410156 4.73878906 -1.08570312 3.91507812 -1.09765625 3.06640625 C-1 1 -1 1 0 0 Z " fill="#554226" transform="translate(117,89)"/>
<path d="M0 0 C0.66 0.66 1.32 1.32 2 2 C1.67 2.99 1.34 3.98 1 5 C4.63 5.33 8.26 5.66 12 6 C12 6.33 12 6.66 12 7 C6.72 7 1.44 7 -4 7 C-3.34 6.34 -2.68 5.68 -2 5 C-1.63837971 3.67405895 -1.30271961 2.34061543 -1 1 C-0.67 0.67 -0.34 0.34 0 0 Z " fill="#696256" transform="translate(119,80)"/>
<path d="M0 0 C2.64 0 5.28 0 8 0 C8 1.32 8 2.64 8 4 C5.36 4 2.72 4 0 4 C0 2.68 0 1.36 0 0 Z " fill="#A0A1A0" transform="translate(140,95)"/>
<path d="M0 0 C0.86625 0.2784375 0.86625 0.2784375 1.75 0.5625 C4.20692525 1.04023546 5.64397534 0.75729364 8 0 C8 1.32 8 2.64 8 4 C5.36 4 2.72 4 0 4 C0 2.68 0 1.36 0 0 Z " fill="#A0A1A0" transform="translate(198,63)"/>
<path d="M0 0 C5.75 -0.125 5.75 -0.125 8 1 C7.67 1.99 7.34 2.98 7 4 C4.36 4 1.72 4 -1 4 C-0.67 2.68 -0.34 1.36 0 0 Z " fill="#B1B2B1" transform="translate(169,95)"/>
<path d="M0 0 C1.98 0 3.96 0 6 0 C6.33 1.32 6.66 2.64 7 4 C4.69 4 2.38 4 0 4 C0 2.68 0 1.36 0 0 Z " fill="#2F3535" transform="translate(121,65)"/>
<path d="M0 0 C0 2.97 0 5.94 0 9 C-0.99 8.67 -1.98 8.34 -3 8 C-3 5.69 -3 3.38 -3 1 C-1 0 -1 0 0 0 Z " fill="#514022" transform="translate(123,93)"/>
<path d="M0 0 C0.66 0 1.32 0 2 0 C2 0.66 2 1.32 2 2 C2.66 2 3.32 2 4 2 C4 2.66 4 3.32 4 4 C2.35 4 0.7 4 -1 4 C-0.67 4.99 -0.34 5.98 0 7 C-1.32 7.33 -2.64 7.66 -4 8 C-3.34 6.02 -2.68 4.04 -2 2 C-1.34 2 -0.68 2 0 2 C0 1.34 0 0.68 0 0 Z " fill="#11181B" transform="translate(122,61)"/>
<path d="M0 0 C2.31 0 4.62 0 7 0 C7.33 0.99 7.66 1.98 8 3 C4.67465243 4.10844919 2.37817425 3.84454356 -1 3 C-0.67 2.01 -0.34 1.02 0 0 Z " fill="#969796" transform="translate(149,26)"/>
<path d="M0 0 C0.86625 0.2784375 0.86625 0.2784375 1.75 0.5625 C4.20692525 1.04023546 5.64397534 0.75729364 8 0 C8 0.99 8 1.98 8 3 C4.94152152 3.54372951 2.11227195 4 -1 4 C-0.67 2.68 -0.34 1.36 0 0 Z " fill="#A1A2A1" transform="translate(168,9)"/>
<path d="M0 0 C0.66 0.33 1.32 0.66 2 1 C1.67 1.66 1.34 2.32 1 3 C1.99 3 2.98 3 4 3 C4.33 3.99 4.66 4.98 5 6 C4.67 6.66 4.34 7.32 4 8 C3.34 8 2.68 8 2 8 C1.566875 7.0409375 1.566875 7.0409375 1.125 6.0625 C0.17176549 3.84793921 0.17176549 3.84793921 -2 3 C-2 2.34 -2 1.68 -2 1 C-1.34 0.67 -0.68 0.34 0 0 Z " fill="#6A8785" transform="translate(120,77)"/>
<path d="M0 0 C0.66 0.99 1.32 1.98 2 3 C1 4 1 4 -1.06640625 4.09765625 C-1.89011719 4.08605469 -2.71382812 4.07445313 -3.5625 4.0625 C-4.38878906 4.05347656 -5.21507812 4.04445313 -6.06640625 4.03515625 C-6.70449219 4.02355469 -7.34257812 4.01195313 -8 4 C-8 3.34 -8 2.68 -8 2 C-6.865625 1.855625 -5.73125 1.71125 -4.5625 1.5625 C-1.19222799 1.38828522 -1.19222799 1.38828522 0 0 Z " fill="#A9AAA9" transform="translate(166,106)"/>
<path d="M0 0 C-0.33 1.65 -0.66 3.3 -1 5 C-3 5 -3 5 -4.5 3.625 C-4.995 3.08875 -5.49 2.5525 -6 2 C-6.66 1.34 -7.32 0.68 -8 0 C-2.25 -1.125 -2.25 -1.125 0 0 Z " fill="#0F0E0D" transform="translate(133,87)"/>
<path d="M0 0 C1.98 0 3.96 0 6 0 C6.33 0.99 6.66 1.98 7 3 C5.68 3.33 4.36 3.66 3 4 C3 3.34 3 2.68 3 2 C2.01 2.33 1.02 2.66 0 3 C0 2.01 0 1.02 0 0 Z " fill="#C5C5C5" transform="translate(172,93)"/>
<path d="M0 0 C0.66 0.33 1.32 0.66 2 1 C2 1.66 2 2.32 2 3 C2.66 3 3.32 3 4 3 C4.33 2.01 4.66 1.02 5 0 C5.99 1.32 6.98 2.64 8 4 C5.03 4 2.06 4 -1 4 C-0.67 2.68 -0.34 1.36 0 0 Z " fill="#C0AB90" transform="translate(120,82)"/>
<path d="M0 0 C0.99 0 1.98 0 3 0 C3.33 0.99 3.66 1.98 4 3 C4.66 3.66 5.32 4.32 6 5 C4.02 5 2.04 5 0 5 C0 3.35 0 1.7 0 0 Z " fill="#292926" transform="translate(113,96)"/>
<path d="M0 0 C0.99 0 1.98 0 3 0 C3 1.98 3 3.96 3 6 C2.01 6 1.02 6 0 6 C0 4.02 0 2.04 0 0 Z " fill="#1E2524" transform="translate(210,57)"/>
<path d="M0 0 C1.65 0.33 3.3 0.66 5 1 C4.67 2.32 4.34 3.64 4 5 C4 4.34 4 3.68 4 3 C2.68 3.33 1.36 3.66 0 4 C-0.33 3.34 -0.66 2.68 -1 2 C-0.67 1.34 -0.34 0.68 0 0 Z " fill="#F36470" transform="translate(122,125)"/>
<path d="M0 0 C2 3 2 3 1.625 5.6875 C1.41875 6.450625 1.2125 7.21375 1 8 C0.01 8 -0.98 8 -2 8 C-2.20086443 4.28400809 -2.1519437 3.22791555 0 0 Z " fill="#BCA68C" transform="translate(117,78)"/>
<path d="M0 0 C1.65 0.33 3.3 0.66 5 1 C5 1.66 5 2.32 5 3 C4.34 3 3.68 3 3 3 C2.67 3.66 2.34 4.32 2 5 C1.01 4.34 0.02 3.68 -1 3 C-0.67 2.01 -0.34 1.02 0 0 Z " fill="#5C5E56" transform="translate(121,49)"/>
<path d="M0 0 C1.65 0.33 3.3 0.66 5 1 C5 2.65 5 4.3 5 6 C4.34 5.01 3.68 4.02 3 3 C1.68 3 0.36 3 -1 3 C-0.67 2.01 -0.34 1.02 0 0 Z " fill="#69885B" transform="translate(121,43)"/>
<path d="M0 0 C2.0625 0.4375 2.0625 0.4375 4 1 C3.34 2.32 2.68 3.64 2 5 C1.34 5 0.68 5 0 5 C-0.5625 3.0625 -0.5625 3.0625 -1 1 C-0.67 0.67 -0.34 0.34 0 0 Z " fill="#667283" transform="translate(116,39)"/>
</svg>
