<?xml version="1.0" encoding="UTF-8"?>
<svg version="1.1" xmlns="http://www.w3.org/2000/svg" width="280" height="160">
<path d="M0 0 C4.95 0 9.9 0 15 0 C14.67 1.32 14.34 2.64 14 4 C13.34 4 12.68 4 12 4 C12 5.65 12 7.3 12 9 C11.34 9 10.68 9 10 9 C10 10.65 10 12.3 10 14 C9.34 14 8.68 14 8 14 C7.67 15.65 7.34 17.3 7 19 C6.34 19 5.68 19 5 19 C5 20.65 5 22.3 5 24 C4.34 24 3.68 24 3 24 C3 25.65 3 27.3 3 29 C2.01 29.33 1.02 29.66 0 30 C0 31.65 0 33.3 0 35 C-0.66 35 -1.32 35 -2 35 C-2 35.99 -2 36.98 -2 38 C-1.34 38 -0.68 38 0 38 C0.82558668 40.91618521 1.18920445 43.59535494 1.25 46.625 C1.28867187 47.78902344 1.28867187 47.78902344 1.328125 48.9765625 C1.16570312 49.97816406 1.16570312 49.97816406 1 51 C-2 53 -2 53 -6 53 C-5.938125 54.155 -5.87625 55.31 -5.8125 56.5 C-5.78725644 61.21213121 -7.15525488 64.69559472 -9 69 C-9.66 69 -10.32 69 -11 69 C-11.144375 70.134375 -11.28875 71.26875 -11.4375 72.4375 C-12 76 -12 76 -13 77 C-14.34267413 77.08631874 -15.68974322 77.10706473 -17.03515625 77.09765625 C-17.84404297 77.09443359 -18.65292969 77.09121094 -19.48632812 77.08789062 C-20.33646484 77.07951172 -21.18660156 77.07113281 -22.0625 77.0625 C-22.91650391 77.05798828 -23.77050781 77.05347656 -24.65039062 77.04882812 C-26.76695663 77.03700373 -28.88348685 77.01906769 -31 77 C-32.10368306 83.15648205 -32.07451124 89.13332704 -32 95.375 C-31.93113051 106.8273859 -32.09081202 118.25095432 -33.5625 129.625 C-34.24148986 134.94201288 -34.02472277 140.29668522 -33.9375 145.64453125 C-33.98886253 148.40205702 -34.27561218 150.391072 -35 153 C-35 154.32 -35 155.64 -35 157 C-64.88252241 155.70582586 -64.88252241 155.70582586 -70 154 C-69.99214478 152.85785034 -69.99214478 152.85785034 -69.98413086 151.69262695 C-69.96330475 148.23259308 -69.95032187 144.77257241 -69.9375 141.3125 C-69.92493164 139.51522461 -69.92493164 139.51522461 -69.91210938 137.68164062 C-69.90727539 135.94624023 -69.90727539 135.94624023 -69.90234375 134.17578125 C-69.89448853 132.58117065 -69.89448853 132.58117065 -69.88647461 130.9543457 C-69.99308007 128.18008181 -70.41061833 125.70516976 -71 123 C-71.06533435 121.06348981 -71.08584303 119.12497139 -71.0625 117.1875 C-71.05347656 116.21167969 -71.04445313 115.23585938 -71.03515625 114.23046875 C-71.02355469 113.49441406 -71.01195313 112.75835937 -71 112 C-72.04800781 112.01740234 -72.04800781 112.01740234 -73.1171875 112.03515625 C-74.02726562 112.04417969 -74.93734375 112.05320312 -75.875 112.0625 C-77.23238281 112.07990234 -77.23238281 112.07990234 -78.6171875 112.09765625 C-81 112 -81 112 -83 111 C-82.98428955 112.6874231 -82.98428955 112.6874231 -82.96826172 114.40893555 C-82.93199154 118.5928223 -82.90907398 122.77669521 -82.89013672 126.96069336 C-82.88009513 128.76963643 -82.8664592 130.57856333 -82.84912109 132.38745117 C-82.82479168 134.99141435 -82.81349839 137.59516242 -82.8046875 140.19921875 C-82.79436493 141.00461594 -82.78404236 141.81001312 -82.77340698 142.63981628 C-82.77256271 146.88969226 -83.03483771 150.12067443 -85 154 C-95.76645841 154.39389482 -106.31427866 153.18260948 -117 152 C-118.47456272 137.67791744 -119.78290463 123.34618797 -121 109 C-126.94 108.67 -132.88 108.34 -139 108 C-138.97679687 106.15535156 -138.95359375 104.31070313 -138.9296875 102.41015625 C-138.91091957 99.96094157 -138.89272047 97.51172248 -138.875 95.0625 C-138.85824219 93.85013672 -138.84148437 92.63777344 -138.82421875 91.38867188 C-138.78732792 84.5823144 -139.19939442 78.57150148 -141 72 C-140.34 72 -139.68 72 -139 72 C-139.33 71.34 -139.66 70.68 -140 70 C-141.0543131 60.51118211 -141.0543131 60.51118211 -138.125 56.3125 C-134.93092998 54.97099059 -133.20503018 54.85991412 -129.8046875 54.91796875 C-128.90476074 54.92981201 -128.00483398 54.94165527 -127.07763672 54.95385742 C-126.3920166 54.96908447 -125.70639648 54.98431152 -125 55 C-125.13631836 54.10861328 -125.13631836 54.10861328 -125.27539062 53.19921875 C-125.68968059 50.46702952 -126.09489221 47.73356516 -126.5 45 C-126.64308594 44.06542969 -126.78617188 43.13085938 -126.93359375 42.16796875 C-127.33291658 39.44877046 -127.68172782 36.729796 -128 34 C-128.10054687 33.23042969 -128.20109375 32.46085937 -128.3046875 31.66796875 C-128.46875 29.5625 -128.46875 29.5625 -128 26 C-123.26489705 21.86643084 -119.31966721 21.3499407 -113.3203125 21.171875 C-112.50754852 21.1331427 -111.69478455 21.0944104 -110.85739136 21.05450439 C-108.28034449 20.93565676 -105.70311506 20.84245388 -103.125 20.75 C-101.36971701 20.6735707 -99.61450624 20.59546318 -97.859375 20.515625 C-93.57350848 20.32431982 -89.28729109 20.15599373 -85 20 C-84.75262401 22.22638395 -84.50529428 24.45277279 -84.25830078 26.67919922 C-84.06884662 28.3814216 -83.87692433 30.08336977 -83.68359375 31.78515625 C-83.13183181 36.89114371 -82.90490031 41.86461652 -83 47 C-81.39125 46.9071875 -81.39125 46.9071875 -79.75 46.8125 C-75.89133813 47.00543309 -74.71182212 47.39665076 -72 50 C-71.505 49.01 -71.505 49.01 -71 48 C-71.66 48 -72.32 48 -73 48 C-73 40.74 -73 33.48 -73 26 C-72.01 26 -71.02 26 -70 26 C-70 23.36 -70 20.72 -70 18 C-67.36 18 -64.72 18 -62 18 C-62 17.01 -62 16.02 -62 15 C-60.02 15 -58.04 15 -56 15 C-56 15.99 -56 16.98 -56 18 C-54.35 18 -52.7 18 -51 18 C-51 17.01 -51 16.02 -51 15 C-46.83861737 14.91840426 -43.0527516 15.01751476 -39 16 C-39 16.66 -39 17.32 -39 18 C-36.03 18.33 -33.06 18.66 -30 19 C-28.53240032 27.98753195 -27.7071209 35.93579324 -29 45 C-29.19179686 46.72869534 -29.37958134 48.4578427 -29.5625 50.1875 C-29.706875 51.445625 -29.85125 52.70375 -30 54 C-28.68 49.05 -27.36 44.1 -26 39 C-23.36 39 -20.72 39 -18 39 C-18 36.03 -18 33.06 -18 30 C-18.66 30 -19.32 30 -20 30 C-20 26.37 -20 22.74 -20 19 C-16.78548731 17.39274365 -13.56387464 17.94251815 -10 18 C-10 18.99 -10 19.98 -10 21 C-9.34 21 -8.68 21 -8 21 C-8 19.35 -8 17.7 -8 16 C-7.34 15.67 -6.68 15.34 -6 15 C-5.08968728 12.65613191 -5.08968728 12.65613191 -4.375 9.9375 C-4.11460937 9.01839844 -3.85421875 8.09929688 -3.5859375 7.15234375 C-3.39257812 6.44207031 -3.19921875 5.73179687 -3 5 C-2.01 5 -1.02 5 0 5 C0 3.35 0 1.7 0 0 Z " fill="#373839" transform="translate(175,0)"/>
<path d="M0 0 C2.1875 2.4375 2.1875 2.4375 4 5 C7.64182335 5.89055736 7.64182335 5.89055736 11 6 C11 7.32 11 8.64 11 10 C12.32 10 13.64 10 15 10 C15 11.32 15 12.64 15 14 C17.97 14.33 20.94 14.66 24 15 C24 13.68 24 12.36 24 11 C25.32 11 26.64 11 28 11 C28 9.68 28 8.36 28 7 C35.69412442 3.88076037 35.69412442 3.88076037 39.6875 5.4375 C40.780625 5.953125 41.87375 6.46875 43 7 C43.04898438 7.91523437 43.09796875 8.83046875 43.1484375 9.7734375 C43.22320312 10.96195313 43.29796875 12.15046875 43.375 13.375 C43.47941406 15.15003906 43.47941406 15.15003906 43.5859375 16.9609375 C43.70217346 20.10562319 43.70217346 20.10562319 46 22 C48.58354218 22.16687448 48.58354218 22.16687448 51 22 C51 21.34 51 20.68 51 20 C51.99 19.67 52.98 19.34 54 19 C54 19.66 54 20.32 54 21 C54.66 21 55.32 21 56 21 C56 22.32 56 23.64 56 25 C55.34 25 54.68 25 54 25 C54.00523682 25.79172607 54.01047363 26.58345215 54.01586914 27.39916992 C54.03668937 30.99527184 54.04967627 34.59136105 54.0625 38.1875 C54.07087891 39.43337891 54.07925781 40.67925781 54.08789062 41.96289062 C54.09111328 43.16494141 54.09433594 44.36699219 54.09765625 45.60546875 C54.10289307 46.71043701 54.10812988 47.81540527 54.11352539 48.95385742 C54.00901923 51.75799379 53.64097959 54.27417329 53 57 C51.54176788 57.0270043 50.08339325 57.04639787 48.625 57.0625 C47.40683594 57.07990234 47.40683594 57.07990234 46.1640625 57.09765625 C44 57 44 57 42 56 C42.01571045 57.6874231 42.01571045 57.6874231 42.03173828 59.40893555 C42.06800846 63.5928223 42.09092602 67.77669521 42.10986328 71.96069336 C42.11990487 73.76963643 42.1335408 75.57856333 42.15087891 77.38745117 C42.17520832 79.99141435 42.18650161 82.59516242 42.1953125 85.19921875 C42.20563507 86.00461594 42.21595764 86.81001312 42.22659302 87.63981628 C42.22743729 91.88969226 41.96516229 95.12067443 40 99 C29.23354159 99.39389482 18.68572134 98.18260948 8 97 C6.52543728 82.67791744 5.21709537 68.34618797 4 54 C-1.94 53.67 -7.88 53.34 -14 53 C-13.97679687 51.15535156 -13.95359375 49.31070313 -13.9296875 47.41015625 C-13.91091957 44.96094157 -13.89272047 42.51172248 -13.875 40.0625 C-13.85824219 38.85013672 -13.84148438 37.63777344 -13.82421875 36.38867188 C-13.78732792 29.5823144 -14.19939442 23.57150148 -16 17 C-15.34 17 -14.68 17 -14 17 C-14.33 16.34 -14.66 15.68 -15 15 C-16.0543131 5.51118211 -16.0543131 5.51118211 -13.125 1.3125 C-8.71155684 -0.54114613 -4.71184179 -0.96488228 0 0 Z " fill="#463AAB" transform="translate(50,55)"/>
<path d="M0 0 C1.30324219 0.19207031 2.60648438 0.38414063 3.94921875 0.58203125 C7.3125 1.1875 7.3125 1.1875 10.3125 2.1875 C10.3125 4.1675 10.3125 6.1475 10.3125 8.1875 C13.2825 8.1875 16.2525 8.1875 19.3125 8.1875 C19.3125 6.5375 19.3125 4.8875 19.3125 3.1875 C22.6125 3.1875 25.9125 3.1875 29.3125 3.1875 C29.3125 4.8375 29.3125 6.4875 29.3125 8.1875 C27.6625 8.1875 26.0125 8.1875 24.3125 8.1875 C24.3125 9.5075 24.3125 10.8275 24.3125 12.1875 C22.9925 12.1875 21.6725 12.1875 20.3125 12.1875 C20.3125 13.8375 20.3125 15.4875 20.3125 17.1875 C24.9325 17.1875 29.5525 17.1875 34.3125 17.1875 C34.3125 15.5375 34.3125 13.8875 34.3125 12.1875 C34.6425 12.1875 34.9725 12.1875 35.3125 12.1875 C35.38343508 16.15986425 35.36599587 19.80888194 34.80859375 23.75390625 C34.11446122 29.04259358 34.248416 34.30093495 34.3125 39.625 C34.38153758 51.05639997 34.21898397 62.45935248 32.75 73.8125 C32.07101014 79.12951288 32.28777723 84.48418522 32.375 89.83203125 C32.32363747 92.58955702 32.03688782 94.578572 31.3125 97.1875 C31.3125 98.5075 31.3125 99.8275 31.3125 101.1875 C1.42997759 99.89332586 1.42997759 99.89332586 -3.6875 98.1875 C-3.67178955 97.13175781 -3.67178955 97.13175781 -3.65576172 96.0546875 C-3.26003477 80.25167274 -3.26003477 80.25167274 -4.75 64.5625 C-5.47852459 59.00175401 -5.78909483 53.70054086 -5.59765625 48.1015625 C-5.57742401 47.37952637 -5.55719177 46.65749023 -5.53634644 45.91357422 C-5.32318475 38.66903877 -5.0207777 31.42739818 -4.6875 24.1875 C-4.0275 24.1875 -3.3675 24.1875 -2.6875 24.1875 C-2.6875 22.8675 -2.6875 21.5475 -2.6875 20.1875 C-3.3475 20.1875 -4.0075 20.1875 -4.6875 20.1875 C-5.91852992 16.49441024 -5.55925152 13.30699288 -5.25 9.5 C-5.19779297 8.79810547 -5.14558594 8.09621094 -5.09179688 7.37304688 C-4.96242135 5.64411946 -4.82567469 3.91574645 -4.6875 2.1875 C-7.9875 2.5175 -11.2875 2.8475 -14.6875 3.1875 C-13.6875 1.1875 -13.6875 1.1875 -11.10546875 0.01171875 C-7.05683634 -0.96458004 -4.10555477 -0.63319501 0 0 Z " fill="#282525" transform="translate(108.6875,55.8125)"/>
<path d="M0 0 C0.33865141 2.99948391 0.67105073 5.99944926 1 9 C1.09539062 9.83917969 1.19078125 10.67835937 1.2890625 11.54296875 C1.85214909 16.73140945 2.09664316 21.78126961 2 27 C3.32 27.33 4.64 27.66 6 28 C5.01 28.495 5.01 28.495 4 29 C3.34227572 32.02934491 3.34227572 32.02934491 3 35 C6.63 34.34 10.26 33.68 14 33 C14 33.66 14 34.32 14 35 C11.03 35.99 8.06 36.98 5 38 C7.97 38 10.94 38 14 38 C14.02691685 40.45840605 14.04679802 42.91651882 14.0625 45.375 C14.07087891 46.07367188 14.07925781 46.77234375 14.08789062 47.4921875 C14.11328125 52.7734375 14.11328125 52.7734375 13 55 C12.34 55 11.68 55 11 55 C11 55.66 11 56.32 11 57 C8.6875 57.6875 8.6875 57.6875 6 58 C4.34375 56.9375 4.34375 56.9375 3 55 C2.70703125 51.86328125 2.70703125 51.86328125 2.8125 48.3125 C2.85310547 46.54326172 2.85310547 46.54326172 2.89453125 44.73828125 C2.92933594 43.83464844 2.96414062 42.93101563 3 42 C1.54536519 41.61090015 0.08608793 41.23911971 -1.375 40.875 C-2.18710938 40.66617188 -2.99921875 40.45734375 -3.8359375 40.2421875 C-4.55007812 40.16226563 -5.26421875 40.08234375 -6 40 C-6.66 40.66 -7.32 41.32 -8 42 C-9.32 42 -10.64 42 -12 42 C-12 43.32 -12 44.64 -12 46 C-13.32 46 -14.64 46 -16 46 C-16 47.32 -16 48.64 -16 50 C-18.97 49.67 -21.94 49.34 -25 49 C-25 47.68 -25 46.36 -25 45 C-26.32 45 -27.64 45 -29 45 C-29 43.68 -29 42.36 -29 41 C-30.60875 41.1546875 -30.60875 41.1546875 -32.25 41.3125 C-36 41 -36 41 -38.125 39.15625 C-40.79597778 34.66010407 -41.17013771 30.32780864 -41.75 25.1875 C-41.87503906 24.22779297 -42.00007813 23.26808594 -42.12890625 22.27929688 C-42.47143691 19.52211323 -42.74694187 16.76666607 -43 14 C-43.09474609 13.22736816 -43.18949219 12.45473633 -43.28710938 11.65869141 C-43.453125 9.55078125 -43.453125 9.55078125 -43 6 C-38.69716058 2.38214722 -35.39145118 1.45551468 -29.84375 1.171875 C-28.8457135 1.11377655 -28.8457135 1.11377655 -27.82751465 1.05450439 C-25.71884918 0.93596848 -23.60993927 0.84276582 -21.5 0.75 C-20.0845463 0.67350651 -18.66917904 0.59539552 -17.25390625 0.515625 C-11.4998405 0.20330385 -5.76410481 -0.04189671 0 0 Z " fill="#634134" transform="translate(90,20)"/>
<path d="M0 0 C2.1875 2.4375 2.1875 2.4375 4 5 C7.64182335 5.89055736 7.64182335 5.89055736 11 6 C11 7.32 11 8.64 11 10 C12.32 10 13.64 10 15 10 C15 11.32 15 12.64 15 14 C17.97 14.33 20.94 14.66 24 15 C24 13.68 24 12.36 24 11 C25.32 11 26.64 11 28 11 C28 9.68 28 8.36 28 7 C35.69412442 3.88076037 35.69412442 3.88076037 39.6875 5.4375 C40.780625 5.953125 41.87375 6.46875 43 7 C43.04898438 7.91523437 43.09796875 8.83046875 43.1484375 9.7734375 C43.22320312 10.96195313 43.29796875 12.15046875 43.375 13.375 C43.47941406 15.15003906 43.47941406 15.15003906 43.5859375 16.9609375 C43.70217346 20.10562319 43.70217346 20.10562319 46 22 C48.58354218 22.16687448 48.58354218 22.16687448 51 22 C51 21.34 51 20.68 51 20 C51.99 19.67 52.98 19.34 54 19 C54 19.66 54 20.32 54 21 C54.66 21 55.32 21 56 21 C56 22.32 56 23.64 56 25 C49.45788013 25.10551806 43.63961468 24.66396147 37 24 C37 34.56 37 45.12 37 56 C34.69 55.67 32.38 55.34 30 55 C29.67 54.01 29.34 53.02 29 52 C26.98491642 51.26676204 26.98491642 51.26676204 25 51 C25 49.68 25 48.36 25 47 C23.60587891 47.01740234 23.60587891 47.01740234 22.18359375 47.03515625 C9.90509666 47.12478032 9.90509666 47.12478032 4 46 C3.3533402 37.98603754 2.83322777 30.04212755 3 22 C1.31970703 22.03480469 1.31970703 22.03480469 -0.39453125 22.0703125 C-1.86718084 22.08907237 -3.33983763 22.10727234 -4.8125 22.125 C-5.55048828 22.14175781 -6.28847656 22.15851563 -7.04882812 22.17578125 C-10.91246426 22.21074628 -12.70903668 22.19397555 -16 20 C-16 19.01 -16 18.02 -16 17 C-15.34 17 -14.68 17 -14 17 C-14.33 16.34 -14.66 15.68 -15 15 C-16.0543131 5.51118211 -16.0543131 5.51118211 -13.125 1.3125 C-8.71155684 -0.54114613 -4.71184179 -0.96488228 0 0 Z " fill="#00B1B6" transform="translate(50,55)"/>
<path d="M0 0 C4.95 0 9.9 0 15 0 C14.67 1.32 14.34 2.64 14 4 C13.34 4 12.68 4 12 4 C12 5.65 12 7.3 12 9 C11.34 9 10.68 9 10 9 C10 10.65 10 12.3 10 14 C9.34 14 8.68 14 8 14 C7.67 15.65 7.34 17.3 7 19 C6.34 19 5.68 19 5 19 C5 20.65 5 22.3 5 24 C4.34 24 3.68 24 3 24 C3 25.65 3 27.3 3 29 C2.01 29.33 1.02 29.66 0 30 C0 31.65 0 33.3 0 35 C-0.66 35 -1.32 35 -2 35 C-2 35.99 -2 36.98 -2 38 C-1.34 38 -0.68 38 0 38 C0.82558668 40.91618521 1.18920445 43.59535494 1.25 46.625 C1.27578125 47.40101562 1.3015625 48.17703125 1.328125 48.9765625 C1.21984375 49.64429688 1.1115625 50.31203125 1 51 C-2 53 -2 53 -7 53 C-8.32 48.71 -9.64 44.42 -11 40 C-12.65 39.67 -14.3 39.34 -16 39 C-15.71125 39.71285156 -15.4225 40.42570312 -15.125 41.16015625 C-12.36182473 48.28876466 -11.10621118 53.42484472 -13 61 C-18.445 61.495 -18.445 61.495 -24 62 C-26.28571429 53.57142857 -26.28571429 53.57142857 -26 49 C-26.66 48.67 -27.32 48.34 -28 48 C-27.34 45.03 -26.68 42.06 -26 39 C-23.36 39 -20.72 39 -18 39 C-18 36.03 -18 33.06 -18 30 C-18.66 30 -19.32 30 -20 30 C-20 26.37 -20 22.74 -20 19 C-16.78548731 17.39274365 -13.56387464 17.94251815 -10 18 C-10 18.99 -10 19.98 -10 21 C-9.34 21 -8.68 21 -8 21 C-8 19.35 -8 17.7 -8 16 C-7.34 15.67 -6.68 15.34 -6 15 C-5.08968728 12.65613191 -5.08968728 12.65613191 -4.375 9.9375 C-4.11460937 9.01839844 -3.85421875 8.09929688 -3.5859375 7.15234375 C-3.39257812 6.44207031 -3.19921875 5.73179687 -3 5 C-2.01 5 -1.02 5 0 5 C0 3.35 0 1.7 0 0 Z " fill="#0A312D" transform="translate(175,0)"/>
<path d="M0 0 C0 1.98 0 3.96 0 6 C2.97 6 5.94 6 9 6 C9 4.35 9 2.7 9 1 C12.3 1 15.6 1 19 1 C19 2.65 19 4.3 19 6 C17.35 6 15.7 6 14 6 C14 7.32 14 8.64 14 10 C12.68 10 11.36 10 10 10 C10 11.65 10 13.3 10 15 C14.62 15 19.24 15 24 15 C24 13.35 24 11.7 24 10 C24.33 10 24.66 10 25 10 C25.08350677 14.67637916 24.88542123 19.00561063 24.21875 23.64453125 C23.82947558 27.8361826 23.98445028 32.03725898 24.0625 36.2421875 C24 39 24 39 23 41 C14.9389388 41.11835163 6.9249687 40.97022066 -1.125 40.5625 C-1.94202393 40.52326416 -2.75904785 40.48402832 -3.60083008 40.44360352 C-4.76134888 40.38064087 -4.76134888 40.38064087 -5.9453125 40.31640625 C-6.63125488 40.27974854 -7.31719727 40.24309082 -8.02392578 40.20532227 C-10 40 -10 40 -14 39 C-14 35.04 -14 31.08 -14 27 C-12.68 26.67 -11.36 26.34 -10 26 C-9.67 23.69 -9.34 21.38 -9 19 C-6.36 19 -3.72 19 -1 19 C-1 20.32 -1 21.64 -1 23 C-2.32 23 -3.64 23 -5 23 C-5 24.32 -5 25.64 -5 27 C1.93 27.495 1.93 27.495 9 28 C9 23.71 9 19.42 9 15 C7.68 15 6.36 15 5 15 C5 16.32 5 17.64 5 19 C3.35 19 1.7 19 0 19 C0 15.7 0 12.4 0 9 C-1.65 9 -3.3 9 -5 9 C-5 7.68 -5 6.36 -5 5 C-6.65 5 -8.3 5 -10 5 C-10 3.35 -10 1.7 -10 0 C-6.30458414 -0.95024979 -3.69541586 -0.95024979 0 0 Z " fill="#0D0E0E" transform="translate(119,58)"/>
<path d="M0 0 C2.4375 2.4375 2.4375 2.4375 4 5 C4.99 5.33 5.98 5.66 7 6 C8.6484375 7.77734375 8.6484375 7.77734375 10.375 9.9375 C13.06937432 13.14563213 14.96181465 14.69352827 19 16 C20.25433458 19.76300374 20.10695422 23.27210909 20.0625 27.1875 C20.05798828 27.93708984 20.05347656 28.68667969 20.04882812 29.45898438 C20.03706354 31.30602383 20.01912865 33.15302213 20 35 C19.01 35 18.02 35 17 35 C17 37.64 17 40.28 17 43 C15.0625 42.6875 15.0625 42.6875 13 42 C12.67 41.01 12.34 40.02 12 39 C10.68 39 9.36 39 8 39 C8 37.68 8 36.36 8 35 C7.0409375 34.814375 7.0409375 34.814375 6.0625 34.625 C5.381875 34.41875 4.70125 34.2125 4 34 C2.73762269 31.47524538 2.90143596 29.68799534 2.9375 26.875 C2.94652344 25.96492188 2.95554687 25.05484375 2.96484375 24.1171875 C2.97644531 23.41851562 2.98804687 22.71984375 3 22 C1.31970703 22.03480469 1.31970703 22.03480469 -0.39453125 22.0703125 C-1.86718084 22.08907237 -3.33983763 22.10727234 -4.8125 22.125 C-5.55048828 22.14175781 -6.28847656 22.15851563 -7.04882812 22.17578125 C-10.91246426 22.21074628 -12.70903668 22.19397555 -16 20 C-16 19.01 -16 18.02 -16 17 C-15.34 17 -14.68 17 -14 17 C-14.33 16.34 -14.66 15.68 -15 15 C-16.0543131 5.51118211 -16.0543131 5.51118211 -13.125 1.3125 C-8.70785975 -0.54269891 -4.71517183 -0.959018 0 0 Z " fill="#00B1B5" transform="translate(50,55)"/>
<path d="M0 0 C0.84433594 0.00322266 1.68867187 0.00644531 2.55859375 0.00976562 C3.86763672 0.02233398 3.86763672 0.02233398 5.203125 0.03515625 C6.09128906 0.03966797 6.97945312 0.04417969 7.89453125 0.04882812 C10.08079829 0.06058225 12.26692679 0.07701376 14.453125 0.09765625 C14.453125 1.41765625 14.453125 2.73765625 14.453125 4.09765625 C16.103125 4.09765625 17.753125 4.09765625 19.453125 4.09765625 C19.948125 10.53265625 19.948125 10.53265625 20.453125 17.09765625 C17.483125 17.42765625 14.513125 17.75765625 11.453125 18.09765625 C11.453125 19.74765625 11.453125 21.39765625 11.453125 23.09765625 C8.483125 23.09765625 5.513125 23.09765625 2.453125 23.09765625 C2.453125 21.77765625 2.453125 20.45765625 2.453125 19.09765625 C1.133125 19.09765625 -0.186875 19.09765625 -1.546875 19.09765625 C-1.546875 22.39765625 -1.546875 25.69765625 -1.546875 29.09765625 C-5.836875 29.09765625 -10.126875 29.09765625 -14.546875 29.09765625 C-15.206875 27.77765625 -15.866875 26.45765625 -16.546875 25.09765625 C-15.886875 25.09765625 -15.226875 25.09765625 -14.546875 25.09765625 C-14.546875 20.47765625 -14.546875 15.85765625 -14.546875 11.09765625 C-13.886875 11.09765625 -13.226875 11.09765625 -12.546875 11.09765625 C-12.546875 9.44765625 -12.546875 7.79765625 -12.546875 6.09765625 C-11.226875 6.09765625 -9.906875 6.09765625 -8.546875 6.09765625 C-8.546875 4.44765625 -8.546875 2.79765625 -8.546875 1.09765625 C-5.6220117 0.25573843 -3.03945844 -0.02053688 0 0 Z " fill="#945F41" transform="translate(67.546875,30.90234375)"/>
<path d="M0 0 C1.98 0 3.96 0 6 0 C6 0.99 6 1.98 6 3 C7.65 3 9.3 3 11 3 C11 2.01 11 1.02 11 0 C15.16138263 -0.08159574 18.9472484 0.01751476 23 1 C23 1.66 23 2.32 23 3 C25.97 3.33 28.94 3.66 32 4 C32 6.64 32 9.28 32 12 C30.68 12 29.36 12 28 12 C28 10.02 28 8.04 28 6 C27.34 6 26.68 6 26 6 C26 5.34 26 4.68 26 4 C24.68 4 23.36 4 22 4 C22 6.64 22 9.28 22 12 C20.35 12 18.7 12 17 12 C17 10.02 17 8.04 17 6 C15.02 6 13.04 6 11 6 C11 7.98 11 9.96 11 12 C7.37 12 3.74 12 0 12 C0 13.65 0 15.3 0 17 C3.63 17 7.26 17 11 17 C11 18.65 11 20.3 11 22 C9.35 22 7.7 22 6 22 C6 26.95 6 31.9 6 37 C4.35 37 2.7 37 1 37 C1 34.03 1 31.06 1 28 C-0.65 28 -2.3 28 -4 28 C-4 30.97 -4 33.94 -4 37 C-5.65 37 -7.3 37 -9 37 C-9 35.68 -9 34.36 -9 33 C-9.66 33 -10.32 33 -11 33 C-11 25.74 -11 18.48 -11 11 C-10.01 11 -9.02 11 -8 11 C-8 8.36 -8 5.72 -8 3 C-5.36 3 -2.72 3 0 3 C0 2.01 0 1.02 0 0 Z " fill="#43342F" transform="translate(113,15)"/>
<path d="M0 0 C4.52106372 0.30941499 9.0418308 0.62241628 13.5625 0.9375 C14.83931641 1.02451172 16.11613281 1.11152344 17.43164062 1.20117188 C18.67236328 1.28818359 19.91308594 1.37519531 21.19140625 1.46484375 C22.32779541 1.543396 23.46418457 1.62194824 24.63500977 1.70288086 C28.11459291 2.01011823 31.54697642 2.47600031 35 3 C35.19601608 4.74906659 35.38147403 6.49931846 35.5625 8.25 C35.71912109 9.71179688 35.71912109 9.71179688 35.87890625 11.203125 C35.99166429 13.80747207 35.69003873 15.52608338 35 18 C35 19.32 35 20.64 35 22 C5.11747759 20.70582586 5.11747759 20.70582586 0 19 C0 12.73 0 6.46 0 0 Z " fill="#C02F02" transform="translate(105,135)"/>
<path d="M0 0 C0.495 6.93 0.495 6.93 1 14 C-0.65 14 -2.3 14 -4 14 C-4 12.68 -4 11.36 -4 10 C-12.91 10.66 -21.82 11.32 -31 12 C-31 13.65 -31 15.3 -31 17 C-32.32 17 -33.64 17 -35 17 C-35 18.65 -35 20.3 -35 22 C-35.66 22 -36.32 22 -37 22 C-36.91621094 22.67546875 -36.83242188 23.3509375 -36.74609375 24.046875 C-36.59333984 25.38492188 -36.59333984 25.38492188 -36.4375 26.75 C-36.33308594 27.63171875 -36.22867188 28.5134375 -36.12109375 29.421875 C-36.00543324 31.88432451 -36.26361305 33.66538064 -37 36 C-37.99 36 -38.98 36 -40 36 C-40.50910422 32.50126246 -41.005606 29.00084399 -41.5 25.5 C-41.64308594 24.51773438 -41.78617188 23.53546875 -41.93359375 22.5234375 C-42.33089593 19.68556481 -42.67950278 16.84749457 -43 14 C-43.10054687 13.22011719 -43.20109375 12.44023438 -43.3046875 11.63671875 C-43.46875 9.53125 -43.46875 9.53125 -43 6 C-38.69530242 2.3839889 -35.39219508 1.45555271 -29.84375 1.171875 C-28.8457135 1.11377655 -28.8457135 1.11377655 -27.82751465 1.05450439 C-25.71884918 0.93596848 -23.60993927 0.84276582 -21.5 0.75 C-20.0845463 0.67350651 -18.66917904 0.59539552 -17.25390625 0.515625 C-11.49501096 0.20304172 -5.77004684 0 0 0 Z " fill="#382713" transform="translate(90,20)"/>
<path d="M0 0 C5.94 0.33 11.88 0.66 18 1 C18.33695136 4.85388124 18.66968228 8.70804929 19 12.5625 C19.09539063 13.64853516 19.19078125 14.73457031 19.2890625 15.85351562 C20.22899449 26.89771651 20.22899449 26.89771651 20 32 C19 33 19 33 17.23413086 33.02172852 C16.48526611 32.97459717 15.73640137 32.92746582 14.96484375 32.87890625 C14.15595703 32.83056641 13.34707031 32.78222656 12.51367188 32.73242188 C11.66353516 32.67634766 10.81339844 32.62027344 9.9375 32.5625 C9.08349609 32.51029297 8.22949219 32.45808594 7.34960938 32.40429688 C5.23278005 32.27421239 3.11634756 32.13770029 1 32 C1.00523682 31.20827393 1.01047363 30.41654785 1.01586914 29.60083008 C1.03668937 26.00472816 1.04967627 22.40863895 1.0625 18.8125 C1.07087891 17.56662109 1.07925781 16.32074219 1.08789062 15.03710938 C1.09111328 13.83505859 1.09433594 12.63300781 1.09765625 11.39453125 C1.10551147 9.73707886 1.10551147 9.73707886 1.11352539 8.04614258 C1.06798518 4.64893002 1.06798518 4.64893002 0 0 Z " fill="#BB7E63" transform="translate(35,76)"/>
<path d="M0 0 C11.25 0 11.25 0 17 1 C17.02907584 5.3958194 17.0468244 9.79161399 17.0625 14.1875 C17.07087891 15.43337891 17.07925781 16.67925781 17.08789062 17.96289062 C17.09272461 19.7659668 17.09272461 19.7659668 17.09765625 21.60546875 C17.10551147 23.26292114 17.10551147 23.26292114 17.11352539 24.95385742 C17.00901923 27.75799379 16.64097959 30.27417329 16 33 C14.64595503 33.02763357 13.29173445 33.04667422 11.9375 33.0625 C11.18339844 33.07410156 10.42929688 33.08570313 9.65234375 33.09765625 C6.41635123 32.97851072 3.20563978 32.45794854 0 32 C0 21.44 0 10.88 0 0 Z " fill="#BA7D63" transform="translate(87,79)"/>
<path d="M0 0 C2.97 0 5.94 0 9 0 C9 4.95 9 9.9 9 15 C10.65 15 12.3 15 14 15 C14 11.7 14 8.4 14 5 C16.475 5.495 16.475 5.495 19 6 C19 8.97 19 11.94 19 15 C20.32 15 21.64 15 23 15 C23 16.65 23 18.3 23 20 C16.565 20.495 16.565 20.495 10 21 C9.505 23.475 9.505 23.475 9 26 C6.03 26 3.06 26 0 26 C0 24.02 0 22.04 0 20 C-0.98742187 19.96261719 -1.97484375 19.92523438 -2.9921875 19.88671875 C-4.27351563 19.82097656 -5.55484375 19.75523438 -6.875 19.6875 C-8.15117188 19.62949219 -9.42734375 19.57148437 -10.7421875 19.51171875 C-11.81726563 19.34285156 -12.89234375 19.17398438 -14 19 C-14.66 18.01 -15.32 17.02 -16 16 C-20.95 16.495 -20.95 16.495 -26 17 C-26.1875 14.125 -26.1875 14.125 -26 11 C-23 9 -23 9 -20.5 9.1875 C-17.7813141 10.07107292 -16.97120717 11.02879283 -15 13 C-12.39388923 13.72197162 -12.39388923 13.72197162 -10 14 C-10 11.03 -10 8.06 -10 5 C-8.35 5 -6.7 5 -5 5 C-5 7.97 -5 10.94 -5 14 C-3.35 14 -1.7 14 0 14 C0 9.38 0 4.76 0 0 Z " fill="#F9EEC9" transform="translate(119,38)"/>
<path d="M0 0 C1.32 0 2.64 0 4 0 C4.04953293 5.32021739 4.08578256 10.64029976 4.10986328 15.96069336 C4.11990487 17.76963643 4.1335408 19.57856333 4.15087891 21.38745117 C4.17520832 23.99141435 4.18650161 26.59516242 4.1953125 29.19921875 C4.20563507 30.00461594 4.21595764 30.81001312 4.22659302 31.63981628 C4.22743729 35.88969226 3.96516229 39.12067443 2 43 C-8.76645841 43.39389482 -19.31427866 42.18260948 -30 41 C-30.33 37.7 -30.66 34.4 -31 31 C-25.72 31 -20.44 31 -15 31 C-15 28.69 -15 26.38 -15 24 C-13.68 24.33 -12.36 24.66 -11 25 C-11 27.31 -11 29.62 -11 32 C-10.37351562 31.98839844 -9.74703125 31.97679687 -9.1015625 31.96484375 C-8.28429687 31.95582031 -7.46703125 31.94679687 -6.625 31.9375 C-5.81289062 31.92589844 -5.00078125 31.91429687 -4.1640625 31.90234375 C-2 32 -2 32 0 33 C0 22.11 0 11.22 0 0 Z " fill="#3D3491" transform="translate(88,111)"/>
<path d="M0 0 C4.95 0 9.9 0 15 0 C14.67 1.32 14.34 2.64 14 4 C13.34 4 12.68 4 12 4 C12 5.65 12 7.3 12 9 C11.34 9 10.68 9 10 9 C10 10.65 10 12.3 10 14 C9.34 14 8.68 14 8 14 C7.67 15.65 7.34 17.3 7 19 C6.34 19 5.68 19 5 19 C5 20.65 5 22.3 5 24 C4.34 24 3.68 24 3 24 C3 25.65 3 27.3 3 29 C2.01 29.33 1.02 29.66 0 30 C0 31.65 0 33.3 0 35 C-3.87684087 36.19287411 -6.91621923 37 -11 37 C-11 34.03 -11 31.06 -11 28 C-10.34 28 -9.68 28 -9 28 C-9 29.32 -9 30.64 -9 32 C-8.34 32 -7.68 32 -7 32 C-7.33 29.03 -7.66 26.06 -8 23 C-8.66 23 -9.32 23 -10 23 C-10 22.34 -10 21.68 -10 21 C-9.34 21 -8.68 21 -8 21 C-8 19.35 -8 17.7 -8 16 C-7.34 15.67 -6.68 15.34 -6 15 C-5.08968728 12.65613191 -5.08968728 12.65613191 -4.375 9.9375 C-4.11460937 9.01839844 -3.85421875 8.09929688 -3.5859375 7.15234375 C-3.39257812 6.44207031 -3.19921875 5.73179687 -3 5 C-2.01 5 -1.02 5 0 5 C0 3.35 0 1.7 0 0 Z " fill="#0E4039" transform="translate(175,0)"/>
<path d="M0 0 C0 1.98 0 3.96 0 6 C2.97 6 5.94 6 9 6 C9 4.35 9 2.7 9 1 C12.3 1 15.6 1 19 1 C19 2.65 19 4.3 19 6 C17.35 6 15.7 6 14 6 C14 7.32 14 8.64 14 10 C12.68 10 11.36 10 10 10 C10 11.65 10 13.3 10 15 C14.62 15 19.24 15 24 15 C24 13.35 24 11.7 24 10 C24.33 10 24.66 10 25 10 C25.24794402 16.5705166 24.32388229 22.56971459 23 29 C20.03 29 17.06 29 14 29 C14 27.35 14 25.7 14 24 C12.35 24 10.7 24 9 24 C9 21.03 9 18.06 9 15 C7.68 15 6.36 15 5 15 C5 16.32 5 17.64 5 19 C3.35 19 1.7 19 0 19 C0 15.7 0 12.4 0 9 C-1.65 9 -3.3 9 -5 9 C-5 7.68 -5 6.36 -5 5 C-6.65 5 -8.3 5 -10 5 C-10 3.35 -10 1.7 -10 0 C-6.30458414 -0.95024979 -3.69541586 -0.95024979 0 0 Z " fill="#2D2D2E" transform="translate(119,58)"/>
<path d="M0 0 C1.32 0 2.64 0 4 0 C4 0.66 4 1.32 4 2 C4.66 2 5.32 2 6 2 C6 3.98 6 5.96 6 8 C7.65 8 9.3 8 11 8 C11.19561869 10.0825867 11.38119313 12.16611856 11.5625 14.25 C11.71912109 15.99023438 11.71912109 15.99023438 11.87890625 17.765625 C11.98198087 20.51871477 11.86213473 22.419982 11 25 C9.02 25 7.04 25 5 25 C5 23.02 5 21.04 5 19 C1.37 19 -2.26 19 -6 19 C-6 21.31 -6 23.62 -6 26 C-6.33 26 -6.66 26 -7 26 C-7 23.69 -7 21.38 -7 19 C-9.97 19 -12.94 19 -16 19 C-16 18.67 -16 18.34 -16 18 C-14.35 18 -12.7 18 -11 18 C-11 16.35 -11 14.7 -11 13 C-14.63 13 -18.26 13 -22 13 C-22 11.35 -22 9.7 -22 8 C-18.37 8 -14.74 8 -11 8 C-11 6.02 -11 4.04 -11 2 C-9.02 2 -7.04 2 -5 2 C-5 3.98 -5 5.96 -5 8 C-3.35 8 -1.7 8 0 8 C0 5.36 0 2.72 0 0 Z " fill="#785E56" transform="translate(135,19)"/>
<path d="M0 0 C1.32 0 2.64 0 4 0 C4 1.32 4 2.64 4 4 C5.32 4 6.64 4 8 4 C8 5.32 8 6.64 8 8 C10.97 8.33 13.94 8.66 17 9 C17 7.68 17 6.36 17 5 C18.32 5 19.64 5 21 5 C21 7.64 21 10.28 21 13 C19.68 13 18.36 13 17 13 C17.10699219 14.13179687 17.21398437 15.26359375 17.32421875 16.4296875 C17.44613108 17.91139121 17.56718016 19.39316612 17.6875 20.875 C17.76033203 21.62136719 17.83316406 22.36773437 17.90820312 23.13671875 C18.07421875 25.3046875 18.07421875 25.3046875 18 29 C17.01 29.66 16.02 30.32 15 31 C14.41810734 33.42521494 14.41810734 33.42521494 14.3125 36.125 C14.24675781 37.03507812 14.18101563 37.94515625 14.11328125 38.8828125 C14.07589844 39.58148438 14.03851563 40.28015625 14 41 C8.21408489 41.10477512 2.70690634 40.99250545 -3 40 C-3 36.04 -3 32.08 -3 28 C-1.68 28.33 -0.36 28.66 1 29 C1 30.32 1 31.64 1 33 C2.32 33 3.64 33 5 33 C5.66 33.99 6.32 34.98 7 36 C7.99 36.33 8.98 36.66 10 37 C10 34.36 10 31.72 10 29 C10.99 29 11.98 29 13 29 C12.67 22.73 12.34 16.46 12 10 C10.35 9.67 8.7 9.34 7 9 C4.98046875 7.44140625 4.98046875 7.44140625 3.1875 5.5625 C2.58292969 4.94503906 1.97835937 4.32757813 1.35546875 3.69140625 C0 2 0 2 0 0 Z " fill="#039DA1" transform="translate(57,61)"/>
<path d="M0 0 C1.89492187 0.01353516 1.89492187 0.01353516 3.828125 0.02734375 C4.79234375 0.03894531 5.7565625 0.05054687 6.75 0.0625 C6.75 1.3825 6.75 2.7025 6.75 4.0625 C8.4 4.0625 10.05 4.0625 11.75 4.0625 C12.08 8.3525 12.41 12.6425 12.75 17.0625 C9.78 17.3925 6.81 17.7225 3.75 18.0625 C3.75 16.7425 3.75 15.4225 3.75 14.0625 C5.07 14.0625 6.39 14.0625 7.75 14.0625 C7.42 12.4125 7.09 10.7625 6.75 9.0625 C-1.665 9.5575 -1.665 9.5575 -10.25 10.0625 C-10.25 11.7125 -10.25 13.3625 -10.25 15.0625 C-11.9 15.0625 -13.55 15.0625 -15.25 15.0625 C-15.25 11.7625 -15.25 8.4625 -15.25 5.0625 C-13.93 5.0625 -12.61 5.0625 -11.25 5.0625 C-11.25 3.7425 -11.25 2.4225 -11.25 1.0625 C-7.49600202 -0.1414337 -3.91782588 -0.03627617 0 0 Z " fill="#B37A64" transform="translate(75.25,30.9375)"/>
<path d="M0 0 C3.05052074 8.29360327 5.17961089 14.28155643 3 23 C-0.63 23.33 -4.26 23.66 -8 24 C-10.28571429 15.57142857 -10.28571429 15.57142857 -10 11 C-10.66 10.67 -11.32 10.34 -12 10 C-11.34 7.03 -10.68 4.06 -10 1 C-2.25 0 -2.25 0 0 0 Z " fill="#1A1A1C" transform="translate(159,38)"/>
<path d="M0 0 C5.28 0 10.56 0 16 0 C16 1.65 16 3.3 16 5 C14.35 5 12.7 5 11 5 C11 9.95 11 14.9 11 20 C9.35 20 7.7 20 6 20 C6 17.03 6 14.06 6 11 C4.35 11 2.7 11 1 11 C1 13.97 1 16.94 1 20 C-0.65 20 -2.3 20 -4 20 C-4 18.68 -4 17.36 -4 16 C-4.66 16 -5.32 16 -6 16 C-6 12.37 -6 8.74 -6 5 C-4.02 5 -2.04 5 0 5 C0 3.35 0 1.7 0 0 Z " fill="#5F4B45" transform="translate(108,32)"/>
<path d="M0 0 C1.65 0 3.3 0 5 0 C9.49368782 9.60015125 11.44511033 18.66466901 8 29 C2.39 29 -3.22 29 -9 29 C-13.41964286 15.875 -13.41964286 15.875 -12 10 C-11.34 10 -10.68 10 -10 10 C-9.66127487 11.41538717 -9.32925376 12.83237963 -9 14.25 C-8.814375 15.03890625 -8.62875 15.8278125 -8.4375 16.640625 C-8 19 -8 19 -8 23 C-4.37 22.67 -0.74 22.34 3 22 C3.31020758 14.03800537 2.46059259 7.57218077 0 0 Z " fill="#ADB2BE" transform="translate(159,39)"/>
<path d="M0 0 C0.66 0 1.32 0 2 0 C1.67 5.61 1.34 11.22 1 17 C3.97 17.33 6.94 17.66 10 18 C10 25.59 10 33.18 10 41 C8.68 41 7.36 41 6 41 C6 41.99 6 42.98 6 44 C4.33388095 44.042721 2.66617115 44.04063832 1 44 C-2.06428877 40.93571123 -0.94715723 31.31822158 -1 27 C-0.85399818 17.99440107 -0.43536699 8.99561 0 0 Z " fill="#3B3B3C" transform="translate(104,80)"/>
<path d="M0 0 C5.94 0.33 11.88 0.66 18 1 C18.33695136 4.85388124 18.66968228 8.70804929 19 12.5625 C19.09539063 13.64853516 19.19078125 14.73457031 19.2890625 15.85351562 C20.22899449 26.89771651 20.22899449 26.89771651 20 32 C19.67 32.33 19.34 32.66 19 33 C17.14227838 32.91015699 15.28752015 32.75388139 13.4375 32.5625 C12.42558594 32.46066406 11.41367187 32.35882813 10.37109375 32.25390625 C9.58863281 32.17011719 8.80617188 32.08632812 8 32 C8.66 31.67 9.32 31.34 10 31 C10 28.69 10 26.38 10 24 C11.32 24 12.64 24 14 24 C14 25.32 14 26.64 14 28 C15.32 28 16.64 28 18 28 C18 25.36 18 22.72 18 20 C16.68 20 15.36 20 14 20 C14 16.04 14 12.08 14 8 C12.68 8 11.36 8 10 8 C10 8.99 10 9.98 10 11 C8.68 11 7.36 11 6 11 C6 9.68 6 8.36 6 7 C4.68 7 3.36 7 2 7 C1.34 4.69 0.68 2.38 0 0 Z " fill="#AA6E53" transform="translate(35,76)"/>
<path d="M0 0 C3.3 0 6.6 0 10 0 C10.10035417 6.96207045 9.75838432 13.70730518 9 20.625 C8.90460938 21.53378906 8.80921875 22.44257812 8.7109375 23.37890625 C8.47856232 25.58647043 8.24153511 27.79342261 8 30 C5.69 30 3.38 30 1 30 C0.37684021 19.984932 -0.12871864 10.04005374 0 0 Z " fill="#49494B" transform="translate(118,99)"/>
<path d="M0 0 C2.97 0 5.94 0 9 0 C9.02886751 4.14581887 9.04675327 8.29161216 9.0625 12.4375 C9.07087891 13.62150391 9.07925781 14.80550781 9.08789062 16.02539062 C9.09111328 17.15009766 9.09433594 18.27480469 9.09765625 19.43359375 C9.10289307 20.47572021 9.10812988 21.51784668 9.11352539 22.59155273 C9 25 9 25 8 26 C6.33382885 26.04063832 4.66611905 26.042721 3 26 C3 24.68 3 23.36 3 22 C1.35 22 -0.3 22 -2 22 C-2.23724954 14.32893157 -1.7594213 7.47754052 0 0 Z " fill="#3F3F40" transform="translate(133,100)"/>
<path d="M0 0 C3.3 0.33 6.6 0.66 10 1 C10 2.32 10 3.64 10 5 C12.31 5 14.62 5 17 5 C17 4.01 17 3.02 17 2 C19.97 2 22.94 2 26 2 C26 3.32 26 4.64 26 6 C23.03 6 20.06 6 17 6 C17 6.99 17 7.98 17 9 C18.32 9.33 19.64 9.66 21 10 C21 10.99 21 11.98 21 13 C2.94301471 13.31433824 2.94301471 13.31433824 -4 11 C-3.67 8.69 -3.34 6.38 -3 4 C-2.01 4 -1.02 4 0 4 C0 2.68 0 1.36 0 0 Z " fill="#B72C00" transform="translate(109,143)"/>
<path d="M0 0 C0.33 0.66 0.66 1.32 1 2 C-3.455 3.485 -3.455 3.485 -8 5 C-5.03 5 -2.06 5 1 5 C1.02691685 7.45840605 1.04679802 9.91651882 1.0625 12.375 C1.07087891 13.07367188 1.07925781 13.77234375 1.08789062 14.4921875 C1.11328125 19.7734375 1.11328125 19.7734375 0 22 C-0.66 22 -1.32 22 -2 22 C-2 22.66 -2 23.32 -2 24 C-4.3125 24.6875 -4.3125 24.6875 -7 25 C-8.65625 23.9375 -8.65625 23.9375 -10 22 C-10.29296875 18.86328125 -10.29296875 18.86328125 -10.1875 15.3125 C-10.16042969 14.13300781 -10.13335937 12.95351562 -10.10546875 11.73828125 C-10.07066406 10.83464844 -10.03585938 9.93101563 -10 9 C-11.32 8.34 -12.64 7.68 -14 7 C-14 6.01 -14 5.02 -14 4 C-4.58997722 0.74031891 -4.58997722 0.74031891 0 0 Z " fill="#C03103" transform="translate(103,53)"/>
<path d="M0 0 C0.33 0.66 0.66 1.32 1 2 C2.84851562 2.09087891 2.84851562 2.09087891 4.734375 2.18359375 C13.83820004 2.64104002 22.92258508 3.14842614 32 4 C32 6.31 32 8.62 32 11 C21.59270595 11.42965893 11.32602516 10.13272754 1 9 C0.67 6.03 0.34 3.06 0 0 Z " fill="#4A4B4D" transform="translate(57,143)"/>
<path d="M0 0 C0.33 0 0.66 0 1 0 C1 3.63 1 7.26 1 11 C0.67 11 0.34 11 0 11 C0 8.36 0 5.72 0 3 C-2.97 3 -5.94 3 -9 3 C-9.66 10.26 -10.32 17.52 -11 25 C-9.35 25 -7.7 25 -6 25 C-6 26.32 -6 27.64 -6 29 C-7.65 29 -9.3 29 -11 29 C-11 30.32 -11 31.64 -11 33 C-12.65 33 -14.3 33 -16 33 C-16 33.99 -16 34.98 -16 36 C-18.31 36 -20.62 36 -23 36 C-23 34.68 -23 33.36 -23 32 C-20.69 32 -18.38 32 -16 32 C-15.97494385 31.44650879 -15.9498877 30.89301758 -15.92407227 30.32275391 C-15.02915952 10.82136731 -15.02915952 10.82136731 -14 2 C-9.38 2 -4.76 2 0 2 C0 1.34 0 0.68 0 0 Z " fill="#2A2A2B" transform="translate(142,97)"/>
<path d="M0 0 C0.66 0.33 1.32 0.66 2 1 C1.67 1.66 1.34 2.32 1 3 C1.66 3 2.32 3 3 3 C3.33 4.32 3.66 5.64 4 7 C4.66 5.68 5.32 4.36 6 3 C7.32 3 8.64 3 10 3 C10 6.3 10 9.6 10 13 C8.68 13 7.36 13 6 13 C6 14.65 6 16.3 6 18 C5.34 18 4.68 18 4 18 C4.08378906 18.67546875 4.16757812 19.3509375 4.25390625 20.046875 C4.40666016 21.38492188 4.40666016 21.38492188 4.5625 22.75 C4.66691406 23.63171875 4.77132812 24.5134375 4.87890625 25.421875 C4.99456676 27.88432451 4.73638695 29.66538064 4 32 C3.01 32 2.02 32 1 32 C0.49089578 28.50126246 -0.005606 25.00084399 -0.5 21.5 C-0.64308594 20.51773438 -0.78617188 19.53546875 -0.93359375 18.5234375 C-1.71137666 12.96784532 -2.36027859 7.61005228 -2 2 C-1.34 1.34 -0.68 0.68 0 0 Z " fill="#2B1E0E" transform="translate(49,24)"/>
<path d="M0 0 C5.75 -0.125 5.75 -0.125 8 1 C8.33 6.94 8.66 12.88 9 19 C5.37 19 1.74 19 -2 19 C-3.29243536 14.8803623 -4.26252625 11.33168317 -4 7 C-3.34 7 -2.68 7 -2 7 C-2 6.01 -2 5.02 -2 4 C-1.34 4 -0.68 4 0 4 C0 2.68 0 1.36 0 0 Z " fill="#473CAE" transform="translate(59,105)"/>
<path d="M0 0 C4.29 0 8.58 0 13 0 C13 1.32 13 2.64 13 4 C14.65 4 16.3 4 18 4 C19.10228696 8.40914783 19.07654536 12.48382401 19 17 C20.32 17.33 21.64 17.66 23 18 C22.34 18.33 21.68 18.66 21 19 C21 21.31 21 23.62 21 26 C19.35 26.33 17.7 26.66 16 27 C16 27.99 16 28.98 16 30 C14.35 29.67 12.7 29.34 11 29 C11 25.7 11 22.4 11 19 C10.34 18.67 9.68 18.34 9 18 C10.98 18 12.96 18 15 18 C14.67 13.71 14.34 9.42 14 5 C12.35 5 10.7 5 9 5 C9 3.68 9 2.36 9 1 C6.03 1 3.06 1 0 1 C0 0.67 0 0.34 0 0 Z " fill="#8B6856" transform="translate(73,30)"/>
<path d="M0 0 C0.99 0.33 1.98 0.66 3 1 C4.37589758 5.26358386 5.10355575 9.60315439 6 14 C11.28 14 16.56 14 22 14 C21.01 14.495 21.01 14.495 20 15 C19.62599214 17.32716 19.29235267 19.66117862 19 22 C18 23 18 23 14.62109375 23.09765625 C13.22652923 23.09098369 11.83198257 23.07902532 10.4375 23.0625 C9.72658203 23.05798828 9.01566406 23.05347656 8.28320312 23.04882812 C6.52209987 23.03700864 4.76103964 23.01907263 3 23 C2.25492456 16.62694402 1.89650183 10.41688675 2 4 C1.34 4 0.68 4 0 4 C0 2.68 0 1.36 0 0 Z " fill="#0C0C0D" transform="translate(144,54)"/>
<path d="M0 0 C1.32 0 2.64 0 4 0 C4 1.32 4 2.64 4 4 C4.66386719 3.98839844 5.32773438 3.97679688 6.01171875 3.96484375 C14.78207381 3.87521968 14.78207381 3.87521968 19 5 C19 3.68 19 2.36 19 1 C20.32 1 21.64 1 23 1 C24.29676812 5.61073111 23.71109139 9.33840089 23 14 C13.58997722 14.18451025 13.58997722 14.18451025 9 13 C9 11.68 9 10.36 9 9 C10.32 9 11.64 9 13 9 C13 7.68 13 6.36 13 5 C10.36 5 7.72 5 5 5 C5 7.31 5 9.62 5 12 C3.68 12.33 2.36 12.66 1 13 C0.67 8.71 0.34 4.42 0 0 Z " fill="#323334" transform="translate(105,72)"/>
<path d="M0 0 C3.63 0 7.26 0 11 0 C11 1.98 11 3.96 11 6 C12.98 6 14.96 6 17 6 C16.67 7.98 16.34 9.96 16 12 C15.34 12 14.68 12 14 12 C14 14.64 14 17.28 14 20 C13.67 20 13.34 20 13 20 C13 18.35 13 16.7 13 15 C11.68 15 10.36 15 9 15 C9 12.03 9 9.06 9 6 C7.68 6 6.36 6 5 6 C4.67 8.97 4.34 11.94 4 15 C2.35 15 0.7 15 -1 15 C-1.09038099 9.84828377 -0.84681133 5.08086796 0 0 Z " fill="#3F3630" transform="translate(129,38)"/>
<path d="M0 0 C0.33 1.65 0.66 3.3 1 5 C-0.32 5 -1.64 5 -3 5 C-3 7.97 -3 10.94 -3 14 C-5.97 14 -8.94 14 -12 14 C-12 11.36 -12 8.72 -12 6 C-13.65 6 -15.3 6 -17 6 C-17 4.35 -17 2.7 -17 1 C-11.29309366 0.00749455 -5.78591511 -0.10477512 0 0 Z " fill="#9A6352" transform="translate(82,40)"/>
<path d="M0 0 C4.62 0 9.24 0 14 0 C14 0.33 14 0.66 14 1 C10.7 1 7.4 1 4 1 C4.165 2.60875 4.33 4.2175 4.5 5.875 C5.21254543 14.24489981 5.08391925 22.60807548 5 31 C3.35 31 1.7 31 0 31 C0 29.35 0 27.7 0 26 C-1.32 26 -2.64 26 -4 26 C-4 25.01 -4 24.02 -4 23 C-2.68 23 -1.36 23 0 23 C0 15.41 0 7.82 0 0 Z " fill="#2A2A2B" transform="translate(114,98)"/>
<path d="M0 0 C0 1.98 0 3.96 0 6 C2.97 6 5.94 6 9 6 C9 8.64 9 11.28 9 14 C7.35 14 5.7 14 4 14 C4 15.65 4 17.3 4 19 C2.68 19 1.36 19 0 19 C0 15.7 0 12.4 0 9 C-1.65 9 -3.3 9 -5 9 C-5 7.68 -5 6.36 -5 5 C-6.65 5 -8.3 5 -10 5 C-10 3.35 -10 1.7 -10 0 C-6.30458414 -0.95024979 -3.69541586 -0.95024979 0 0 Z " fill="#000000" transform="translate(119,58)"/>
<path d="M0 0 C0.66 0 1.32 0 2 0 C2.87890625 6.15234375 2.87890625 6.15234375 3 8 C2.67 8.33 2.34 8.66 2 9 C1.76807135 10.51469448 1.58784762 12.03754562 1.4375 13.5625 C1.35371094 14.38878906 1.26992187 15.21507812 1.18359375 16.06640625 C1.12300781 16.70449219 1.06242188 17.34257812 1 18 C0.34 18 -0.32 18 -1 18 C-1 19.65 -1 21.3 -1 23 C-1.99 23.33 -2.98 23.66 -4 24 C-4 25.65 -4 27.3 -4 29 C-5.32 29 -6.64 29 -8 29 C-8 27.68 -8 26.36 -8 25 C-8.66 25 -9.32 25 -10 25 C-10 23.68 -10 22.36 -10 21 C-9.34 21 -8.68 21 -8 21 C-8 21.99 -8 22.98 -8 24 C-7.34 24 -6.68 24 -6 24 C-6 22.68 -6 21.36 -6 20 C-6.66 20 -7.32 20 -8 20 C-7.67 18.35 -7.34 16.7 -7 15 C-6.34 15 -5.68 15 -5 15 C-5 13.35 -5 11.7 -5 10 C-4.34 10 -3.68 10 -3 10 C-3 8.35 -3 6.7 -3 5 C-2.01 4.67 -1.02 4.34 0 4 C0 2.68 0 1.36 0 0 Z " fill="#19786F" transform="translate(179,6)"/>
<path d="M0 0 C6.6 0.33 13.2 0.66 20 1 C20 2.32 20 3.64 20 5 C18.68 5 17.36 5 16 5 C16.15597656 5.62648438 16.31195313 6.25296875 16.47265625 6.8984375 C16.76462891 8.12433594 16.76462891 8.12433594 17.0625 9.375 C17.35833984 10.59316406 17.35833984 10.59316406 17.66015625 11.8359375 C18 14 18 14 17 16 C15.35 15.67 13.7 15.34 12 15 C12 11.7 12 8.4 12 5 C9.36 4.67 6.72 4.34 4 4 C4 5.32 4 6.64 4 8 C3.34 8 2.68 8 2 8 C2 8.99 2 9.98 2 11 C1.34 11 0.68 11 0 11 C0 7.37 0 3.74 0 0 Z " fill="#4037A1" transform="translate(55,101)"/>
<path d="M0 0 C5.28 0 10.56 0 16 0 C16 1.98 16 3.96 16 6 C17.65 6 19.3 6 21 6 C21 7.65 21 9.3 21 11 C19.35 11 17.7 11 16 11 C16 13.31 16 15.62 16 18 C15.67 18 15.34 18 15 18 C15 15.69 15 13.38 15 11 C12.03 11 9.06 11 6 11 C6 10.67 6 10.34 6 10 C7.65 10 9.3 10 11 10 C11 8.35 11 6.7 11 5 C7.37 5 3.74 5 0 5 C0 3.35 0 1.7 0 0 Z " fill="#82685E" transform="translate(113,27)"/>
<path d="M0 0 C1.32 0 2.64 0 4 0 C4.04953293 5.32021739 4.08578256 10.64029976 4.10986328 15.96069336 C4.11990487 17.76963643 4.1335408 19.57856333 4.15087891 21.38745117 C4.17520832 23.99141435 4.18650161 26.59516242 4.1953125 29.19921875 C4.20563507 30.00461594 4.21595764 30.81001312 4.22659302 31.63981628 C4.22743729 35.88969226 3.96516229 39.12067443 2 43 C1.67 43 1.34 43 1 43 C0.34479743 28.65873091 -0.16502485 14.35716167 0 0 Z " fill="#2A2474" transform="translate(88,111)"/>
<path d="M0 0 C0.33 0.99 0.66 1.98 1 3 C1.66 3 2.32 3 3 3 C3.82558668 5.91618521 4.18920445 8.59535494 4.25 11.625 C4.28867188 12.78902344 4.28867188 12.78902344 4.328125 13.9765625 C4.21984375 14.64429688 4.1115625 15.31203125 4 16 C0.77208445 18.1519437 -0.28400809 18.20086443 -4 18 C-5.4882246 13.5353262 -6.31720297 10.55033753 -5 6 C-4.814375 5.071875 -4.62875 4.14375 -4.4375 3.1875 C-4.293125 2.465625 -4.14875 1.74375 -4 1 C-2.68 0.67 -1.36 0.34 0 0 Z " fill="#071F1D" transform="translate(172,35)"/>
<path d="M0 0 C-1.32 0.33 -2.64 0.66 -4 1 C-4 2.32 -4 3.64 -4 5 C-5.32 5 -6.64 5 -8 5 C-8 8.3 -8 11.6 -8 15 C-4.7 15 -1.4 15 2 15 C2 16.32 2 17.64 2 19 C-2.70345575 20.21379503 -7.17430687 20.07202527 -12 20 C-12.33 15.38 -12.66 10.76 -13 6 C-11.68 6 -10.36 6 -9 6 C-9 4.35 -9 2.7 -9 1 C-5.92677456 0.08941469 -3.19902639 -0.08886184 0 0 Z " fill="#A46B53" transform="translate(68,31)"/>
<path d="M0 0 C1.65 0 3.3 0 5 0 C5 3.3 5 6.6 5 10 C-0.61 10 -6.22 10 -12 10 C-13.4783226 7.04335481 -13.06032783 4.25770263 -13 1 C-11.68 1 -10.36 1 -9 1 C-9 2.32 -9 3.64 -9 5 C-6.03 5 -3.06 5 0 5 C0 3.35 0 1.7 0 0 Z " fill="#48220F" transform="translate(79,49)"/>
<path d="M0 0 C0.66 0 1.32 0 2 0 C1.67 5.61 1.34 11.22 1 17 C3.97 17.33 6.94 17.66 10 18 C10 20.64 10 23.28 10 26 C7.03 26 4.06 26 1 26 C1 27.65 1 29.3 1 31 C0.34 31.33 -0.32 31.66 -1 32 C-0.67 21.44 -0.34 10.88 0 0 Z " fill="#554C49" transform="translate(104,80)"/>
<path d="M0 0 C3.3 0 6.6 0 10 0 C10.10881556 7.39945828 9.70865279 14.63507278 9 22 C8.67 22 8.34 22 8 22 C8 18.04 8 14.08 8 10 C5.69 10 3.38 10 1 10 C0.67 10.66 0.34 11.32 0 12 C0 8.04 0 4.08 0 0 Z " fill="#3B3A3C" transform="translate(118,99)"/>
<path d="M0 0 C0 1.65 0 3.3 0 5 C-1.65 5 -3.3 5 -5 5 C-5 9.95 -5 14.9 -5 20 C-6.65 20 -8.3 20 -10 20 C-10.33 15.05 -10.66 10.1 -11 5 C-9.35 5 -7.7 5 -6 5 C-6 3.68 -6 2.36 -6 1 C-4 0 -4 0 0 0 Z " fill="#41332E" transform="translate(124,32)"/>
<path d="M0 0 C4.16138263 -0.08159574 7.9472484 0.01751476 12 1 C12 1.66 12 2.32 12 3 C14.97 3.33 17.94 3.66 21 4 C21 6.64 21 9.28 21 12 C19.68 12 18.36 12 17 12 C17 10.02 17 8.04 17 6 C16.34 6 15.68 6 15 6 C15 5.34 15 4.68 15 4 C13.68 4 12.36 4 11 4 C11 6.64 11 9.28 11 12 C9.35 12 7.7 12 6 12 C6 8.37 6 4.74 6 1 C4.02 1 2.04 1 0 1 C0 0.67 0 0.34 0 0 Z " fill="#342925" transform="translate(124,15)"/>
<path d="M0 0 C1.98 0 3.96 0 6 0 C6 1.98 6 3.96 6 6 C7.65 6 9.3 6 11 6 C11 7.98 11 9.96 11 12 C12.65 12 14.3 12 16 12 C16 13.65 16 15.3 16 17 C14.02 17 12.04 17 10 17 C10 15.35 10 13.7 10 12 C8.35 12 6.7 12 5 12 C5 10.02 5 8.04 5 6 C3.35 6 1.7 6 0 6 C0 4.02 0 2.04 0 0 Z " fill="#258E4F" transform="translate(124,21)"/>
<path d="M0 0 C0.66 0 1.32 0 2 0 C2 1.32 2 2.64 2 4 C2.66 4 3.32 4 4 4 C4 14.56 4 25.12 4 36 C1.69 35.67 -0.62 35.34 -3 35 C-3.33 33.68 -3.66 32.36 -4 31 C-1.69 31.33 0.62 31.66 3 32 C3 26.72 3 21.44 3 16 C2.01 16 1.02 16 0 16 C0 10.72 0 5.44 0 0 Z " fill="#158E90" transform="translate(83,75)"/>
<path d="M0 0 C5.78591511 -0.10477512 11.29309366 0.00749455 17 1 C17 2.32 17 3.64 17 5 C15.68 5 14.36 5 13 5 C13 6.98 13 8.96 13 11 C11.68 11 10.36 11 9 11 C8.67 9.02 8.34 7.04 8 5 C5.36 4.67 2.72 4.34 0 4 C0 2.68 0 1.36 0 0 Z " fill="#97654C" transform="translate(87,79)"/>
<path d="M0 0 C2.97 0 5.94 0 9 0 C9 3.3 9 6.6 9 10 C6.03 10 3.06 10 0 10 C0 6.7 0 3.4 0 0 Z " fill="#454748" transform="translate(133,100)"/>
<path d="M0 0 C4.29 0 8.58 0 13 0 C13.33 2.64 13.66 5.28 14 8 C11.03 8 8.06 8 5 8 C4.67 6.68 4.34 5.36 4 4 C2.68 3.67 1.36 3.34 0 3 C0 2.01 0 1.02 0 0 Z " fill="#C53305" transform="translate(126,149)"/>
<path d="M0 0 C4.29 0 8.58 0 13 0 C13 1.32 13 2.64 13 4 C14.65 4 16.3 4 18 4 C19.20568053 8.67201205 19.09382426 13.21496292 19 18 C17.68 18 16.36 18 15 18 C14.67 13.71 14.34 9.42 14 5 C12.35 5 10.7 5 9 5 C9 3.68 9 2.36 9 1 C6.03 1 3.06 1 0 1 C0 0.67 0 0.34 0 0 Z " fill="#A06951" transform="translate(73,30)"/>
<path d="M0 0 C0.66 0 1.32 0 2 0 C2 4.29 2 8.58 2 13 C3.32 13 4.64 13 6 13 C5.625 15.4375 5.625 15.4375 5 18 C4.34 18.33 3.68 18.66 3 19 C2.67 18.01 2.34 17.02 2 16 C-1.51190809 14.77030122 -1.51190809 14.77030122 -5 14 C-5 12.35 -5 10.7 -5 9 C-4.01 9 -3.02 9 -2 9 C-1.7834375 7.0509375 -1.7834375 7.0509375 -1.5625 5.0625 C-1.125 1.125 -1.125 1.125 0 0 Z " fill="#0D3D37" transform="translate(162,24)"/>
<path d="M0 0 C0.33 0 0.66 0 1 0 C1.19590444 3.47874757 1.38031592 6.95800904 1.5625 10.4375 C1.61857422 11.43072266 1.67464844 12.42394531 1.73242188 13.44726562 C1.78076172 14.39150391 1.82910156 15.33574219 1.87890625 16.30859375 C1.9260376 17.18314209 1.97316895 18.05769043 2.02172852 18.95874023 C2 21 2 21 1 22 C-0.85772162 21.91015699 -2.71247985 21.75388139 -4.5625 21.5625 C-5.57441406 21.46066406 -6.58632813 21.35882813 -7.62890625 21.25390625 C-8.41136719 21.17011719 -9.19382813 21.08632812 -10 21 C-9.34 20.67 -8.68 20.34 -8 20 C-8 17.69 -8 15.38 -8 13 C-6.68 13 -5.36 13 -4 13 C-4 14.32 -4 15.64 -4 17 C-2.68 17 -1.36 17 0 17 C0 11.39 0 5.78 0 0 Z " fill="#8E5E48" transform="translate(53,87)"/>
<path d="M0 0 C2.31 0 4.62 0 7 0 C7.144375 1.175625 7.28875 2.35125 7.4375 3.5625 C7.91410176 7.38212272 8.44453544 11.19110019 9 15 C7.35 15 5.7 15 4 15 C3.01 11.7 2.02 8.4 1 5 C0.01 5.495 0.01 5.495 -1 6 C-0.67 4.02 -0.34 2.04 0 0 Z " fill="#060606" transform="translate(149,39)"/>
<path d="M0 0 C8.58 0 17.16 0 26 0 C26 0.33 26 0.66 26 1 C19.565 1.495 19.565 1.495 13 2 C12.67 3.65 12.34 5.3 12 7 C9.03 7 6.06 7 3 7 C3 5.02 3 3.04 3 1 C2.01 0.67 1.02 0.34 0 0 Z " fill="#A99A8A" transform="translate(116,57)"/>
<path d="M0 0 C6.15234375 -0.09765625 6.15234375 -0.09765625 8 0 C9 1 9 1 9.09765625 2.84765625 C9.04882812 5.92382812 9.04882812 5.92382812 9 9 C6.03 9 3.06 9 0 9 C0 6.03 0 3.06 0 0 Z " fill="#6E4233" transform="translate(70,45)"/>
<path d="M0 0 C1.65 0 3.3 0 5 0 C7.27376292 4.96093728 8.78623966 9.67812773 10 15 C8.35 15 6.7 15 5 15 C2.24614784 10.11817117 1.02862785 5.44567686 0 0 Z " fill="#E0E3E6" transform="translate(159,39)"/>
<path d="M0 0 C5.28 0.33 10.56 0.66 16 1 C16 2.32 16 3.64 16 5 C13.37493198 5.02690844 10.75013827 5.04679404 8.125 5.0625 C7.37863281 5.07087891 6.63226563 5.07925781 5.86328125 5.08789062 C0.2265625 5.11328125 0.2265625 5.11328125 -2 4 C-1.34 2.68 -0.68 1.36 0 0 Z " fill="#0EBCBF" transform="translate(37,72)"/>
<path d="M0 0 C0.66 0 1.32 0 2 0 C2.33872513 1.41538717 2.67074624 2.83237963 3 4.25 C3.185625 5.03890625 3.37125 5.8278125 3.5625 6.640625 C4 9 4 9 4 13 C5.65 13 7.3 13 9 13 C8.67 14.98 8.34 16.96 8 19 C6.35 19 4.7 19 3 19 C2.29613198 16.96391826 1.61257145 14.92080976 0.9375 12.875 C0.55464844 11.73804688 0.17179688 10.60109375 -0.22265625 9.4296875 C-1.03424784 5.84889646 -0.85479227 3.53744223 0 0 Z " fill="#9599A3" transform="translate(147,49)"/>
<path d="M0 0 C1.65 0 3.3 0 5 0 C5.33 0.99 5.66 1.98 6 3 C6.99 3.33 7.98 3.66 9 4 C9 7.96 9 11.92 9 16 C8.01 16 7.02 16 6 16 C5.67 16.66 5.34 17.32 5 18 C5 13.38 5 8.76 5 4 C3.35 3.67 1.7 3.34 0 3 C0 2.01 0 1.02 0 0 Z " fill="#039EA2" transform="translate(48,69)"/>
<path d="M0 0 C1.65 0 3.3 0 5 0 C5.0270043 1.45823212 5.04639787 2.91660675 5.0625 4.375 C5.07410156 5.18710938 5.08570312 5.99921875 5.09765625 6.8359375 C5 9 5 9 4 11 C3.34 11 2.68 11 2 11 C2 11.66 2 12.32 2 13 C0.35 13.33 -1.3 13.66 -3 14 C-2.01 9.38 -1.02 4.76 0 0 Z " fill="#932A07" transform="translate(99,64)"/>
<path d="M0 0 C0.33 0 0.66 0 1 0 C1 2.64 1 5.28 1 8 C1.66 8 2.32 8 3 8 C3.82351864 14.38226945 4.12086218 20.56744599 4 27 C3.01 27 2.02 27 1 27 C0.22959149 20.93303301 -0.09706112 15.11485027 0 9 C-1.32 8.67 -2.64 8.34 -4 8 C-2.68 8 -1.36 8 0 8 C0 5.36 0 2.72 0 0 Z " fill="#636469" transform="translate(143,50)"/>
<path d="M0 0 C0.33 0 0.66 0 1 0 C1.91370201 7.1138228 2.13553586 14.21174275 2.1875 21.375 C2.20683594 22.67679199 2.20683594 22.67679199 2.2265625 24.00488281 C2.23346102 28.45270158 2.10385243 31.95860758 0 36 C-0.33 36 -0.66 36 -1 36 C-1 30.06 -1 24.12 -1 18 C-0.34 18 0.32 18 1 18 C0.83628906 17.48953125 0.67257813 16.9790625 0.50390625 16.453125 C-0.16698481 13.18708172 -0.0933456 10.0813253 -0.0625 6.75 C-0.05347656 5.48671875 -0.04445313 4.2234375 -0.03515625 2.921875 C-0.02355469 1.95765625 -0.01195313 0.9934375 0 0 Z " fill="#27226A" transform="translate(90,118)"/>
<path d="M0 0 C1.98 0 3.96 0 6 0 C6.33 4.62 6.66 9.24 7 14 C5.35 14 3.7 14 2 14 C1.34 9.38 0.68 4.76 0 0 Z " fill="#2E2010" transform="translate(84,20)"/>
<path d="M0 0 C5.94 0.33 11.88 0.66 18 1 C18 2.32 18 3.64 18 5 C12.39 5 6.78 5 1 5 C0.67 3.35 0.34 1.7 0 0 Z " fill="#986148" transform="translate(35,76)"/>
<path d="M0 0 C2.97 0 5.94 0 9 0 C9 1.32 9 2.64 9 4 C6.03 4 3.06 4 0 4 C0 4.99 0 5.98 0 7 C-2.31 7 -4.62 7 -7 7 C-7 5.68 -7 4.36 -7 3 C-4.69 3 -2.38 3 0 3 C0 2.01 0 1.02 0 0 Z " fill="#2E1913" transform="translate(126,145)"/>
<path d="M0 0 C1.32 0 2.64 0 4 0 C4 1.32 4 2.64 4 4 C7.3 4 10.6 4 14 4 C14 5.65 14 7.3 14 9 C13.67 7.68 13.34 6.36 13 5 C10.36 5 7.72 5 5 5 C5 7.31 5 9.62 5 12 C3.68 12.33 2.36 12.66 1 13 C0.67 8.71 0.34 4.42 0 0 Z " fill="#212222" transform="translate(105,72)"/>
<path d="M0 0 C0.99 0.33 1.98 0.66 3 1 C4.37589758 5.26358386 5.10355575 9.60315439 6 14 C11.28 14 16.56 14 22 14 C22 14.33 22 14.66 22 15 C16.06 15 10.12 15 4 15 C4 17.64 4 20.28 4 23 C3.67 23 3.34 23 3 23 C2.25492456 16.62694402 1.89650183 10.41688675 2 4 C1.34 4 0.68 4 0 4 C0 2.68 0 1.36 0 0 Z " fill="#28292C" transform="translate(144,54)"/>
<path d="M0 0 C1.32 0 2.64 0 4 0 C4 2.97 4 5.94 4 9 C1.03 9 -1.94 9 -5 9 C-5 7.35 -5 5.7 -5 4 C-3.35 4 -1.7 4 0 4 C0 2.68 0 1.36 0 0 Z " fill="#2F3031" transform="translate(138,78)"/>
<path d="M0 0 C0.33 0 0.66 0 1 0 C1.07654536 4.51617599 1.10228696 8.59085217 0 13 C-0.33 12.01 -0.66 11.02 -1 10 C-2.32 10 -3.64 10 -5 10 C-5 11.32 -5 12.64 -5 14 C-6.65 14 -8.3 14 -10 14 C-10 12.35 -10 10.7 -10 9 C-8.35 9 -6.7 9 -5 9 C-5 7.68 -5 6.36 -5 5 C-3.35 5 -1.7 5 0 5 C0 3.35 0 1.7 0 0 Z " fill="#0E0E0E" transform="translate(143,68)"/>
<path d="M0 0 C3.3 0.33 6.6 0.66 10 1 C10 2.32 10 3.64 10 5 C7.03 5 4.06 5 1 5 C1 5.99 1 6.98 1 8 C-0.32 8 -1.64 8 -3 8 C-3 6.68 -3 5.36 -3 4 C-2.01 4 -1.02 4 0 4 C0 2.68 0 1.36 0 0 Z " fill="#5A2212" transform="translate(109,143)"/>
<path d="M0 0 C2.64 0 5.28 0 8 0 C8 0.99 8 1.98 8 3 C6.68 3 5.36 3 4 3 C4 4.32 4 5.64 4 7 C1.03 6.67 -1.94 6.34 -5 6 C-4.67 4.68 -4.34 3.36 -4 2 C-2.02 2.495 -2.02 2.495 0 3 C0 2.01 0 1.02 0 0 Z " fill="#C33103" transform="translate(110,148)"/>
<path d="M0 0 C-1.32 0.33 -2.64 0.66 -4 1 C-3.979375 2.0725 -3.95875 3.145 -3.9375 4.25 C-3.9857984 7.14790424 -4.13155885 9.28612141 -5 12 C-6.32 12 -7.64 12 -9 12 C-9 8.37 -9 4.74 -9 1 C-6.04335481 -0.4783226 -3.25770263 -0.06032783 0 0 Z " fill="#0D3D36" transform="translate(164,18)"/>
<path d="M0 0 C2.31 0 4.62 0 7 0 C7 2.64 7 5.28 7 8 C4.69 8 2.38 8 0 8 C0 5.36 0 2.72 0 0 Z " fill="#404041" transform="translate(119,121)"/>
<path d="M0 0 C2.97 0 5.94 0 9 0 C9 1.32 9 2.64 9 4 C7.35 4 5.7 4 4 4 C4 5.65 4 7.3 4 9 C2.68 9 1.36 9 0 9 C0 6.03 0 3.06 0 0 Z " fill="#131313" transform="translate(119,68)"/>
<path d="M0 0 C5.75 -0.125 5.75 -0.125 8 1 C8 1.99 8 2.98 8 4 C6.68 4 5.36 4 4 4 C4 5.32 4 6.64 4 8 C3.34 8 2.68 8 2 8 C2 8.99 2 9.98 2 11 C1.34 11 0.68 11 0 11 C0 7.37 0 3.74 0 0 Z " fill="#383391" transform="translate(55,101)"/>
<path d="M0 0 C2.64 0 5.28 0 8 0 C7.67 1.32 7.34 2.64 7 4 C6.34 4 5.68 4 5 4 C5 5.65 5 7.3 5 9 C3.68 9 2.36 9 1 9 C0.67 6.03 0.34 3.06 0 0 Z " fill="#2B5957" transform="translate(182,0)"/>
<path d="M0 0 C1.32 0 2.64 0 4 0 C4 2.64 4 5.28 4 8 C4.66 8.33 5.32 8.66 6 9 C2.7 8.67 -0.6 8.34 -4 8 C-4 6.68 -4 5.36 -4 4 C-2.68 4 -1.36 4 0 4 C0 2.68 0 1.36 0 0 Z " fill="#A0674D" transform="translate(91,103)"/>
<path d="M0 0 C1.32 0.33 2.64 0.66 4 1 C4.33 4.63 4.66 8.26 5 12 C3.35 12 1.7 12 0 12 C0 8.04 0 4.08 0 0 Z " fill="#0A898C" transform="translate(54,89)"/>
<path d="M0 0 C0.99 0 1.98 0 3 0 C3 5.28 3 10.56 3 16 C1.35 16 -0.3 16 -2 16 C-1.34 15.67 -0.68 15.34 0 15 C0 10.05 0 5.1 0 0 Z " fill="#039DA1" transform="translate(83,91)"/>
<path d="M0 0 C0.99 0 1.98 0 3 0 C3.33 1.32 3.66 2.64 4 4 C2.68 4 1.36 4 0 4 C0 5.32 0 6.64 0 8 C-2.97 7.67 -5.94 7.34 -9 7 C-9 5.68 -9 4.36 -9 3 C-6.36 3 -3.72 3 -1 3 C-0.67 2.01 -0.34 1.02 0 0 Z " fill="#704E43" transform="translate(74,62)"/>
<path d="M0 0 C1.65 0 3.3 0 5 0 C5 3.3 5 6.6 5 10 C3.35 10 1.7 10 0 10 C0 6.7 0 3.4 0 0 Z " fill="#334766" transform="translate(114,42)"/>
<path d="M0 0 C1.32 0 2.64 0 4 0 C4 2.64 4 5.28 4 8 C1.36 8 -1.28 8 -4 8 C-4 6.68 -4 5.36 -4 4 C-2.68 4 -1.36 4 0 4 C0 2.68 0 1.36 0 0 Z " fill="#454446" transform="translate(123,99)"/>
<path d="M0 0 C1.32 0 2.64 0 4 0 C4 3.96 4 7.92 4 12 C2.68 12 1.36 12 0 12 C0 8.04 0 4.08 0 0 Z " fill="#AA6E52" transform="translate(87,86)"/>
<path d="M0 0 C1.32 0 2.64 0 4 0 C4 3.3 4 6.6 4 10 C2.35 10 0.7 10 -1 10 C-1.125 2.25 -1.125 2.25 0 0 Z " fill="#3A4D6C" transform="translate(129,43)"/>
<path d="M0 0 C0.66 0 1.32 0 2 0 C2 1.32 2 2.64 2 4 C2.66 4 3.32 4 4 4 C4.33 2.68 4.66 1.36 5 0 C5 0.99 5 1.98 5 3 C5.66 3 6.32 3 7 3 C7.33 4.65 7.66 6.3 8 8 C5.36 8.33 2.72 8.66 0 9 C0 6.03 0 3.06 0 0 Z " fill="#176D64" transform="translate(164,28)"/>
<path d="M0 0 C0.66 0 1.32 0 2 0 C3.42857143 8.42857143 3.42857143 8.42857143 1 13 C0.34 13 -0.32 13 -1 13 C-1 12.01 -1 11.02 -1 10 C-1.66 10 -2.32 10 -3 10 C-3 8.35 -3 6.7 -3 5 C-2.01 4.67 -1.02 4.34 0 4 C0 2.68 0 1.36 0 0 Z " fill="#47B2AC" transform="translate(179,6)"/>
<path d="M0 0 C2.97 0 5.94 0 9 0 C9 1.65 9 3.3 9 5 C6.03 5 3.06 5 0 5 C0 3.35 0 1.7 0 0 Z " fill="#020202" transform="translate(129,59)"/>
<path d="M0 0 C0.33 0.66 0.66 1.32 1 2 C-3.455 3.485 -3.455 3.485 -8 5 C-7.67 5.66 -7.34 6.32 -7 7 C-7.66 7 -8.32 7 -9 7 C-9 7.66 -9 8.32 -9 9 C-10.32 8.67 -11.64 8.34 -13 8 C-13.33 6.68 -13.66 5.36 -14 4 C-4.58997722 0.74031891 -4.58997722 0.74031891 0 0 Z " fill="#8C3214" transform="translate(103,53)"/>
<path d="M0 0 C0 1.65 0 3.3 0 5 C-4.455 5.495 -4.455 5.495 -9 6 C-9 4.35 -9 2.7 -9 1 C-2.25 0 -2.25 0 0 0 Z " fill="#845C76" transform="translate(74,40)"/>
<path d="M0 0 C0.33 0 0.66 0 1 0 C1.33 2.97 1.66 5.94 2 9 C2.66 9 3.32 9 4 9 C4 10.65 4 12.3 4 14 C3.34 14 2.68 14 2 14 C1.67 15.65 1.34 17.3 1 19 C0.34 19 -0.32 19 -1 19 C-0.9278125 18.39671875 -0.855625 17.7934375 -0.78125 17.171875 C-0.6884375 16.37265625 -0.595625 15.5734375 -0.5 14.75 C-0.4071875 13.96109375 -0.314375 13.1721875 -0.21875 12.359375 C0.06154619 9.73109603 0.06154619 9.73109603 0 6 C-0.66 5.67 -1.32 5.34 -2 5 C-1.34 5 -0.68 5 0 5 C0 3.35 0 1.7 0 0 Z " fill="#1C5D58" transform="translate(181,0)"/>
<path d="M0 0 C2.475 0.495 2.475 0.495 5 1 C4.67 3.97 4.34 6.94 4 10 C2.68 10 1.36 10 0 10 C0 6.7 0 3.4 0 0 Z " fill="#F9F8F8" transform="translate(133,43)"/>
<path d="M0 0 C1.32 0 2.64 0 4 0 C4.66 0.99 5.32 1.98 6 3 C6.99 3.33 7.98 3.66 9 4 C9 4.99 9 5.98 9 7 C6.36 7 3.72 7 1 7 C0.67 4.69 0.34 2.38 0 0 Z " fill="#039CA0" transform="translate(58,94)"/>
<path d="M0 0 C1.65 0 3.3 0 5 0 C5 2.64 5 5.28 5 8 C3.35 8 1.7 8 0 8 C0 5.36 0 2.72 0 0 Z " fill="#4F4D4F" transform="translate(136,118)"/>
<path d="M0 0 C0.33 0 0.66 0 1 0 C1 5.28 1 10.56 1 16 C0.01 16 -0.98 16 -2 16 C-2 11.38 -2 6.76 -2 2 C-1.34 2 -0.68 2 0 2 C0 1.34 0 0.68 0 0 Z " fill="#8C5B43" transform="translate(55,40)"/>
<path d="M0 0 C0.763125 0.20625 1.52625 0.4125 2.3125 0.625 C2.3125 1.285 2.3125 1.945 2.3125 2.625 C1.3534375 3.058125 1.3534375 3.058125 0.375 3.5 C-1.83956079 4.45323451 -1.83956079 4.45323451 -2.6875 6.625 C-2.0275 6.955 -1.3675 7.285 -0.6875 7.625 C-2.3375 7.625 -3.9875 7.625 -5.6875 7.625 C-5.875 4.75 -5.875 4.75 -5.6875 1.625 C-2.6875 -0.375 -2.6875 -0.375 0 0 Z " fill="#ABABB6" transform="translate(98.6875,47.375)"/>
<path d="M0 0 C0 1.32 0 2.64 0 4 C-1.65 4 -3.3 4 -5 4 C-5 5.32 -5 6.64 -5 8 C-6.32 7.67 -7.64 7.34 -9 7 C-8.34 5.02 -7.68 3.04 -7 1 C-2.25 0 -2.25 0 0 0 Z " fill="#DF4B1D" transform="translate(104,60)"/>
<path d="M0 0 C0.33 0 0.66 0 1 0 C1 2.31 1 4.62 1 7 C-3.455 7.495 -3.455 7.495 -8 8 C-8 6.68 -8 5.36 -8 4 C-5.36 3.67 -2.72 3.34 0 3 C0 2.01 0 1.02 0 0 Z " fill="#AF7761" transform="translate(87,41)"/>
<path d="M0 0 C3.3 0 6.6 0 10 0 C10 1.32 10 2.64 10 4 C7.03 4 4.06 4 1 4 C0.67 2.68 0.34 1.36 0 0 Z " fill="#AE755E" transform="translate(60,46)"/>
<path d="M0 0 C0.66 0 1.32 0 2 0 C2 1.32 2 2.64 2 4 C2.66 4 3.32 4 4 4 C3.67 5.65 3.34 7.3 3 9 C1.35 9.33 -0.3 9.66 -2 10 C-1.33333333 6.66666667 -0.66666667 3.33333333 0 0 Z " fill="#0A2F2A" transform="translate(168,36)"/>
<path d="M0 0 C1.32 0 2.64 0 4 0 C4.33 2.64 4.66 5.28 5 8 C3.35 8 1.7 8 0 8 C0 5.36 0 2.72 0 0 Z " fill="#82665D" transform="translate(135,19)"/>
<path d="M0 0 C1.32 0 2.64 0 4 0 C4.33 2.64 4.66 5.28 5 8 C3.35 8 1.7 8 0 8 C0 5.36 0 2.72 0 0 Z " fill="#7C270D" transform="translate(135,149)"/>
<path d="M0 0 C1.65 0 3.3 0 5 0 C4.67 2.64 4.34 5.28 4 8 C2.68 8 1.36 8 0 8 C0 5.36 0 2.72 0 0 Z " fill="#4F4E4F" transform="translate(105,116)"/>
<path d="M0 0 C2.97 0 5.94 0 9 0 C9 1.32 9 2.64 9 4 C6.03 4 3.06 4 0 4 C0 2.68 0 1.36 0 0 Z " fill="#000000" transform="translate(119,64)"/>
<path d="M0 0 C0 1.65 0 3.3 0 5 C-2.64 5 -5.28 5 -8 5 C-8 3.68 -8 2.36 -8 1 C-5.10765685 0.17361624 -3.11257569 0 0 0 Z " fill="#7A4437" transform="translate(79,49)"/>
<path d="M0 0 C1.98 0 3.96 0 6 0 C6 1.98 6 3.96 6 6 C4.02 6 2.04 6 0 6 C0 4.02 0 2.04 0 0 Z " fill="#178747" transform="translate(140,38)"/>
<path d="M0 0 C1.99954746 -0.04254356 4.00041636 -0.04080783 6 0 C7 1 7 1 7.0625 4.0625 C7.041875 5.031875 7.02125 6.00125 7 7 C6.67 6.34 6.34 5.68 6 5 C4.02 5 2.04 5 0 5 C0 3.35 0 1.7 0 0 Z " fill="#352B26" transform="translate(140,33)"/>
<path d="M0 0 C1.98 0 3.96 0 6 0 C6 2.64 6 5.28 6 8 C4.68 8 3.36 8 2 8 C2 6.02 2 4.04 2 2 C1.34 2 0.68 2 0 2 C0 1.34 0 0.68 0 0 Z " fill="#3E312D" transform="translate(139,19)"/>
<path d="M0 0 C4.29 0 8.58 0 13 0 C13 1.32 13 2.64 13 4 C14.65 4 16.3 4 18 4 C17.67 4.66 17.34 5.32 17 6 C14.36 5.67 11.72 5.34 9 5 C9 3.68 9 2.36 9 1 C6.03 1 3.06 1 0 1 C0 0.67 0 0.34 0 0 Z " fill="#8B5A43" transform="translate(73,30)"/>
<path d="M0 0 C1.32 0 2.64 0 4 0 C4 2.64 4 5.28 4 8 C3.01 8 2.02 8 1 8 C0.67 8.66 0.34 9.32 0 10 C0 6.7 0 3.4 0 0 Z " fill="#128B8D" transform="translate(53,77)"/>
<path d="M0 0 C6.15234375 -0.09765625 6.15234375 -0.09765625 8 0 C9 1 9 1 9.0625 4.0625 C9.041875 5.031875 9.02125 6.00125 9 7 C8.67 5.68 8.34 4.36 8 3 C7.01 3 6.02 3 5 3 C4.67 3.99 4.34 4.98 4 6 C4 5.01 4 4.02 4 3 C2.68 3 1.36 3 0 3 C0 2.01 0 1.02 0 0 Z " fill="#AE765D" transform="translate(87,83)"/>
<path d="M0 0 C0.33 0.66 0.66 1.32 1 2 C1.66 2 2.32 2 3 2 C3 3.32 3 4.64 3 6 C0.03 6 -2.94 6 -6 6 C-5.34 5.01 -4.68 4.02 -4 3 C-3.34 3 -2.68 3 -2 3 C-2 2.34 -2 1.68 -2 1 C-1.34 0.67 -0.68 0.34 0 0 Z " fill="#1BABAC" transform="translate(103,74)"/>
<path d="M0 0 C1.32 0 2.64 0 4 0 C4 1.32 4 2.64 4 4 C5.32 4 6.64 4 8 4 C8 5.32 8 6.64 8 8 C9.65 8 11.3 8 13 8 C13 8.33 13 8.66 13 9 C10.4375 9.4375 10.4375 9.4375 7 9 C4.32248395 6.96380516 2.04359471 4.67239309 0 2 C0 1.34 0 0.68 0 0 Z " fill="#156A71" transform="translate(57,61)"/>
<path d="M0 0 C1.32 0 2.64 0 4 0 C3.67 2.97 3.34 5.94 3 9 C2.01 9 1.02 9 0 9 C0 6.03 0 3.06 0 0 Z " fill="#FDFDFD" transform="translate(110,43)"/>
<path d="M0 0 C0.33 0 0.66 0 1 0 C1.05441656 1.89551022 1.09298035 3.7914792 1.125 5.6875 C1.14820312 6.74324219 1.17140625 7.79898438 1.1953125 8.88671875 C0.99858729 12.02251859 0.33057654 14.17645373 -1 17 C-1.33 17 -1.66 17 -2 17 C-2.21824777 10.9981863 -1.5056904 5.80766296 0 0 Z " fill="#272832" transform="translate(91,137)"/>
<path d="M0 0 C2.97 0 5.94 0 9 0 C9 1.32 9 2.64 9 4 C6.03 3.67 3.06 3.34 0 3 C0 2.01 0 1.02 0 0 Z " fill="#211A19" transform="translate(126,145)"/>
<path d="M0 0 C0.33 0.66 0.66 1.32 1 2 C2.32 2 3.64 2 5 2 C5.33 4.31 5.66 6.62 6 9 C4.35 9 2.7 9 1 9 C0.67 6.03 0.34 3.06 0 0 Z " fill="#404042" transform="translate(57,143)"/>
<path d="M0 0 C2.64 0 5.28 0 8 0 C8 1.32 8 2.64 8 4 C5.36 4 2.72 4 0 4 C0 2.68 0 1.36 0 0 Z " fill="#3D3395" transform="translate(76,125)"/>
<path d="M0 0 C2.64 0 5.28 0 8 0 C8 1.32 8 2.64 8 4 C5.36 4 2.72 4 0 4 C0 2.68 0 1.36 0 0 Z " fill="#3D3395" transform="translate(60,124)"/>
<path d="M0 0 C1.32 0 2.64 0 4 0 C4 1.32 4 2.64 4 4 C5.32 4 6.64 4 8 4 C8 4.66 8 5.32 8 6 C5.36 6 2.72 6 0 6 C0 4.02 0 2.04 0 0 Z " fill="#4D4E4F" transform="translate(133,104)"/>
<path d="M0 0 C1.32 0 2.64 0 4 0 C4 2.64 4 5.28 4 8 C2.68 8 1.36 8 0 8 C0 5.36 0 2.72 0 0 Z " fill="#02A3A7" transform="translate(74,66)"/>
<path d="M0 0 C5.75 -0.125 5.75 -0.125 8 1 C7.67 2.32 7.34 3.64 7 5 C4.69 4.67 2.38 4.34 0 4 C0 2.68 0 1.36 0 0 Z " fill="#3D3EA3" transform="translate(80,110)"/>
<path d="M0 0 C1.58323688 -0.027193 3.16661062 -0.04648306 4.75 -0.0625 C6.07257813 -0.07990234 6.07257813 -0.07990234 7.421875 -0.09765625 C9.7818838 -0.00826198 11.74498524 0.33087179 14 1 C14 2.32 14 3.64 14 5 C12.35 5 10.7 5 9 5 C9 3.68 9 2.36 9 1 C6.03 1 3.06 1 0 1 C0 0.67 0 0.34 0 0 Z " fill="#2A2A2D" transform="translate(129,58)"/>
<path d="M0 0 C0.66 0 1.32 0 2 0 C2 2.97 2 5.94 2 9 C0.35 9 -1.3 9 -3 9 C-3 7.68 -3 6.36 -3 5 C-2.01 5 -1.02 5 0 5 C0 3.35 0 1.7 0 0 Z " fill="#4B3D36" transform="translate(107,43)"/>
<path d="M0 0 C1.65 0 3.3 0 5 0 C5 1.98 5 3.96 5 6 C3.35 6 1.7 6 0 6 C0 4.02 0 2.04 0 0 Z " fill="#3E3930" transform="translate(135,27)"/>
<path d="M0 0 C1.65 0 3.3 0 5 0 C5 1.98 5 3.96 5 6 C3.35 6 1.7 6 0 6 C0 4.02 0 2.04 0 0 Z " fill="#20B35F" transform="translate(124,21)"/>
<path d="M0 0 C1.98 0 3.96 0 6 0 C6 1.65 6 3.3 6 5 C4.02 5 2.04 5 0 5 C0 3.35 0 1.7 0 0 Z " fill="#81655C" transform="translate(124,16)"/>
<path d="M0 0 C1.32 0 2.64 0 4 0 C5.125 4.75 5.125 4.75 4 7 C2.68 7 1.36 7 0 7 C0 4.69 0 2.38 0 0 Z " fill="#3D3396" transform="translate(68,110)"/>
<path d="M0 0 C0.33 1.32 0.66 2.64 1 4 C2.32 4 3.64 4 5 4 C5 5.65 5 7.3 5 9 C3.35 9 1.7 9 0 9 C0 6.03 0 3.06 0 0 Z " fill="#774E3A" transform="translate(36,99)"/>
<path d="M0 0 C2.97 0 5.94 0 9 0 C7.68 0.33 6.36 0.66 5 1 C5 2.32 5 3.64 5 5 C3.35 5 1.7 5 0 5 C0 3.35 0 1.7 0 0 Z " fill="#181818" transform="translate(133,77)"/>
<path d="M0 0 C-0.99 1.485 -0.99 1.485 -2 3 C-3.32 3 -4.64 3 -6 3 C-6.33 3.66 -6.66 4.32 -7 5 C-7 4.34 -7 3.68 -7 3 C-7.99 3 -8.98 3 -10 3 C-10 2.34 -10 1.68 -10 1 C-6.42181037 -1.33958553 -4.07775191 -0.9267618 0 0 Z " fill="#604C43" transform="translate(84,59)"/>
<path d="M0 0 C2.00720923 0.28674418 4.0085944 0.61866701 6 1 C6 1.33 6 1.66 6 2 C4.2984375 2.4021875 4.2984375 2.4021875 2.5625 2.8125 C1.386875 3.204375 0.21125 3.59625 -1 4 C-1.33 4.99 -1.66 5.98 -2 7 C-3.32 7 -4.64 7 -6 7 C-6 5.68 -6 4.36 -6 3 C-5.195625 2.690625 -4.39125 2.38125 -3.5625 2.0625 C-1.10919595 1.23664655 -1.10919595 1.23664655 0 0 Z " fill="#049AA2" transform="translate(84,59)"/>
<path d="M0 0 C-0.66 1.65 -1.32 3.3 -2 5 C-3.65 5 -5.3 5 -7 5 C-7 3.35 -7 1.7 -7 0 C-2.25 -1.125 -2.25 -1.125 0 0 Z " fill="#111112" transform="translate(116,58)"/>
<path d="M0 0 C1.32 0 2.64 0 4 0 C4 1.32 4 2.64 4 4 C5.65 4 7.3 4 9 4 C9 4.33 9 4.66 9 5 C6.36 5 3.72 5 1 5 C0.67 5.66 0.34 6.32 0 7 C0 4.69 0 2.38 0 0 Z " fill="#512A16" transform="translate(66,50)"/>
<path d="M0 0 C0.99 0.66 1.98 1.32 3 2 C2.67 2.99 2.34 3.98 2 5 C-0.31 5 -2.62 5 -5 5 C-4 2 -4 2 -1.9375 0.8125 C-1.298125 0.544375 -0.65875 0.27625 0 0 Z " fill="#F8F3F2" transform="translate(101,49)"/>
<path d="M0 0 C-1.14324839 1.0029542 -2.28967191 2.00229027 -3.4375 3 C-4.39462891 3.8353125 -4.39462891 3.8353125 -5.37109375 4.6875 C-7 6 -7 6 -8 6 C-8 4.02 -8 2.04 -8 0 C-4.90645403 -0.99435406 -3.09720845 -0.87840996 0 0 Z " fill="#6C4835" transform="translate(96,48)"/>
<path d="M0 0 C2.64 0 5.28 0 8 0 C8 0.99 8 1.98 8 3 C7.01 3 6.02 3 5 3 C4.67 3.66 4.34 4.32 4 5 C4 4.34 4 3.68 4 3 C2.68 3 1.36 3 0 3 C0 2.01 0 1.02 0 0 Z " fill="#AF765D" transform="translate(45,81)"/>
<path d="M0 0 C0.66 0 1.32 0 2 0 C3.0161692 4.62921525 2.83796731 8.34462607 2 13 C0.1125606 9.72843838 -0.60106002 6.75003581 -1 3 C-0.67 2.01 -0.34 1.02 0 0 Z " fill="#8D9298" transform="translate(147,49)"/>
<path d="M0 0 C-1.32 0.33 -2.64 0.66 -4 1 C-4 2.32 -4 3.64 -4 5 C-5.65 5.33 -7.3 5.66 -9 6 C-9 4.35 -9 2.7 -9 1 C-5.92677456 0.08941469 -3.19902639 -0.08886184 0 0 Z " fill="#956149" transform="translate(68,31)"/>
<path d="M0 0 C0.33 0 0.66 0 1 0 C1 3.96 1 7.92 1 12 C-0.32 11.67 -1.64 11.34 -3 11 C-3 9.68 -3 8.36 -3 7 C-2.01 7 -1.02 7 0 7 C0 4.69 0 2.38 0 0 Z " fill="#039CA0" transform="translate(57,78)"/>
<path d="M0 0 C0.33 0 0.66 0 1 0 C1 1.65 1 3.3 1 5 C2.32 5 3.64 5 5 5 C5 6.32 5 7.64 5 9 C3.35 9 1.7 9 0 9 C0 6.03 0 3.06 0 0 Z " fill="#1D1B1A" transform="translate(128,59)"/>
<path d="M0 0 C1.65 0 3.3 0 5 0 C5 1.65 5 3.3 5 5 C3.35 5 1.7 5 0 5 C0 3.35 0 1.7 0 0 Z " fill="#F1EBEB" transform="translate(60,41)"/>
<path d="M0 0 C1.65 0 3.3 0 5 0 C5 1.65 5 3.3 5 5 C3.35 5 1.7 5 0 5 C0 3.35 0 1.7 0 0 Z " fill="#020202" transform="translate(129,38)"/>
<path d="M0 0 C1.65 0 3.3 0 5 0 C5 1.65 5 3.3 5 5 C3.35 5 1.7 5 0 5 C0 3.35 0 1.7 0 0 Z " fill="#614B45" transform="translate(129,33)"/>
<path d="M0 0 C1.65 0 3.3 0 5 0 C5 1.65 5 3.3 5 5 C3.35 5 1.7 5 0 5 C0 3.35 0 1.7 0 0 Z " fill="#18B95F" transform="translate(130,27)"/>
<path d="M0 0 C2.64 0 5.28 0 8 0 C8 0.99 8 1.98 8 3 C5.36 3 2.72 3 0 3 C0 2.01 0 1.02 0 0 Z " fill="#1A1A1B" transform="translate(110,144)"/>
<path d="M0 0 C1.32 0 2.64 0 4 0 C4 1.98 4 3.96 4 6 C2.68 6 1.36 6 0 6 C0 4.02 0 2.04 0 0 Z " fill="#A76B50" transform="translate(96,84)"/>
<path d="M0 0 C1.98 0 3.96 0 6 0 C6 1.32 6 2.64 6 4 C4.02 4 2.04 4 0 4 C0 2.68 0 1.36 0 0 Z " fill="#02A3A7" transform="translate(87,71)"/>
<path d="M0 0 C2.97 0 5.94 0 9 0 C9 1.32 9 2.64 9 4 C7.35 4 5.7 4 4 4 C4 3.01 4 2.02 4 1 C2.68 0.67 1.36 0.34 0 0 Z " fill="#039196" transform="translate(65,70)"/>
<path d="M0 0 C0.99 0 1.98 0 3 0 C3.33 1.32 3.66 2.64 4 4 C2.68 4 1.36 4 0 4 C0 5.32 0 6.64 0 8 C-1.32 7.67 -2.64 7.34 -4 7 C-3.01 6.67 -2.02 6.34 -1 6 C-0.67 4.02 -0.34 2.04 0 0 Z " fill="#746559" transform="translate(74,62)"/>
<path d="M0 0 C1.258125 -0.020625 2.51625 -0.04125 3.8125 -0.0625 C4.52019531 -0.07410156 5.22789063 -0.08570313 5.95703125 -0.09765625 C8 0 8 0 11 1 C11 2.32 11 3.64 11 5 C9.68 5 8.36 5 7 5 C7 3.68 7 2.36 7 1 C4.69 1 2.38 1 0 1 C0 0.67 0 0.34 0 0 Z " fill="#6A564A" transform="translate(54,60)"/>
<path d="M0 0 C1.98 0 3.96 0 6 0 C6 1.32 6 2.64 6 4 C4.02 4 2.04 4 0 4 C0 2.68 0 1.36 0 0 Z " fill="#010101" transform="translate(113,38)"/>
<path d="M0 0 C2.31 0.33 4.62 0.66 7 1 C7 1.99 7 2.98 7 4 C4.69 4 2.38 4 0 4 C0 2.68 0 1.36 0 0 Z " fill="#404142" transform="translate(70,149)"/>
<path d="M0 0 C3.68754757 0.49831724 5.60490662 1.10067643 8 4 C5.36 4 2.72 4 0 4 C0 2.68 0 1.36 0 0 Z " fill="#09C3C7" transform="translate(90,75)"/>
<path d="M0 0 C0 0.99 0 1.98 0 3 C-3.3 3.33 -6.6 3.66 -10 4 C-9 2 -9 2 -6.125 0.875 C-3 0 -3 0 0 0 Z " fill="#2D201C" transform="translate(104,55)"/>
<path d="M0 0 C0.33 0 0.66 0 1 0 C1 1.65 1 3.3 1 5 C2.32 5 3.64 5 5 5 C4.625 7.4375 4.625 7.4375 4 10 C3.01 10.495 3.01 10.495 2 11 C0.19769832 7.17010894 -0.19622241 4.21878192 0 0 Z " fill="#134943" transform="translate(163,32)"/>
<path d="M0 0 C0.99 0 1.98 0 3 0 C3 2.97 3 5.94 3 9 C2.34 9 1.68 9 1 9 C0.67 6.03 0.34 3.06 0 0 Z " fill="#40B6AD" transform="translate(182,0)"/>
<path d="M0 0 C1.32 0 2.64 0 4 0 C4 1.32 4 2.64 4 4 C0.7 4 -2.6 4 -6 4 C-6 3.67 -6 3.34 -6 3 C-4.02 3 -2.04 3 0 3 C0 2.01 0 1.02 0 0 Z " fill="#0C8596" transform="translate(67,98)"/>
<path d="M0 0 C0.28875 0.61875 0.5775 1.2375 0.875 1.875 C1.93720042 4.13325765 1.93720042 4.13325765 4 6 C4 7.32 4 8.64 4 10 C2.68 9.34 1.36 8.68 0 8 C0 5.36 0 2.72 0 0 Z " fill="#BC3F13" transform="translate(93,67)"/>
<path d="M0 0 C1.98 0 3.96 0 6 0 C6 1.65 6 3.3 6 5 C4.68 5 3.36 5 2 5 C2 3.68 2 2.36 2 1 C1.34 0.67 0.68 0.34 0 0 Z " fill="#966345" transform="translate(82,48)"/>
<path d="M0 0 C1.32 0 2.64 0 4 0 C4 1.65 4 3.3 4 5 C2.35 5 0.7 5 -1 5 C-0.67 3.35 -0.34 1.7 0 0 Z " fill="#0F0F11" transform="translate(134,59)"/>
<path d="M0 0 C0 1.32 0 2.64 0 4 C-1.65 3.67 -3.3 3.34 -5 3 C-5.33 2.01 -5.66 1.02 -6 0 C-3 -1 -3 -1 0 0 Z " fill="#845C44" transform="translate(57,56)"/>
<path d="M0 0 C1.65 0 3.3 0 5 0 C4.67 1.65 4.34 3.3 4 5 C2.68 5 1.36 5 0 5 C0 3.35 0 1.7 0 0 Z " fill="#162640" transform="translate(114,42)"/>
<path d="M0 0 C0 1.65 0 3.3 0 5 C-1.65 5 -3.3 5 -5 5 C-4.625 3.0625 -4.625 3.0625 -4 1 C-2 0 -2 0 0 0 Z " fill="#3F2A15" transform="translate(86,25)"/>
<path d="M0 0 C1.65 0 3.3 0 5 0 C5 1.32 5 2.64 5 4 C3.35 4 1.7 4 0 4 C0 2.68 0 1.36 0 0 Z " fill="#2D2C2D" transform="translate(136,126)"/>
<path d="M0 0 C1.65 0 3.3 0 5 0 C5 1.32 5 2.64 5 4 C3.35 4 1.7 4 0 4 C0 2.68 0 1.36 0 0 Z " fill="#2A2A2A" transform="translate(105,124)"/>
<path d="M0 0 C1.32 0 2.64 0 4 0 C4 1.65 4 3.3 4 5 C2.68 5 1.36 5 0 5 C0 3.35 0 1.7 0 0 Z " fill="#AD7054" transform="translate(99,107)"/>
<path d="M0 0 C2.31 0.33 4.62 0.66 7 1 C7 1.99 7 2.98 7 4 C5.02 4 3.04 4 1 4 C0.67 2.68 0.34 1.36 0 0 Z " fill="#058E93" transform="translate(79,106)"/>
<path d="M0 0 C1.65 0 3.3 0 5 0 C5 1.32 5 2.64 5 4 C3.35 4 1.7 4 0 4 C0 2.68 0 1.36 0 0 Z " fill="#121212" transform="translate(114,63)"/>
<path d="M0 0 C1.32 0 2.64 0 4 0 C4 1.65 4 3.3 4 5 C2.68 5 1.36 5 0 5 C0 3.35 0 1.7 0 0 Z " fill="#85563D" transform="translate(62,55)"/>
<path d="M0 0 C1.32 0 2.64 0 4 0 C4 1.65 4 3.3 4 5 C2.68 5 1.36 5 0 5 C0 3.35 0 1.7 0 0 Z " fill="#152746" transform="translate(129,43)"/>
<path d="M0 0 C1.32 0 2.64 0 4 0 C4 1.65 4 3.3 4 5 C2.68 5 1.36 5 0 5 C0 3.35 0 1.7 0 0 Z " fill="#F8F3F1" transform="translate(83,39)"/>
<path d="M0 0 C1.32 0 2.64 0 4 0 C4 1.65 4 3.3 4 5 C2.68 5 1.36 5 0 5 C0 3.35 0 1.7 0 0 Z " fill="#AD745D" transform="translate(60,36)"/>
<path d="M0 0 C2.475 0.495 2.475 0.495 5 1 C5 1.99 5 2.98 5 4 C3.35 4 1.7 4 0 4 C0 2.68 0 1.36 0 0 Z " fill="#3B43A4" transform="translate(75,106)"/>
<path d="M0 0 C0.33 0.99 0.66 1.98 1 3 C1.66 3 2.32 3 3 3 C3.33 4.65 3.66 6.3 4 8 C2.68 8 1.36 8 0 8 C0 5.36 0 2.72 0 0 Z " fill="#146159" transform="translate(168,28)"/>
<path d="M0 0 C1.65 0 3.3 0 5 0 C5 1.32 5 2.64 5 4 C3.35 3.67 1.7 3.34 0 3 C0 2.01 0 1.02 0 0 Z " fill="#D23200" transform="translate(126,141)"/>
<path d="M0 0 C2.97 0.495 2.97 0.495 6 1 C6 1.99 6 2.98 6 4 C4.35 4.33 2.7 4.66 1 5 C0.67 3.35 0.34 1.7 0 0 Z " fill="#7D5540" transform="translate(35,76)"/>
<path d="M0 0 C1.32 0 2.64 0 4 0 C4.33 1.32 4.66 2.64 5 4 C3.35 4 1.7 4 0 4 C0 2.68 0 1.36 0 0 Z " fill="#5C438D" transform="translate(78,40)"/>
<path d="M0 0 C0.66 0 1.32 0 2 0 C2 1.32 2 2.64 2 4 C2.66 4.33 3.32 4.66 4 5 C3.67 5.99 3.34 6.98 3 8 C2.34 8 1.68 8 1 8 C0.67 5.36 0.34 2.72 0 0 Z " fill="#26B7A9" transform="translate(174,16)"/>
<path d="M0 0 C2.97 0.495 2.97 0.495 6 1 C5.67 1.99 5.34 2.98 5 4 C3.35 4 1.7 4 0 4 C0 2.68 0 1.36 0 0 Z " fill="#9B9FAB" transform="translate(163,53)"/>
<path d="M0 0 C0.33 0 0.66 0 1 0 C1 2.31 1 4.62 1 7 C0.01 7.33 -0.98 7.66 -2 8 C-2 6.02 -2 4.04 -2 2 C-1.34 2 -0.68 2 0 2 C0 1.34 0 0.68 0 0 Z " fill="#6E4733" transform="translate(55,40)"/>
<path d="" fill="#000000" transform="translate(0,0)"/>
<path d="" fill="#000000" transform="translate(0,0)"/>
</svg>
