<?xml version="1.0" encoding="UTF-8"?>
<svg version="1.1" xmlns="http://www.w3.org/2000/svg" width="280" height="160">
<path d="M0 0 C1.65 0 3.3 0 5 0 C5.33 0.99 5.66 1.98 6 3 C7.32 3 8.64 3 10 3 C10 2.01 10 1.02 10 0 C13.96 0 17.92 0 22 0 C22 0.99 22 1.98 22 3 C24.97 3 27.94 3 31 3 C31 5.64 31 8.28 31 11 C31.66 11 32.32 11 33 11 C33 18.59 33 26.18 33 34 C32.34 34 31.68 34 31 34 C31 36.31 31 38.62 31 41 C32.39025391 40.98259766 32.39025391 40.98259766 33.80859375 40.96484375 C35.00613281 40.95582031 36.20367187 40.94679687 37.4375 40.9375 C38.63246094 40.92589844 39.82742187 40.91429687 41.05859375 40.90234375 C44 41 44 41 45 42 C45 44.33333333 45 46.66666667 45 49 C45.33 49.33 45.66 49.66 46 50 C46.07226502 51.85287502 46.0838122 53.70833878 46.0625 55.5625 C46.05347656 56.57441406 46.04445313 57.58632813 46.03515625 58.62890625 C46.02355469 59.41136719 46.01195312 60.19382813 46 61 C45.34 61 44.68 61 44 61 C44 61.99 44 62.98 44 64 C44.66 64 45.32 64 46 64 C46.30221599 72.46204771 45.14920797 80.63745983 44 89 C42.35 89 40.7 89 39 89 C39 95.27 39 101.54 39 108 C36.36 108 33.72 108 31 108 C31.00523682 109.12494873 31.01047363 110.24989746 31.01586914 111.40893555 C31.03400434 115.59284669 31.04546314 119.77675437 31.05493164 123.96069336 C31.05995238 125.76961858 31.06677029 127.57853976 31.07543945 129.38745117 C31.08760402 131.99138386 31.09325098 134.59526277 31.09765625 137.19921875 C31.10281754 138.00461594 31.10797882 138.81001312 31.11329651 139.63981628 C31.11368903 143.59156101 30.84580221 147.12553184 30 151 C30 152.65 30 154.3 30 156 C17.46 155.67 4.92 155.34 -8 155 C-7.67 152.03 -7.34 149.06 -7 146 C-7.66 146 -8.32 146 -9 146 C-9 133.13 -9 120.26 -9 107 C-11.64 107 -14.28 107 -17 107 C-17 100.73 -17 94.46 -17 88 C-19.64 88 -22.28 88 -25 88 C-25 80.41 -25 72.82 -25 65 C-23.515 64.505 -23.515 64.505 -22 64 C-22.32613281 63.43667969 -22.65226562 62.87335938 -22.98828125 62.29296875 C-25.76003827 56.01103296 -23.85288851 47.60988595 -23 41 C-18.71 41 -14.42 41 -10 41 C-9.67 38.69 -9.34 36.38 -9 34 C-9.99 34 -10.98 34 -12 34 C-12 26.74 -12 19.48 -12 12 C-11.01 11.67 -10.02 11.34 -9 11 C-9 8.36 -9 5.72 -9 3 C-6.36 3 -3.72 3 -1 3 C-0.67 2.01 -0.34 1.02 0 0 Z " fill="#306B42" transform="translate(126,2)"/>
<path d="M0 0 C3.3 0 6.6 0 10 0 C10 6.6 10 13.2 10 20 C9.01 20.33 8.02 20.66 7 21 C6.67 21.66 6.34 22.32 6 23 C7.98 22.67 9.96 22.34 12 22 C12 22.66 12 23.32 12 24 C11.01 24 10.02 24 9 24 C9 24.66 9 25.32 9 26 C8.34 26.33 7.68 26.66 7 27 C6.67 28.32 6.34 29.64 6 31 C20.19 31 34.38 31 49 31 C49 29.02 49 27.04 49 25 C48.34 25 47.68 25 47 25 C47 24.34 47 23.68 47 23 C46.01 23 45.02 23 44 23 C44 21.35 44 19.7 44 18 C45.32 18 46.64 18 48 18 C48 12.06 48 6.12 48 0 C51.3 0 54.6 0 58 0 C58 6.93 58 13.86 58 21 C59.65 21 61.3 21 63 21 C63 21.33 63 21.66 63 22 C61.35 22 59.7 22 58 22 C58 28.27 58 34.54 58 41 C55.36 41 52.72 41 50 41 C50.00523682 42.12494873 50.01047363 43.24989746 50.01586914 44.40893555 C50.03400434 48.59284669 50.04546314 52.77675437 50.05493164 56.96069336 C50.05995238 58.76961858 50.06677029 60.57853976 50.07543945 62.38745117 C50.08760402 64.99138386 50.09325098 67.59526277 50.09765625 70.19921875 C50.10281754 71.00461594 50.10797882 71.81001312 50.11329651 72.63981628 C50.11368903 76.59156101 49.84580221 80.12553184 49 84 C49 85.65 49 87.3 49 89 C36.46 88.67 23.92 88.34 11 88 C11.33 85.03 11.66 82.06 12 79 C11.34 79 10.68 79 10 79 C10 66.13 10 53.26 10 40 C7.36 40 4.72 40 2 40 C2 33.73 2 27.46 2 21 C1.01 21 0.02 21 -1 21 C-1.02888146 17.68751813 -1.04675799 14.37506833 -1.0625 11.0625 C-1.07087891 10.11697266 -1.07925781 9.17144531 -1.08789062 8.19726562 C-1.09111328 7.29814453 -1.09433594 6.39902344 -1.09765625 5.47265625 C-1.10289307 4.64000244 -1.10812988 3.80734863 -1.11352539 2.94946289 C-1 1 -1 1 0 0 Z " fill="#4E3F25" transform="translate(107,69)"/>
<path d="M0 0 C1.04800781 0.00257812 2.09601563 0.00515625 3.17578125 0.0078125 C4.72845703 0.00394531 4.72845703 0.00394531 6.3125 0 C9.48828125 0.1328125 9.48828125 0.1328125 12.03442383 0.6328125 C16.67878702 1.30515687 21.23921661 1.27554413 25.92578125 1.265625 C26.92407959 1.26658173 27.92237793 1.26753845 28.95092773 1.26852417 C31.05550195 1.26920277 33.16007828 1.26737083 35.26464844 1.26318359 C38.47726158 1.25783086 41.68973493 1.26313947 44.90234375 1.26953125 C46.95182322 1.26887041 49.00130261 1.26758913 51.05078125 1.265625 C52.00718506 1.26764923 52.96358887 1.26967346 53.94897461 1.27175903 C58.57649443 1.25557202 62.93611886 1.08622921 67.48828125 0.1328125 C67.77373553 8.26825936 66.67225008 16.10930946 65.48828125 24.1328125 C63.83828125 24.1328125 62.18828125 24.1328125 60.48828125 24.1328125 C60.48828125 17.2028125 60.48828125 10.2728125 60.48828125 3.1328125 C57.18828125 3.1328125 53.88828125 3.1328125 50.48828125 3.1328125 C50.48828125 9.0728125 50.48828125 15.0128125 50.48828125 21.1328125 C49.16828125 21.1328125 47.84828125 21.1328125 46.48828125 21.1328125 C46.48828125 22.7828125 46.48828125 24.4328125 46.48828125 26.1328125 C47.47828125 26.1328125 48.46828125 26.1328125 49.48828125 26.1328125 C49.48828125 26.7928125 49.48828125 27.4528125 49.48828125 28.1328125 C50.14828125 28.1328125 50.80828125 28.1328125 51.48828125 28.1328125 C51.48828125 30.1128125 51.48828125 32.0928125 51.48828125 34.1328125 C37.29828125 34.1328125 23.10828125 34.1328125 8.48828125 34.1328125 C8.81828125 32.4828125 9.14828125 30.8328125 9.48828125 29.1328125 C10.14828125 29.1328125 10.80828125 29.1328125 11.48828125 29.1328125 C11.48828125 28.4728125 11.48828125 27.8128125 11.48828125 27.1328125 C12.47828125 27.1328125 13.46828125 27.1328125 14.48828125 27.1328125 C14.48828125 26.4728125 14.48828125 25.8128125 14.48828125 25.1328125 C12.50828125 25.4628125 10.52828125 25.7928125 8.48828125 26.1328125 C8.81828125 25.1428125 9.14828125 24.1528125 9.48828125 23.1328125 C10.47828125 23.1328125 11.46828125 23.1328125 12.48828125 23.1328125 C12.48828125 16.5328125 12.48828125 9.9328125 12.48828125 3.1328125 C9.18828125 3.4628125 5.88828125 3.7928125 2.48828125 4.1328125 C2.15828125 10.7328125 1.82828125 17.3328125 1.48828125 24.1328125 C-0.16171875 24.1328125 -1.81171875 24.1328125 -3.51171875 24.1328125 C-3.54059111 20.32032824 -3.55847367 16.5078718 -3.57421875 12.6953125 C-3.58259766 11.60669922 -3.59097656 10.51808594 -3.59960938 9.39648438 C-3.60283203 8.36201172 -3.60605469 7.32753906 -3.609375 6.26171875 C-3.61461182 5.30338135 -3.61984863 4.34504395 -3.62524414 3.35766602 C-3.46287419 0.1755641 -3.19662056 0.16902815 0 0 Z " fill="#B49660" transform="translate(104.51171875,65.8671875)"/>
<path d="M0 0 C12.21 0 24.42 0 37 0 C37 1.32 37 2.64 37 4 C35.68 4 34.36 4 33 4 C33 5.32 33 6.64 33 8 C34.98 8 36.96 8 39 8 C39 9.32 39 10.64 39 12 C43.95 12 48.9 12 54 12 C54 13.65 54 15.3 54 17 C53.34 17 52.68 17 52 17 C52 18.32 52 19.64 52 21 C49.12552783 21.81872936 46.56234674 22.13029219 43.57714844 22.14526367 C42.70813904 22.15164352 41.83912964 22.15802338 40.94378662 22.16459656 C39.54075287 22.16626579 39.54075287 22.16626579 38.109375 22.16796875 C37.1319635 22.17129715 36.154552 22.17462555 35.14752197 22.17805481 C33.07296213 22.18311859 30.99839414 22.1854633 28.92382812 22.18530273 C25.80324115 22.18746314 22.6830232 22.20555161 19.5625 22.22460938 C-5.98358056 22.30242843 -5.98358056 22.30242843 -14 20 C-16.15199905 17.04564328 -16.2472222 14.5371201 -16.1875 10.9375 C-16.18105469 10.08027344 -16.17460938 9.22304688 -16.16796875 8.33984375 C-16 6 -16 6 -15 3 C-10.05 3 -5.1 3 0 3 C0 2.01 0 1.02 0 0 Z " fill="#554732" transform="translate(118,46)"/>
<path d="M0 0 C4.47920781 -0.0271102 8.95824947 -0.04689286 13.4375 -0.0625 C15.32758789 -0.07506836 15.32758789 -0.07506836 17.25585938 -0.08789062 C23.9289203 -0.10531376 30.38768168 0.08621934 37 1 C38.78043103 8.12172411 38 15.65909482 38 23 C25.46 22.67 12.92 22.34 0 22 C0 14.74 0 7.48 0 0 Z " fill="#C63000" transform="translate(118,135)"/>
<path d="M0 0 C1.65 0 3.3 0 5 0 C5.33 0.99 5.66 1.98 6 3 C7.32 3 8.64 3 10 3 C10 2.01 10 1.02 10 0 C13.96 0 17.92 0 22 0 C22 0.99 22 1.98 22 3 C24.97 3 27.94 3 31 3 C31 5.97 31 8.94 31 12 C29.68 12 28.36 12 27 12 C27 10.02 27 8.04 27 6 C26.34 6 25.68 6 25 6 C25 5.34 25 4.68 25 4 C24.01 4 23.02 4 22 4 C22 6.31 22 8.62 22 11 C20.02 11 18.04 11 16 11 C16 9.35 16 7.7 16 6 C14.35 6 12.7 6 11 6 C11 7.98 11 9.96 11 12 C7.37 12 3.74 12 0 12 C0 13.65 0 15.3 0 17 C3.63 17 7.26 17 11 17 C11 18.98 11 20.96 11 23 C9.35 23 7.7 23 6 23 C6 27.95 6 32.9 6 38 C4.35 38 2.7 38 1 38 C1 34.7 1 31.4 1 28 C-0.65 28 -2.3 28 -4 28 C-4 31.3 -4 34.6 -4 38 C-5.65 38 -7.3 38 -9 38 C-9 36.68 -9 35.36 -9 34 C-9.99 34 -10.98 34 -12 34 C-12 26.74 -12 19.48 -12 12 C-11.01 11.67 -10.02 11.34 -9 11 C-9 8.36 -9 5.72 -9 3 C-6.36 3 -3.72 3 -1 3 C-0.67 2.01 -0.34 1.02 0 0 Z " fill="#3E312C" transform="translate(126,2)"/>
<path d="M0 0 C1.98 0 3.96 0 6 0 C5.67 2.64 5.34 5.28 5 8 C6.65 8 8.3 8 10 8 C10 9.65 10 11.3 10 13 C11.98 13 13.96 13 16 13 C16 21.58 16 30.16 16 39 C15.67 39 15.34 39 15 39 C14.505 33.06 14.505 33.06 14 27 C-4.315 26.505 -4.315 26.505 -23 26 C-23 30.29 -23 34.58 -23 39 C-23.33 39 -23.66 39 -24 39 C-24 30.09 -24 21.18 -24 12 C-20.37 12 -16.74 12 -13 12 C-13 13.65 -13 15.3 -13 17 C-8.71 17 -4.42 17 0 17 C0 11.39 0 5.78 0 0 Z " fill="#201817" transform="translate(141,109)"/>
<path d="M0 0 C3.3 0 6.6 0 10 0 C10 6.6 10 13.2 10 20 C9.01 20.33 8.02 20.66 7 21 C6.67 21.66 6.34 22.32 6 23 C7.98 22.67 9.96 22.34 12 22 C12 22.66 12 23.32 12 24 C11.01 24 10.02 24 9 24 C9 24.66 9 25.32 9 26 C8.34 26.33 7.68 26.66 7 27 C6.67 28.32 6.34 29.64 6 31 C19.86 31 33.72 31 48 31 C48 31.99 48 32.98 48 34 C50.97 34 53.94 34 57 34 C57 34.66 57 35.32 57 36 C45.94305724 36.1139891 35.02363628 35.91050683 24 35 C24 34.01 24 33.02 24 32 C21.525 32.495 21.525 32.495 19 33 C19 33.66 19 34.32 19 35 C18.36191406 35.19335938 17.72382812 35.38671875 17.06640625 35.5859375 C15.82697266 35.97652344 15.82697266 35.97652344 14.5625 36.375 C13.73878906 36.63023438 12.91507813 36.88546875 12.06640625 37.1484375 C9.82201984 37.80882227 9.82201984 37.80882227 9 40 C6.69 40 4.38 40 2 40 C2 33.73 2 27.46 2 21 C1.01 21 0.02 21 -1 21 C-1.02888146 17.68751813 -1.04675799 14.37506833 -1.0625 11.0625 C-1.07087891 10.11697266 -1.07925781 9.17144531 -1.08789062 8.19726562 C-1.09111328 7.29814453 -1.09433594 6.39902344 -1.09765625 5.47265625 C-1.10289307 4.64000244 -1.10812988 3.80734863 -1.11352539 2.94946289 C-1 1 -1 1 0 0 Z " fill="#644F2F" transform="translate(107,69)"/>
<path d="M0 0 C2.97 0 5.94 0 9 0 C9 4.95 9 9.9 9 15 C10.65 15 12.3 15 14 15 C14 11.7 14 8.4 14 5 C15.65 5 17.3 5 19 5 C19 8.3 19 11.6 19 15 C20.65 15 22.3 15 24 15 C24 16.65 24 18.3 24 20 C11.13 20 -1.74 20 -15 20 C-15 18.35 -15 16.7 -15 15 C-13.35 15 -11.7 15 -10 15 C-10 11.7 -10 8.4 -10 5 C-8.35 5 -6.7 5 -5 5 C-5 8.3 -5 11.6 -5 15 C-3.35 15 -1.7 15 0 15 C0 10.05 0 5.1 0 0 Z " fill="#F4ECCA" transform="translate(132,25)"/>
<path d="M0 0 C9.9 0 19.8 0 30 0 C30 1.32 30 2.64 30 4 C34.95 4 39.9 4 45 4 C45 5.65 45 7.3 45 9 C41.04 8.67 37.08 8.34 33 8 C33 9.65 33 11.3 33 13 C23.76 13 14.52 13 5 13 C5 9.7 5 6.4 5 3 C3.35 3 1.7 3 0 3 C0 2.01 0 1.02 0 0 Z " fill="#323233" transform="translate(127,54)"/>
<path d="M0 0 C4.47920781 -0.0271102 8.95824947 -0.04689286 13.4375 -0.0625 C15.32758789 -0.07506836 15.32758789 -0.07506836 17.25585938 -0.08789062 C23.9289203 -0.10531376 30.38768168 0.08621934 37 1 C37.80489089 4.01903711 38.10855119 6.61851889 38.0625 9.75 C38.05347656 10.54921875 38.04445312 11.3484375 38.03515625 12.171875 C38.02355469 12.77515625 38.01195312 13.3784375 38 14 C35.525 13.505 35.525 13.505 33 13 C33 11.68 33 10.36 33 9 C29.7 9 26.4 9 23 9 C23 10.32 23 11.64 23 13 C20.36 13 17.72 13 15 13 C15 11.68 15 10.36 15 9 C11.7 9 8.4 9 5 9 C5 10.32 5 11.64 5 13 C3.35 13 1.7 13 0 13 C0 8.71 0 4.42 0 0 Z " fill="#C33002" transform="translate(118,135)"/>
<path d="M0 0 C0.33 1.32 0.66 2.64 1 4 C2.10287354 3.96970703 3.20574707 3.93941406 4.34204102 3.90820312 C8.5075145 3.79433557 12.67305689 3.68317465 16.83862305 3.57275391 C18.62770484 3.52496809 20.41676822 3.47648731 22.20581055 3.42724609 C33.14069944 3.12682021 44.06060405 2.92496556 55 3 C54.979375 4.134375 54.95875 5.26875 54.9375 6.4375 C54.58422523 9.81575674 54.58422523 9.81575674 56 11 C56 12.98 56 14.96 56 17 C51.05 17 46.1 17 41 17 C41 15.68 41 14.36 41 13 C39.02 13 37.04 13 35 13 C35 11.68 35 10.36 35 9 C36.32 9 37.64 9 39 9 C39 7.68 39 6.36 39 5 C26.79 5 14.58 5 2 5 C2 5.99 2 6.98 2 8 C-2.95 8 -7.9 8 -13 8 C-13 6.02 -13 4.04 -13 2 C-8.71 2 -4.42 2 0 2 C0 1.34 0 0.68 0 0 Z " fill="#544E4D" transform="translate(116,41)"/>
<path d="M0 0 C3.3 0 6.6 0 10 0 C10 1.32 10 2.64 10 4 C11.65 4.33 13.3 4.66 15 5 C15 7.97 15 10.94 15 14 C16.32 14 17.64 14 19 14 C19 15.32 19 16.64 19 18 C31.54 18 44.08 18 57 18 C57 16.35 57 14.7 57 13 C60.3 13 63.6 13 67 13 C67 14.65 67 16.3 67 18 C64.12552783 18.81872936 61.56234674 19.13029219 58.57714844 19.14526367 C57.70813904 19.15164352 56.83912964 19.15802338 55.94378662 19.16459656 C54.54075287 19.16626579 54.54075287 19.16626579 53.109375 19.16796875 C52.1319635 19.17129715 51.154552 19.17462555 50.14752197 19.17805481 C48.07296213 19.18311859 45.99839414 19.1854633 43.92382812 19.18530273 C40.80324115 19.18746314 37.6830232 19.20555161 34.5625 19.22460938 C9.01641944 19.30242843 9.01641944 19.30242843 1 17 C-1.15199905 14.04564328 -1.2472222 11.5371201 -1.1875 7.9375 C-1.18105469 7.08027344 -1.17460938 6.22304688 -1.16796875 5.33984375 C-1 3 -1 3 0 0 Z " fill="#302D2D" transform="translate(103,49)"/>
<path d="M0 0 C0.33 0 0.66 0 1 0 C1 1.65 1 3.3 1 5 C4.63 5 8.26 5 12 5 C12 6.98 12 8.96 12 11 C10.35 11 8.7 11 7 11 C7 15.95 7 20.9 7 26 C5.35 26 3.7 26 2 26 C2 22.7 2 19.4 2 16 C0.35 16 -1.3 16 -3 16 C-3 19.3 -3 22.6 -3 26 C-4.65 26 -6.3 26 -8 26 C-8 24.68 -8 23.36 -8 22 C-8.99 22 -9.98 22 -11 22 C-11 18.37 -11 14.74 -11 11 C-9.02 11 -7.04 11 -5 11 C-5 9.02 -5 7.04 -5 5 C-3.35 5 -1.7 5 0 5 C0 3.35 0 1.7 0 0 Z " fill="#5D4A43" transform="translate(125,14)"/>
<path d="M0 0 C2.31 0 4.62 0 7 0 C7.125 5.75 7.125 5.75 6 8 C4.35 8 2.7 8 1 8 C1 12.29 1 16.58 1 21 C-0.65 21 -2.3 21 -4 21 C-4 19.35 -4 17.7 -4 16 C-7.63 16 -11.26 16 -15 16 C-15 12.04 -15 8.08 -15 4 C-11.23139506 3.24627901 -8.43331415 2.88755581 -4.6875 2.9375 C-3.80449219 2.94652344 -2.92148438 2.95554687 -2.01171875 2.96484375 C-1.01591797 2.98224609 -1.01591797 2.98224609 0 3 C0 2.01 0 1.02 0 0 Z " fill="#2A2A2C" transform="translate(132,105)"/>
<path d="M0 0 C3.3 0 6.6 0 10 0 C10 6.6 10 13.2 10 20 C6.37 20.33 2.74 20.66 -1 21 C-1.02683436 17.68744674 -1.0467578 14.37510817 -1.0625 11.0625 C-1.07087891 10.11697266 -1.07925781 9.17144531 -1.08789062 8.19726562 C-1.09111328 7.29814453 -1.09433594 6.39902344 -1.09765625 5.47265625 C-1.10289307 4.64000244 -1.10812988 3.80734863 -1.11352539 2.94946289 C-1 1 -1 1 0 0 Z " fill="#1D1D1E" transform="translate(107,69)"/>
<path d="M0 0 C3.3 0 6.6 0 10 0 C10 6.93 10 13.86 10 21 C6.7 21 3.4 21 0 21 C0 14.07 0 7.14 0 0 Z " fill="#221F1C" transform="translate(155,69)"/>
<path d="M0 0 C0 1.32 0 2.64 0 4 C4.455 3.505 4.455 3.505 9 3 C8.67 3.99 8.34 4.98 8 6 C11.3 5.67 14.6 5.34 18 5 C18 6.98 18 8.96 18 11 C6.78 11 -4.44 11 -16 11 C-15.67 9.35 -15.34 7.7 -15 6 C-14.34 6.33 -13.68 6.66 -13 7 C-13.33 7.66 -13.66 8.32 -14 9 C-12.68 9 -11.36 9 -10 9 C-10 8.34 -10 7.68 -10 7 C-9.34 7 -8.68 7 -8 7 C-7.731875 6.401875 -7.46375 5.80375 -7.1875 5.1875 C-5.24288471 1.60531394 -4.204264 0 0 0 Z " fill="#D4C5AA" transform="translate(129,89)"/>
<path d="M0 0 C3.3 0 6.6 0 10 0 C10 1.32 10 2.64 10 4 C12.64 4 15.28 4 18 4 C18 2.68 18 1.36 18 0 C21.3 0 24.6 0 28 0 C28 1.32 28 2.64 28 4 C30.475 4.495 30.475 4.495 33 5 C32.67 6.32 32.34 7.64 32 9 C30.68 9 29.36 9 28 9 C28 7.68 28 6.36 28 5 C24.7 5 21.4 5 18 5 C18 6.32 18 7.64 18 9 C15.36 9 12.72 9 10 9 C10 7.68 10 6.36 10 5 C8.35 5 6.7 5 5 5 C5 5.99 5 6.98 5 8 C2.03 8 -0.94 8 -4 8 C-4 6.68 -4 5.36 -4 4 C-2.68 4 -1.36 4 0 4 C0 2.68 0 1.36 0 0 Z " fill="#65230F" transform="translate(123,144)"/>
<path d="M0 0 C1.32 0 2.64 0 4 0 C4 0.99 4 1.98 4 3 C8.95 3 13.9 3 19 3 C19 3.33 19 3.66 19 4 C17.35 4 15.7 4 14 4 C14 9.94 14 15.88 14 22 C11.03 22 8.06 22 5 22 C4.67 20.68 4.34 19.36 4 18 C6.97 18 9.94 18 13 18 C13 17.34 13 16.68 13 16 C10.03 16 7.06 16 4 16 C4.33 13.03 4.66 10.06 5 7 C4.34 7 3.68 7 3 7 C3 6.34 3 5.68 3 5 C2.01 5 1.02 5 0 5 C0 3.35 0 1.7 0 0 Z " fill="#685432" transform="translate(151,87)"/>
<path d="M0 0 C3.63 0 7.26 0 11 0 C11 1.65 11 3.3 11 5 C12.98 5 14.96 5 17 5 C17 6.98 17 8.96 17 11 C16.34 11 15.68 11 15 11 C15 13.31 15 15.62 15 18 C19.29 18 23.58 18 28 18 C28 18.33 28 18.66 28 19 C23.38 19 18.76 19 14 19 C14 17.68 14 16.36 14 15 C12.35 15 10.7 15 9 15 C9 11.7 9 8.4 9 5 C7.35 5 5.7 5 4 5 C4 7.97 4 10.94 4 14 C2.68 14 1.36 14 0 14 C0 9.38 0 4.76 0 0 Z " fill="#4E423A" transform="translate(142,25)"/>
<path d="M0 0 C5.28 0 10.56 0 16 0 C16 1.65 16 3.3 16 5 C17.65 5 19.3 5 21 5 C21 6.98 21 8.96 21 11 C19.35 11 17.7 11 16 11 C16 15.62 16 20.24 16 25 C17.32 25.33 18.64 25.66 20 26 C18.35 26 16.7 26 15 26 C15 21.05 15 16.1 15 11 C13.68 11 12.36 11 11 11 C11 9.02 11 7.04 11 5 C9.6696875 5.2784375 9.6696875 5.2784375 8.3125 5.5625 C5.14821189 5.98042484 3.05160358 5.80777742 0 5 C0 3.35 0 1.7 0 0 Z " fill="#816A62" transform="translate(126,14)"/>
<path d="M0 0 C0.28545428 8.13544686 -0.81603117 15.97649696 -2 24 C-3.65 24 -5.3 24 -7 24 C-7 17.07 -7 10.14 -7 3 C-8.65 3 -10.3 3 -12 3 C-12 2.67 -12 2.34 -12 2 C-10.37548581 1.66430703 -8.75037083 1.3315204 -7.125 1 C-6.22007812 0.814375 -5.31515625 0.62875 -4.3828125 0.4375 C-2 0 -2 0 0 0 Z " fill="#C7C8CC" transform="translate(172,66)"/>
<path d="M0 0 C11.88 0 23.76 0 36 0 C36 0.99 36 1.98 36 3 C38.97 3 41.94 3 45 3 C45 3.66 45 4.32 45 5 C33.94305724 5.1139891 23.02363628 4.91050683 12 4 C12 3.01 12 2.02 12 1 C10.35 1.33 8.7 1.66 7 2 C7 2.66 7 3.32 7 4 C5.68 4 4.36 4 3 4 C2.01 2.68 1.02 1.36 0 0 Z " fill="#997744" transform="translate(119,100)"/>
<path d="M0 0 C1.51400391 0.01740234 1.51400391 0.01740234 3.05859375 0.03515625 C4.07050781 0.04417969 5.08242187 0.05320312 6.125 0.0625 C7.29869141 0.07990234 7.29869141 0.07990234 8.49609375 0.09765625 C8.49609375 0.75765625 8.49609375 1.41765625 8.49609375 2.09765625 C6.51609375 2.09765625 4.53609375 2.09765625 2.49609375 2.09765625 C2.16609375 9.35765625 1.83609375 16.61765625 1.49609375 24.09765625 C-0.15390625 24.09765625 -1.80390625 24.09765625 -3.50390625 24.09765625 C-3.53277861 20.28517199 -3.55066117 16.47271555 -3.56640625 12.66015625 C-3.57478516 11.57154297 -3.58316406 10.48292969 -3.59179688 9.36132812 C-3.59501953 8.32685547 -3.59824219 7.29238281 -3.6015625 6.2265625 C-3.60679932 5.2682251 -3.61203613 4.3098877 -3.61743164 3.32250977 C-3.45521948 0.14350025 -3.19605698 0.12465121 0 0 Z " fill="#E4E4E8" transform="translate(104.50390625,65.90234375)"/>
<path d="M0 0 C6.6 0 13.2 0 20 0 C20 0.99 20 1.98 20 3 C18.35 3 16.7 3 15 3 C15 4.65 15 6.3 15 8 C13.35 8 11.7 8 10 8 C10 9.65 10 11.3 10 13 C8.35 13 6.7 13 5 13 C5 9.7 5 6.4 5 3 C3.35 3 1.7 3 0 3 C0 2.01 0 1.02 0 0 Z " fill="#090909" transform="translate(127,54)"/>
<path d="M0 0 C0.33 1.32 0.66 2.64 1 4 C13.87 4 26.74 4 40 4 C40 4.33 40 4.66 40 5 C27.46 5 14.92 5 2 5 C2 5.99 2 6.98 2 8 C-2.95 8 -7.9 8 -13 8 C-13 6.02 -13 4.04 -13 2 C-8.71 2 -4.42 2 0 2 C0 1.34 0 0.68 0 0 Z " fill="#918377" transform="translate(116,41)"/>
<path d="M0 0 C4.3958194 -0.02907584 8.79161399 -0.0468244 13.1875 -0.0625 C14.43337891 -0.07087891 15.67925781 -0.07925781 16.96289062 -0.08789062 C18.16494141 -0.09111328 19.36699219 -0.09433594 20.60546875 -0.09765625 C22.26292114 -0.10551147 22.26292114 -0.10551147 23.95385742 -0.11352539 C26.75799379 -0.00901923 29.27417329 0.35902041 32 1 C32 1.99 32 2.98 32 4 C27.97962032 4.19820989 23.95869488 4.3816467 19.9375 4.5625 C18.80376953 4.61857422 17.67003906 4.67464844 16.50195312 4.73242188 C10.84433079 4.97983976 5.56706777 5.09078977 0 4 C0 2.68 0 1.36 0 0 Z " fill="#C8A369" transform="translate(119,68)"/>
<path d="M0 0 C0.66 0 1.32 0 2 0 C2 5.61 2 11.22 2 17 C-0.64 17 -3.28 17 -6 17 C-6 12.71 -6 8.42 -6 4 C-4.35 4 -2.7 4 -1 4 C-0.67 2.68 -0.34 1.36 0 0 Z " fill="#403E40" transform="translate(139,109)"/>
<path d="M0 0 C1.98 0 3.96 0 6 0 C5.67 2.64 5.34 5.28 5 8 C6.65 8 8.3 8 10 8 C10 9.65 10 11.3 10 13 C8.35 13 6.7 13 5 13 C5 14.32 5 15.64 5 17 C3.35 17 1.7 17 0 17 C0 11.39 0 5.78 0 0 Z " fill="#2A2A2B" transform="translate(141,109)"/>
<path d="M0 0 C3.3 0 6.6 0 10 0 C10 1.65 10 3.3 10 5 C11.32 5 12.64 5 14 5 C14 3.35 14 1.7 14 0 C15.65 0 17.3 0 19 0 C19 1.98 19 3.96 19 6 C17.35 6 15.7 6 14 6 C14 6.66 14 7.32 14 8 C15.32 8.33 16.64 8.66 18 9 C9.57142857 10.28571429 9.57142857 10.28571429 5 9 C5 8.67 5 8.34 5 8 C6.98 8 8.96 8 11 8 C11 7.34 11 6.68 11 6 C6.545 6.495 6.545 6.495 2 7 C2 5.68 2 4.36 2 3 C1.34 3 0.68 3 0 3 C0 2.01 0 1.02 0 0 Z " fill="#80663E" transform="translate(127,86)"/>
<path d="M0 0 C0.33 0 0.66 0 1 0 C1 2.64 1 5.28 1 8 C2.65 8 4.3 8 6 8 C6 9.65 6 11.3 6 13 C4.35 13 2.7 13 1 13 C1 14.32 1 15.64 1 17 C2.65 17 4.3 17 6 17 C6.25 23.625 6.25 23.625 4 27 C3.34 27 2.68 27 2 27 C2 27.66 2 28.32 2 29 C0.68 29 -0.64 29 -2 29 C-1.67 27.35 -1.34 25.7 -1 24 C-0.01 24 0.98 24 2 24 C2 23.34 2 22.68 2 22 C0.02 22.33 -1.96 22.66 -4 23 C-3.505 21.515 -3.505 21.515 -3 20 C-2.01 20 -1.02 20 0 20 C0 13.4 0 6.8 0 0 Z " fill="#6E604C" transform="translate(117,69)"/>
<path d="M0 0 C3.3 0 6.6 0 10 0 C10 1.32 10 2.64 10 4 C11.32 4 12.64 4 14 4 C14 5.65 14 7.3 14 9 C9.38 9 4.76 9 0 9 C0 6.03 0 3.06 0 0 Z " fill="#896B3E" transform="translate(141,73)"/>
<path d="M0 0 C0 0.99 0 1.98 0 3 C4.95 3 9.9 3 15 3 C15 3.33 15 3.66 15 4 C13.35 4 11.7 4 10 4 C9.67 5.32 9.34 6.64 9 8 C8.34 7.34 7.68 6.68 7 6 C7.33 5.34 7.66 4.68 8 4 C5.69 4 3.38 4 1 4 C1.33 5.32 1.66 6.64 2 8 C-3.61 8 -9.22 8 -15 8 C-14.34 6.68 -13.68 5.36 -13 4 C-10.32209537 3.16113831 -7.8262059 3.18233586 -5 3 C-5 2.34 -5 1.68 -5 1 C-3 0 -3 0 0 0 Z " fill="#534328" transform="translate(131,101)"/>
<path d="M0 0 C1.32 0 2.64 0 4 0 C4 0.99 4 1.98 4 3 C5.65 3 7.3 3 9 3 C9 6.3 9 9.6 9 13 C5.7 13 2.4 13 -1 13 C-0.67 8.71 -0.34 4.42 0 0 Z " fill="#363738" transform="translate(123,54)"/>
<path d="M0 0 C1.65 0 3.3 0 5 0 C5 5.61 5 11.22 5 17 C3.35 17 1.7 17 0 17 C-0.33 14.03 -0.66 11.06 -1 8 C-2.32 7.67 -3.64 7.34 -5 7 C-5 5.68 -5 4.36 -5 3 C-3.35 3 -1.7 3 0 3 C0 2.01 0 1.02 0 0 Z " fill="#4B4C50" transform="translate(118,46)"/>
<path d="M0 0 C3.3 0 6.6 0 10 0 C10 1.65 10 3.3 10 5 C7.0339853 5.85609898 4.40606053 6.12199467 1.32324219 6.11352539 C0.40258972 6.11344986 -0.51806274 6.11337433 -1.46661377 6.11329651 C-2.45216248 6.10813522 -3.43771118 6.10297394 -4.453125 6.09765625 C-5.46848328 6.0962413 -6.48384155 6.09482635 -7.52996826 6.09336853 C-10.77000892 6.08777516 -14.00998025 6.07522385 -17.25 6.0625 C-19.44791567 6.05748414 -21.64583242 6.05292139 -23.84375 6.04882812 C-29.22919029 6.0378079 -34.61459019 6.02107633 -40 6 C-40 5.67 -40 5.34 -40 5 C-26.8 5 -13.6 5 0 5 C0 3.35 0 1.7 0 0 Z " fill="#635346" transform="translate(160,62)"/>
<path d="M0 0 C2.475 0.495 2.475 0.495 5 1 C5 6.94 5 12.88 5 19 C3.35 19 1.7 19 0 19 C0 12.73 0 6.46 0 0 Z " fill="#070707" transform="translate(156,70)"/>
<path d="M0 0 C3.3 0 6.6 0 10 0 C10 1.32 10 2.64 10 4 C11.65 4 13.3 4 15 4 C15 5.65 15 7.3 15 9 C11.7 9 8.4 9 5 9 C5 7.35 5 5.7 5 4 C3.35 4 1.7 4 0 4 C0 2.68 0 1.36 0 0 Z " fill="#CF3605" transform="translate(141,149)"/>
<path d="M0 0 C1.65 0 3.3 0 5 0 C5 2.31 5 4.62 5 7 C3.35 7 1.7 7 0 7 C0 8.32 0 9.64 0 11 C-1.98 11 -3.96 11 -6 11 C-6 8.03 -6 5.06 -6 2 C-4.02 2 -2.04 2 0 2 C0 1.34 0 0.68 0 0 Z " fill="#4F4D4F" transform="translate(123,110)"/>
<path d="M0 0 C3.3 0 6.6 0 10 0 C10 1.65 10 3.3 10 5 C8.35 5 6.7 5 5 5 C5 5.99 5 6.98 5 8 C2.03 8 -0.94 8 -4 8 C-4 6.68 -4 5.36 -4 4 C-2.68 4 -1.36 4 0 4 C0 2.68 0 1.36 0 0 Z " fill="#7D290F" transform="translate(123,144)"/>
<path d="M0 0 C1.32 0 2.64 0 4 0 C4 0.99 4 1.98 4 3 C5.65 3 7.3 3 9 3 C9 6.3 9 9.6 9 13 C7.68 13 6.36 13 5 13 C5 11.02 5 9.04 5 7 C4.34 7 3.68 7 3 7 C3 6.34 3 5.68 3 5 C2.01 5 1.02 5 0 5 C0 3.35 0 1.7 0 0 Z " fill="#746240" transform="translate(151,87)"/>
<path d="M0 0 C1.98 0 3.96 0 6 0 C6 1.65 6 3.3 6 5 C5.34 5 4.68 5 4 5 C4 7.97 4 10.94 4 14 C2.68 14 1.36 14 0 14 C0 9.38 0 4.76 0 0 Z " fill="#182E51" transform="translate(142,25)"/>
<path d="M0 0 C1.98 0 3.96 0 6 0 C6 4.62 6 9.24 6 14 C4.68 14 3.36 14 2 14 C2 11.03 2 8.06 2 5 C1.34 5 0.68 5 0 5 C0 3.35 0 1.7 0 0 Z " fill="#182E51" transform="translate(125,25)"/>
<path d="M0 0 C3.3 0 6.6 0 10 0 C10 1.32 10 2.64 10 4 C8.35 4 6.7 4 5 4 C5 5.65 5 7.3 5 9 C3.35 9 1.7 9 0 9 C0 6.03 0 3.06 0 0 Z " fill="#141414" transform="translate(132,58)"/>
<path d="M0 0 C0.66 0 1.32 0 2 0 C2 1.98 2 3.96 2 6 C-2.95 6 -7.9 6 -13 6 C-13 4.68 -13 3.36 -13 2 C-8.71 2 -4.42 2 0 2 C0 1.34 0 0.68 0 0 Z " fill="#B23711" transform="translate(170,52)"/>
<path d="M0 0 C1.65 0 3.3 0 5 0 C4.67 0.99 4.34 1.98 4 3 C5.98 2.67 7.96 2.34 10 2 C10 2.66 10 3.32 10 4 C9.01 4 8.02 4 7 4 C7 4.66 7 5.32 7 6 C6.01 6.495 6.01 6.495 5 7 C4.34786708 9.02463255 4.34786708 9.02463255 4 11 C2.68 11 1.36 11 0 11 C0 7.37 0 3.74 0 0 Z " fill="#6B5B40" transform="translate(109,89)"/>
<path d="M0 0 C1.98 0 3.96 0 6 0 C6 0.66 6 1.32 6 2 C6.66 2 7.32 2 8 2 C8 3.98 8 5.96 8 8 C5.36 8 2.72 8 0 8 C0 5.36 0 2.72 0 0 Z " fill="#BCA67F" transform="translate(148,92)"/>
<path d="M0 0 C4.95 0 9.9 0 15 0 C13.68 0.33 12.36 0.66 11 1 C11 2.32 11 3.64 11 5 C9.35492782 5.19406478 7.70890406 5.38007935 6.0625 5.5625 C4.68771484 5.71912109 4.68771484 5.71912109 3.28515625 5.87890625 C2.53105469 5.91886719 1.77695313 5.95882812 1 6 C0.67 5.67 0.34 5.34 0 5 C0 3.35 0 1.7 0 0 Z " fill="#2A1F1B" transform="translate(102,57)"/>
<path d="M0 0 C3.3 0 6.6 0 10 0 C10 1.98 10 3.96 10 6 C6.7 6 3.4 6 0 6 C0 4.02 0 2.04 0 0 Z " fill="#B4945B" transform="translate(103,43)"/>
<path d="M0 0 C6.27 0 12.54 0 19 0 C19 0.99 19 1.98 19 3 C12.73 3 6.46 3 0 3 C0 2.01 0 1.02 0 0 Z " fill="#756344" transform="translate(127,46)"/>
<path d="M0 0 C2.97 0 5.94 0 9 0 C9 1.32 9 2.64 9 4 C7.68 4 6.36 4 5 4 C5 5.32 5 6.64 5 8 C3.35 8 1.7 8 0 8 C0 5.36 0 2.72 0 0 Z " fill="#48494D" transform="translate(146,46)"/>
<path d="M0 0 C1.98 0 3.96 0 6 0 C6 2.97 6 5.94 6 9 C4.02 9 2.04 9 0 9 C0 6.03 0 3.06 0 0 Z " fill="#4F4D4F" transform="translate(151,113)"/>
<path d="M0 0 C4.95 0 9.9 0 15 0 C15 1.65 15 3.3 15 5 C11.04 4.67 7.08 4.34 3 4 C3 3.01 3 2.02 3 1 C2.01 0.67 1.02 0.34 0 0 Z " fill="#1E1F1F" transform="translate(157,58)"/>
<path d="M0 0 C1.65 0 3.3 0 5 0 C5 1.98 5 3.96 5 6 C3.35 6 1.7 6 0 6 C0 10.95 0 15.9 0 21 C-1.65 21 -3.3 21 -5 21 C-3.68 20.67 -2.36 20.34 -1 20 C-1.01160156 18.72382812 -1.02320313 17.44765625 -1.03515625 16.1328125 C-1.04453417 14.46354313 -1.05363437 12.79427217 -1.0625 11.125 C-1.07087891 10.28324219 -1.07925781 9.44148438 -1.08789062 8.57421875 C-1.09111328 7.76855469 -1.09433594 6.96289062 -1.09765625 6.1328125 C-1.10289307 5.38918457 -1.10812988 4.64555664 -1.11352539 3.87939453 C-1 2 -1 2 0 0 Z " fill="#564E4B" transform="translate(132,19)"/>
<path d="M0 0 C0.33 0 0.66 0 1 0 C1.125 6.625 1.125 6.625 0 10 C-2.97 10 -5.94 10 -9 10 C-9 8.35 -9 6.7 -9 5 C-6.03 5 -3.06 5 0 5 C0 3.35 0 1.7 0 0 Z " fill="#654D2B" transform="translate(170,44)"/>
<path d="M0 0 C3.3 0 6.6 0 10 0 C10 1.32 10 2.64 10 4 C11.32 4.33 12.64 4.66 14 5 C9.71 5 5.42 5 1 5 C0.67 3.35 0.34 1.7 0 0 Z " fill="#7F4F2B" transform="translate(103,49)"/>
<path d="M0 0 C0 3.3 0 6.6 0 10 C-0.66 10 -1.32 10 -2 10 C-2 9.34 -2 8.68 -2 8 C-3.65 8 -5.3 8 -7 8 C-6.62952882 5.25851328 -6.31412056 3.41406801 -4.625 1.1875 C-3 0 -3 0 0 0 Z " fill="#F3EEE6" transform="translate(129,89)"/>
<path d="M0 0 C3.3 0 6.6 0 10 0 C10 1.65 10 3.3 10 5 C6.7 5 3.4 5 0 5 C0 3.35 0 1.7 0 0 Z " fill="#775E36" transform="translate(127,77)"/>
<path d="M0 0 C0.66 0 1.32 0 2 0 C2 0.66 2 1.32 2 2 C6.29 2 10.58 2 15 2 C15 2.99 15 3.98 15 5 C10.05 5 5.1 5 0 5 C0 3.35 0 1.7 0 0 Z " fill="#D23503" transform="translate(102,52)"/>
<path d="M0 0 C2.31 0 4.62 0 7 0 C7 1.32 7 2.64 7 4 C6.01 4 5.02 4 4 4 C4 5.32 4 6.64 4 8 C2.35 8 0.7 8 -1 8 C-0.67 5.36 -0.34 2.72 0 0 Z " fill="#444345" transform="translate(147,109)"/>
<path d="M0 0 C0.33 0.99 0.66 1.98 1 3 C2.65 3 4.3 3 6 3 C6.33 3.99 6.66 4.98 7 6 C2.05 6 -2.9 6 -8 6 C-7.67 4.35 -7.34 2.7 -7 1 C-6.34 1.33 -5.68 1.66 -5 2 C-5.33 2.66 -5.66 3.32 -6 4 C-4.68 4 -3.36 4 -2 4 C-2 3.34 -2 2.68 -2 2 C-1.34 2 -0.68 2 0 2 C0 1.34 0 0.68 0 0 Z " fill="#C6B493" transform="translate(121,94)"/>
<path d="M0 0 C1.65 0 3.3 0 5 0 C5 1.32 5 2.64 5 4 C6.32 4 7.64 4 9 4 C9 5.65 9 7.3 9 9 C7.35 8.67 5.7 8.34 4 8 C4 7.01 4 6.02 4 5 C2.68 5 1.36 5 0 5 C0 3.35 0 1.7 0 0 Z " fill="#735A34" transform="translate(146,73)"/>
<path d="M0 0 C4.62 0 9.24 0 14 0 C14 0.33 14 0.66 14 1 C12.35 1 10.7 1 9 1 C9 3.64 9 6.28 9 9 C7.68 9 6.36 9 5 9 C5 6.36 5 3.72 5 1 C3.35 1 1.7 1 0 1 C0 0.67 0 0.34 0 0 Z " fill="#BA9A69" transform="translate(146,68)"/>
<path d="M0 0 C1.65 0 3.3 0 5 0 C5 2.97 5 5.94 5 9 C3.35 9 1.7 9 0 9 C0 6.03 0 3.06 0 0 Z " fill="#4C4B4D" transform="translate(151,54)"/>
<path d="M0 0 C1.65 0 3.3 0 5 0 C5 2.97 5 5.94 5 9 C3.35 9 1.7 9 0 9 C0 6.03 0 3.06 0 0 Z " fill="#4B4B4D" transform="translate(118,54)"/>
<path d="M0 0 C2.97 0 5.94 0 9 0 C9 1.65 9 3.3 9 5 C6.03 5 3.06 5 0 5 C0 3.35 0 1.7 0 0 Z " fill="#A6854F" transform="translate(161,44)"/>
<path d="M0 0 C2.31 0 4.62 0 7 0 C7 2.97 7 5.94 7 9 C5.68 9 4.36 9 3 9 C3 7.02 3 5.04 3 3 C2.34 3 1.68 3 1 3 C0.67 2.01 0.34 1.02 0 0 Z " fill="#443530" transform="translate(150,5)"/>
<path d="M0 0 C1.65 0 3.3 0 5 0 C5 2.97 5 5.94 5 9 C3.35 8.67 1.7 8.34 0 8 C0 5.36 0 2.72 0 0 Z " fill="#D13201" transform="translate(151,140)"/>
<path d="M0 0 C1.65 0 3.3 0 5 0 C5 2.31 5 4.62 5 7 C3.35 7 1.7 7 0 7 C0 5.68 0 4.36 0 3 C-1.98 3 -3.96 3 -6 3 C-6 2.67 -6 2.34 -6 2 C-4.02 2 -2.04 2 0 2 C0 1.34 0 0.68 0 0 Z " fill="#424142" transform="translate(123,110)"/>
<path d="M0 0 C2.97 0 5.94 0 9 0 C9 1.32 9 2.64 9 4 C4.545 4.495 4.545 4.495 0 5 C0 3.35 0 1.7 0 0 Z " fill="#F45522" transform="translate(161,63)"/>
<path d="M0 0 C3.3 0 6.6 0 10 0 C10 1.32 10 2.64 10 4 C6.7 4 3.4 4 0 4 C0 2.68 0 1.36 0 0 Z " fill="#201A19" transform="translate(141,144)"/>
<path d="M0 0 C3.3 0 6.6 0 10 0 C10 1.32 10 2.64 10 4 C6.7 4 3.4 4 0 4 C0 2.68 0 1.36 0 0 Z " fill="#231B19" transform="translate(123,144)"/>
<path d="M0 0 C1.32 0 2.64 0 4 0 C4 3.3 4 6.6 4 10 C2.68 10 1.36 10 0 10 C0 6.7 0 3.4 0 0 Z " fill="#FEFEFC" transform="translate(122,30)"/>
<path d="M0 0 C1.65 0 3.3 0 5 0 C5.33 2.31 5.66 4.62 6 7 C4.02 7 2.04 7 0 7 C0 4.69 0 2.38 0 0 Z " fill="#765C34" transform="translate(110,102)"/>
<path d="M0 0 C0 1.98 0 3.96 0 6 C-1.98 6 -3.96 6 -6 6 C-6 5.34 -6 4.68 -6 4 C-6.66 4 -7.32 4 -8 4 C-8 3.34 -8 2.68 -8 2 C-2.25 0 -2.25 0 0 0 Z " fill="#E8DFCF" transform="translate(147,94)"/>
<path d="M0 0 C2.97 0 5.94 0 9 0 C9 1.32 9 2.64 9 4 C6.03 4 3.06 4 0 4 C0 2.68 0 1.36 0 0 Z " fill="#EF4F1C" transform="translate(104,62)"/>
<path d="M0 0 C0.99 0 1.98 0 3 0 C3 0.66 3 1.32 3 2 C3.66 2 4.32 2 5 2 C5 3.98 5 5.96 5 8 C3.35 8 1.7 8 0 8 C0 5.36 0 2.72 0 0 Z " fill="#80645A" transform="translate(148,6)"/>
<path d="M0 0 C3.3 0 6.6 0 10 0 C10 0.33 10 0.66 10 1 C8.35 1 6.7 1 5 1 C5 2.65 5 4.3 5 6 C3.35 6 1.7 6 0 6 C0 4.02 0 2.04 0 0 Z " fill="#4F422C" transform="translate(160,90)"/>
<path d="M0 0 C0.33 0 0.66 0 1 0 C1 2.64 1 5.28 1 8 C-1.31 8 -3.62 8 -6 8 C-6 6.68 -6 5.36 -6 4 C-4.35 4 -2.7 4 -1 4 C-0.67 2.68 -0.34 1.36 0 0 Z " fill="#474749" transform="translate(139,109)"/>
<path d="M0 0 C1.98 0 3.96 0 6 0 C6 1.98 6 3.96 6 6 C3.03 5.505 3.03 5.505 0 5 C0 3.35 0 1.7 0 0 Z " fill="#342B27" transform="translate(153,30)"/>
<path d="M0 0 C2.64 0 5.28 0 8 0 C8 1.32 8 2.64 8 4 C5.36 4 2.72 4 0 4 C0 2.68 0 1.36 0 0 Z " fill="#2A2A2B" transform="translate(133,126)"/>
<path d="M0 0 C-0.33 1.32 -0.66 2.64 -1 4 C-3.64 4 -6.28 4 -9 4 C-8.1875 2.0625 -8.1875 2.0625 -7 0 C-3.86650268 -1.04449911 -3.01031744 -0.93423645 0 0 Z " fill="#504027" transform="translate(125,105)"/>
<path d="M0 0 C0 1.98 0 3.96 0 6 C-1.98 6 -3.96 6 -6 6 C-6 4.35 -6 2.7 -6 1 C-3.92446352 0.4465236 -2.15634036 0 0 0 Z " fill="#80645A" transform="translate(159,13)"/>
<path d="M0 0 C1.65 0 3.3 0 5 0 C5 1.65 5 3.3 5 5 C1.7 5 -1.6 5 -5 5 C-5 4.67 -5 4.34 -5 4 C-3.35 4 -1.7 4 0 4 C0 2.68 0 1.36 0 0 Z " fill="#8B2403" transform="translate(151,153)"/>
<path d="M0 0 C1.98 0 3.96 0 6 0 C6 1.65 6 3.3 6 5 C4.02 5 2.04 5 0 5 C0 3.35 0 1.7 0 0 Z " fill="#2A2A2B" transform="translate(117,121)"/>
<path d="M0 0 C1.98 0 3.96 0 6 0 C6 1.65 6 3.3 6 5 C4.02 5 2.04 5 0 5 C0 3.35 0 1.7 0 0 Z " fill="#080707" transform="translate(142,25)"/>
<path d="M0 0 C1.98 0 3.96 0 6 0 C6 1.65 6 3.3 6 5 C4.02 5 2.04 5 0 5 C0 3.35 0 1.7 0 0 Z " fill="#090707" transform="translate(125,25)"/>
<path d="M0 0 C1.98 0 3.96 0 6 0 C6 1.65 6 3.3 6 5 C4.02 5 2.04 5 0 5 C0 3.35 0 1.7 0 0 Z " fill="#13974D" transform="translate(153,25)"/>
<path d="M0 0 C1.98 0 3.96 0 6 0 C6 1.65 6 3.3 6 5 C4.02 5 2.04 5 0 5 C0 3.35 0 1.7 0 0 Z " fill="#433631" transform="translate(153,19)"/>
<path d="M0 0 C1.65 0 3.3 0 5 0 C5 1.98 5 3.96 5 6 C3.35 6 1.7 6 0 6 C0 4.02 0 2.04 0 0 Z " fill="#615248" transform="translate(142,19)"/>
<path d="M0 0 C1.65 0 3.3 0 5 0 C5 1.98 5 3.96 5 6 C3.35 6 1.7 6 0 6 C0 4.02 0 2.04 0 0 Z " fill="#21B561" transform="translate(137,8)"/>
<path d="M0 0 C0.33 0 0.66 0 1 0 C1.33 2.64 1.66 5.28 2 8 C0.35 8 -1.3 8 -3 8 C-3 6.02 -3 4.04 -3 2 C-2.01 2 -1.02 2 0 2 C0 1.34 0 0.68 0 0 Z " fill="#6A6B6D" transform="translate(116,41)"/>
<path d="M0 0 C4.95 0 9.9 0 15 0 C15 0.33 15 0.66 15 1 C13.35 1 11.7 1 10 1 C9.67 2.32 9.34 3.64 9 5 C8.34 4.34 7.68 3.68 7 3 C7.33 2.34 7.66 1.68 8 1 C5.69 1 3.38 1 1 1 C1.33 2.32 1.66 3.64 2 5 C1.34 5 0.68 5 0 5 C0 3.35 0 1.7 0 0 Z " fill="#634E2E" transform="translate(131,104)"/>
<path d="M0 0 C2.64 0 5.28 0 8 0 C8 1.32 8 2.64 8 4 C6.02 4 4.04 4 2 4 C2 3.34 2 2.68 2 2 C1.34 2 0.68 2 0 2 C0 1.34 0 0.68 0 0 Z " fill="#6D5430" transform="translate(128,87)"/>
<path d="M0 0 C1.98 0 3.96 0 6 0 C6 1.65 6 3.3 6 5 C4.35 5 2.7 5 1 5 C0.67 3.35 0.34 1.7 0 0 Z " fill="#83675D" transform="translate(136,3)"/>
<path d="M0 0 C2.97 0 5.94 0 9 0 C9 0.99 9 1.98 9 3 C6.03 3 3.06 3 0 3 C0 2.01 0 1.02 0 0 Z " fill="#CF3302" transform="translate(157,54)"/>
<path d="M0 0 C0.99 0 1.98 0 3 0 C3 2.97 3 5.94 3 9 C2.01 9 1.02 9 0 9 C0 6.03 0 3.06 0 0 Z " fill="#FFFEFC" transform="translate(147,31)"/>
<path d="M0 0 C2.31 0 4.62 0 7 0 C7 1.32 7 2.64 7 4 C5.02 4 3.04 4 1 4 C0.67 2.68 0.34 1.36 0 0 Z " fill="#453822" transform="translate(132,105)"/>
<path d="M0 0 C1.65 0 3.3 0 5 0 C5 1.65 5 3.3 5 5 C3.35 5 1.7 5 0 5 C0 3.35 0 1.7 0 0 Z " fill="#BD3105" transform="translate(118,152)"/>
<path d="M0 0 C0.99 0.33 1.98 0.66 3 1 C2.67 2.65 2.34 4.3 2 6 C0.35 6 -1.3 6 -3 6 C-3 3 -3 3 -1.5 1.3125 C-0.7575 0.6628125 -0.7575 0.6628125 0 0 Z " fill="#D3C2A4" transform="translate(126,89)"/>
<path d="M0 0 C1.65 0 3.3 0 5 0 C5 1.65 5 3.3 5 5 C3.35 5 1.7 5 0 5 C0 3.35 0 1.7 0 0 Z " fill="#8C6F40" transform="translate(127,77)"/>
<path d="M0 0 C1.65 0 3.3 0 5 0 C5 1.65 5 3.3 5 5 C3.35 5 1.7 5 0 5 C0 3.35 0 1.7 0 0 Z " fill="#896D42" transform="translate(118,77)"/>
<path d="M0 0 C1.65 0 3.3 0 5 0 C5 1.65 5 3.3 5 5 C3.35 5 1.7 5 0 5 C0 3.35 0 1.7 0 0 Z " fill="#676464" transform="translate(156,44)"/>
<path d="M0 0 C1.65 0 3.3 0 5 0 C5 1.65 5 3.3 5 5 C3.35 5 1.7 5 0 5 C0 3.35 0 1.7 0 0 Z " fill="#362C28" transform="translate(148,25)"/>
<path d="M0 0 C1.65 0 3.3 0 5 0 C5 1.65 5 3.3 5 5 C3.35 5 1.7 5 0 5 C0 3.35 0 1.7 0 0 Z " fill="#15954C" transform="translate(148,19)"/>
<path d="M0 0 C1.65 0 3.3 0 5 0 C5 1.65 5 3.3 5 5 C3.35 5 1.7 5 0 5 C0 3.35 0 1.7 0 0 Z " fill="#413530" transform="translate(148,14)"/>
<path d="M0 0 C1.65 0 3.3 0 5 0 C5 1.65 5 3.3 5 5 C3.35 5 1.7 5 0 5 C0 3.35 0 1.7 0 0 Z " fill="#1CBA61" transform="translate(142,14)"/>
<path d="M0 0 C1.98 0 3.96 0 6 0 C6 1.32 6 2.64 6 4 C4.02 4 2.04 4 0 4 C0 2.68 0 1.36 0 0 Z " fill="#2A2A2B" transform="translate(151,122)"/>
<path d="M0 0 C1.98 0 3.96 0 6 0 C6 0.66 6 1.32 6 2 C4.68 2 3.36 2 2 2 C2 3.98 2 5.96 2 8 C1.34 8 0.68 8 0 8 C0 5.36 0 2.72 0 0 Z " fill="#EAE2D5" transform="translate(148,92)"/>
<path d="M0 0 C1.65 0 3.3 0 5 0 C4.67 1.65 4.34 3.3 4 5 C2.68 5 1.36 5 0 5 C0 3.35 0 1.7 0 0 Z " fill="#725630" transform="translate(161,49)"/>
<path d="M0 0 C1.98 0 3.96 0 6 0 C6 1.32 6 2.64 6 4 C4.35 4 2.7 4 1 4 C0.67 2.68 0.34 1.36 0 0 Z " fill="#1F1F22" transform="translate(141,109)"/>
<path d="M0 0 C1.65 0 3.3 0 5 0 C5.33 1.65 5.66 3.3 6 5 C4.68 5.33 3.36 5.66 2 6 C2 5.34 2 4.68 2 4 C2.99 4 3.98 4 5 4 C5 3.34 5 2.68 5 2 C3.02 2.33 1.04 2.66 -1 3 C-0.67 2.01 -0.34 1.02 0 0 Z " fill="#D5D1CB" transform="translate(114,89)"/>
<path d="M0 0 C1.98 0 3.96 0 6 0 C5.67 1.32 5.34 2.64 5 4 C3.35 4 1.7 4 0 4 C0 2.68 0 1.36 0 0 Z " fill="#313338" transform="translate(133,109)"/>
<path d="M0 0 C0.66 0 1.32 0 2 0 C2 0.66 2 1.32 2 2 C3.32 2 4.64 2 6 2 C6 2.99 6 3.98 6 5 C4.02 5 2.04 5 0 5 C0 3.35 0 1.7 0 0 Z " fill="#BF3305" transform="translate(102,52)"/>
<path d="M0 0 C1.65 0 3.3 0 5 0 C4.67 1.65 4.34 3.3 4 5 C2.68 5 1.36 5 0 5 C0 3.35 0 1.7 0 0 Z " fill="#786547" transform="translate(109,95)"/>
<path d="M0 0 C1.32 0 2.64 0 4 0 C4 0.99 4 1.98 4 3 C5.65 3 7.3 3 9 3 C9 3.33 9 3.66 9 4 C6.03 4 3.06 4 0 4 C0 2.68 0 1.36 0 0 Z " fill="#6A5432" transform="translate(151,87)"/>
<path d="M0 0 C1.65 0 3.3 0 5 0 C5 1.65 5 3.3 5 5 C3.68 5 2.36 5 1 5 C0.67 3.35 0.34 1.7 0 0 Z " fill="#CAA569" transform="translate(103,43)"/>
<path d="M0 0 C3.63 0 7.26 0 11 0 C11 0.33 11 0.66 11 1 C8.36 1 5.72 1 3 1 C3 1.99 3 2.98 3 4 C2.01 4 1.02 4 0 4 C0 2.68 0 1.36 0 0 Z " fill="#242322" transform="translate(154,109)"/>
<path d="M0 0 C1.98 0 3.96 0 6 0 C6 0.99 6 1.98 6 3 C4.02 3.33 2.04 3.66 0 4 C0 2.68 0 1.36 0 0 Z " fill="#3C3A3B" transform="translate(148,109)"/>
<path d="M0 0 C1.65 0 3.3 0 5 0 C5 1.32 5 2.64 5 4 C3.35 4 1.7 4 0 4 C0 2.68 0 1.36 0 0 Z " fill="#39393A" transform="translate(137,63)"/>
<path d="M0 0 C1.65 0 3.3 0 5 0 C5 1.32 5 2.64 5 4 C3.35 4 1.7 4 0 4 C0 2.68 0 1.36 0 0 Z " fill="#5E5E61" transform="translate(151,50)"/>
<path d="M0 0 C1.65 0 3.3 0 5 0 C5 1.32 5 2.64 5 4 C3.35 4 1.7 4 0 4 C0 2.68 0 1.36 0 0 Z " fill="#5D5D60" transform="translate(118,50)"/>
<path d="M0 0 C1.32 0 2.64 0 4 0 C4 1.32 4 2.64 4 4 C2.35 4 0.7 4 -1 4 C-0.67 2.68 -0.34 1.36 0 0 Z " fill="#D53300" transform="translate(142,139)"/>
<path d="M0 0 C1.65 0 3.3 0 5 0 C5 1.32 5 2.64 5 4 C3.35 3.67 1.7 3.34 0 3 C0 2.01 0 1.02 0 0 Z " fill="#84673B" transform="translate(103,49)"/>
<path d="M0 0 C1.98 0 3.96 0 6 0 C6 0.99 6 1.98 6 3 C4.02 3 2.04 3 0 3 C0 2.01 0 1.02 0 0 Z " fill="#151516" transform="translate(134,149)"/>
<path d="M0 0 C0.33 0 0.66 0 1 0 C1 1.65 1 3.3 1 5 C0.34 5 -0.32 5 -1 5 C-1 5.66 -1 6.32 -1 7 C-2.32 7 -3.64 7 -5 7 C-4.67 6.01 -4.34 5.02 -4 4 C-3.01 3.67 -2.02 3.34 -1 3 C-0.67 2.01 -0.34 1.02 0 0 Z " fill="#9D8B6B" transform="translate(120,91)"/>
<path d="M0 0 C1.65 0 3.3 0 5 0 C4.67 1.32 4.34 2.64 4 4 C2.68 4 1.36 4 0 4 C0 2.68 0 1.36 0 0 Z " fill="#1F1918" transform="translate(151,149)"/>
</svg>
