<?xml version="1.0" encoding="UTF-8"?>
<svg version="1.1" xmlns="http://www.w3.org/2000/svg" width="280" height="160">
<path d="M0 0 C0.495 1.98 0.495 1.98 1 4 C1.9590625 3.7215625 1.9590625 3.7215625 2.9375 3.4375 C3.618125 3.293125 4.29875 3.14875 5 3 C6 4 6 4 6.0625 6.5625 C6.041875 7.366875 6.02125 8.17125 6 9 C5.34 9.33 4.68 9.66 4 10 C3.34444881 12.52733235 3.34444881 12.52733235 3 15 C1.92878906 15.26554688 0.85757813 15.53109375 -0.24609375 15.8046875 C-1.64333805 16.16103168 -3.04046764 16.51782582 -4.4375 16.875 C-5.14455078 17.04902344 -5.85160156 17.22304688 -6.58007812 17.40234375 C-8.40368957 17.87351608 -10.20443229 18.43123057 -12 19 C-12.33 19.66 -12.66 20.32 -13 21 C-12.195625 21.12375 -11.39125 21.2475 -10.5625 21.375 C-9.2940625 21.684375 -9.2940625 21.684375 -8 22 C-7.505 22.99 -7.505 22.99 -7 24 C-5.68 24 -4.36 24 -3 24 C-3 25.32 -3 26.64 -3 28 C-1.35 28 0.3 28 2 28 C2.495 28.99 2.495 28.99 3 30 C4.64363134 30.72159424 6.31050386 31.39351421 8 32 C8 32.66 8 33.32 8 34 C8.763125 33.938125 9.52625 33.87625 10.3125 33.8125 C13.47780368 34.03333514 13.98486217 34.69698534 16 37 C16.66 37 17.32 37 18 37 C18.33 37.99 18.66 38.98 19 40 C21.01508358 40.73323796 21.01508358 40.73323796 23 41 C23.495 42.98 23.495 42.98 24 45 C25.65 44.67 27.3 44.34 29 44 C30.17571451 47.67410785 30.07366746 51.16929183 30 55 C26.52674819 56.1577506 23.63932552 56.06866652 20 56 C20 54.68 20 53.36 20 52 C17.17838705 51.91875052 17.17838705 51.91875052 14 53 C11.85362183 55.23244285 10.33519314 57.78817258 8.75 60.4375 C7.89224298 61.81220879 7.0329331 63.1859502 6.171875 64.55859375 C5.8015918 65.17017334 5.43130859 65.78175293 5.04980469 66.41186523 C3.20730268 69.19918513 2.29464865 69.93864642 -1.0390625 70.6328125 C-2.22242187 70.79523438 -3.40578125 70.95765625 -4.625 71.125 C-5.81351562 71.29257813 -7.00203125 71.46015625 -8.2265625 71.6328125 C-9.14179687 71.75398438 -10.05703125 71.87515625 -11 72 C-11.66 75.3 -12.32 78.6 -13 82 C-12.34 82 -11.68 82 -11 82 C-11.03222656 83.31613281 -11.06445312 84.63226563 -11.09765625 85.98828125 C-11.11634646 96.32495089 -10.84241592 103.03762482 -3.234375 110.73046875 C-0.05421574 113.96066548 3 118.30193807 3 123 C4.485 123.495 4.485 123.495 6 124 C8.22574635 127.28489461 9.79140795 130.85274371 10.5 134.75 C11.16902429 137.76060932 12.71784685 139.01231823 15 141 C12.16796875 146.078125 12.16796875 146.078125 11 148 C10.58105469 148.70125 10.16210938 149.4025 9.73046875 150.125 C7.40349405 152.64632698 5.44692927 153.00442984 2.125 153.75 C1.09632813 153.99234375 0.06765625 154.2346875 -0.9921875 154.484375 C-3.73911727 154.95527725 -6.22185911 155.10251442 -9 155 C-9.268125 154.071875 -9.53625 153.14375 -9.8125 152.1875 C-10.99310198 149.01851573 -11.67753797 148.23313656 -14 146 C-16.30584803 142.36654249 -17.84077906 139.60503959 -18.9375 135.4375 C-20.24030385 131.22254636 -22.02719674 129.20749825 -25 126 C-27.46679616 128.28407052 -29.41985081 130.5770431 -31.25 133.375 C-34.1417441 137.46058341 -37.44330517 140.81780303 -42 143 C-44.91584762 143.14861086 -47.10961401 142.64784513 -50 142 C-50.66 142.33 -51.32 142.66 -52 143 C-53.89213403 142.59373098 -55.76666849 142.10271265 -57.625 141.5625 C-58.62789062 141.27503906 -59.63078125 140.98757812 -60.6640625 140.69140625 C-61.43492188 140.46324219 -62.20578125 140.23507813 -63 140 C-63 139.34 -63 138.68 -63 138 C-63.598125 138.185625 -64.19625 138.37125 -64.8125 138.5625 C-67 139 -67 139 -70 138 C-72.16627494 132.53211326 -72.01235894 125.68081674 -71 120 C-68.52994317 116.66621328 -65.81646918 114.61395994 -62 113 C-59.19921875 112.8359375 -59.19921875 112.8359375 -57 113 C-57 113.66 -57 114.32 -57 115 C-55.9171875 114.7215625 -55.9171875 114.7215625 -54.8125 114.4375 C-51.85580541 113.97756973 -49.88750224 114.34485243 -47 115 C-47.67673576 108.10588996 -47.67673576 108.10588996 -51.5625 102.75 C-52.366875 102.1725 -53.17125 101.595 -54 101 C-55.35087971 96.42779175 -55.08162287 91.73412625 -55 87 C-54.34 87 -53.68 87 -53 87 C-53.33 86.01 -53.66 85.02 -54 84 C-54.66 83.67 -55.32 83.34 -56 83 C-56 79.7 -56 76.4 -56 73 C-55.34 73 -54.68 73 -54 73 C-54.96679818 68.99132463 -55.9808621 64.99566764 -57 61 C-57.18755859 60.24009766 -57.37511719 59.48019531 -57.56835938 58.69726562 C-58.1752328 56.25209599 -58.80457186 53.81354163 -59.4375 51.375 C-59.72693481 50.18414795 -59.72693481 50.18414795 -60.0222168 48.96923828 C-60.65459182 46.43818391 -60.65459182 46.43818391 -62 43 C-64.01988129 41.81518677 -64.01988129 41.81518677 -66 41 C-66.828125 38.3984375 -66.828125 38.3984375 -67.25 35.375 C-67.39953125 34.37210938 -67.5490625 33.36921875 -67.703125 32.3359375 C-67.80109375 31.56507812 -67.8990625 30.79421875 -68 30 C-64.94152152 29.45627049 -62.11227195 29 -59 29 C-57.10743944 28.45332195 -55.23303622 27.84197978 -53.375 27.1875 C-51.90160156 26.68283203 -51.90160156 26.68283203 -50.3984375 26.16796875 C-49.60695313 25.78253906 -48.81546875 25.39710937 -48 25 C-47.67 24.01 -47.34 23.02 -47 22 C-46.01 22.309375 -46.01 22.309375 -45 22.625 C-40.90369892 23.13703763 -37.95764021 22.14033701 -34 21 C-34.495 17.04 -34.495 17.04 -35 13 C-33.56445975 12.49440092 -32.1264798 11.9957251 -30.6875 11.5 C-29.88699219 11.2215625 -29.08648437 10.943125 -28.26171875 10.65625 C-26 10 -26 10 -23 10 C-23.495 8.02 -23.495 8.02 -24 6 C-21.36949145 4.24632763 -20.06925023 3.61808596 -17.12890625 2.9296875 C-16.38962891 2.75566406 -15.65035156 2.58164062 -14.88867188 2.40234375 C-14.12103516 2.22832031 -13.35339844 2.05429687 -12.5625 1.875 C-11.4168457 1.60236328 -11.4168457 1.60236328 -10.24804688 1.32421875 C-6.65451323 0.49229538 -3.73619355 0 0 0 Z M-4 39 C-4.33 40.65 -4.66 42.3 -5 44 C-4.01 43.67 -3.02 43.34 -2 43 C-1.26676204 40.98491642 -1.26676204 40.98491642 -1 39 C-1.99 39 -2.98 39 -4 39 Z " fill="#1A1716" transform="translate(130,0)"/>
<path d="M0 0 C0.495 1.98 0.495 1.98 1 4 C1.9590625 3.7215625 1.9590625 3.7215625 2.9375 3.4375 C3.618125 3.293125 4.29875 3.14875 5 3 C6 4 6 4 6.0625 6.5625 C6.041875 7.366875 6.02125 8.17125 6 9 C5.34 9.33 4.68 9.66 4 10 C3.34444881 12.52733235 3.34444881 12.52733235 3 15 C1.92878906 15.26554688 0.85757813 15.53109375 -0.24609375 15.8046875 C-1.64333805 16.16103168 -3.04046764 16.51782582 -4.4375 16.875 C-5.14455078 17.04902344 -5.85160156 17.22304688 -6.58007812 17.40234375 C-8.40368957 17.87351608 -10.20443229 18.43123057 -12 19 C-12.33 19.66 -12.66 20.32 -13 21 C-12.195625 21.12375 -11.39125 21.2475 -10.5625 21.375 C-9.2940625 21.684375 -9.2940625 21.684375 -8 22 C-7.505 22.99 -7.505 22.99 -7 24 C-5.68 24 -4.36 24 -3 24 C-3 25.32 -3 26.64 -3 28 C-1.35 28 0.3 28 2 28 C2.495 28.99 2.495 28.99 3 30 C4.64363134 30.72159424 6.31050386 31.39351421 8 32 C8 32.66 8 33.32 8 34 C8.763125 33.938125 9.52625 33.87625 10.3125 33.8125 C13.47780368 34.03333514 13.98486217 34.69698534 16 37 C16.66 37 17.32 37 18 37 C18.33 37.99 18.66 38.98 19 40 C21.01508358 40.73323796 21.01508358 40.73323796 23 41 C23.495 42.98 23.495 42.98 24 45 C25.65 44.67 27.3 44.34 29 44 C30.17571451 47.67410785 30.07366746 51.16929183 30 55 C26.52674819 56.1577506 23.63932552 56.06866652 20 56 C20 54.68 20 53.36 20 52 C17.17502321 51.90799927 17.17502321 51.90799927 14 53 C11.8798756 55.28016201 10.37876079 57.88201936 8.8125 60.5625 C7.28224067 63.12376866 5.71342784 65.54929684 4 68 C1 68 1 68 -1.296875 65.8046875 C-2.10640625 64.83789062 -2.9159375 63.87109375 -3.75 62.875 C-4.56984375 61.92367187 -5.3896875 60.97234375 -6.234375 59.9921875 C-8 57 -8 57 -7.765625 53.6328125 C-7.38664062 52.32957031 -7.38664062 52.32957031 -7 51 C-7.66 51 -8.32 51 -9 51 C-9.66 49.68 -10.32 48.36 -11 47 C-11 48.98 -11 50.96 -11 53 C-11.66 53 -12.32 53 -13 53 C-13.99 49.04 -14.98 45.08 -16 41 C-16.99 41.495 -16.99 41.495 -18 42 C-18.20970559 46.14093698 -18.20970559 46.14093698 -17 50 C-16.960008 51.99960012 -16.95653201 54.00047242 -17 56 C-17.66 56 -18.32 56 -19 56 C-19.495 52.535 -19.495 52.535 -20 49 C-20.66 49 -21.32 49 -22 49 C-21.67 49.66 -21.34 50.32 -21 51 C-20.76811594 58.30434783 -20.76811594 58.30434783 -22 62 C-23.32 62 -24.64 62 -26 62 C-26.99 58.7 -27.98 55.4 -29 52 C-31.97 52 -34.94 52 -38 52 C-37.67 53.65 -37.34 55.3 -37 57 C-41.62 57.66 -46.24 58.32 -51 59 C-51 59.66 -51 60.32 -51 61 C-52.98 60.67 -54.96 60.34 -57 60 C-57.31453125 58.79601563 -57.6290625 57.59203125 -57.953125 56.3515625 C-58.38458037 54.77581244 -58.81691809 53.20030379 -59.25 51.625 C-59.45496094 50.8309375 -59.65992187 50.036875 -59.87109375 49.21875 C-60.19013672 48.07792969 -60.19013672 48.07792969 -60.515625 46.9140625 C-60.70415039 46.2123291 -60.89267578 45.5105957 -61.08691406 44.78759766 C-62.28281347 42.44632079 -63.66965153 42.09198782 -66 41 C-66.828125 38.3984375 -66.828125 38.3984375 -67.25 35.375 C-67.39953125 34.37210938 -67.5490625 33.36921875 -67.703125 32.3359375 C-67.80109375 31.56507812 -67.8990625 30.79421875 -68 30 C-64.94152152 29.45627049 -62.11227195 29 -59 29 C-57.10743944 28.45332195 -55.23303622 27.84197978 -53.375 27.1875 C-51.90160156 26.68283203 -51.90160156 26.68283203 -50.3984375 26.16796875 C-49.60695313 25.78253906 -48.81546875 25.39710937 -48 25 C-47.67 24.01 -47.34 23.02 -47 22 C-46.01 22.309375 -46.01 22.309375 -45 22.625 C-40.90369892 23.13703763 -37.95764021 22.14033701 -34 21 C-34.495 17.04 -34.495 17.04 -35 13 C-33.56445975 12.49440092 -32.1264798 11.9957251 -30.6875 11.5 C-29.88699219 11.2215625 -29.08648437 10.943125 -28.26171875 10.65625 C-26 10 -26 10 -23 10 C-23.495 8.02 -23.495 8.02 -24 6 C-21.36949145 4.24632763 -20.06925023 3.61808596 -17.12890625 2.9296875 C-16.38962891 2.75566406 -15.65035156 2.58164062 -14.88867188 2.40234375 C-14.12103516 2.22832031 -13.35339844 2.05429687 -12.5625 1.875 C-11.4168457 1.60236328 -11.4168457 1.60236328 -10.24804688 1.32421875 C-6.65451323 0.49229538 -3.73619355 0 0 0 Z M-4 39 C-4.33 40.65 -4.66 42.3 -5 44 C-4.01 43.67 -3.02 43.34 -2 43 C-1.26676204 40.98491642 -1.26676204 40.98491642 -1 39 C-1.99 39 -2.98 39 -4 39 Z " fill="#3B2F2B" transform="translate(130,0)"/>
<path d="M0 0 C2 1 2 1 3.125 4.25 C3.85463482 7.37700635 4.19234975 9.82622905 4 13 C4.66 13 5.32 13 6 13 C5.67 9.7 5.34 6.4 5 3 C8 7 8 7 8 11 C8.66 11 9.32 11 10 11 C9.86078125 12.30710937 9.86078125 12.30710937 9.71875 13.640625 C10.08290322 17.99023286 11.61892979 19.53102649 14.5 22.75 C19 27.83333333 19 27.83333333 19 30 C14.9472484 30.98248524 11.16138263 31.08159574 7 31 C6.34 27.04 5.68 23.08 5 19 C3.35 19.99 1.7 20.98 0 22 C-0.66 22 -1.32 22 -2 22 C-2 23.32 -2 24.64 -2 26 C-3.32 26.33 -4.64 26.66 -6 27 C-6 26.34 -6 25.68 -6 25 C-7.32 25 -8.64 25 -10 25 C-10 26.65 -10 28.3 -10 30 C-9.34 30 -8.68 30 -8 30 C-8 30.99 -8 31.98 -8 33 C-7.01 33 -6.02 33 -5 33 C-4.63282337 40.4659249 -4.63282337 40.4659249 -6.375 43 C-8 44 -8 44 -10 44 C-10 43.01 -10 42.02 -10 41 C-11.98 41.495 -11.98 41.495 -14 42 C-14 43.32 -14 44.64 -14 46 C-13.01 46 -12.02 46 -11 46 C-10.49674198 49.01954813 -10.38985225 51.11528576 -12.171875 53.69921875 C-16.51827286 57.97317664 -20.30332878 58.63311792 -26.265625 58.85546875 C-30.03767536 59.05484855 -33.37449019 59.97391232 -37 61 C-37.95261487 56.23692563 -38.08333357 51.8333472 -38 47 C-37.34 47 -36.68 47 -36 47 C-36.495 45.515 -36.495 45.515 -37 44 C-37.66 43.67 -38.32 43.34 -39 43 C-39 39.7 -39 36.4 -39 33 C-38.34 33 -37.68 33 -37 33 C-37.99 28.71 -38.98 24.42 -40 20 C-38.02 20.33 -36.04 20.66 -34 21 C-34 20.34 -34 19.68 -34 19 C-32.4176994 18.66179834 -30.83410625 18.32964061 -29.25 18 C-28.36828125 17.814375 -27.4865625 17.62875 -26.578125 17.4375 C-24 17 -24 17 -20 17 C-20.33 15.35 -20.66 13.7 -21 12 C-18.03 12 -15.06 12 -12 12 C-9 19.75 -9 19.75 -9 22 C-7.68 22 -6.36 22 -5 22 C-5 17.71 -5 13.42 -5 9 C-4.34 9 -3.68 9 -3 9 C-2.505 12.465 -2.505 12.465 -2 16 C-1.34 16 -0.68 16 0 16 C-0.495 14.205625 -0.495 14.205625 -1 12.375 C-1.87897833 8.83397302 -2.34920902 5.66669474 -2 2 C-1.34 1.34 -0.68 0.68 0 0 Z " fill="#2B2B2D" transform="translate(113,40)"/>
<path d="M0 0 C3.16115776 1.36983503 3.9927092 1.9890638 6 5 C5.96794073 7.01973389 5.93430367 9.03959467 5.87109375 11.05859375 C6.04901527 13.73819974 7.13346626 15.13346626 9 17 C7.53668555 20.32571465 5.49608907 23.08163554 3.359375 26.00390625 C1.90020468 28.14653853 0.66737826 30.34365174 -0.5625 32.625 C-4.0842108 39.04886136 -8.31702487 44.63438617 -15 48 C-17.91836778 48.15871825 -20.10641615 47.6485619 -23 47 C-23.99 47.495 -23.99 47.495 -25 48 C-26.89213403 47.59373098 -28.76666849 47.10271265 -30.625 46.5625 C-31.62789062 46.27503906 -32.63078125 45.98757812 -33.6640625 45.69140625 C-34.43492188 45.46324219 -35.20578125 45.23507813 -36 45 C-36 44.34 -36 43.68 -36 43 C-36.598125 43.185625 -37.19625 43.37125 -37.8125 43.5625 C-40 44 -40 44 -43 43 C-45.16627494 37.53211326 -45.01235894 30.68081674 -44 25 C-41.52994317 21.66621328 -38.81646918 19.61395994 -35 18 C-32.19921875 17.8359375 -32.19921875 17.8359375 -30 18 C-30 18.66 -30 19.32 -30 20 C-29.278125 19.814375 -28.55625 19.62875 -27.8125 19.4375 C-24.87173027 18.98004693 -22.85896942 19.26483643 -20 20 C-19.9071875 18.8553125 -19.9071875 18.8553125 -19.8125 17.6875 C-18.71946291 14.07206963 -17.23203178 13.89524585 -14 12 C-11.68435903 10.20128388 -9.46958079 8.29032365 -7.25 6.375 C-6.66089844 5.87226562 -6.07179687 5.36953125 -5.46484375 4.8515625 C-2.66848899 2.49601172 -2.66848899 2.49601172 0 0 Z " fill="#404041" transform="translate(103,95)"/>
<path d="M0 0 C0.33 1.32 0.66 2.64 1 4 C-4.28 5.32 -9.56 6.64 -15 8 C-15 9.65 -15 11.3 -15 13 C-14.34 13 -13.68 13 -13 13 C-13 13.66 -13 14.32 -13 15 C-12.195625 15.12375 -11.39125 15.2475 -10.5625 15.375 C-9.716875 15.58125 -8.87125 15.7875 -8 16 C-7.67 16.66 -7.34 17.32 -7 18 C-5.68 18 -4.36 18 -3 18 C-3 19.32 -3 20.64 -3 22 C-1.35 22 0.3 22 2 22 C2.33 22.66 2.66 23.32 3 24 C4.64363134 24.72159424 6.31050386 25.39351421 8 26 C8 26.66 8 27.32 8 28 C8.763125 27.938125 9.52625 27.87625 10.3125 27.8125 C13.47780368 28.03333514 13.98486217 28.69698534 16 31 C16.66 31 17.32 31 18 31 C18.495 32.485 18.495 32.485 19 34 C21.01508358 34.73323796 21.01508358 34.73323796 23 35 C23.495 36.98 23.495 36.98 24 39 C26.475 38.505 26.475 38.505 29 38 C30.17571451 41.67410785 30.07366746 45.16929183 30 49 C26.52674819 50.1577506 23.63932552 50.06866652 20 50 C20 48.68 20 47.36 20 46 C17.17502321 45.90799927 17.17502321 45.90799927 14 47 C11.8798756 49.28016201 10.37876079 51.88201936 8.8125 54.5625 C7.28224067 57.12376866 5.71342784 59.54929684 4 62 C1 62 1 62 -1.296875 59.8046875 C-2.51117188 58.35449219 -2.51117188 58.35449219 -3.75 56.875 C-4.56984375 55.92367187 -5.3896875 54.97234375 -6.234375 53.9921875 C-8 51 -8 51 -7.765625 47.6328125 C-7.51296875 46.76398437 -7.2603125 45.89515625 -7 45 C-7.66 45 -8.32 45 -9 45 C-9.66 43.68 -10.32 42.36 -11 41 C-11 42.98 -11 44.96 -11 47 C-11.66 47 -12.32 47 -13 47 C-15.29612756 37.58997722 -15.29612756 37.58997722 -15 33 C-13.515 32.505 -13.515 32.505 -12 32 C-12 30.68 -12 29.36 -12 28 C-12.99 28 -13.98 28 -15 28 C-15.33 26.35 -15.66 24.7 -16 23 C-16.99 23 -17.98 23 -19 23 C-19.33 20.36 -19.66 17.72 -20 15 C-21.32 14.67 -22.64 14.34 -24 14 C-24.33 12.68 -24.66 11.36 -25 10 C-24.01 9.34 -23.02 8.68 -22 8 C-22 6.68 -22 5.36 -22 4 C-19.27238489 3.32636628 -16.543201 2.66090556 -13.8125 2 C-13.04357422 1.80921875 -12.27464844 1.6184375 -11.48242188 1.421875 C-7.57921747 0.48376579 -4.04770205 -0.25957208 0 0 Z M-4 33 C-4.33 34.65 -4.66 36.3 -5 38 C-4.01 37.67 -3.02 37.34 -2 37 C-1.26676204 34.98491642 -1.26676204 34.98491642 -1 33 C-1.99 33 -2.98 33 -4 33 Z " fill="#1B1916" transform="translate(130,6)"/>
<path d="M0 0 C0.5878125 1.7015625 0.5878125 1.7015625 1.1875 3.4375 C2.58610882 7.20339051 2.58610882 7.20339051 5.6875 7.9375 C6.450625 7.958125 7.21375 7.97875 8 8 C8.495 10.97 8.495 10.97 9 14 C6.03 14.66 3.06 15.32 0 16 C-0.33 14.35 -0.66 12.7 -1 11 C-2.32 11 -3.64 11 -5 11 C-4.71125 12.19238281 -4.4225 13.38476562 -4.125 14.61328125 C-3.74982302 16.17964512 -3.37483274 17.74605372 -3 19.3125 C-2.80921875 20.09818359 -2.6184375 20.88386719 -2.421875 21.69335938 C-2.15117188 22.8293457 -2.15117188 22.8293457 -1.875 23.98828125 C-1.70742187 24.68477783 -1.53984375 25.38127441 -1.3671875 26.09887695 C-1 28 -1 28 -1 31 C-5.62 31.66 -10.24 32.32 -15 33 C-15 33.66 -15 34.32 -15 35 C-16.98 34.67 -18.96 34.34 -21 34 C-21.31453125 32.79601563 -21.6290625 31.59203125 -21.953125 30.3515625 C-22.38458037 28.77581244 -22.81691809 27.20030379 -23.25 25.625 C-23.45496094 24.8309375 -23.65992187 24.036875 -23.87109375 23.21875 C-24.08378906 22.45820312 -24.29648438 21.69765625 -24.515625 20.9140625 C-24.70415039 20.2123291 -24.89267578 19.5105957 -25.08691406 18.78759766 C-26.28281347 16.44632079 -27.66965153 16.09198782 -30 15 C-30.828125 12.3984375 -30.828125 12.3984375 -31.25 9.375 C-31.39953125 8.37210938 -31.5490625 7.36921875 -31.703125 6.3359375 C-31.80109375 5.56507812 -31.8990625 4.79421875 -32 4 C-28.94152152 3.45627049 -26.11227195 3 -23 3 C-19.97363871 2.74117886 -16.95652378 2.39532436 -13.9375 2.0625 C-13.10927734 1.97548828 -12.28105469 1.88847656 -11.42773438 1.79882812 C-10.23954102 1.66831055 -10.23954102 1.66831055 -9.02734375 1.53515625 C-7.94054321 1.41732788 -7.94054321 1.41732788 -6.83178711 1.29711914 C-4.16781776 0.86501855 -2.85041456 0 0 0 Z " fill="#665049" transform="translate(94,26)"/>
<path d="M0 0 C1.13764351 4.26616316 2 7.56486311 2 12 C2.66 12.33 3.32 12.66 4 13 C3.01 13 2.02 13 1 13 C0.34 16.3 -0.32 19.6 -1 23 C-0.34 23 0.32 23 1 23 C1 29.27 1 35.54 1 42 C0.67 42 0.34 42 0 42 C0 40.02 0 38.04 0 36 C-1.175625 36.99 -1.175625 36.99 -2.375 38 C-5 40 -5 40 -7 40 C-7 40.66 -7 41.32 -7 42 C-10.16115776 40.63016497 -10.9927092 40.0109362 -13 37 C-15.83574069 38.30440206 -18.03148842 39.73395168 -20.34765625 41.8203125 C-20.95287109 42.35527344 -21.55808594 42.89023438 -22.18164062 43.44140625 C-23.44160019 44.56922053 -24.69939664 45.69945579 -25.95507812 46.83203125 C-26.55900391 47.36441406 -27.16292969 47.89679688 -27.78515625 48.4453125 C-28.33051025 48.93531738 -28.87586426 49.42532227 -29.43774414 49.93017578 C-31 51 -31 51 -34 51 C-34.33 51.99 -34.66 52.98 -35 54 C-35.2475 52.783125 -35.495 51.56625 -35.75 50.3125 C-36.7049925 46.41640742 -38.22781085 43.95700176 -41 41 C-36.70251343 39.56750448 -32.97188047 38.8981133 -28.4375 38.6875 C-24.8070217 38.39786074 -22.30720679 38.03108538 -19.375 35.8125 C-16.7737987 32.73213004 -16.18514204 30.98055375 -16 27 C-16.99 27 -17.98 27 -19 27 C-19 25.68 -19 24.36 -19 23 C-17.68 22.67 -16.36 22.34 -15 22 C-15 22.99 -15 23.98 -15 25 C-12.89788303 24.03336251 -12.89788303 24.03336251 -11 22 C-10.33450549 19.30075428 -10.18319237 16.79368363 -10 14 C-10.99 14 -11.98 14 -13 14 C-13 13.01 -13 12.02 -13 11 C-13.66 11 -14.32 11 -15 11 C-15 9.35 -15 7.7 -15 6 C-13.68 6 -12.36 6 -11 6 C-11 6.66 -11 7.32 -11 8 C-9.68 7.67 -8.36 7.34 -7 7 C-7 5.68 -7 4.36 -7 3 C-2.92857143 0 -2.92857143 0 0 0 Z " fill="#0C0C0D" transform="translate(118,59)"/>
<path d="M0 0 C3.59323779 3.07991811 5.66104705 6.96628229 6.4375 11.625 C7.16525461 14.69774167 8.65806322 15.96024861 11 18 C8.16796875 23.078125 8.16796875 23.078125 7 25 C6.58105469 25.70125 6.16210938 26.4025 5.73046875 27.125 C3.40349405 29.64632698 1.44692927 30.00442984 -1.875 30.75 C-2.90367187 30.99234375 -3.93234375 31.2346875 -4.9921875 31.484375 C-7.73911727 31.95527725 -10.22185911 32.10251442 -13 32 C-13.268125 31.071875 -13.53625 30.14375 -13.8125 29.1875 C-14.99310198 26.01851573 -15.67753797 25.23313656 -18 23 C-22 16.97833935 -22 16.97833935 -22 13 C-19.525 13.495 -19.525 13.495 -17 14 C-17 14.66 -17 15.32 -17 16 C-14.36 15.34 -11.72 14.68 -9 14 C-9.33 12.35 -9.66 10.7 -10 9 C-8.68 9 -7.36 9 -6 9 C-5.7525 8.443125 -5.505 7.88625 -5.25 7.3125 C-3.78393985 4.60028873 -1.97010529 2.36412635 0 0 Z " fill="#C13103" transform="translate(134,123)"/>
<path d="M0 0 C1.9375 0.375 1.9375 0.375 4 1 C4.33 1.66 4.66 2.32 5 3 C6.32 3 7.64 3 9 3 C9 4.32 9 5.64 9 7 C10.65 7 12.3 7 14 7 C14.33 7.66 14.66 8.32 15 9 C16.64363134 9.72159424 18.31050386 10.39351421 20 11 C20 11.66 20 12.32 20 13 C20.763125 12.938125 21.52625 12.87625 22.3125 12.8125 C25.47780368 13.03333514 25.98486217 13.69698534 28 16 C28.66 16 29.32 16 30 16 C30.33 16.99 30.66 17.98 31 19 C33.01508358 19.73323796 33.01508358 19.73323796 35 20 C35.495 21.98 35.495 21.98 36 24 C37.65 23.67 39.3 23.34 41 23 C42.17571451 26.67410785 42.07366746 30.16929183 42 34 C38.52674819 35.1577506 35.63932552 35.06866652 32 35 C32 33.68 32 32.36 32 31 C31.35675781 31.26683594 30.71351563 31.53367187 30.05078125 31.80859375 C25.26188762 32.1090493 22.14448471 29.56007711 18.1875 27.0625 C17.39923828 26.58103516 16.61097656 26.09957031 15.79882812 25.60351562 C13.85745992 24.41516296 11.92544763 23.21391745 10 22 C10.30679688 21.40703125 10.61359375 20.8140625 10.9296875 20.203125 C12.2226476 17.54170348 13.10380652 14.81660808 14 12 C12.35 12 10.7 12 9 12 C9 11.01 9 10.02 9 9 C7.35 9 5.7 9 4 9 C3.67 8.01 3.34 7.02 3 6 C2.01 5.67 1.02 5.34 0 5 C0 3.35 0 1.7 0 0 Z " fill="#1C1C1C" transform="translate(118,21)"/>
<path d="M0 0 C0 0.66 0 1.32 0 2 C0.7425 1.814375 1.485 1.62875 2.25 1.4375 C4.94990963 1.00796892 6.44631077 1.14877026 9 2 C8.55383569 4.49852015 8.10936901 5.8689863 6.46166992 7.84277344 C4.69539895 10.44954984 4.7070278 11.66330331 4.92578125 14.765625 C4.98056641 15.65507812 5.03535156 16.54453125 5.09179688 17.4609375 C5.16462891 18.38132813 5.23746094 19.30171875 5.3125 20.25 C5.37373047 21.18585938 5.43496094 22.12171875 5.49804688 23.0859375 C5.6509751 25.39162452 5.82358602 27.69599093 6 30 C2.04 29.01 -1.92 28.02 -6 27 C-6 26.34 -6 25.68 -6 25 C-6.598125 25.185625 -7.19625 25.37125 -7.8125 25.5625 C-10 26 -10 26 -13 25 C-15.16627494 19.53211326 -15.01235894 12.68081674 -14 7 C-10.3357185 2.05439192 -6.19279242 -0.46198451 0 0 Z " fill="#C63204" transform="translate(73,113)"/>
<path d="M0 0 C3.16115776 1.36983503 3.9927092 1.9890638 6 5 C5.96794073 7.01973389 5.93430367 9.03959467 5.87109375 11.05859375 C6.04901527 13.73819974 7.13346626 15.13346626 9 17 C7.48410872 20.80257473 5.2397955 22.73055864 2.0625 25.25 C1.18722656 25.95640625 0.31195313 26.6628125 -0.58984375 27.390625 C-3 29 -3 29 -6 29 C-6 28.34 -6 27.68 -6 27 C-7.32 27 -8.64 27 -10 27 C-12.140625 24.8125 -12.140625 24.8125 -14.25 22 C-14.95640625 21.071875 -15.6628125 20.14375 -16.390625 19.1875 C-16.92171875 18.465625 -17.4528125 17.74375 -18 17 C-14.12676724 11.79116974 -9.49496035 7.98651785 -4.42578125 3.953125 C-1.99984814 2.07139213 -1.99984814 2.07139213 0 0 Z " fill="#F6F6FA" transform="translate(103,95)"/>
<path d="M0 0 C2 1 2 1 3.125 4.25 C3.85463482 7.37700635 4.19234975 9.82622905 4 13 C4.66 13 5.32 13 6 13 C5.505 8.05 5.505 8.05 5 3 C8 7 8 7 8 11 C8.66 11 9.32 11 10 11 C9.86078125 12.30710937 9.86078125 12.30710937 9.71875 13.640625 C10.08290322 17.99023286 11.61892979 19.53102649 14.5 22.75 C19 27.83333333 19 27.83333333 19 30 C14.9472484 30.98248524 11.16138263 31.08159574 7 31 C6.34 27.04 5.68 23.08 5 19 C2.525 20.485 2.525 20.485 0 22 C-0.66 22 -1.32 22 -2 22 C-2 23.32 -2 24.64 -2 26 C-3.32 26.33 -4.64 26.66 -6 27 C-6 26.34 -6 25.68 -6 25 C-8.31 25 -10.62 25 -13 25 C-13.33 23.68 -13.66 22.36 -14 21 C-15.65 20.67 -17.3 20.34 -19 20 C-19.66 17.36 -20.32 14.72 -21 12 C-18.03 12 -15.06 12 -12 12 C-9 19.75 -9 19.75 -9 22 C-7.68 22 -6.36 22 -5 22 C-5 17.71 -5 13.42 -5 9 C-4.34 9 -3.68 9 -3 9 C-2.67 11.31 -2.34 13.62 -2 16 C-1.34 16 -0.68 16 0 16 C-0.33 14.80375 -0.66 13.6075 -1 12.375 C-1.87897833 8.83397302 -2.34920902 5.66669474 -2 2 C-1.34 1.34 -0.68 0.68 0 0 Z " fill="#CBB7A5" transform="translate(113,40)"/>
<path d="M0 0 C1.08849243 0.13970215 1.08849243 0.13970215 2.19897461 0.28222656 C2.99239258 0.37761719 3.78581055 0.47300781 4.60327148 0.57128906 C5.42762695 0.68730469 6.25198242 0.80332031 7.10131836 0.92285156 C8.34365234 1.07367188 8.34365234 1.07367188 9.61108398 1.22753906 C15.69189906 1.99939191 15.69189906 1.99939191 18.03881836 3.17285156 C18.20163174 4.75274436 18.31759814 6.33750898 18.41381836 7.92285156 C18.48342773 8.80457031 18.55303711 9.68628906 18.62475586 10.59472656 C18.03881836 13.17285156 18.03881836 13.17285156 15.62475586 15.54394531 C10.82080471 17.72613227 7.4046867 17.23676906 2.28881836 16.48535156 C1.42643555 16.38029297 0.56405273 16.27523437 -0.32446289 16.16699219 C-6.56469727 15.37109375 -6.56469727 15.37109375 -8.96118164 14.17285156 C-8.96118164 12.52285156 -8.96118164 10.87285156 -8.96118164 9.17285156 C-8.30118164 9.17285156 -7.64118164 9.17285156 -6.96118164 9.17285156 C-6.96118164 7.85285156 -6.96118164 6.53285156 -6.96118164 5.17285156 C-6.30118164 4.51285156 -5.64118164 3.85285156 -4.96118164 3.17285156 C-4.51073486 2.6343457 -4.06028809 2.09583984 -3.59619141 1.54101562 C-1.96118164 0.17285156 -1.96118164 0.17285156 0 0 Z " fill="#CE3504" transform="translate(82.961181640625,63.8271484375)"/>
<path d="M0 0 C0.165 0.94875 0.33 1.8975 0.5 2.875 C1.81834364 7.70564722 5.06084318 10.98511641 8.3203125 14.66796875 C10 17 10 17 10 21 C8.35 20.34 6.7 19.68 5 19 C5.33 19.763125 5.66 20.52625 6 21.3125 C7 24 7 24 7 27 C7.33 28.32 7.66 29.64 8 31 C4.04 32.98 0.08 34.96 -4 37 C-3.525625 35.63875 -3.05125 34.2775 -2.5625 32.875 C-0.16258475 26.00864103 -0.16258475 26.00864103 -1 19 C-1.8971875 19.2475 -1.8971875 19.2475 -2.8125 19.5 C-5 20 -5 20 -8 20 C-8 18.68 -8 17.36 -8 16 C-8.66 15.01 -9.32 14.02 -10 13 C-9.625 9.3125 -9.625 9.3125 -9 6 C-8.34 6 -7.68 6 -7 6 C-7 5.34 -7 4.68 -7 4 C-2.52941176 0 -2.52941176 0 0 0 Z " fill="#2C2C2D" transform="translate(118,95)"/>
<path d="M0 0 C0.33 1.32 0.66 2.64 1 4 C1.9590625 3.7215625 1.9590625 3.7215625 2.9375 3.4375 C3.618125 3.293125 4.29875 3.14875 5 3 C6 4 6 4 6.0625 6.5625 C6.041875 7.366875 6.02125 8.17125 6 9 C5.34 9.33 4.68 9.66 4 10 C3.34444881 12.52733235 3.34444881 12.52733235 3 15 C0.5636811 15.67126129 -1.87388883 16.33716354 -4.3125 17 C-5.00279297 17.19078125 -5.69308594 17.3815625 -6.40429688 17.578125 C-9.35787949 18.37716184 -11.92559219 19 -15 19 C-15.33 17.35 -15.66 15.7 -16 14 C-10.39247819 12.29336293 -4.75762166 11.08896667 1 10 C0.67 9.01 0.34 8.02 0 7 C-4.50824152 7.39655828 -8.87182091 7.88440219 -13.25 9.0625 C-16.39273486 9.84818372 -18.80017026 10.19998936 -22 10 C-21.67 11.65 -21.34 13.3 -21 15 C-24.37097383 16.49821059 -26.20442119 17 -30 17 C-30 15.02 -30 13.04 -30 11 C-26.535 10.505 -26.535 10.505 -23 10 C-23.33 8.68 -23.66 7.36 -24 6 C-21.36949145 4.24632763 -20.06925023 3.61808596 -17.12890625 2.9296875 C-16.38962891 2.75566406 -15.65035156 2.58164062 -14.88867188 2.40234375 C-14.12103516 2.22832031 -13.35339844 2.05429687 -12.5625 1.875 C-11.4168457 1.60236328 -11.4168457 1.60236328 -10.24804688 1.32421875 C-6.65451323 0.49229538 -3.73619355 0 0 0 Z " fill="#082924" transform="translate(130,0)"/>
<path d="M0 0 C0.33 1.32 0.66 2.64 1 4 C-4.28 5.32 -9.56 6.64 -15 8 C-15 9.65 -15 11.3 -15 13 C-14.34 13 -13.68 13 -13 13 C-12.67 15.31 -12.34 17.62 -12 20 C-10.68 20.33 -9.36 20.66 -8 21 C-8 21.99 -8 22.98 -8 24 C-6.35 24 -4.7 24 -3 24 C-3 24.99 -3 25.98 -3 27 C-1.35 27 0.3 27 2 27 C1.625 29.9375 1.625 29.9375 1 33 C-1.79175344 34.39587672 -3.06123095 33.97958968 -6 33 C-10 28.78378378 -10 28.78378378 -10 26 C-10.99 25.67 -11.98 25.34 -13 25 C-13 24.01 -13 23.02 -13 22 C-13.99 22 -14.98 22 -16 22 C-16.33 21.01 -16.66 20.02 -17 19 C-17.99 18.67 -18.98 18.34 -20 18 C-20 17.01 -20 16.02 -20 15 C-21.32 14.67 -22.64 14.34 -24 14 C-24.33 12.68 -24.66 11.36 -25 10 C-24.01 9.34 -23.02 8.68 -22 8 C-22 6.68 -22 5.36 -22 4 C-19.27238489 3.32636628 -16.543201 2.66090556 -13.8125 2 C-13.04357422 1.80921875 -12.27464844 1.6184375 -11.48242188 1.421875 C-7.57921747 0.48376579 -4.04770205 -0.25957208 0 0 Z " fill="#37332F" transform="translate(130,6)"/>
<path d="M0 0 C1.13764351 4.26616316 2 7.56486311 2 12 C2.66 12.33 3.32 12.66 4 13 C3.01 13 2.02 13 1 13 C0.89042969 13.77085938 0.78085938 14.54171875 0.66796875 15.3359375 C0.50941406 16.33882812 0.35085937 17.34171875 0.1875 18.375 C0.03667969 19.37273437 -0.11414063 20.37046875 -0.26953125 21.3984375 C-1 24 -1 24 -4 26 C-4.33 25.01 -4.66 24.02 -5 23 C-5.226875 23.928125 -5.45375 24.85625 -5.6875 25.8125 C-7 29 -7 29 -12 32 C-11.34 26.06 -10.68 20.12 -10 14 C-10.99 14 -11.98 14 -13 14 C-13 13.01 -13 12.02 -13 11 C-13.66 11 -14.32 11 -15 11 C-15 9.35 -15 7.7 -15 6 C-13.68 6 -12.36 6 -11 6 C-11 6.66 -11 7.32 -11 8 C-9.68 7.67 -8.36 7.34 -7 7 C-7 5.68 -7 4.36 -7 3 C-2.92857143 0 -2.92857143 0 0 0 Z " fill="#242528" transform="translate(118,59)"/>
<path d="M0 0 C2.66345204 0.5073242 4.09163295 0.34445568 6.625 -0.5 C6.295 0.16 5.965 0.82 5.625 1.5 C4.965 1.5 4.305 1.5 3.625 1.5 C3.625 2.82 3.625 4.14 3.625 5.5 C2.965 5.5 2.305 5.5 1.625 5.5 C1.955 6.221875 2.285 6.94375 2.625 7.6875 C3.63103529 10.51697427 3.79477402 12.52895466 3.625 15.5 C5.935 15.5 8.245 15.5 10.625 15.5 C10.625 13.52 10.625 11.54 10.625 9.5 C11.945 9.83 13.265 10.16 14.625 10.5 C14.604375 11.510625 14.58375 12.52125 14.5625 13.5625 C14.62187734 17.30327257 15.02295085 20.81244898 15.625 24.5 C16.615 24.83 17.605 25.16 18.625 25.5 C18.625 26.49 18.625 27.48 18.625 28.5 C16.645 28.83 14.665 29.16 12.625 29.5 C12.625 30.16 12.625 30.82 12.625 31.5 C10.645 31.17 8.665 30.84 6.625 30.5 C6.31046875 29.29601562 5.9959375 28.09203125 5.671875 26.8515625 C5.24041963 25.27581244 4.80808191 23.70030379 4.375 22.125 C4.17003906 21.3309375 3.96507813 20.536875 3.75390625 19.71875 C3.54121094 18.95820312 3.32851562 18.19765625 3.109375 17.4140625 C2.92084961 16.7123291 2.73232422 16.0105957 2.53808594 15.28759766 C1.34218653 12.94632079 -0.04465153 12.59198782 -2.375 11.5 C-3.203125 8.8984375 -3.203125 8.8984375 -3.625 5.875 C-3.77453125 4.87210938 -3.9240625 3.86921875 -4.078125 2.8359375 C-4.17609375 2.06507812 -4.2740625 1.29421875 -4.375 0.5 C-2.375 -0.5 -2.375 -0.5 0 0 Z " fill="#423430" transform="translate(66.375,29.5)"/>
<path d="M0 0 C0.66 0.33 1.32 0.66 2 1 C2 1.66 2 2.32 2 3 C2.78375 3.2475 3.5675 3.495 4.375 3.75 C7.3916501 5.18650005 7.71565565 6.04720831 9 9 C6.44525058 13.79465296 4.13243424 18.04068591 -0.9609375 20.33203125 C-5.69700246 21.51897099 -10.11611751 22.12522776 -15 22 C-17 16.25 -17 16.25 -17 14 C-16.02417969 13.74605469 -15.04835938 13.49210938 -14.04296875 13.23046875 C-12.77066406 12.88628906 -11.49835938 12.54210937 -10.1875 12.1875 C-8.92292969 11.85105469 -7.65835938 11.51460937 -6.35546875 11.16796875 C-3.30563831 10.10638633 -1.92807406 9.50147899 0 7 C-0.66 7 -1.32 7 -2 7 C-2.33 6.01 -2.66 5.02 -3 4 C-1.5625 1.8125 -1.5625 1.8125 0 0 Z " fill="#B62C00" transform="translate(136,133)"/>
<path d="M0 0 C0.50325802 3.01954813 0.61014775 5.11528576 -1.171875 7.69921875 C-5.51827286 11.97317664 -9.30332878 12.63311792 -15.265625 12.85546875 C-19.03767536 13.05484855 -22.37449019 13.97391232 -26 15 C-26.95261487 10.23692563 -27.08333357 5.8333472 -27 1 C-26.23816406 1.144375 -25.47632812 1.28875 -24.69140625 1.4375 C-13.8608405 3.93333498 -13.8608405 3.93333498 -3.5625 1.5 C-2 0 -2 0 0 0 Z " fill="#F1EFEE" transform="translate(102,86)"/>
<path d="M0 0 C0.66 0.33 1.32 0.66 2 1 C2 1.66 2 2.32 2 3 C2.66 3 3.32 3 4 3 C4.33 4.32 4.66 5.64 5 7 C4.34 7 3.68 7 3 7 C3 6.01 3 5.02 3 4 C1.68 4.33 0.36 4.66 -1 5 C-0.67 6.65 -0.34 8.3 0 10 C-1.8039192 11.88235047 -3.31189932 12.90330153 -5.91796875 13.26953125 C-11.77948747 13.38364931 -17.3112817 12.33013873 -23 11 C-23.12375 10.360625 -23.2475 9.72125 -23.375 9.0625 C-23.58125 8.381875 -23.7875 7.70125 -24 7 C-24.66 6.67 -25.32 6.34 -26 6 C-26 4.35 -26 2.7 -26 1 C-25.08504761 1.11444458 -25.08504761 1.11444458 -24.15161133 1.23120117 C-21.37377375 1.56823667 -18.59354423 1.87808823 -15.8125 2.1875 C-14.85279297 2.30802734 -13.89308594 2.42855469 -12.90429688 2.55273438 C-7.56032921 3.12596274 -4.46350187 3.40800444 0 0 Z " fill="#2A1E1B" transform="translate(100,77)"/>
<path d="M0 0 C0.55558594 0.73476562 1.11117187 1.46953125 1.68359375 2.2265625 C3.97132848 4.96567154 6.29531963 7.12953538 9.0625 9.375 C9.91972656 10.08398438 10.77695313 10.79296875 11.66015625 11.5234375 C12.43230469 12.01070312 13.20445313 12.49796875 14 13 C17.63195496 11.78934835 18.42896192 10.46308874 20.6875 7.4375 C21.31011719 6.61121094 21.93273437 5.78492187 22.57421875 4.93359375 C23.27998047 3.97646484 23.27998047 3.97646484 24 3 C24.66 3.66 25.32 4.32 26 5 C16.54536265 19.1316654 16.54536265 19.1316654 10 22 C6.38022996 22.2750002 3.27523656 21.63761828 0 20 C-0.19594676 16.85463232 -0.3803401 13.70869386 -0.5625 10.5625 C-0.61857422 9.66466797 -0.67464844 8.76683594 -0.73242188 7.84179688 C-0.78076172 6.98779297 -0.82910156 6.13378906 -0.87890625 5.25390625 C-0.9260376 4.46314697 -0.97316895 3.6723877 -1.02172852 2.85766602 C-1 1 -1 1 0 0 Z " fill="#1F1A19" transform="translate(78,121)"/>
<path d="M0 0 C0.33 1.65 0.66 3.3 1 5 C1.99 5 2.98 5 4 5 C4 6.32 4 7.64 4 9 C2.09232751 10.71690524 0.28980473 11.85509764 -2 13 C-2.20970559 17.14093698 -2.20970559 17.14093698 -1 21 C-0.960008 22.99960012 -0.95653201 25.00047242 -1 27 C-1.66 27 -2.32 27 -3 27 C-3.33 24.69 -3.66 22.38 -4 20 C-4.66 20 -5.32 20 -6 20 C-5.67 20.66 -5.34 21.32 -5 22 C-4.76811594 29.30434783 -4.76811594 29.30434783 -6 33 C-7.32 33 -8.64 33 -10 33 C-10.99 29.7 -11.98 26.4 -13 23 C-11.35 22.67 -9.7 22.34 -8 22 C-8.185625 21.0925 -8.37125 20.185 -8.5625 19.25 C-8.9669054 16.24584557 -8.86992584 14.80309437 -8 12 C-8 11.01 -8 10.02 -8 9 C-7.34 9 -6.68 9 -6 9 C-6.33 7.02 -6.66 5.04 -7 3 C-2.25 0 -2.25 0 0 0 Z " fill="#4C3D38" transform="translate(114,29)"/>
<path d="M0 0 C0 0.66 0 1.32 0 2 C1.65 1.67 3.3 1.34 5 1 C3.38248997 4.23502006 0.03139665 5.4719553 -3.12109375 7.0859375 C-5.99204918 10.01061144 -5.67530275 13.29984742 -5.75 17.1875 C-5.77964844 17.93708984 -5.80929688 18.68667969 -5.83984375 19.45898438 C-5.9104079 21.30541307 -5.95748476 23.15271261 -6 25 C-9.01031744 25.93423645 -9.86650268 26.04449911 -13 25 C-15.16627494 19.53211326 -15.01235894 12.68081674 -14 7 C-10.3357185 2.05439192 -6.19279242 -0.46198451 0 0 Z " fill="#BA2E03" transform="translate(73,113)"/>
<path d="M0 0 C1.65 0 3.3 0 5 0 C5.33 0.99 5.66 1.98 6 3 C8.01508358 3.73323796 8.01508358 3.73323796 10 4 C10.33 5.32 10.66 6.64 11 8 C12.65 7.67 14.3 7.34 16 7 C17.17571451 10.67410785 17.07366746 14.16929183 17 18 C13.52674819 19.1577506 10.63932552 19.06866652 7 19 C7 17.68 7 16.36 7 15 C5.35 15.33 3.7 15.66 2 16 C2.4979837 12.26512223 2.87491756 10.18762365 5 7 C4.175 6.21625 3.35 5.4325 2.5 4.625 C0 2 0 2 0 0 Z " fill="#271E0B" transform="translate(143,37)"/>
<path d="M0 0 C4.61872062 0.53985046 7.52395069 2.43965817 11.3125 5.0625 C12.38113281 5.79597656 13.44976562 6.52945313 14.55078125 7.28515625 C15.76314453 8.13400391 15.76314453 8.13400391 17 9 C15.68 11.31 14.36 13.62 13 16 C9.39666607 14.63902855 6.08504618 13.05213746 2.75 11.125 C1.87859375 10.63257813 1.0071875 10.14015625 0.109375 9.6328125 C-2 8 -2 8 -2.88671875 5.9453125 C-3 4 -3 4 -1.5625 1.75 C-1.046875 1.1725 -0.53125 0.595 0 0 Z " fill="#BABCC1" transform="translate(127,43)"/>
<path d="M0 0 C1.75215106 0.93347358 3.50163563 1.8719532 5.25 2.8125 C6.71179688 3.59560547 6.71179688 3.59560547 8.203125 4.39453125 C10.63355412 5.78965188 12.80787699 7.26195961 15 9 C13.59847021 13.45941297 11.33436496 15.79491575 8 19 C6.32731078 17.04653795 4.66178419 15.08770186 3 13.125 C2.28457031 12.29162109 2.28457031 12.29162109 1.5546875 11.44140625 C-2 7.2265625 -2 7.2265625 -2 5 C-1.34 5 -0.68 5 0 5 C0 3.35 0 1.7 0 0 Z " fill="#1B1B1C" transform="translate(124,50)"/>
<path d="M0 0 C2 3 2 3 1.75 5.8125 C-0.31442663 14.58631319 -0.31442663 14.58631319 -4 18 C-5.17544805 16.56967163 -6.34010262 15.13046758 -7.5 13.6875 C-8.1496875 12.88699219 -8.799375 12.08648437 -9.46875 11.26171875 C-11 9 -11 9 -11 6 C-8.42973244 1.67112832 -5.09688971 -1.69896324 0 0 Z " fill="#202024" transform="translate(117,114)"/>
<path d="M0 0 C0.33 1.32 0.66 2.64 1 4 C-0.14339844 4.25394531 -1.28679687 4.50789062 -2.46484375 4.76953125 C-3.95588841 5.11650391 -5.44676542 5.46419753 -6.9375 5.8125 C-8.06961914 6.0609668 -8.06961914 6.0609668 -9.22460938 6.31445312 C-11.17570413 6.77816623 -13.09255787 7.3807544 -15 8 C-15.33 8.99 -15.66 9.98 -16 11 C-17.65 11.33 -19.3 11.66 -21 12 C-21 12.66 -21 13.32 -21 14 C-22.32 13.67 -23.64 13.34 -25 13 C-25 12.01 -25 11.02 -25 10 C-24.01 9.34 -23.02 8.68 -22 8 C-22 6.68 -22 5.36 -22 4 C-19.27238489 3.32636628 -16.543201 2.66090556 -13.8125 2 C-13.04357422 1.80921875 -12.27464844 1.6184375 -11.48242188 1.421875 C-7.57921747 0.48376579 -4.04770205 -0.25957208 0 0 Z " fill="#26AF9B" transform="translate(130,6)"/>
<path d="M0 0 C2.98052395 2.55473482 4.46340188 5.41460439 6 9 C6 10.32 6 11.64 6 13 C5.34 13 4.68 13 4 13 C3.34 12.34 2.68 11.68 2 11 C0.42726432 13.8424854 0.42726432 13.8424854 0 17 C1.65 16.01 3.3 15.02 5 14 C5.33 14.66 5.66 15.32 6 16 C3.69 17.32 1.38 18.64 -1 20 C-1.31453125 19.37351563 -1.6290625 18.74703125 -1.953125 18.1015625 C-2.38109375 17.28429687 -2.8090625 16.46703125 -3.25 15.625 C-3.66765625 14.81289062 -4.0853125 14.00078125 -4.515625 13.1640625 C-6.14267975 10.79198795 -7.35386639 10.02905196 -10 9 C-8.68 9 -7.36 9 -6 9 C-5.7525 8.443125 -5.505 7.88625 -5.25 7.3125 C-3.78393985 4.60028873 -1.97010529 2.36412635 0 0 Z " fill="#B02D03" transform="translate(134,123)"/>
<path d="M0 0 C0 0.66 0 1.32 0 2 C-1.32 2 -2.64 2 -4 2 C-3.67 3.65 -3.34 5.3 -3 7 C-1.68 7 -0.36 7 1 7 C1.33 6.34 1.66 5.68 2 5 C2.33 6.32 2.66 7.64 3 9 C1.95199219 8.88140625 0.90398437 8.7628125 -0.17578125 8.640625 C-1.55458261 8.50931059 -2.93349544 8.37916296 -4.3125 8.25 C-5.34793945 8.12818359 -5.34793945 8.12818359 -6.40429688 8.00390625 C-8.68213554 7.76021614 -8.68213554 7.76021614 -12 8 C-13.89574262 9.87281818 -13.89574262 9.87281818 -15 12 C-15.66 12 -16.32 12 -17 12 C-17.99 9.03 -18.98 6.06 -20 3 C-17.03 3.495 -17.03 3.495 -14 4 C-14 3.34 -14 2.68 -14 2 C-12.4176994 1.66179834 -10.83410625 1.32964061 -9.25 1 C-8.36828125 0.814375 -7.4865625 0.62875 -6.578125 0.4375 C-4 0 -4 0 0 0 Z " fill="#271E1B" transform="translate(93,57)"/>
<path d="M0 0 C0.55558594 0.73476562 1.11117187 1.46953125 1.68359375 2.2265625 C3.97132848 4.96567154 6.29531963 7.12953538 9.0625 9.375 C9.91972656 10.08398438 10.77695313 10.79296875 11.66015625 11.5234375 C12.43230469 12.01070312 13.20445313 12.49796875 14 13 C17.63195496 11.78934835 18.42896192 10.46308874 20.6875 7.4375 C21.31011719 6.61121094 21.93273437 5.78492187 22.57421875 4.93359375 C23.27998047 3.97646484 23.27998047 3.97646484 24 3 C24.66 3.66 25.32 4.32 26 5 C24.78868871 6.82448127 23.55523257 8.63427436 22.3125 10.4375 C21.62800781 11.44683594 20.94351563 12.45617187 20.23828125 13.49609375 C18 16 18 16 15.55078125 17.0859375 C11.95703167 16.96486171 10.55433699 15.52679881 7.875 13.1875 C7.02679688 12.45917969 6.17859375 11.73085937 5.3046875 10.98046875 C4.54414062 10.32691406 3.78359375 9.67335937 3 9 C2.01 8.34 1.02 7.68 0 7 C-0.75 3.9375 -0.75 3.9375 -1 1 C-0.67 0.67 -0.34 0.34 0 0 Z " fill="#2C2A2B" transform="translate(78,121)"/>
<path d="M0 0 C2.97 0 5.94 0 9 0 C12 7.625 12 7.625 12 11 C13.32 11.33 14.64 11.66 16 12 C13.36 12.33 10.72 12.66 8 13 C7.67 11.68 7.34 10.36 7 9 C5.35 8.67 3.7 8.34 2 8 C1.34 5.36 0.68 2.72 0 0 Z " fill="#F3DAB8" transform="translate(92,52)"/>
<path d="M0 0 C0.99 0 1.98 0 3 0 C3.5878125 1.7015625 3.5878125 1.7015625 4.1875 3.4375 C5.58610882 7.20339051 5.58610882 7.20339051 8.6875 7.9375 C9.8321875 7.9684375 9.8321875 7.9684375 11 8 C11.33 9.98 11.66 11.96 12 14 C9.03 14.66 6.06 15.32 3 16 C1.25263853 11.13235018 -0.2549523 6.12895153 -1 1 C-0.67 0.67 -0.34 0.34 0 0 Z " fill="#725A53" transform="translate(91,26)"/>
<path d="M0 0 C0.99 0.33 1.98 0.66 3 1 C2.3503125 2.3921875 2.3503125 2.3921875 1.6875 3.8125 C-0.42870488 8.71000272 -1.6847374 13.84155872 -3 19 C-3.66 19 -4.32 19 -5 19 C-5 16.69 -5 14.38 -5 12 C-5.99 12 -6.98 12 -8 12 C-8 11.01 -8 10.02 -8 9 C-8.66 9 -9.32 9 -10 9 C-10 7.35 -10 5.7 -10 4 C-8.68 4 -7.36 4 -6 4 C-6 4.66 -6 5.32 -6 6 C-4.68 5.67 -3.36 5.34 -2 5 C-2 3.68 -2 2.36 -2 1 C-1.34 0.67 -0.68 0.34 0 0 Z " fill="#121010" transform="translate(113,61)"/>
<path d="M0 0 C0.33 0.66 0.66 1.32 1 2 C2.65 1.67 4.3 1.34 6 1 C4.38248997 4.23502006 1.03139665 5.4719553 -2.12109375 7.0859375 C-4.99204918 10.01061144 -4.67530275 13.29984742 -4.75 17.1875 C-4.77964844 17.93708984 -4.80929688 18.68667969 -4.83984375 19.45898438 C-4.9104079 21.30541307 -4.95748476 23.15271261 -5 25 C-6.32 25.33 -7.64 25.66 -9 26 C-10.22788142 9.73057113 -10.22788142 9.73057113 -7.25390625 5.5390625 C-5.22488947 4.11404893 -3.23436264 3.05813368 -1 2 C-0.67 1.34 -0.34 0.68 0 0 Z " fill="#251A18" transform="translate(72,113)"/>
<path d="M0 0 C0.79664062 0.144375 1.59328125 0.28875 2.4140625 0.4375 C4.00347656 0.7159375 4.00347656 0.7159375 5.625 1 C6.66914062 1.185625 7.71328125 1.37125 8.7890625 1.5625 C13.16895632 2.15927385 16.78271746 2.40576085 21 1 C20.125 5.875 20.125 5.875 19 7 C12.36375628 7.31601161 6.4551573 6.50934785 0 5 C0 3.35 0 1.7 0 0 Z " fill="#EC4510" transform="translate(77,83)"/>
<path d="M0 0 C0.50636607 1.74816858 1.00484619 3.49862263 1.5 5.25 C1.7784375 6.22453125 2.056875 7.1990625 2.34375 8.203125 C3 11 3 11 3 15 C0.69 15 -1.62 15 -4 15 C-4.66 11.7 -5.32 8.4 -6 5 C-5.34 5 -4.68 5 -4 5 C-4 3.68 -4 2.36 -4 1 C-2 0 -2 0 0 0 Z " fill="#795F57" transform="translate(74,30)"/>
<path d="M0 0 C2.66345204 0.5073242 4.09163295 0.34445568 6.625 -0.5 C6.295 0.16 5.965 0.82 5.625 1.5 C4.965 1.5 4.305 1.5 3.625 1.5 C3.625 2.82 3.625 4.14 3.625 5.5 C2.965 5.5 2.305 5.5 1.625 5.5 C1.955 6.180625 2.285 6.86125 2.625 7.5625 C3.79807315 11.00840238 3.76680493 13.88397422 3.625 17.5 C3.3775 16.88125 3.13 16.2625 2.875 15.625 C1.82629024 13.34105166 1.82629024 13.34105166 -0.375 12.71875 C-2.375 11.5 -2.375 11.5 -3.203125 8.8984375 C-3.41195312 7.40183594 -3.41195312 7.40183594 -3.625 5.875 C-3.77453125 4.87210938 -3.9240625 3.86921875 -4.078125 2.8359375 C-4.17609375 2.06507812 -4.2740625 1.29421875 -4.375 0.5 C-2.375 -0.5 -2.375 -0.5 0 0 Z " fill="#463732" transform="translate(66.375,29.5)"/>
<path d="M0 0 C0.66 0.33 1.32 0.66 2 1 C2 1.99 2 2.98 2 4 C3.65 4 5.3 4 7 4 C7 4.99 7 5.98 7 7 C8.65 7 10.3 7 12 7 C11.625 9.9375 11.625 9.9375 11 13 C9 14 9 14 6.5 13.875 C4 13 4 13 2.6875 10.625 C2 8 2 8 2 5 C1.01 4.67 0.02 4.34 -1 4 C-0.67 2.68 -0.34 1.36 0 0 Z " fill="#644C1E" transform="translate(120,26)"/>
<path d="M0 0 C1.9375 0.375 1.9375 0.375 4 1 C4.33 1.66 4.66 2.32 5 3 C6.32 3 7.64 3 9 3 C9 4.32 9 5.64 9 7 C10.65 7 12.3 7 14 7 C14.66 8.32 15.32 9.64 16 11 C15.34 11.66 14.68 12.32 14 13 C11.375 12.625 11.375 12.625 9 12 C9 11.01 9 10.02 9 9 C7.35 9 5.7 9 4 9 C3.67 8.01 3.34 7.02 3 6 C2.01 5.67 1.02 5.34 0 5 C0 3.35 0 1.7 0 0 Z " fill="#261D0B" transform="translate(118,21)"/>
<path d="M0 0 C0.66 0 1.32 0 2 0 C2.625 1.875 2.625 1.875 3 4 C0.46394931 6.53605069 -1.46876556 6.79250373 -4.9375 7.625 C-5.99839844 7.88539063 -7.05929688 8.14578125 -8.15234375 8.4140625 C-11 9 -11 9 -14 9 C-14.33 7.68 -14.66 6.36 -15 5 C-14.00097656 4.72285156 -13.00195312 4.44570312 -11.97265625 4.16015625 C-10.66922209 3.79444451 -9.36583931 3.42854962 -8.0625 3.0625 C-7.40314453 2.88009766 -6.74378906 2.69769531 -6.06445312 2.50976562 C-2.76178827 1.77403899 -2.76178827 1.77403899 0 0 Z " fill="#211613" transform="translate(134,142)"/>
<path d="M0 0 C1.15518918 0.90484792 2.29885406 1.8244206 3.4375 2.75 C4.07558594 3.26046875 4.71367187 3.7709375 5.37109375 4.296875 C7 6 7 6 8 10 C4.37 10.33 0.74 10.66 -3 11 C-1.125 2.25 -1.125 2.25 0 0 Z " fill="#D5D7DC" transform="translate(124,60)"/>
<path d="M0 0 C0.33 1.65 0.66 3.3 1 5 C1.99 5 2.98 5 4 5 C4 6.32 4 7.64 4 9 C0.78571429 12 0.78571429 12 -2 12 C-2 10.35 -2 8.7 -2 7 C-3.32 7.33 -4.64 7.66 -6 8 C-6.33 6.35 -6.66 4.7 -7 3 C-2.25 0 -2.25 0 0 0 Z " fill="#66544D" transform="translate(114,29)"/>
<path d="M0 0 C0.66 0.33 1.32 0.66 2 1 C2 1.66 2 2.32 2 3 C2.78375 3.2475 3.5675 3.495 4.375 3.75 C7.32317108 5.15389099 7.9024777 6.00675737 9 9 C8.01 10.485 8.01 10.485 7 12 C3.875 12.1875 3.875 12.1875 1 12 C0.375 10.1875 0.375 10.1875 0 8 C0.66 7.01 1.32 6.02 2 5 C0.02 5.99 0.02 5.99 -2 7 C-2.33 6.01 -2.66 5.02 -3 4 C-1.5625 1.8125 -1.5625 1.8125 0 0 Z " fill="#AB2C04" transform="translate(136,133)"/>
<path d="M0 0 C0.33 0.66 0.66 1.32 1 2 C2.65 2 4.3 2 6 2 C6.33 4.97 6.66 7.94 7 11 C5.35 11 3.7 11 2 11 C2 9.68 2 8.36 2 7 C0.35 7.33 -1.3 7.66 -3 8 C-2.25 2.25 -2.25 2.25 0 0 Z " fill="#634B1E" transform="translate(148,45)"/>
<path d="M0 0 C1.8133922 3.20010388 2.52213974 6.13283843 3.125 9.75 C3.29257813 10.73484375 3.46015625 11.7196875 3.6328125 12.734375 C3.81457031 13.85585938 3.81457031 13.85585938 4 15 C2 15 2 15 0.4375 13.6875 C-1 12 -1 12 -2 9 C-2.99 8.67 -3.98 8.34 -5 8 C-6.1875 4.9375 -6.1875 4.9375 -7 2 C-4.69 2 -2.38 2 0 2 C0 1.34 0 0.68 0 0 Z " fill="#614C46" transform="translate(77,43)"/>
<path d="M0 0 C1.75215106 0.93347358 3.50163563 1.8719532 5.25 2.8125 C6.71179688 3.59560547 6.71179688 3.59560547 8.203125 4.39453125 C10.63355412 5.78965188 12.80787699 7.26195961 15 9 C14.34 10.32 13.68 11.64 13 13 C11.00744102 11.98418562 9.03120386 10.93630827 7.0625 9.875 C5.96035156 9.29492188 4.85820312 8.71484375 3.72265625 8.1171875 C1 6 1 6 0.12109375 2.7578125 C0.08113281 1.84773438 0.04117188 0.93765625 0 0 Z " fill="#060606" transform="translate(124,50)"/>
<path d="M0 0 C-0.57234375 0.25523438 -1.1446875 0.51046875 -1.734375 0.7734375 C-4.24173733 2.13087159 -6.1330456 3.71974104 -8.25 5.625 C-9.30960938 6.57246094 -9.30960938 6.57246094 -10.390625 7.5390625 C-10.92171875 8.02117187 -11.4528125 8.50328125 -12 9 C-16.875 4.25 -16.875 4.25 -18 2 C-11.92972642 -0.1583195 -6.40629424 -0.20852314 0 0 Z " fill="#1D1D1E" transform="translate(95,98)"/>
<path d="M0 0 C0.680625 0.185625 1.36125 0.37125 2.0625 0.5625 C5.57232191 1.08523943 8.52188063 0.61378577 12 0 C11 3 11 3 8.92578125 4.64453125 C5.3441089 6.3038641 2.06706349 6.55756247 -1.8125 6.6875 C-2.50537109 6.72166016 -3.19824219 6.75582031 -3.91210938 6.79101562 C-5.60752849 6.87286344 -7.30373458 6.93812365 -9 7 C-6.08596738 5.05731159 -3.14191424 3.53604696 0 2 C0 1.34 0 0.68 0 0 Z " fill="#352A26" transform="translate(83,22)"/>
<path d="M0 0 C2.55714925 0.98089122 3.3107984 2.07726144 4.796875 4.34765625 C5.22484375 4.98832031 5.6528125 5.62898438 6.09375 6.2890625 C6.40828125 6.78277344 6.7228125 7.27648437 7.046875 7.78515625 C6.716875 8.44515625 6.386875 9.10515625 6.046875 9.78515625 C-0.40464659 9.29824896 -0.40464659 9.29824896 -2.890625 6.97265625 C-3.953125 4.78515625 -3.953125 4.78515625 -3.953125 0.78515625 C-1.953125 -0.21484375 -1.953125 -0.21484375 0 0 Z " fill="#444345" transform="translate(118.953125,102.21484375)"/>
<path d="M0 0 C0.66 2.64 1.32 5.28 2 8 C0.35 8 -1.3 8 -3 8 C-3 8.99 -3 9.98 -3 11 C-3.61875 10.649375 -4.2375 10.29875 -4.875 9.9375 C-5.57625 9.628125 -6.2775 9.31875 -7 9 C-7.99 9.495 -7.99 9.495 -9 10 C-9 8.68 -9 7.36 -9 6 C-8.34 6 -7.68 6 -7 6 C-7 5.34 -7 4.68 -7 4 C-2.52941176 0 -2.52941176 0 0 0 Z " fill="#333437" transform="translate(118,95)"/>
<path d="M0 0 C0.99 0.33 1.98 0.66 3 1 C3 1.99 3 2.98 3 4 C3.99 4 4.98 4 6 4 C6.33 4.99 6.66 5.98 7 7 C7.515625 7.515625 8.03125 8.03125 8.5625 8.5625 C9.036875 9.036875 9.51125 9.51125 10 10 C10 10.66 10 11.32 10 12 C10.99 12.33 11.98 12.66 13 13 C13 14.32 13 15.64 13 17 C12.34 17 11.68 17 11 17 C10.34 16.01 9.68 15.02 9 14 C8.34 14 7.68 14 7 14 C7 12.68 7 11.36 7 10 C6.01 10 5.02 10 4 10 C3.67 8.35 3.34 6.7 3 5 C2.01 5 1.02 5 0 5 C0 3.35 0 1.7 0 0 Z " fill="#1A6A3C" transform="translate(111,24)"/>
<path d="M0 0 C2.25 1.8125 2.25 1.8125 4 5 C3.12998265 8.87157722 1.64114145 12.39580088 0 16 C-1.57554035 13.11371599 -2.46276373 10.46657616 -3.125 7.25 C-3.29257813 6.45078125 -3.46015625 5.6515625 -3.6328125 4.828125 C-3.75398438 4.22484375 -3.87515625 3.6215625 -4 3 C-2.68 2.01 -1.36 1.02 0 0 Z " fill="#898D99" transform="translate(121,55)"/>
<path d="M0 0 C0 3.3 0 6.6 0 10 C-2.31 11.32 -4.62 12.64 -7 14 C-7 12.35 -7 10.7 -7 9 C-6.01 8.67 -5.02 8.34 -4 8 C-4.061875 7.05125 -4.12375 6.1025 -4.1875 5.125 C-4.125625 4.09375 -4.06375 3.0625 -4 2 C-1 0 -1 0 0 0 Z " fill="#972703" transform="translate(101,67)"/>
<path d="M0 0 C0.375 2.6875 0.375 2.6875 0 6 C-1.81909559 8.11408407 -3.67537983 9.38699825 -6 11 C-6.33 11 -6.66 11 -7 11 C-7 9.02 -7 7.04 -7 5 C-8.32 4.67 -9.64 4.34 -11 4 C-9.6078125 3.566875 -9.6078125 3.566875 -8.1875 3.125 C-5.26107601 2.09214447 -3.05256861 0 0 0 Z " fill="#B5B2BA" transform="translate(102,86)"/>
<path d="M0 0 C1.05257541 3.97639598 1.12393312 7.02300587 0 11 C-3.1 14 -3.1 14 -6 14 C-5.49530712 11.14007365 -4.84455507 8.5595727 -3.875 5.8125 C-2.66974762 3.08323032 -2.66974762 3.08323032 -4 1 C-2 0 -2 0 0 0 Z " fill="#252629" transform="translate(118,59)"/>
<path d="M0 0 C1.65 0 3.3 0 5 0 C5.33 2.31 5.66 4.62 6 7 C4.35 7.33 2.7 7.66 1 8 C1 8.66 1 9.32 1 10 C-0.32 9.67 -1.64 9.34 -3 9 C-3 8.01 -3 7.02 -3 6 C-2.01 5.34 -1.02 4.68 0 4 C0 2.68 0 1.36 0 0 Z " fill="#2EB29D" transform="translate(108,10)"/>
<path d="M0 0 C3.16115776 1.36983503 3.9927092 1.9890638 6 5 C5.625 8.6875 5.625 8.6875 5 12 C2.06799526 9.14723863 -0.64315404 6.34920216 -3 3 C-2.01 2.01 -1.02 1.02 0 0 Z " fill="#C5C7CC" transform="translate(103,95)"/>
<path d="M0 0 C0.66 0.99 1.32 1.98 2 3 C2.680625 3.165 3.36125 3.33 4.0625 3.5 C5.0215625 3.7475 5.0215625 3.7475 6 4 C6.33 4.99 6.66 5.98 7 7 C7.66 7.66 8.32 8.32 9 9 C6 10 6 10 3 9 C2.67 8.01 2.34 7.02 2 6 C0.35 6.33 -1.3 6.66 -3 7 C-3.33 5.35 -3.66 3.7 -4 2 C-2.68 2 -1.36 2 0 2 C0 1.34 0 0.68 0 0 Z " fill="#4D3D37" transform="translate(93,57)"/>
<path d="M0 0 C0.33 1.65 0.66 3.3 1 5 C-2.37097383 6.49821059 -4.20442119 7 -8 7 C-8 5.02 -8 3.04 -8 1 C-5.10765685 0.17361624 -3.11257569 0 0 0 Z " fill="#0A2C26" transform="translate(108,10)"/>
<path d="M0 0 C0.66 0.33 1.32 0.66 2 1 C2 1.66 2 2.32 2 3 C2.66 3 3.32 3 4 3 C4.33 4.32 4.66 5.64 5 7 C4.34 7 3.68 7 3 7 C3 6.01 3 5.02 3 4 C1.68 4.33 0.36 4.66 -1 5 C-0.67 6.65 -0.34 8.3 0 10 C-0.66 10 -1.32 10 -2 10 C-2.33 9.34 -2.66 8.68 -3 8 C-3.99 8 -4.98 8 -6 8 C-5.8125 5.6875 -5.8125 5.6875 -5 3 C-2.5625 1.125 -2.5625 1.125 0 0 Z " fill="#211917" transform="translate(100,77)"/>
<path d="M0 0 C1.32 0 2.64 0 4 0 C4 1.65 4 3.3 4 5 C5.65 4.67 7.3 4.34 9 4 C9.33 5.32 9.66 6.64 10 8 C8.35 8.33 6.7 8.66 5 9 C5 8.01 5 7.02 5 6 C3.35 6 1.7 6 0 6 C-0.38218767 4.34385343 -0.71395102 2.67542976 -1 1 C-0.67 0.67 -0.34 0.34 0 0 Z " fill="#634B1D" transform="translate(96,12)"/>
<path d="M0 0 C0 3.99897642 -1.35316035 5.06701552 -4 8 C-5.63356951 9.37368345 -7.2925002 10.71937515 -9 12 C-10.32 10.02 -11.64 8.04 -13 6 C-12.154375 6.12375 -11.30875 6.2475 -10.4375 6.375 C-5.62045343 5.84950401 -3.34573155 3.32593432 0 0 Z " fill="#323337" transform="translate(107,117)"/>
<path d="M0 0 C1.32 0 2.64 0 4 0 C4.66 3.3 5.32 6.6 6 10 C4.68 10 3.36 10 2 10 C0.39644899 6.49223216 -0.22036864 3.85645121 0 0 Z " fill="#3E312D" transform="translate(85,43)"/>
<path d="M0 0 C2.5 2.3125 2.5 2.3125 5 5 C5 5.99 5 6.98 5 8 C4.01 8.66 3.02 9.32 2 10 C-2 5.375 -2 5.375 -2 2 C-1.34 2 -0.68 2 0 2 C0 1.34 0 0.68 0 0 Z " fill="#1D1E1E" transform="translate(110,103)"/>
<path d="M0 0 C0 1.65 0 3.3 0 5 C-0.99 5.495 -0.99 5.495 -2 6 C-2.65555119 8.52733235 -2.65555119 8.52733235 -3 11 C-4.65 10.67 -6.3 10.34 -8 10 C-8 8.68 -8 7.36 -8 6 C-6.68 6 -5.36 6 -4 6 C-4 4.68 -4 3.36 -4 2 C-1 0 -1 0 0 0 Z " fill="#BC2D00" transform="translate(97,70)"/>
<path d="M0 0 C0.66 0.66 1.32 1.32 2 2 C0.73841989 3.81895279 -0.53457906 5.6299902 -1.8125 7.4375 C-2.87404297 8.95150391 -2.87404297 8.95150391 -3.95703125 10.49609375 C-6 13 -6 13 -9 14 C-8.41827275 10.0479482 -6.44842259 7.77904947 -3.9375 4.75 C-3.20402344 3.85796875 -2.47054687 2.9659375 -1.71484375 2.046875 C-1.14894531 1.37140625 -0.58304688 0.6959375 0 0 Z " fill="#1F2023" transform="translate(102,124)"/>
<path d="M0 0 C0.33 1.32 0.66 2.64 1 4 C1.66 4 2.32 4 3 4 C3 4.99 3 5.98 3 7 C4.98 6.01 6.96 5.02 9 4 C9.24042276 8.08718695 8.42258812 11.17679443 7 15 C6.34 15 5.68 15 5 15 C5 12.69 5 10.38 5 8 C4.01 8 3.02 8 2 8 C2 7.01 2 6.02 2 5 C1.34 5 0.68 5 0 5 C0 3.35 0 1.7 0 0 Z " fill="#101113" transform="translate(103,65)"/>
<path d="M0 0 C0.66 0.33 1.32 0.66 2 1 C2 1.99 2 2.98 2 4 C2.66 4.33 3.32 4.66 4 5 C4 5.99 4 6.98 4 8 C4.66 8.33 5.32 8.66 6 9 C6.625 11.5625 6.625 11.5625 7 14 C6.34 14 5.68 14 5 14 C4.896875 13.360625 4.79375 12.72125 4.6875 12.0625 C4.460625 11.381875 4.23375 10.70125 4 10 C3.01 9.67 2.02 9.34 1 9 C1 8.01 1 7.02 1 6 C0.01 6 -0.98 6 -2 6 C-2 5.01 -2 4.02 -2 3 C-1.34 3 -0.68 3 0 3 C0 2.01 0 1.02 0 0 Z " fill="#50413C" transform="translate(116,22)"/>
<path d="M0 0 C2.475 0.99 2.475 0.99 5 2 C3.02 4.97 3.02 4.97 1 8 C-0.32 7.34 -1.64 6.68 -3 6 C-1.125 1.125 -1.125 1.125 0 0 Z " fill="#3A3A3C" transform="translate(93,127)"/>
<path d="M0 0 C2.75383923 1.37691962 3.51483101 3.36720042 5 6 C3.68 7.32 2.36 8.64 1 10 C0.01 9.34 -0.98 8.68 -2 8 C-1.47731534 5.23723823 -0.89130413 2.6739124 0 0 Z " fill="#4F4E50" transform="translate(84,110)"/>
<path d="M0 0 C3 2 3 2 4 5 C4.03954234 7.33299825 4.04401732 9.66708189 4 12 C3.7525 11.38125 3.505 10.7625 3.25 10.125 C2.18261901 7.84456841 2.18261901 7.84456841 -0.0625 7.0625 C-0.701875 6.711875 -1.34125 6.36125 -2 6 C-2.75 3.375 -2.75 3.375 -3 1 C-2.01 0.67 -1.02 0.34 0 0 Z " fill="#372C28" transform="translate(66,35)"/>
<path d="M0 0 C0.33 1.32 0.66 2.64 1 4 C-3.455 4.495 -3.455 4.495 -8 5 C-7.67 3.68 -7.34 2.36 -7 1 C-4.53721199 -0.231394 -2.7204945 -0.07159196 0 0 Z " fill="#2CCEB6" transform="translate(130,6)"/>
<path d="M0 0 C3.19199167 2.41556126 5.74716687 4.68003538 8 8 C7.34 9.32 6.68 10.64 6 12 C4.8001722 10.57277341 3.6154424 9.13284224 2.4375 7.6875 C1.77621094 6.88699219 1.11492187 6.08648437 0.43359375 5.26171875 C-0.27603516 4.14216797 -0.27603516 4.14216797 -1 3 C-0.67 2.01 -0.34 1.02 0 0 Z " fill="#0D0E0F" transform="translate(105,122)"/>
<path d="M0 0 C0.99 0.495 0.99 0.495 2 1 C2 1.99 2 2.98 2 4 C3.32 4.33 4.64 4.66 6 5 C6 6.32 6 7.64 6 9 C5.34 9 4.68 9 4 9 C4.33 10.32 4.66 11.64 5 13 C4.34 13 3.68 13 3 13 C2.49487756 11.39743892 1.99608373 9.79288208 1.5 8.1875 C1.2215625 7.29417969 0.943125 6.40085937 0.65625 5.48046875 C0 3 0 3 0 0 Z " fill="#382C28" transform="translate(70,47)"/>
<path d="M0 0 C0.99 0 1.98 0 3 0 C3.33 2.31 3.66 4.62 4 7 C6.475 7.99 6.475 7.99 9 9 C6 10 6 10 4.2109375 9.109375 C3.60507813 8.66078125 2.99921875 8.2121875 2.375 7.75 C1.76398438 7.31171875 1.15296875 6.8734375 0.5234375 6.421875 C-1 5 -1 5 -2 2 C-1.34 2 -0.68 2 0 2 C0 1.34 0 0.68 0 0 Z " fill="#1D170C" transform="translate(140,34)"/>
<path d="M0 0 C0.99 0.33 1.98 0.66 3 1 C3 3.31 3 5.62 3 8 C1.68 8 0.36 8 -1 8 C-1.33 5.69 -1.66 3.38 -2 1 C-1.34 0.67 -0.68 0.34 0 0 Z " fill="#A42C06" transform="translate(61,130)"/>
<path d="M0 0 C1.32 0.66 2.64 1.32 4 2 C2.25 6.875 2.25 6.875 0 8 C-0.99 7.34 -1.98 6.68 -3 6 C-1.125 1.125 -1.125 1.125 0 0 Z " fill="#4C4B4D" transform="translate(89,124)"/>
<path d="M0 0 C2.97 0.495 2.97 0.495 6 1 C6 2.65 6 4.3 6 6 C3.03 5.505 3.03 5.505 0 5 C0 3.35 0 1.7 0 0 Z " fill="#B02B02" transform="translate(74,73)"/>
<path d="M0 0 C0 1.32 0 2.64 0 4 C-3.21428571 7 -3.21428571 7 -6 7 C-6 5.02 -6 3.04 -6 1 C-4 0 -4 0 0 0 Z " fill="#5A4944" transform="translate(118,34)"/>
<path d="M0 0 C1.98 0 3.96 0 6 0 C6 2.31 6 4.62 6 7 C4.125 6.875 4.125 6.875 2 6 C0.75 2.9375 0.75 2.9375 0 0 Z " fill="#4E3D37" transform="translate(70,45)"/>
<path d="M0 0 C1.32 0.66 2.64 1.32 4 2 C2.7260411 4.03833424 1.38938077 6.03852126 0 8 C-0.66 8 -1.32 8 -2 8 C-2.6875 5.6875 -2.6875 5.6875 -3 3 C-1.5625 1.1875 -1.5625 1.1875 0 0 Z " fill="#9F2600" transform="translate(138,144)"/>
<path d="M0 0 C1.32 0.99 2.64 1.98 4 3 C-0.625 7 -0.625 7 -4 7 C-4 6.34 -4 5.68 -4 5 C-4.66 4.67 -5.32 4.34 -6 4 C-5.195625 3.525625 -4.39125 3.05125 -3.5625 2.5625 C-1.15246512 1.23099846 -1.15246512 1.23099846 0 0 Z " fill="#DCDBDB" transform="translate(101,117)"/>
<path d="M0 0 C2.62187494 1.04874998 3.79371361 1.64931313 5.25 4.125 C5.4975 4.74375 5.745 5.3625 6 6 C4.1875 6.6875 4.1875 6.6875 2 7 C0.1875 5.8125 0.1875 5.8125 -1 4 C-0.6875 1.8125 -0.6875 1.8125 0 0 Z " fill="#151618" transform="translate(109,116)"/>
<path d="M0 0 C0.66 0.33 1.32 0.66 2 1 C2 1.66 2 2.32 2 3 C2.99 3.33 3.98 3.66 5 4 C4.67 4.99 4.34 5.98 4 7 C3.34 6.34 2.68 5.68 2 5 C0.02 5.99 0.02 5.99 -2 7 C-2.33 6.01 -2.66 5.02 -3 4 C-1.5625 1.8125 -1.5625 1.8125 0 0 Z " fill="#2E1B15" transform="translate(136,133)"/>
<path d="M0 0 C0.99 0.99 1.98 1.98 3 3 C1.95125002 5.62187494 1.35068687 6.79371361 -1.125 8.25 C-1.74375 8.4975 -2.3625 8.745 -3 9 C-3.33 7.68 -3.66 6.36 -4 5 C-3.01 4.34 -2.02 3.68 -1 3 C-0.67 2.01 -0.34 1.02 0 0 Z " fill="#D3D5D9" transform="translate(109,109)"/>
<path d="M0 0 C0.99 0.33 1.98 0.66 3 1 C0.66153846 7.52307692 0.66153846 7.52307692 -2.6875 9.9375 C-3.450625 10.288125 -4.21375 10.63875 -5 11 C-4.39479338 7.6108429 -3.08699255 5.69569871 -1 3 C-0.67 2.01 -0.34 1.02 0 0 Z " fill="#060607" transform="translate(113,61)"/>
<path d="M0 0 C0.66 0 1.32 0 2 0 C2 0.66 2 1.32 2 2 C2.66 2 3.32 2 4 2 C4.33 3.32 4.66 4.64 5 6 C5.66 6 6.32 6 7 6 C6.67 8.31 6.34 10.62 6 13 C5.67 11.68 5.34 10.36 5 9 C4.34 9 3.68 9 3 9 C2.01 6.03 1.02 3.06 0 0 Z " fill="#625956" transform="translate(118,42)"/>
<path d="M0 0 C2 3 2 3 2 7 C2.66 7.33 3.32 7.66 4 8 C3.01 8 2.02 8 1 8 C0.67 8.99 0.34 9.98 0 11 C-0.66 11 -1.32 11 -2 11 C-2 9.35 -2 7.7 -2 6 C-1.34 6 -0.68 6 0 6 C0 4.02 0 2.04 0 0 Z " fill="#0C0C0D" transform="translate(118,64)"/>
<path d="M0 0 C0.99 0.33 1.98 0.66 3 1 C3 1.66 3 2.32 3 3 C3.66 3.33 4.32 3.66 5 4 C4.34 4 3.68 4 3 4 C3 4.66 3 5.32 3 6 C1.68 6 0.36 6 -1 6 C-1.33 4.35 -1.66 2.7 -2 1 C-1.34 0.67 -0.68 0.34 0 0 Z " fill="#4C3C36" transform="translate(76,55)"/>
<path d="M0 0 C1.32 0.33 2.64 0.66 4 1 C4 1.66 4 2.32 4 3 C4.66 3 5.32 3 6 3 C6 3.66 6 4.32 6 5 C2.71023192 6.09658936 1.28696233 5.79953138 -2 5 C-1.34 3.35 -0.68 1.7 0 0 Z " fill="#393122" transform="translate(134,31)"/>
<path d="M0 0 C0.99 0.33 1.98 0.66 3 1 C3 1.99 3 2.98 3 4 C3.99 4 4.98 4 6 4 C6 5.65 6 7.3 6 9 C5.34 9 4.68 9 4 9 C3.67 7.68 3.34 6.36 3 5 C2.01 5 1.02 5 0 5 C0 3.35 0 1.7 0 0 Z " fill="#1A884B" transform="translate(111,24)"/>
<path d="M0 0 C0.66 0 1.32 0 2 0 C2.29296875 6.0546875 2.29296875 6.0546875 2 8 C1.01 8.66 0.02 9.32 -1 10 C-1.02689216 8.52093108 -1.04634621 7.04172517 -1.0625 5.5625 C-1.07410156 4.73878906 -1.08570312 3.91507812 -1.09765625 3.06640625 C-1 1 -1 1 0 0 Z " fill="#18191B" transform="translate(115,75)"/>
<path d="M0 0 C0 1.98 0 3.96 0 6 C-1.65 6 -3.3 6 -5 6 C-5 4.35 -5 2.7 -5 1 C-1.125 0 -1.125 0 0 0 Z " fill="#4B3816" transform="translate(155,50)"/>
<path d="M0 0 C0.33 0.66 0.66 1.32 1 2 C2.65 1.67 4.3 1.34 6 1 C4.13117747 4.73764507 -0.34287996 6.23916443 -4 8 C-2.87548273 5.0280615 -1.77706209 2.66559313 0 0 Z " fill="#311811" transform="translate(72,113)"/>
<path d="M0 0 C1.46726798 3.81489674 0.43336419 6.29011622 -1 10 C-1.66 9.67 -2.32 9.34 -3 9 C-3.625 5.9375 -3.625 5.9375 -4 3 C-2.68 2.01 -1.36 1.02 0 0 Z " fill="#1E1F22" transform="translate(115,71)"/>
<path d="M0 0 C1.65 0 3.3 0 5 0 C5.66 1.98 6.32 3.96 7 6 C3.75728494 5.4409112 2.06942576 4.5867822 0 2 C0 1.34 0 0.68 0 0 Z " fill="#433D30" transform="translate(143,37)"/>
<path d="M0 0 C0.721875 0.103125 1.44375 0.20625 2.1875 0.3125 C-2.12019231 5.23557692 -2.12019231 5.23557692 -5.625 5.625 C-6.7078125 5.4703125 -6.7078125 5.4703125 -7.8125 5.3125 C-3.50480769 0.38942308 -3.50480769 0.38942308 0 0 Z " fill="#CA3305" transform="translate(97.8125,66.6875)"/>
<path d="M0 0 C1.32 0 2.64 0 4 0 C4 1.98 4 3.96 4 6 C2.68 6 1.36 6 0 6 C0 4.02 0 2.04 0 0 Z " fill="#2C220D" transform="translate(100,11)"/>
<path d="M0 0 C2 2 2 2 2 6 C0.68 6 -0.64 6 -2 6 C-2.33 4.35 -2.66 2.7 -3 1 C-2.01 0.67 -1.02 0.34 0 0 Z " fill="#55433D" transform="translate(97,41)"/>
<path d="M0 0 C1.65 0 3.3 0 5 0 C5 1.65 5 3.3 5 5 C3.35 4.67 1.7 4.34 0 4 C0 2.68 0 1.36 0 0 Z " fill="#29C0A9" transform="translate(108,10)"/>
<path d="M0 0 C0.99 0 1.98 0 3 0 C3.33 3.3 3.66 6.6 4 10 C3.34 10 2.68 10 2 10 C1.34 6.7 0.68 3.4 0 0 Z " fill="#333F56" transform="translate(115,43)"/>
<path d="M0 0 C1.65 0 3.3 0 5 0 C5 0.99 5 1.98 5 3 C5.99 3.33 6.98 3.66 8 4 C5.69 4 3.38 4 1 4 C0.67 2.68 0.34 1.36 0 0 Z " fill="#4B381A" transform="translate(96,18)"/>
<path d="M0 0 C0.33 0.66 0.66 1.32 1 2 C2.32 2 3.64 2 5 2 C5.33 1.34 5.66 0.68 6 0 C6.33 1.32 6.66 2.64 7 4 C3.37 3.67 -0.26 3.34 -4 3 C-2.68 2.67 -1.36 2.34 0 2 C0 1.34 0 0.68 0 0 Z " fill="#352521" transform="translate(89,62)"/>
<path d="M0 0 C0 0.66 0 1.32 0 2 C-1.32 2 -2.64 2 -4 2 C-4 2.99 -4 3.98 -4 5 C-4.99 5 -5.98 5 -7 5 C-7.33 3.68 -7.66 2.36 -8 1 C-5.10765685 0.17361624 -3.11257569 0 0 0 Z " fill="#372B28" transform="translate(93,57)"/>
<path d="M0 0 C1.32 0 2.64 0 4 0 C4.33 1.65 4.66 3.3 5 5 C3.35 4.67 1.7 4.34 0 4 C0 2.68 0 1.36 0 0 Z " fill="#7B6159" transform="translate(98,35)"/>
<path d="M0 0 C0.66 0.33 1.32 0.66 2 1 C2 1.99 2 2.98 2 4 C3.65 4 5.3 4 7 4 C6.360625 4.103125 5.72125 4.20625 5.0625 4.3125 C4.381875 4.539375 3.70125 4.76625 3 5 C2.67 5.99 2.34 6.98 2 8 C2 7.01 2 6.02 2 5 C1.01 4.67 0.02 4.34 -1 4 C-0.67 2.68 -0.34 1.36 0 0 Z " fill="#5D4933" transform="translate(120,26)"/>
<path d="M0 0 C0.66 0.33 1.32 0.66 2 1 C-1.625 5.875 -1.625 5.875 -5 7 C-4.60196439 4.11424181 -4.20990931 3.17810487 -1.9375 1.25 C-1.298125 0.8375 -0.65875 0.425 0 0 Z " fill="#0E0F10" transform="translate(98,131)"/>
<path d="M0 0 C0 1.98 0 3.96 0 6 C-1.32 5.67 -2.64 5.34 -4 5 C-4 3.68 -4 2.36 -4 1 C-1 0 -1 0 0 0 Z " fill="#B73006" transform="translate(78,124)"/>
<path d="M0 0 C2 0 2 0 3.5625 1.1875 C5.32681541 3.4120716 5.62403791 5.21788056 6 8 C5.34 8 4.68 8 4 8 C3.896875 7.360625 3.79375 6.72125 3.6875 6.0625 C3.460625 5.381875 3.23375 4.70125 3 4 C2.01 3.67 1.02 3.34 0 3 C0 2.01 0 1.02 0 0 Z " fill="#372F2A" transform="translate(117,28)"/>
<path d="M0 0 C-1.28965176 1.37562854 -2.62689293 2.70766393 -4 4 C-4.66 4 -5.32 4 -6 4 C-6.33 4.66 -6.66 5.32 -7 6 C-7 5.34 -7 4.68 -7 4 C-7.66 3.67 -8.32 3.34 -9 3 C-6.38997624 -0.48003168 -4.1689578 -0.27793052 0 0 Z " fill="#483833" transform="translate(101,22)"/>
<path d="M0 0 C0.99 0.33 1.98 0.66 3 1 C3 2.32 3 3.64 3 5 C1.68 5.33 0.36 5.66 -1 6 C-0.67 4.02 -0.34 2.04 0 0 Z " fill="#CF3809" transform="translate(60,125)"/>
<path d="M0 0 C2.5 1.75 2.5 1.75 5 4 C5 5.32 5 6.64 5 8 C4.01 7.67 3.02 7.34 2 7 C0.8125 3.4375 0.8125 3.4375 0 0 Z " fill="#3B393B" transform="translate(117,114)"/>
<path d="M0 0 C0.33 1.32 0.66 2.64 1 4 C-0.98 4.99 -0.98 4.99 -3 6 C-3.33 4.68 -3.66 3.36 -4 2 C-2.68 1.34 -1.36 0.68 0 0 Z " fill="#B2340C" transform="translate(97,84)"/>
<path d="M0 0 C0.66 0 1.32 0 2 0 C3.35439668 2.70879335 3.06501451 5.00933268 3 8 C2.34 8 1.68 8 1 8 C0.67 5.36 0.34 2.72 0 0 Z " fill="#2E3951" transform="translate(110,48)"/>
<path d="M0 0 C1.65 0 3.3 0 5 0 C5.84454356 3.37817425 6.10844919 5.67465243 5 9 C4.731875 7.88625 4.46375 6.7725 4.1875 5.625 C3.34190981 1.78159049 3.34190981 1.78159049 0 0 Z " fill="#5F4C46" transform="translate(98,24)"/>
<path d="M0 0 C-0.33 0.99 -0.66 1.98 -1 3 C-2.98 3.33 -4.96 3.66 -7 4 C-7 3.01 -7 2.02 -7 1 C-2.25 0 -2.25 0 0 0 Z " fill="#2C221F" transform="translate(95,22)"/>
<path d="M0 0 C0.99 0 1.98 0 3 0 C3.33 1.98 3.66 3.96 4 6 C3.01 6 2.02 6 1 6 C1 5.01 1 4.02 1 3 C0.01 2.67 -0.98 2.34 -2 2 C-1.34 2 -0.68 2 0 2 C0 1.34 0 0.68 0 0 Z " fill="#5E5D53" transform="translate(109,18)"/>
<path d="M0 0 C1.98 0.495 1.98 0.495 4 1 C4 1.99 4 2.98 4 4 C2.35 4 0.7 4 -1 4 C-0.67 2.68 -0.34 1.36 0 0 Z " fill="#31E5CB" transform="translate(127,6)"/>
<path d="M0 0 C2.64 0.33 5.28 0.66 8 1 C6.68 1.33 5.36 1.66 4 2 C4 2.66 4 3.32 4 4 C2.68 4 1.36 4 0 4 C0 2.68 0 1.36 0 0 Z " fill="#DA3704" transform="translate(77,83)"/>
<path d="M0 0 C1.65 0 3.3 0 5 0 C4.67 1.65 4.34 3.3 4 5 C3.34 5 2.68 5 2 5 C1.34 3.35 0.68 1.7 0 0 Z " fill="#1A100C" transform="translate(74,64)"/>
<path d="M0 0 C0.66 1.32 1.32 2.64 2 4 C0.35 4.33 -1.3 4.66 -3 5 C-3 3.68 -3 2.36 -3 1 C-2.01 0.67 -1.02 0.34 0 0 Z " fill="#83672C" transform="translate(104,16)"/>
</svg>
